<svg width="200" height="61" viewBox="0 0 200 61" fill="none" xmlns="http://www.w3.org/2000/svg">
<g clip-path="url(#clip0_1_9649)">
<path d="M28.6596 47.2285H33.2605C33.7464 47.2285 34.129 46.8459 34.129 46.1842V25.2271H46.2256C46.7942 25.2271 47.0837 24.8446 47.0837 24.1725V19.582C47.0837 19.0134 46.7012 18.7239 46.1222 18.7239H15.4154C14.9295 18.7239 14.5469 19.0134 14.5469 19.489V24.2759C14.5469 24.8446 14.8364 25.2271 15.4154 25.2271H27.512V46.1842C27.6981 46.9493 27.9876 47.2285 28.6493 47.2285H28.6596Z" fill="#01C4D5"/>
<path d="M26.3541 0.258545C26.5402 0.258545 26.6436 0.361935 26.6436 0.641087V4.65261C26.6436 5.12821 26.3541 5.22126 26.0646 5.31431C20.2645 6.4484 15.0374 9.55903 11.2743 14.1159C7.51111 18.6728 5.44493 24.3938 5.42796 30.3036V30.3967C5.43572 36.2965 7.501 42.0089 11.268 46.5496C15.0349 51.0904 20.2676 54.1751 26.0646 55.2723C26.3541 55.2723 26.6436 55.3653 26.6436 55.9443V59.9558C26.6436 60.1523 26.5402 60.2453 26.5402 60.2453C26.4471 60.3487 26.261 60.3487 26.1576 60.3487C18.9761 59.2633 12.4253 55.6287 7.70368 50.1097C2.98207 44.5907 0.405236 37.5563 0.444566 30.2933C0.440069 23.042 3.02977 16.0282 7.7456 10.5198C12.4614 5.01137 18.9922 1.37167 26.1576 0.258545H26.3541ZM35.5661 0.258545C35.6695 0.258545 35.6695 0.258545 35.7625 0.361935C42.9406 1.44681 49.4885 5.07845 54.2097 10.5931C58.9308 16.1078 61.5099 23.1372 61.4756 30.3967C61.5224 37.648 58.9469 44.6719 54.2236 50.1742C49.5003 55.6764 42.9476 59.2862 35.7729 60.3384H35.5764C35.2869 60.3384 35.1939 60.2453 35.1939 60.0489V56.0374C35.1939 55.5618 35.4834 55.4584 35.7729 55.3653C41.5656 54.2277 46.7853 51.1183 50.544 46.5661C54.3026 42.0139 56.368 36.3 56.3888 30.3967V30.2002C56.3877 24.2916 54.3294 18.5677 50.5675 14.0114C46.8055 9.45518 41.5745 6.35087 35.7729 5.2316C35.4834 5.2316 35.1939 5.12821 35.1939 4.55956V0.548036C35.1939 0.351596 35.2973 0.258545 35.5764 0.258545H35.5661Z" fill="#01C4D5"/>
<path d="M77.2218 55.1791C78.5659 55.1791 78.9484 56.0372 78.9484 57.2779V57.5674C78.9484 58.4255 78.752 59.0975 78.173 59.4801L78.659 60.2452L78.2764 60.4313L77.7905 59.5731C77.6044 59.6765 77.4079 59.6765 77.2218 59.6765C75.9708 59.6765 75.4952 58.8081 75.4952 57.5674V57.2779C75.4952 56.0372 75.8778 55.1791 77.2218 55.1791ZM130.674 55.1791V58.136C130.674 59.0045 130.871 59.2837 131.729 59.2837C132.597 59.2837 132.784 59.0045 132.784 58.1464V55.1687H133.176V58.136C133.176 59.2837 132.69 59.7696 131.636 59.7696C130.767 59.7696 130.292 59.2837 130.292 58.136V55.1791H130.674ZM80.7681 55.1791V58.136C80.7681 59.0045 80.9645 59.2837 81.8227 59.2837C82.6912 59.2837 82.8773 59.0045 82.8773 58.1464V55.1687H83.2598V58.136C83.2598 59.2837 82.7842 59.7696 81.7296 59.7696C80.8612 59.7696 80.3856 59.2837 80.3856 58.136V55.1791H80.7681ZM172.713 55.1791C173.385 55.1791 173.953 55.4582 174.243 56.2233L173.767 56.3267C173.664 55.8408 173.188 55.6547 172.806 55.6547C172.134 55.6547 171.751 55.9442 171.751 56.3267C171.751 56.8023 172.134 56.8953 172.806 57.1848C173.767 57.4743 174.346 57.6604 174.346 58.5289C174.346 59.4801 173.478 59.7696 172.806 59.7696C171.751 59.6662 171.276 59.2836 170.986 58.5289L171.462 58.4255C171.658 59.0975 172.041 59.2837 172.713 59.2837C173.188 59.2837 173.767 59.0975 173.767 58.4255C173.767 57.8569 173.188 57.6604 172.62 57.4743C171.751 57.1848 171.172 57.0918 171.172 56.2336C171.172 55.5616 171.751 55.1791 172.713 55.1791ZM195.934 55.1791L197.278 57.2779L198.622 55.1791H199.108L197.568 57.6604V59.6662H197.185V57.6604H196.989L195.458 55.1791H195.934ZM91.8101 55.1791L93.1542 57.2779L94.4983 55.1791H94.9739L93.4334 57.6604V59.6662H93.0508V57.6604H92.8647L91.3242 55.1791H91.8101ZM194.404 55.2721V55.6547H192.956V59.6662H192.574V55.6547H191.137V55.2721H194.404ZM118.102 55.1687C119.446 55.1687 119.829 56.0372 119.829 57.2779V57.5674C119.829 58.8081 119.353 59.6662 118.102 59.6662C116.861 59.6662 116.376 58.8081 116.376 57.5674V57.2779C116.376 56.0372 116.758 55.1791 118.102 55.1791V55.1687ZM146.514 55.1687L147.858 57.2779L149.202 55.1791H149.677L148.147 57.6604V59.6662H147.754V57.6604H147.568L146.028 55.1791H146.514V55.1687ZM189.7 55.1687V59.6662H189.317V55.1791H189.7V55.1687ZM177.51 55.1687C178.275 55.1687 178.854 55.5616 178.854 56.4094C178.854 57.2779 178.275 57.6604 177.51 57.6604H176.269V59.6662H175.876V55.1791H177.51V55.1687ZM123.096 55.1687C123.861 55.1687 124.44 55.5616 124.44 56.3267C124.44 56.9884 124.057 57.3709 123.478 57.464L124.533 59.5731H124.057L123.003 57.5674H121.752V59.6662H121.369V55.1791H123.096V55.1687ZM163.79 55.1687C164.555 55.1687 165.134 55.5616 165.134 56.3267C165.134 56.9884 164.741 57.3709 164.173 57.464L165.227 59.5731H164.741L163.687 57.5674H162.446V59.6662H162.064V55.1791H163.79V55.1687ZM186.339 55.1687C187.105 55.1687 187.684 55.5616 187.684 56.3267C187.684 56.9884 187.301 57.3709 186.722 57.464L187.777 59.5731H187.301L186.246 57.5674H185.006V59.6662H184.613V55.1791H186.339V55.1687ZM104.382 55.1687C105.726 55.1687 106.109 56.0372 106.109 57.2779V57.5674C106.109 58.8081 105.623 59.6662 104.382 59.6662C103.038 59.6662 102.656 58.8081 102.656 57.5674V57.2779C102.656 56.0372 103.038 55.1791 104.382 55.1791V55.1687ZM90.2696 55.2721V55.6547H88.8222V59.6662H88.45V55.6547H87.0025V55.2721H90.2696ZM85.5654 55.1687V59.6662H85.1828V55.1791H85.5654V55.1687ZM140.176 55.1687V59.6662H139.793V55.1791H140.176V55.1687ZM144.973 55.2721V55.6547H143.536V59.6662H143.154V55.6547H141.706V55.2721H144.973ZM159.272 55.1687C160.047 55.1687 160.616 55.5616 160.616 56.4094C160.616 57.2779 160.047 57.6604 159.272 57.6604H158.031V59.6662H157.649V55.1791H159.272V55.1687ZM168.101 55.1687C169.446 55.1687 169.828 56.0372 169.828 57.2779V57.5674C169.828 58.8081 169.352 59.6662 168.101 59.6662C166.757 59.6662 166.375 58.8081 166.375 57.5674V57.2779C166.375 56.0372 166.757 55.1791 168.101 55.1791V55.1687ZM113.78 55.1687C114.556 55.1687 115.125 55.5616 115.125 56.4094C115.125 57.2779 114.556 57.6604 113.78 57.6604H112.54V59.6662H112.147V55.1791H113.78V55.1687ZM135.575 55.1687L137.581 58.8081V55.1687H137.974V59.6662H137.684L135.472 55.6547V59.6662H135.089V55.1791H135.575V55.1687ZM109.273 55.1687C110.038 55.1687 110.617 55.5616 110.617 56.4094C110.617 57.2779 110.038 57.6604 109.273 57.6604H108.032V59.6662H107.639V55.1791H109.273V55.1687ZM128.855 55.2721V55.6547H127.407V59.6662H127.025V55.6547H125.588V55.2721H128.855ZM74.1512 55.1687V55.5616H71.9386V56.9057H73.9547V57.2779H71.9386V59.0976H74.1512V59.4801H71.463V55.1791H74.1512V55.1687ZM182.979 55.1687V55.5616H180.777V56.9057H182.793V57.2779H180.777V59.0976H182.979V59.4801H180.291V55.1791H182.979V55.1687ZM168.101 55.5616C167.047 55.5616 166.861 56.2233 166.861 57.2779V57.5674C166.861 58.5186 167.15 59.2837 168.101 59.2837C169.063 59.2837 169.353 58.5186 169.353 57.5674V57.2779C169.353 56.2233 169.156 55.5616 168.112 55.5616H168.101ZM118.102 55.5616C117.048 55.5616 116.861 56.2233 116.861 57.2779V57.5674C116.861 58.5186 117.141 59.2837 118.102 59.2837C119.064 59.2837 119.343 58.5186 119.343 57.5674V57.2779C119.343 56.2233 119.157 55.5616 118.102 55.5616ZM77.2218 55.5616C76.1673 55.5616 75.9708 56.2233 75.9708 57.2779V57.5674C75.9708 58.5186 76.2603 59.2837 77.2115 59.2837C78.173 59.2837 78.4625 58.5186 78.4625 57.5674V57.2779C78.4625 56.2233 78.2764 55.5616 77.2218 55.5616ZM104.382 55.5616C103.328 55.5616 103.131 56.2233 103.131 57.2779V57.5674C103.131 58.5186 103.421 59.2837 104.372 59.2837C105.344 59.2837 105.623 58.5186 105.623 57.5674V57.2779C105.623 56.2233 105.437 55.5616 104.382 55.5616ZM153.42 56.9057C153.803 56.9057 154.185 57.1848 154.185 57.6604C154.185 58.043 153.896 58.4255 153.42 58.4255C153.268 58.4302 153.117 58.3876 152.99 58.3036C152.862 58.2195 152.764 58.0982 152.708 57.9561C152.67 57.8622 152.652 57.7616 152.655 57.6604C152.655 57.1848 153.038 56.8953 153.42 56.8953V56.9057ZM98.8096 56.9057C99.1922 56.9057 99.5851 57.1848 99.5851 57.6604C99.5851 58.043 99.2956 58.4255 98.8096 58.4255C98.334 58.4255 98.0445 58.136 98.0445 57.6604C98.0445 57.1848 98.4271 56.8953 98.8096 56.8953V56.9057ZM109.366 55.5616H108.022V57.2779H109.366C109.945 57.2779 110.234 56.9884 110.234 56.4197C110.234 55.9442 109.945 55.5616 109.366 55.5616ZM113.884 55.5616H112.54V57.2779H113.884C114.453 57.2779 114.742 56.9884 114.742 56.4197C114.742 55.9442 114.453 55.5616 113.884 55.5616ZM159.272 55.5616H158.031V57.2779H159.272C159.851 57.2779 160.14 56.9884 160.14 56.4197C160.14 55.9442 159.851 55.5616 159.272 55.5616ZM177.51 55.5616H176.269V57.2779H177.51C178.089 57.2779 178.378 56.9884 178.378 56.4197C178.378 55.9442 178.089 55.5616 177.51 55.5616ZM123.096 55.6547H121.752V57.1848H123.096C123.665 57.1848 123.954 56.8953 123.954 56.4197C123.954 55.9442 123.665 55.6547 123.096 55.6547ZM163.79 55.6547H162.446V57.1848H163.79C164.359 57.1848 164.648 56.8953 164.648 56.4197C164.648 55.9442 164.359 55.6547 163.79 55.6547ZM186.339 55.6547H184.995V57.1848H186.339C186.918 57.1848 187.208 56.8953 187.208 56.4197C187.208 55.9442 186.918 55.6547 186.339 55.6547ZM183.548 33.8394C184.892 33.8394 186.05 34.315 186.443 35.7521L185.471 35.8555C185.192 34.894 184.416 34.6045 183.558 34.6045C182.214 34.6045 181.542 35.0801 181.542 35.9486C181.542 36.8998 182.307 37.1892 183.651 37.5718C185.481 38.1404 186.536 38.523 186.536 40.2496C186.536 42.0692 184.809 42.6379 183.558 42.6379C181.542 42.6379 180.581 41.8728 180.105 40.3426L181.067 40.2392C181.449 41.4903 182.204 41.8728 183.548 41.8728C184.416 41.8728 185.667 41.5833 185.667 40.2496C185.667 39.102 184.52 38.8125 183.362 38.4299C181.739 37.9543 180.674 37.5718 180.674 35.9486C180.674 34.7079 181.739 33.8394 183.558 33.8394H183.548ZM172.516 33.8394V39.5775C172.516 41.3042 172.909 41.8728 174.636 41.8728C176.362 41.8728 176.745 41.3042 176.745 39.5775V33.8394H177.51V39.5775C177.51 41.8728 176.641 42.6379 174.532 42.6379C172.516 42.6379 171.658 41.8728 171.658 39.5775V33.8394H172.516ZM112.726 33.8394V39.5775C112.726 41.3042 113.108 41.8728 114.835 41.8728C116.572 41.8728 116.955 41.3042 116.955 39.5775V33.8394H117.72V39.5775C117.72 41.8728 116.851 42.6379 114.742 42.6379C112.726 42.6379 111.868 41.8728 111.868 39.5775V33.8394H112.726ZM83.2598 33.736C85.8549 33.736 86.62 35.4626 86.62 37.8613V38.4299C86.62 40.8182 85.7618 42.6379 83.2598 42.6379C80.8612 42.6379 80.003 40.9216 80.003 38.4299V37.9543C80.003 35.5557 80.6751 33.7464 83.2598 33.7464V33.736ZM131.253 33.8394V42.5448H130.385V33.8394H131.253ZM101.787 33.8394L104.579 41.3972L107.35 33.8394H108.601V42.5448H107.732V35.0801L104.951 42.5448H104.093L101.301 35.0801V42.5448H100.536V33.8394H101.787ZM166.096 33.8394C167.626 33.8394 168.68 34.5114 168.68 36.1347C168.68 37.3753 167.915 38.1404 166.861 38.4299L168.774 42.5448H167.812L165.992 38.523H163.594V42.5448H162.736V33.8394H166.096ZM194.786 34.6975H191.995V42.5448H191.137V34.6975H188.449V33.9325H194.786V34.6975ZM139.886 34.6975H137.105V42.5448H136.237V34.6975H133.549V33.9325H139.886V34.6975ZM90.4661 33.8394L93.2473 41.3972L96.0284 33.8394H97.2691V42.5448H96.411V35.0801L93.6298 42.5448H92.7613L89.9801 35.0801V42.5448H89.2151V33.8394H90.4661ZM122.227 33.8394L126.074 40.8182V33.8394H126.839V42.5448H126.167L121.845 34.7906V42.5448H121.08V33.8394H122.227ZM142.481 33.8394L145.066 37.8613L147.661 33.8291H148.53L145.459 38.6264V42.5448H144.684V38.616L141.613 33.8394H142.481ZM159.851 34.6975H157.059V42.5448H156.201V34.6975H153.513V33.9325H159.851V34.6975ZM74.6267 33.736C76.6428 33.736 77.3149 34.6975 77.6044 36.3208L76.6428 36.4242C76.4464 35.2765 75.9708 34.5114 74.5337 34.5114C72.5176 34.5114 72.0317 35.9486 72.0317 37.8613V38.3369C72.0317 40.4357 72.6106 41.6867 74.5337 41.6867C75.9708 41.6867 76.4464 40.9216 76.7359 39.774L77.6044 39.867C77.3149 41.3972 76.3637 42.4518 74.5337 42.4518C72.0317 42.6379 71.2666 40.9216 71.2666 38.4299V37.9543C71.2666 35.5557 72.0317 33.7464 74.6267 33.7464V33.736ZM83.2598 34.5114C81.254 34.5114 80.7784 35.9486 80.7784 37.8613V38.3369C80.7784 40.2496 81.3471 41.6867 83.2598 41.6867C85.1828 41.8728 85.7618 40.446 85.7618 38.4299V37.8613C85.7618 35.9486 85.3793 34.5114 83.2598 34.5114ZM163.594 34.6975V37.7579H166.178C167.243 37.7579 167.822 37.0962 167.822 36.2277C167.822 35.3696 167.336 34.6975 166.189 34.6975H163.594ZM152.273 18.4343C154.857 18.4343 155.633 20.1609 155.633 22.5492V23.1282C155.633 25.5062 154.764 27.3362 152.273 27.3362C149.874 27.3362 149.005 25.5165 149.005 23.1282V22.6423C149.005 20.254 149.677 18.4343 152.273 18.4343ZM143.247 18.5377C145.263 18.5377 145.935 19.3959 146.224 20.9157L145.263 21.0191C145.066 19.8714 144.591 19.3959 143.154 19.3959C141.137 19.3959 140.651 20.8226 140.651 22.7353V23.2213C140.651 25.3201 141.23 26.5711 143.154 26.5711C144.601 26.5711 145.459 25.806 145.459 24.1725V23.5108H143.06V22.6423H146.317V27.2328H145.738L145.552 26.2816C145.066 26.9536 144.311 27.3362 143.154 27.3362C140.651 27.3362 139.886 25.6096 139.886 23.2213V22.7457C139.886 20.347 140.651 18.5274 143.247 18.5274V18.5377ZM77.2218 18.6308V19.3959H74.4303V27.2328H73.5722V19.3959H70.884V18.6308H77.2218ZM80.8612 18.5274V21.8772H85.0898V18.5274H85.9479V27.2328H85.0898V22.7457H80.8508V27.2328H79.9927V18.5274H80.8612ZM110.71 18.5274V21.8772H114.938V18.5274H115.797V27.2328H114.938V22.7457H110.71V27.2328H109.852V18.5274H110.71ZM120.015 18.5274V27.2328H119.157V18.5274H120.025H120.015ZM134.996 18.4343L137.87 27.2328H137.012L136.237 24.8548H132.784L132.018 27.2328H131.253L134.128 18.4447H134.996V18.4343ZM126.26 18.4343C128.276 18.4343 128.948 19.3959 129.237 21.0191L128.276 21.1225C128.09 19.9645 127.604 19.1994 126.167 19.1994C124.15 19.1994 123.665 20.6365 123.665 22.5492V23.0248C123.665 25.134 124.244 26.3747 126.167 26.3747C127.614 26.3747 128.09 25.6096 128.276 24.462L129.144 24.5653C128.855 26.0852 127.893 27.1501 126.074 27.1501C123.665 27.3362 122.899 25.5165 122.899 23.1179V22.6423C122.899 20.254 123.665 18.4343 126.26 18.4343ZM103.989 18.4343C106.006 18.4343 106.678 19.3959 106.967 21.0191L106.006 21.1225C105.819 19.9645 105.344 19.1994 103.896 19.1994C101.88 19.1994 101.405 20.6365 101.405 22.5492V23.0248C101.405 25.134 101.984 26.3747 103.896 26.3747C105.344 26.3747 105.819 25.6096 106.006 24.462L106.874 24.5653C106.585 26.0852 105.633 27.1501 103.803 27.1501C101.405 27.3362 100.64 25.5165 100.64 23.1179V22.6423C100.64 20.254 101.405 18.4343 103.989 18.4343ZM94.4983 19.2925H90.1766V21.9806H94.1054V22.7353H90.1766V26.3747H94.4983V27.1398H89.3081V18.5274H94.4983V19.2925ZM152.366 19.1994C150.349 19.1994 149.874 20.6365 149.874 22.5492V23.0248C149.874 24.9375 150.442 26.3747 152.366 26.3747C154.289 26.4781 154.857 25.0306 154.857 23.1282V22.5492C154.857 20.6365 154.475 19.1994 152.366 19.1994ZM134.614 19.675L133.073 24.0794H136.051L134.603 19.675H134.614ZM197.413 35.2765C197.764 35.2765 197.997 35.1545 197.997 34.8526C197.997 34.5931 197.863 34.4163 197.453 34.4163H197.082V35.2755L197.413 35.2765ZM196.719 34.0927H197.508C197.955 34.0927 198.389 34.2633 198.389 34.8289C198.389 35.1214 198.191 35.3934 197.937 35.4678L198.497 36.4624H198.069L197.627 35.5919H197.082V36.4624H196.719V34.0927ZM199.228 35.3179C199.228 34.224 198.462 33.4145 197.498 33.4145C196.536 33.4145 195.766 34.224 195.766 35.3179C195.766 36.4149 196.536 37.2027 197.498 37.2027C198.462 37.2027 199.228 36.4149 199.228 35.3179ZM195.407 35.3179C195.407 33.9852 196.357 33.0847 197.498 33.0847C198.638 33.0847 199.587 33.9852 199.587 35.3179C199.587 36.6516 198.638 37.5346 197.498 37.5346C196.357 37.5346 195.407 36.6516 195.407 35.3179Z" fill="black"/>
</g>
<defs>
<clipPath id="clip0_1_9649">
<rect width="199.542" height="61" fill="white"/>
</clipPath>
</defs>
</svg>
