<svg width="176" height="86" viewBox="0 0 176 86" fill="none" xmlns="http://www.w3.org/2000/svg">
<path d="M42.9663 38.7888H42.9501H42.9339H42.9177L42.9028 38.79H42.8866H42.8716L42.8567 38.7913H42.843H42.8292L42.8155 38.7925H42.8018H42.7894L42.7769 38.7938H42.7644H42.7532H42.742C42.3282 38.7938 41.9431 38.7551 41.695 38.4572C41.442 38.1855 41.3934 37.2607 41.4034 36.7098C41.4034 36.6176 41.4034 36.5391 41.4034 36.4718V24.2124C41.4034 23.993 41.3834 23.6814 41.3834 23.3599C41.3785 22.8775 41.437 22.3765 41.6078 22.197C41.715 22.0462 42.0116 21.9963 42.3232 21.9963C42.489 21.9963 42.6597 22.0063 42.8056 22.0063C43.0972 22.0063 43.6481 21.9428 43.6568 21.3931C43.6618 21.2174 43.5845 21.0616 43.4574 20.9893C43.3403 20.9108 43.2044 20.902 43.0823 20.902C42.9227 20.902 42.7619 20.9207 42.6548 20.9207H39.3581C39.0465 20.9157 38.6327 20.9307 38.4333 21.3931L32.4494 35.0933L27.1723 21.8754C27.0214 21.4467 26.933 20.9207 26.2711 20.9207H22.8236C22.7177 20.9207 22.5569 20.902 22.4011 20.902C22.274 20.902 22.1381 20.9108 22.021 20.9893C21.8939 21.0616 21.8216 21.2174 21.8265 21.3931C21.8365 21.9428 22.3862 22.0063 22.6778 22.0063C23.3409 22.0063 23.7347 22.0462 23.9242 22.1621C24.0999 22.2693 24.1685 22.445 24.1735 22.8875C24.1735 23.0682 24.1635 23.2876 24.1386 23.5506L23.2187 36.6949C23.0916 38.1756 23.1116 38.7601 21.5199 38.7938C21.2657 38.7988 20.6525 38.7838 20.6088 39.3197C20.6039 39.4992 20.6824 39.655 20.8132 39.7285C20.9404 39.8071 21.0812 39.8158 21.227 39.8158C22.0983 39.8158 22.9894 39.6999 23.8656 39.6999C24.7431 39.6999 25.633 39.8158 26.5341 39.8158C26.67 39.8158 26.8457 39.8208 27.0065 39.7672C27.1723 39.7186 27.338 39.5528 27.333 39.3197C27.2932 38.7788 26.6949 38.7988 26.3933 38.7888C26.3496 38.7888 26.3048 38.7938 26.2711 38.7938C24.6596 38.7688 24.4352 37.9562 24.4115 36.6562C24.4115 36.3297 24.4315 35.9794 24.4502 35.6192L25.3027 23.5693L31.0959 38.4822C31.1494 38.6579 31.228 39.1103 31.6704 39.134C32.0842 39.1103 32.1578 38.6916 32.245 38.5158L38.7735 23.229V36.4718C38.7735 36.574 38.7735 36.6949 38.7735 36.827C38.7785 37.3916 38.715 38.1506 38.3797 38.4086C38.1017 38.643 37.4885 38.7938 37.0697 38.7938C37.0161 38.7938 36.9389 38.7888 36.8504 38.7888C36.5587 38.7888 36.0328 38.8137 36.0141 39.3197C36.0228 39.7871 36.4952 39.8158 36.7195 39.8158C37.8836 39.8158 39.0714 39.6999 40.2492 39.6999C41.189 39.6999 42.1388 39.8158 43.0972 39.8158C43.3216 39.8158 43.7939 39.7871 43.8039 39.3197C43.784 38.8137 43.258 38.7888 42.9663 38.7888Z" fill="#003DA5"/>
<path d="M50.2053 34.1346L52.9025 32.7661C52.9959 32.7325 53.1517 32.6539 53.1654 32.6639C53.1654 32.6639 53.1654 32.6639 53.1704 32.6639C53.1754 32.6639 53.1804 32.6639 53.2091 32.7375C53.234 32.8048 53.244 32.9269 53.244 33.0391C53.244 33.1749 53.234 33.2921 53.234 33.3557V35.1367C53.224 36.1201 53.2141 36.5389 52.5285 37.2606C51.8418 37.951 50.8634 38.4085 49.87 38.4035C48.8181 38.3948 47.9656 37.8588 47.9656 36.7969C47.9606 35.4633 49.0474 34.7229 50.2053 34.1346ZM57.7957 37.5759L57.7721 37.5796L57.7484 37.5834L57.7259 37.5884L57.7035 37.5933L57.6823 37.6008L57.6624 37.6083L57.6424 37.617L57.6237 37.6257L57.6038 37.6357L57.5863 37.6469L57.5676 37.6581L57.5502 37.6706L57.534 37.6831L57.5165 37.6955L57.5003 37.7093L57.4841 37.7242L57.4517 37.7529L57.4193 37.784L57.3869 37.8164L57.3545 37.8488L57.3209 37.8825L57.286 37.9149L57.2498 37.9486L57.2311 37.9648L57.2112 37.981C57.0118 38.1604 56.7837 38.3162 56.4621 38.3162C56.0433 38.3162 55.8339 38.0146 55.6981 37.5572C55.5709 37.1085 55.561 36.5489 55.561 36.1937C55.561 36.155 55.561 36.1201 55.561 36.0815L55.566 29.0806C55.561 28.8812 55.5709 28.6867 55.5709 28.4861C55.5759 27.8978 55.4974 27.2846 54.9178 26.8022C54.1887 26.1404 53.0632 25.9983 52.1285 25.9983C50.1866 25.9983 48.1463 26.8122 46.7192 28.0822C46.1446 28.5746 45.4342 29.4408 45.4242 30.2983C45.4242 30.4628 45.4728 30.6099 45.585 30.6971C45.6972 30.7794 45.8243 30.7944 45.9502 30.7944C46.364 30.7894 46.9772 30.5513 47.2938 30.3955C47.8247 30.1562 47.9855 29.6888 48.1849 29.2613C48.8717 27.7607 49.7242 26.8558 51.4716 26.8458C53.2091 26.8608 53.2053 27.8978 53.234 29.3772V30.6822C53.1954 31.8214 53.2876 31.6706 52.2169 32.2165L49.9286 33.2821C48.312 34.091 45.4778 35.3224 45.4541 37.5672C45.4591 39.1538 46.9435 40.0549 48.3893 40.0549C49.7192 40.0549 50.8721 39.4754 51.7246 38.9058C52.1484 38.6179 52.4986 38.3312 52.7616 38.1218C52.8887 38.0146 52.9959 37.9274 53.0732 37.8688C53.1118 37.8389 53.1467 37.8202 53.1654 37.8052V37.8002C53.1654 37.8002 53.1704 37.7952 53.2003 37.8339C53.487 38.1417 53.7699 39.8592 55.1858 39.8742C56.0134 39.8742 56.7737 39.4068 57.372 38.988C57.5863 38.7936 58.1223 38.4085 58.146 37.956C58.146 37.7716 58.0201 37.5809 57.7957 37.5759Z" fill="#003DA5"/>
<path d="M70.9126 37.0113L70.8852 37.015L70.859 37.02L70.8341 37.0262L70.8104 37.0337L70.7855 37.0437L70.763 37.0537L70.7406 37.0636L70.7182 37.0761L70.697 37.0886L70.677 37.1023L70.6571 37.1172L70.6372 37.1309L70.6185 37.1471L70.601 37.1621L70.5836 37.1783L70.5661 37.1945L70.5499 37.2107L70.5337 37.2281L70.5187 37.2444L70.5038 37.2606L70.4901 37.2755L70.4764 37.2917L70.4627 37.3067L70.4502 37.3216L70.439 37.3353L70.4265 37.349L70.4153 37.3615L70.4053 37.374L70.3941 37.3852L70.3854 37.3952L70.3754 37.4039L70.3667 37.4114C69.4755 38.2676 68.2977 38.6715 67.0513 38.6715C63.8282 38.6665 61.647 35.6627 61.647 32.6976C61.647 30.9302 62.4011 29.1591 63.736 28C64.4801 27.3668 65.6492 26.8172 66.6375 26.8172C67.7667 26.8172 68.4585 27.5812 69.0081 28.3888C69.5727 29.1778 69.8843 30.0353 70.5275 30.0839C71.0235 30.0353 71.0435 29.4707 71.0534 29.0606C71.0534 28.774 71.0235 28.501 71.0235 28.4237C71.0235 28.2729 71.0534 28.0536 71.0534 27.8242C71.0534 27.5376 71.0048 27.201 70.7219 27.0016C69.7335 26.3248 68.1469 26.0033 66.9927 25.9983C62.942 25.9983 59.1393 29.1928 59.1343 33.2971C59.1343 36.9677 62.1967 40.0549 65.9221 40.0549C67.5574 40.0549 69.0767 39.5676 70.3181 38.5692C70.5325 38.3648 71.2242 37.8389 71.2578 37.3914C71.2578 37.207 71.1307 37.0212 70.9126 37.0113Z" fill="#003DA5"/>
<path d="M80.1283 25.2544L80.1395 25.2668L80.1507 25.2818L80.162 25.2992L80.1744 25.3179L80.1856 25.3404L80.1981 25.3628L80.2118 25.3877L80.2243 25.4139L80.238 25.4413L80.2505 25.47L80.2642 25.4987L80.2779 25.5298L80.304 25.5921L80.3302 25.6557L80.3564 25.7193L80.3689 25.7504L80.3801 25.7816L80.3925 25.8115L80.4038 25.8414L80.415 25.8701L80.4249 25.8975L80.4362 25.9237L80.4449 25.9486L80.4536 25.971L80.4623 25.9922L80.4698 26.0122L80.4773 26.0296L80.4835 26.0446L80.486 26.0508L80.4885 26.057L82.5039 31.0911C82.5475 31.2669 82.7083 31.642 82.6996 31.6907C82.6996 31.7193 82.6996 31.7243 82.6211 31.758C82.5475 31.7879 82.4216 31.7978 82.3045 31.7978C82.1786 31.7978 82.0565 31.7879 81.9829 31.7879H78.5703C78.4968 31.7879 78.2924 31.8116 78.0743 31.8116C77.9372 31.8116 77.8063 31.8028 77.7178 31.7729C77.6792 31.7629 77.6455 31.7492 77.6405 31.7443C77.6455 31.6907 77.6941 31.5249 77.7178 31.4464L79.7681 26.0433C79.8018 25.9548 79.8703 25.7454 79.9526 25.546C79.9925 25.4488 80.0411 25.3616 80.0847 25.303C80.1046 25.283 80.1183 25.2681 80.1283 25.2544ZM89.8164 38.7888L89.6967 38.7863L89.5796 38.7751L89.4674 38.7539L89.3602 38.7252L89.2568 38.6878L89.1583 38.6417L89.0623 38.5894L88.9701 38.5308L88.8829 38.4647L88.7981 38.3924L88.7158 38.3139L88.6386 38.2304L88.5625 38.1419L88.4903 38.0484L88.4205 37.95L88.3544 37.849L88.2896 37.7431L88.2273 37.6346L88.1674 37.5237L88.1089 37.4103L88.0528 37.2944L87.9992 37.1772L87.8945 36.9392L87.796 36.6998L87.7013 36.4605L87.6091 36.2262L87.5193 35.9994L81.5205 21.1014C81.4532 20.9456 81.3797 20.492 80.9709 20.4483C80.4935 20.4733 80.4249 20.9943 80.3327 21.1937L74.6069 36.0629C74.4074 36.6176 73.8528 37.9948 73.5076 38.36C73.171 38.7302 72.655 38.7938 72.1241 38.7888C71.886 38.7987 71.1943 38.7551 71.1556 39.3484C71.1606 39.7672 71.5644 39.8457 71.8424 39.8457C72.0518 39.8457 72.2612 39.8158 72.3634 39.8158C73.2097 39.8158 74.0422 39.6999 74.8599 39.6999C75.6787 39.6999 76.5063 39.8158 77.3526 39.8158C77.4997 39.8158 77.6891 39.8208 77.8649 39.7672C78.0344 39.7236 78.2151 39.5628 78.2051 39.3197C78.1852 38.8037 77.6555 38.7888 77.4025 38.7888C77.3576 38.7888 77.324 38.7888 77.2903 38.7888C76.9588 38.7938 76.4714 38.7688 76.0876 38.633C75.7024 38.4871 75.4494 38.2827 75.4444 37.864C75.4444 37.3716 75.6738 36.7584 75.8482 36.286L76.7394 34.0613C77.2467 32.947 76.8865 33.0043 78.0643 32.9607H82.1001C82.8205 32.9557 83.0934 32.9757 83.2243 33.1115C83.3801 33.2436 83.5022 33.6238 83.8089 34.3878L84.7586 36.6463C84.9094 37.0264 85.1674 37.6783 85.1624 38.0434C85.1574 38.4186 84.958 38.5744 84.6078 38.6866C84.2576 38.7888 83.7939 38.7938 83.405 38.7888C83.1321 38.7938 82.4366 38.7601 82.4017 39.3783C82.4216 39.7971 82.8504 39.8158 83.0199 39.8158C84.1304 39.8158 85.2596 39.6999 86.3166 39.6999C87.6165 39.6999 88.9215 39.8158 90.2352 39.8158C90.3773 39.8158 90.796 39.7921 90.8147 39.3783C90.7811 38.7601 90.0893 38.7938 89.8164 38.7888Z" fill="#003DA5"/>
<path d="M100.095 26.1791L99.9943 26.1803L99.8946 26.1865L99.7962 26.1953L99.6989 26.2065L99.6042 26.2227L99.5107 26.2401L99.4185 26.2613L99.3275 26.2863L99.239 26.3124L99.1505 26.3423L99.0645 26.3735L98.9798 26.4084L98.8963 26.4445L98.814 26.4832L98.733 26.5231L98.6545 26.5654L98.5772 26.6103L98.4999 26.6564L98.4251 26.7038L98.3516 26.7524L98.2095 26.8534L98.0724 26.9593L97.9415 27.069L97.8169 27.1799L97.6973 27.2921L97.5826 27.4055C97.286 27.7071 97.0466 28.01 96.8622 28.2331C96.7749 28.3403 96.6964 28.4325 96.6378 28.4911C96.6229 28.5061 96.6092 28.521 96.5992 28.531C96.5842 28.4861 96.5693 28.3939 96.5743 28.3066C96.5743 28.2144 96.5793 28.1259 96.5793 28.0686V26.6165C96.5793 26.5829 96.5793 26.5443 96.5793 26.5106C96.5793 26.4121 96.5793 26.3012 96.5257 26.189C96.4721 26.0769 96.3312 25.9934 96.1705 25.9983C95.8302 26.0083 95.6694 26.3049 95.5373 26.4271C95.0898 26.963 93.8098 27.742 93.133 27.9315C92.9037 28.0187 92.3727 28.0686 92.354 28.5746C92.359 28.8812 92.6607 28.9535 92.8501 28.9535H93.2352C93.4583 28.9448 93.8921 29.0034 93.9893 29.1392C94.1987 29.3237 94.2622 30.2049 94.2523 30.7072C94.2523 30.8044 94.2523 30.8866 94.2523 30.9502V36.5302C94.2523 36.8505 94.2672 37.1572 94.2672 37.4301C94.2373 38.2527 94.1837 38.6914 93.0445 38.8223C92.8937 38.8373 92.6793 38.8273 92.4799 38.8759C92.2855 38.9158 92.0761 39.0903 92.0811 39.3782C92.0861 39.7334 92.4263 39.8157 92.6407 39.8157C93.5755 39.8157 94.5252 39.6998 95.46 39.6998C96.3412 39.6998 97.2909 39.8157 98.2544 39.8157C98.3765 39.8157 98.4974 39.792 98.5996 39.7085C98.6981 39.6262 98.7505 39.4954 98.7505 39.3483C98.7018 38.7737 98.04 38.8622 97.792 38.8223C96.6478 38.6914 96.5942 38.249 96.5655 37.4251C96.5655 37.1572 96.5793 36.8505 96.5793 36.5302V31.8414C96.5793 31.7491 96.5793 31.6606 96.5793 31.5734C96.5842 30.5314 96.6042 29.8596 97.2373 28.9535C97.5876 28.511 98.0836 27.9365 98.6395 27.9414C99.3113 27.8829 99.3986 29.027 100.538 29.0707C101.307 29.0707 101.925 28.5596 101.925 27.742C101.92 26.7536 101.03 26.1791 100.095 26.1791Z" fill="#003DA5"/>
<path d="M110.631 37.6008L110.606 37.6046L110.582 37.6108L110.559 37.617L110.535 37.6257L110.512 37.6345L110.489 37.6444L110.466 37.6557L110.444 37.6681L110.422 37.6806L110.399 37.6943L110.375 37.7093L110.353 37.7255L110.331 37.7417L110.307 37.7591L110.284 37.7766L110.261 37.7953L110.212 37.8351L110.162 37.8763L110.136 37.8974L110.11 37.9186L110.084 37.9411L110.055 37.9635L110.026 37.9859L109.998 38.0096L109.968 38.0333L109.937 38.0557L109.904 38.0794L109.872 38.1031L109.838 38.1268L109.803 38.1505C109.447 38.3997 108.994 38.6428 108.493 38.6428C107.694 38.6378 107.324 38.1953 107.106 37.5522C106.892 36.9091 106.882 36.0815 106.887 35.4396C106.887 35.3947 106.887 35.3561 106.887 35.3125V27.8006C106.925 27.2497 106.969 27.3132 107.301 27.2746C107.441 27.2746 107.627 27.2933 107.84 27.2933H109.5C109.72 27.2933 109.886 27.3082 110.031 27.3082C110.177 27.3082 110.329 27.2933 110.435 27.1724C110.542 27.0502 110.562 26.8944 110.567 26.6751C110.562 26.5542 110.567 26.442 110.519 26.3199C110.47 26.194 110.314 26.1105 110.154 26.1155H107.217C106.867 26.0619 106.915 26.0519 106.887 25.668V23.5591C106.887 23.3896 106.833 23.0631 106.507 23.0631C106.244 23.073 106.146 23.2874 106.083 23.4083C105.406 24.8055 104.578 25.5172 103.313 26.3498C103.176 26.4657 102.903 26.5978 102.89 26.9144C102.923 27.2933 103.318 27.3082 103.561 27.3082C103.741 27.3082 103.912 27.2933 103.95 27.2933C104.077 27.2933 104.185 27.2895 104.272 27.2895C104.565 27.3332 104.506 27.206 104.555 27.6884V35.3125C104.555 35.5904 104.545 35.887 104.545 36.1937C104.545 37.187 104.608 38.2826 105.237 39.0803C105.781 39.7483 106.647 40.0549 107.485 40.0549C108.566 40.0549 109.574 39.5925 110.343 38.8908C110.552 38.725 110.961 38.3599 110.981 37.956C110.971 37.7803 110.85 37.6158 110.631 37.6008Z" fill="#003DA5"/>
<path d="M126.844 38.8223L126.794 38.8161L126.744 38.8086L126.694 38.8011L126.644 38.7936L126.595 38.7849L126.557 38.7762L126.507 38.7675L126.47 38.7575L126.432 38.7475L126.395 38.7363L126.345 38.7251L126.32 38.7139L126.246 38.689L126.183 38.6628L126.121 38.6341L126.071 38.6042L126.009 38.5718L125.971 38.5381L125.921 38.502L125.884 38.4634L125.847 38.4235L125.822 38.3811L125.797 38.3375L125.772 38.2914L125.747 38.244L125.722 38.1929L125.71 38.1405L125.697 38.0869L125.685 38.0309L125.672 37.9723L125.66 37.9112L125.647 37.8489V37.7828L125.635 37.7168V37.647V37.5747V37.5012L125.622 37.4251C125.622 37.1534 125.647 36.8555 125.647 36.5302V31.8114C125.647 31.7192 125.647 31.627 125.647 31.5347C125.647 30.1612 125.622 28.6768 124.75 27.479C123.966 26.3835 122.471 25.9983 121.225 25.9983C119.267 25.9934 118.074 26.6165 116.789 27.9078C116.756 27.9614 116.551 28.0923 116.536 28.0773C116.511 28.0823 116.473 28.0436 116.439 27.9028V19.2268C116.439 19.1832 116.439 19.1433 116.439 19.1096C116.439 19.0024 116.439 18.8952 116.38 18.7881C116.322 18.6709 116.186 18.6036 116.035 18.6086C115.737 18.6185 115.474 18.8466 115.319 18.9688C114.652 19.4112 113.532 19.7129 112.715 19.855C112.524 19.8886 112.199 19.9808 112.179 20.3223C112.184 20.7112 112.563 20.7698 112.792 20.7698C112.909 20.7698 113.016 20.7598 113.094 20.7598C114.034 20.7798 114.102 21.3057 114.126 22.1084C114.131 22.4013 114.112 22.7179 114.112 23.0245V36.5302C114.112 36.8555 114.126 37.1534 114.126 37.4251C114.097 38.249 114.043 38.6865 112.904 38.8223C112.753 38.8373 112.539 38.8273 112.34 38.8759C112.145 38.9158 111.936 39.0903 111.945 39.3782C111.945 39.7334 112.286 39.8157 112.5 39.8157C113.43 39.8157 114.38 39.6998 115.319 39.6998C116.2 39.6998 117.149 39.8157 118.109 39.8157C118.235 39.8157 118.357 39.792 118.454 39.7085C118.557 39.6312 118.61 39.4954 118.605 39.3483C118.557 38.7737 117.9 38.8622 117.647 38.8223C116.508 38.6865 116.454 38.249 116.424 37.4251C116.424 37.1534 116.439 36.8555 116.439 36.5302V31.1259C116.449 29.9332 116.463 29.3636 117.29 28.4961C118.041 27.7171 119.039 27.2597 120.13 27.2597C121.341 27.2647 122.267 27.7171 122.832 28.536C123.304 29.2751 123.314 30.4442 123.314 31.3939L123.309 36.5302C123.314 36.8505 123.328 37.1534 123.328 37.4251C123.299 38.249 123.245 38.6865 122.101 38.8223C121.955 38.8373 121.741 38.8273 121.542 38.8759C121.346 38.9158 121.133 39.0903 121.142 39.3782C121.142 39.7334 121.488 39.8157 121.702 39.8157C122.637 39.8157 123.586 39.6998 124.521 39.6998C125.398 39.6998 126.358 39.8157 127.305 39.8157C127.43 39.8157 127.554 39.792 127.654 39.7085C127.754 39.6312 127.816 39.4954 127.803 39.3483C127.766 38.7737 127.106 38.8622 126.844 38.8223Z" fill="#003DA5"/>
<path d="M142.685 37.7803L142.299 37.8103C142.212 37.8202 142.137 37.8202 142.062 37.8202C141.289 37.7953 141.277 37.4937 141.239 36.8069C141.239 36.5639 141.264 36.2909 141.264 35.9943V27.2697C141.264 27.1575 141.289 27.0216 141.289 26.8795C141.277 26.7724 141.264 26.6465 141.19 26.5393C141.102 26.4371 140.965 26.3835 140.791 26.3835H137.351C137.276 26.3835 137.214 26.3785 137.151 26.3785C137.077 26.3835 136.989 26.3835 136.902 26.447C136.815 26.5144 136.79 26.6215 136.79 26.7337C136.84 27.3083 137.525 27.2497 137.762 27.2597C138.859 27.2896 138.921 27.7271 138.946 28.531C138.946 28.8226 138.921 29.1542 138.921 29.4944V35.1667C138.921 35.3948 138.934 35.6141 138.934 35.8186C138.934 36.3645 138.884 36.8019 138.46 37.2643C137.65 38.1505 136.64 38.5506 135.381 38.5556C134.322 38.5556 133.088 38.1705 132.54 37.2556C132.041 36.4567 132.029 34.981 132.029 34.0076V27.5962C132.029 27.4591 132.041 27.2983 132.041 27.1338C132.041 26.963 132.029 26.7873 131.941 26.6315C131.842 26.4757 131.655 26.3835 131.418 26.3835H128.09C128.015 26.3835 127.953 26.3785 127.878 26.3785C127.816 26.3785 127.729 26.3835 127.654 26.447C127.579 26.5144 127.554 26.6078 127.554 26.705C127.604 27.2933 128.265 27.2597 128.501 27.2597C129.636 27.2896 129.686 27.7321 129.723 28.5397C129.723 28.8326 129.698 29.1592 129.698 29.4944V34.0076C129.698 34.1634 129.698 34.3291 129.698 34.4949C129.698 35.7949 129.735 37.1484 130.62 38.2777C131.505 39.4368 132.739 40.06 134.235 40.055C135.618 40.055 136.678 39.519 137.438 38.9881C138.161 38.4621 138.709 37.9374 138.772 37.976C138.797 37.976 138.821 37.981 138.859 38.0882C138.884 38.1904 138.896 38.3462 138.896 38.502C138.896 38.745 138.871 38.9694 138.871 39.0517V39.7671C138.871 39.8406 138.859 39.9092 138.896 39.9964C138.934 40.0886 139.046 40.1472 139.146 40.1472C139.146 40.1472 139.146 40.1472 139.158 40.1422C139.357 40.1273 139.507 39.9578 139.544 39.9478C140.404 39.3047 141.451 38.9781 142.498 38.6815C142.635 38.6129 143.171 38.6129 143.221 38.1605C143.209 37.8152 142.86 37.7803 142.685 37.7803Z" fill="#003DA5"/>
<path d="M152.631 26.1791L152.532 26.1803L152.432 26.1865L152.332 26.1953L152.232 26.2065L152.133 26.2227L152.046 26.2401L151.946 26.2613L151.859 26.2863L151.771 26.3124L151.684 26.3423L151.597 26.3735L151.51 26.4084L151.435 26.4445L151.348 26.4832L151.26 26.5231L151.186 26.5654L151.111 26.6103L151.036 26.6564L150.961 26.7038L150.886 26.7524L150.737 26.8534L150.6 26.9593L150.475 27.069L150.35 27.1799L150.226 27.2921L150.114 27.4055C149.814 27.7071 149.578 28.01 149.391 28.2331C149.303 28.3453 149.229 28.4325 149.166 28.4911C149.154 28.5061 149.141 28.521 149.129 28.531C149.117 28.4861 149.104 28.3939 149.104 28.3066C149.104 28.2144 149.117 28.1259 149.117 28.0686V26.6165C149.117 26.5829 149.117 26.5443 149.117 26.5106C149.117 26.4121 149.117 26.3012 149.054 26.189C149.004 26.0769 148.867 25.9934 148.705 25.9983C148.369 26.0133 148.207 26.3049 148.07 26.4271C147.621 26.963 146.337 27.742 145.677 27.9315C145.44 28.0187 144.916 28.0686 144.879 28.5746C144.891 28.8812 145.19 28.9535 145.377 28.9535H145.764C145.988 28.9448 146.424 29.0034 146.524 29.1392C146.736 29.3237 146.798 30.2049 146.786 30.7072C146.786 30.8044 146.786 30.8866 146.786 30.9502V36.5302C146.786 36.8555 146.798 37.1572 146.798 37.4301C146.773 38.2527 146.711 38.6914 145.577 38.8223C145.427 38.8373 145.215 38.8273 145.016 38.8759C144.817 38.9158 144.605 39.0903 144.617 39.3782C144.617 39.7334 144.966 39.8157 145.178 39.8157C146.113 39.8157 147.06 39.6998 147.995 39.6998C148.867 39.6998 149.827 39.8157 150.787 39.8157C150.911 39.8157 151.036 39.792 151.136 39.7085C151.235 39.6262 151.285 39.4954 151.285 39.3483C151.235 38.7737 150.575 38.8622 150.326 38.8223C149.179 38.6914 149.129 38.249 149.092 37.4251C149.092 37.1572 149.117 36.8555 149.117 36.5302V31.8414C149.117 31.7491 149.117 31.6606 149.117 31.5734C149.117 30.5314 149.141 29.8596 149.777 28.9535C150.114 28.511 150.612 27.9365 151.173 27.9414C151.846 27.8779 151.933 29.027 153.068 29.0707C153.84 29.0707 154.463 28.5646 154.463 27.742C154.463 26.7536 153.566 26.1791 152.631 26.1791Z" fill="#003DA5"/>
<path d="M33.0975 51.2824L33.1175 51.2799L33.1362 51.2774L33.1549 51.2737L33.1723 51.2699L33.1898 51.2649L33.2072 51.26L33.2234 51.255L33.2396 51.2487L33.2546 51.2425L33.2695 51.2363L33.2832 51.2288L33.2982 51.2201L33.3231 51.2039L33.3481 51.1839L33.3705 51.164L33.3904 51.1428L33.4104 51.1191L33.4278 51.0942L33.4428 51.0693L33.4577 51.0418L33.4702 51.0144L33.4827 50.9857L33.4926 50.9558L33.5026 50.9259L33.5101 50.8948L33.5176 50.8636L33.5238 50.8324L33.5288 50.8L33.5338 50.7689L33.5375 50.7365L33.5425 50.6717L33.5462 50.6093L33.5487 50.547L33.55 50.5171V50.4884C33.55 50.2741 33.525 50.0547 33.525 49.9774V47.8985C33.525 47.7813 33.535 47.6405 33.535 47.4984C33.535 47.3239 33.525 47.1482 33.4378 46.9874C33.3505 46.8266 33.1648 46.7144 32.9268 46.7194C29.6501 46.7194 26.3983 46.8415 23.1552 46.8415C22.2541 46.8415 21.4028 46.7194 20.478 46.7194C20.205 46.7194 19.8498 46.8565 19.8498 47.2454C19.8785 47.7963 20.463 47.805 20.731 47.805C22.4684 47.8586 22.3912 48.0829 22.4447 49.5051C22.4447 49.6708 22.4447 49.8453 22.4447 50.0398V62.2655C22.4447 62.4998 22.4447 62.7129 22.4447 62.9086C22.3961 64.2809 22.4547 64.5339 20.731 64.5875C20.7011 64.5875 20.6624 64.5875 20.6188 64.5875C20.3845 64.5875 19.8934 64.6074 19.8785 65.0848C19.8735 65.2742 19.957 65.445 20.0879 65.5222C20.22 65.6008 20.3658 65.6107 20.5066 65.6157C21.5972 65.6157 22.6828 65.4936 23.7547 65.4936C24.8253 65.4936 25.8523 65.6157 26.9429 65.6157C27.0838 65.6107 27.2259 65.6008 27.3617 65.5222C27.4938 65.445 27.5761 65.2742 27.5711 65.0848C27.5512 64.5974 27.0451 64.5875 26.8021 64.5875C26.7585 64.5875 26.7198 64.5875 26.6899 64.5875C24.9562 64.5102 25.0297 64.2809 24.9761 62.8151C24.9761 62.6456 24.9761 62.4599 24.9761 62.2655V56.749C24.9761 56.243 25.0497 56.0622 25.1955 55.985C25.3413 55.8927 25.6916 55.8778 26.2612 55.8778C27.1137 55.8778 28.5894 55.8828 29.675 56.1408C30.176 56.233 30.434 57.0656 30.5649 57.9231C30.5998 58.1026 30.6671 58.5213 31.0772 58.5463C31.1644 58.5513 31.3003 58.5263 31.3975 58.4042C31.491 58.2933 31.5296 58.1275 31.5296 57.8695C31.5047 56.9148 31.4461 56.0286 31.3888 55.0789C31.4461 54.2612 31.5047 53.3701 31.5296 52.5375C31.5296 52.2072 31.2467 52.09 31.0772 52.09C30.6671 52.1237 30.5998 52.5425 30.5649 52.7182C30.434 53.5944 30.2446 54.6214 29.6937 54.6464C28.9097 54.7486 27.9263 54.7673 27.1236 54.7673C26.8021 54.7673 26.5054 54.7635 26.2612 54.7635C25.0684 54.7099 25.0397 54.8894 24.9761 53.5122V49.2957C24.9761 49.2122 24.9761 49.1149 24.9761 49.0028C24.9662 48.589 25.0397 48.0879 25.2678 48.0007C25.6479 47.815 27.1523 47.8013 27.6247 47.805C30.186 47.82 31.744 47.81 32.508 50.547C32.5716 50.7464 32.6538 51.2375 33.0975 51.2824Z" fill="#007A33"/>
<path d="M39.3917 52.6395L39.6709 52.6507L39.9401 52.6794L40.2006 52.7268L40.4524 52.7903L40.6954 52.8714L40.9298 52.9686L41.1554 53.0807L41.3722 53.2079L41.5804 53.3487L41.7798 53.502L41.9705 53.669L42.1525 53.8485L42.3257 54.038L42.4902 54.2386L42.6448 54.4493L42.7919 54.6686L42.9302 54.898L43.0586 55.1335L43.1782 55.3778L43.2904 55.6283L43.3926 55.8851L43.4861 56.1468L43.5708 56.4136L43.6469 56.684L43.7142 56.957L43.7715 57.2337L43.8214 57.5116L43.8612 57.7921L43.8936 58.0725L43.9161 58.3529L43.9298 58.6321L43.9348 58.9113H43.9298C43.9248 61.6857 42.2945 64.9961 39.4989 65.0011C38.0344 65.0011 36.8853 64.1299 36.0913 62.8785C35.2974 61.6222 34.8786 59.9969 34.8786 58.5548C34.8786 55.571 36.5301 52.6495 39.3917 52.6395ZM39.4167 51.7932L39.0727 51.7995L38.7287 51.8219L38.3884 51.8581L38.0506 51.9104L37.8824 51.9416L37.7154 51.9777L37.5496 52.0176L37.3851 52.0612L37.2218 52.1086L37.0598 52.1597L36.899 52.2158L36.7394 52.2756L36.5812 52.3404L36.4254 52.4089L36.2708 52.4812L36.1175 52.5585L35.9667 52.6395L35.8171 52.7255L35.6701 52.8153L35.5242 52.91L35.3809 53.0097L35.2401 53.1132L35.1017 53.2216L34.9659 53.3338L34.8312 53.4522L34.7004 53.5743L34.572 53.7014L34.4461 53.8323C33.2533 55.0787 32.5666 56.8909 32.5666 58.7019C32.5716 62.8399 35.6875 65.8436 39.4167 65.8486C43.1271 65.8436 46.2668 62.8399 46.2767 58.7019C46.2717 56.7638 45.4728 54.802 44.1155 53.5556C42.7856 52.3092 41.1254 51.7932 39.4167 51.7932Z" fill="#007A33"/>
<path d="M61.2083 63.5803L60.8294 63.604C60.7509 63.6089 60.6786 63.6139 60.615 63.6139C59.8747 63.594 59.8548 63.2874 59.8261 62.6019C59.8261 62.3576 59.841 62.0809 59.841 61.793V53.0683C59.841 52.9512 59.8597 52.8203 59.8597 52.6795C59.8597 52.5673 59.851 52.4501 59.7725 52.338C59.6902 52.2308 59.5481 52.1772 59.3874 52.1822H56.082C56.0184 52.1822 55.9561 52.1722 55.8875 52.1722C55.819 52.1722 55.7317 52.1772 55.6482 52.2457C55.566 52.3143 55.5373 52.4215 55.5373 52.5324C55.5859 53.102 56.2477 53.0534 56.4758 53.0634C57.5278 53.0883 57.5814 53.5208 57.6113 54.3297C57.6113 54.6213 57.5913 54.9479 57.5913 55.2881V60.9604C57.5913 61.1897 57.6013 61.4128 57.6013 61.6135C57.5963 62.1582 57.5427 62.5969 57.1439 63.0593C56.3699 63.9505 55.3952 64.3493 54.1975 64.3493C53.1754 64.3493 52.0026 63.9691 51.4716 63.0543C50.9893 62.2554 50.9743 60.7759 50.9793 59.8013V53.3949C50.9793 53.2578 50.9943 53.0933 50.9943 52.9325C50.9893 52.7617 50.9793 52.586 50.8921 52.4352C50.7998 52.2794 50.6141 52.1772 50.381 52.1822H47.1916C47.1193 52.1822 47.0607 52.1722 46.9921 52.1722C46.9286 52.1722 46.8463 52.1772 46.7678 52.2457C46.6955 52.3143 46.6756 52.4065 46.6756 52.4987C46.7105 53.0883 47.3573 53.0584 47.5867 53.0634C48.6673 53.0883 48.7159 53.5258 48.7495 54.3396C48.7495 54.6313 48.7308 54.9578 48.7308 55.2881V59.8013C48.7308 59.9571 48.7259 60.1228 48.7259 60.2886C48.7308 61.5886 48.7695 62.9471 49.612 64.0714C50.4583 65.2305 51.6511 65.8537 53.0882 65.8487C54.4218 65.8537 55.4388 65.3127 56.1642 64.783C56.8659 64.2521 57.3919 63.7311 57.4505 63.7697C57.4605 63.7697 57.4792 63.7697 57.5178 63.8819C57.5477 63.9841 57.5627 64.1449 57.5577 64.2957C57.5577 64.5387 57.5328 64.7631 57.5328 64.8503V65.557C57.5377 65.6293 57.5278 65.7029 57.5627 65.7901C57.5963 65.8774 57.7085 65.9409 57.8007 65.9409C57.8107 65.9409 57.8157 65.9409 57.8207 65.9359C58.0201 65.9222 58.1609 65.7515 58.1946 65.7415C59.0184 65.0946 60.0255 64.7731 61.0239 64.4752C61.1547 64.4079 61.6757 64.4029 61.7206 63.9592C61.7156 63.6139 61.3691 63.5803 61.2083 63.5803Z" fill="#007A33"/>
<path d="M77.9721 64.6809L77.9359 64.6722L77.8998 64.6647L77.8637 64.6573L77.8275 64.6523L77.7914 64.6473L77.7552 64.6423L77.7203 64.6386L77.6854 64.6361L77.6505 64.6336L77.6181 64.6311L77.5857 64.6286L77.5546 64.6261L77.5246 64.6236H77.5109L77.4972 64.6224L77.4835 64.6211L77.4711 64.6199L77.4573 64.6186L77.4461 64.6174C76.3506 64.4803 76.297 64.0478 76.272 63.2202C76.272 62.9522 76.287 62.6506 76.287 62.324V57.6302C76.287 57.4744 76.287 57.3186 76.287 57.1628C76.287 55.8927 76.2484 54.5778 75.4058 53.4586C74.5832 52.353 73.3904 51.7934 71.9297 51.7934C70.5861 51.7934 69.5104 52.4216 68.7165 53.0448C68.127 53.5122 67.6359 53.9833 67.3966 54.159V52.4116C67.3966 52.3817 67.3966 52.3431 67.3966 52.3044C67.3966 52.1387 67.353 51.7934 66.9977 51.7934C66.6612 51.8121 66.5104 52.105 66.3845 52.2259C65.9558 52.7618 64.7194 53.5458 64.0812 53.7303C63.8569 53.8138 63.3459 53.8724 63.3222 54.3734C63.3309 54.67 63.6238 54.7486 63.8083 54.7486H64.1784C64.3928 54.7436 64.8016 54.8022 64.8939 54.938C65.0983 55.1187 65.1568 56.0049 65.1481 56.5109C65.1481 56.5982 65.1481 56.6817 65.1481 56.749V62.324C65.1481 62.6506 65.1618 62.9522 65.1618 63.2202C65.1332 64.0478 65.0846 64.4853 63.994 64.6174C63.8482 64.6311 63.6425 64.6224 63.453 64.676C63.2586 64.7146 63.0592 64.8941 63.0642 65.172C63.0692 65.5222 63.3995 65.6107 63.6088 65.6157C64.505 65.6107 65.4148 65.4936 66.316 65.4936C67.1585 65.4936 68.0684 65.6107 68.9932 65.6157C69.1153 65.6157 69.2325 65.5808 69.3347 65.5035C69.4319 65.42 69.4755 65.2892 69.4755 65.1433C69.4805 64.8704 69.2661 64.7196 69.0817 64.6809C68.891 64.6311 68.6816 64.6311 68.5557 64.6174C67.4602 64.4803 67.4115 64.0478 67.3816 63.2202C67.3816 62.9522 67.3966 62.6506 67.3966 62.324V57.3435C67.4016 56.1507 67.4701 55.5811 68.2728 54.7099C68.9895 53.9309 69.9479 53.4773 70.9899 53.4773C72.0605 53.4773 73.0352 53.9347 73.5462 54.7436C74.0286 55.4927 74.0423 56.6618 74.0373 57.6065V62.324C74.0373 62.6506 74.0522 62.9522 74.0522 63.2202C74.0286 64.0478 73.975 64.4853 72.8844 64.6174C72.7373 64.6311 72.5379 64.6224 72.3435 64.676C72.149 64.7146 71.9496 64.8941 71.9583 65.172C71.9583 65.5222 72.2899 65.6107 72.4993 65.6157C73.3954 65.6107 74.3053 65.4936 75.2064 65.4936C76.0489 65.4936 76.9588 65.6107 77.8836 65.6157C78.0057 65.6157 78.1229 65.5808 78.2251 65.5035C78.3223 65.42 78.3709 65.2892 78.3659 65.1433C78.3759 64.8704 78.1566 64.7196 77.9721 64.6809Z" fill="#007A33"/>
<path d="M86.2431 64.2907L85.9614 64.2819L85.6872 64.2558L85.4205 64.2134L85.1612 64.1561L84.9107 64.0838L84.6676 63.9965L84.4333 63.8956L84.2077 63.7809L83.9896 63.6525L83.7802 63.5129L83.5796 63.3609L83.3876 63.1976L83.2044 63.0231L83.0287 62.8399L82.8629 62.6454L82.7058 62.4435L82.5575 62.2316L82.4179 62.0123L82.2883 61.7854L82.1674 61.5511L82.0552 61.3118L81.953 61.065L81.8596 60.8145L81.776 60.5578L81.7025 60.2973L81.6377 60.0343L81.5829 59.7663L81.538 59.4971L81.5031 59.2254L81.4782 58.9524L81.4632 58.6782L81.457 58.404C81.457 55.4975 83.2642 52.9025 86.2867 52.6159C86.3752 52.6059 86.4724 52.6009 86.5696 52.6009C86.5746 52.6009 86.5796 52.6009 86.5796 52.6009C87.4458 52.6009 88.5414 52.9461 89.111 53.5257C89.7005 54.0866 89.7541 54.9678 89.7541 55.8041C89.7541 55.9362 89.7541 56.0583 89.7541 56.1842V61.5549C89.7541 61.7393 89.7591 61.9151 89.7591 62.0659C89.7591 62.4061 89.7242 62.6504 89.4961 62.9521C88.7408 63.8818 87.3823 64.2907 86.2431 64.2907ZM93.6191 62.9221L93.593 62.9271L93.568 62.9334L93.5431 62.9408L93.5194 62.9496L93.4957 62.9595L93.4733 62.9695L93.4521 62.982L93.4309 62.9944L93.411 63.0081L93.391 63.0231L93.3711 63.0393L93.3524 63.0555L93.3337 63.073L93.315 63.0904L93.2976 63.1091L93.2789 63.129L93.244 63.1702L93.2078 63.2125L93.1717 63.2562L93.1355 63.3023L93.0981 63.3496L93.0583 63.397L93.0159 63.4444L92.9947 63.4681L92.9723 63.4917C92.7529 63.7497 92.4899 63.9691 92.2805 63.9641C92.1783 63.9641 92.1147 63.9018 92.0512 63.7111C91.9976 63.5316 91.9839 63.2823 91.9889 63.0592C91.9839 62.8648 91.9976 62.6941 91.9976 62.5918V45.0204C91.9976 44.9818 91.9976 44.9432 91.9976 44.9083C91.9938 44.8061 91.9976 44.6939 91.9403 44.5867C91.8867 44.4708 91.7446 44.3972 91.5987 44.4072C91.3071 44.4172 91.0591 44.6503 90.9083 44.7624C90.2751 45.2099 89.1982 45.5128 88.4155 45.6536C88.2348 45.6872 87.9132 45.7845 87.8983 46.121C87.8983 46.5011 88.2734 46.5634 88.4928 46.5634C88.6049 46.5634 88.7121 46.5585 88.7844 46.5585C89.6756 46.5684 89.7491 47.0994 89.7678 47.9083C89.7678 48.1999 89.7541 48.5165 89.7541 48.8181V51.6374C89.7541 51.7297 89.7678 51.9092 89.7678 52.1048C89.7678 52.2507 89.7591 52.3965 89.7292 52.4937C89.6905 52.6009 89.6756 52.6009 89.6656 52.5959C89.5883 52.6009 89.3204 52.4887 89.1795 52.4301C88.2148 52.0313 87.1492 51.8556 86.0823 51.7932C86 51.7883 85.9178 51.7883 85.8342 51.7883C84.0432 51.7883 82.3481 52.733 81.1018 53.9744C79.7931 55.2694 79.0627 56.9483 79.0627 58.8527C79.0714 62.4747 81.6477 65.8486 85.3619 65.8486C86.5596 65.8486 87.5779 65.3326 88.342 64.8316C89.0823 64.3243 89.6806 63.8283 89.7541 63.8569C89.7541 63.8569 89.7591 63.8569 89.7878 63.9105C89.885 64.0912 89.8999 64.5873 89.8949 64.6708C89.9099 64.7581 89.9099 64.9774 89.9485 65.1768C89.9822 65.3663 90.0657 65.6293 90.3474 65.6392C90.6004 65.6293 90.8634 65.4448 91.0192 65.3526L93.3025 64.4465C93.6054 64.3642 93.8721 64.2421 93.8771 63.8183L93.907 63.4344C93.912 63.4045 93.9257 63.3409 93.9257 63.2686C93.9257 63.1515 93.8534 62.9221 93.6191 62.9221Z" fill="#007A33"/>
<path d="M102.9 58.8328V58.8577L102.898 58.8826V58.9076L102.897 58.9312V58.9537L102.896 58.9761L102.895 58.9973V59.0185L102.893 59.0384V59.0484L102.892 59.0571V59.0671V59.0758L102.891 59.0845V59.092V59.1007V59.1082L102.89 59.1157V59.1232V59.1307V59.1369V59.1431V59.1494V60.9317C102.88 61.9151 102.865 62.3388 102.213 63.0592C101.555 63.746 100.62 64.2034 99.6665 64.2034C98.6582 64.1934 97.8456 63.6625 97.8406 62.5918C97.8406 61.257 98.8826 60.5179 99.9881 59.9283L102.583 58.5598C102.665 58.5262 102.821 58.4489 102.831 58.4576C102.831 58.4576 102.841 58.4576 102.865 58.5262C102.89 58.6047 102.9 58.7206 102.9 58.8328ZM107.276 63.3708L107.252 63.3733L107.228 63.3771L107.206 63.3821L107.185 63.3883L107.163 63.3945L107.144 63.4032L107.124 63.4107L107.105 63.4207L107.086 63.4307L107.069 63.4419L107.051 63.4531L107.034 63.4656L107.018 63.478L107.001 63.4917L106.985 63.5054L106.969 63.5192L106.938 63.5491L106.907 63.5802L106.876 63.6126L106.844 63.645L106.812 63.6774L106.778 63.7111L106.761 63.7273L106.743 63.7435L106.725 63.7585L106.706 63.7747C106.517 63.9541 106.292 64.1112 105.996 64.1112C105.602 64.1112 105.396 63.8133 105.265 63.3559C105.143 62.9034 105.134 62.3476 105.134 61.9874C105.134 61.9537 105.138 61.9151 105.138 61.8802V54.8743C105.138 54.6749 105.143 54.4804 105.143 54.281C105.143 53.6965 105.076 53.0832 104.515 52.6009C103.819 51.9391 102.729 51.7982 101.833 51.7932C99.9682 51.7932 98.0014 52.6109 96.6328 53.8809C96.0782 54.3732 95.4014 55.2445 95.3964 56.092C95.3915 56.2627 95.4351 56.4036 95.5423 56.4958C95.6544 56.5793 95.7816 56.593 95.9074 56.593C96.3025 56.5881 96.8908 56.345 97.1975 56.1892C97.7097 55.9561 97.8655 55.4887 98.0599 55.05C98.7168 53.5556 99.5294 52.6495 101.205 52.6395C102.865 52.6545 102.86 53.6915 102.89 55.1722V56.4809C102.855 57.6163 102.943 57.4643 101.916 58.0102L99.7201 59.0808C98.1622 59.8847 95.445 61.1211 95.4214 63.3658C95.4251 64.9425 96.8472 65.8486 98.2394 65.8486C99.5257 65.8486 100.63 65.2641 101.449 64.6945C101.863 64.4078 102.198 64.1249 102.446 63.9105C102.568 63.8083 102.675 63.7161 102.749 63.6625C102.782 63.6338 102.816 63.6089 102.836 63.5989L102.831 63.5939C102.831 63.5939 102.841 63.5989 102.855 63.6288C103.133 63.9305 103.401 65.6492 104.769 65.6729C105.567 65.6642 106.297 65.2005 106.877 64.783C107.076 64.5873 107.592 64.2034 107.617 63.7497C107.612 63.5703 107.495 63.3758 107.276 63.3708Z" fill="#007A33"/>
<path d="M115.533 63.3945L115.508 63.3995L115.484 63.4057L115.461 63.412L115.437 63.4207L115.413 63.4294L115.391 63.4406L115.368 63.4518L115.346 63.4643L115.324 63.4768L115.302 63.4905L115.28 63.5054L115.257 63.5216L115.235 63.5378L115.214 63.5553L115.168 63.5914L115.122 63.6301L115.074 63.6712L115.024 63.7136L114.998 63.736L114.972 63.7585L114.945 63.7809L114.917 63.8046L114.889 63.827L114.859 63.8507L114.827 63.8744L114.796 63.8981L114.764 63.9217L114.73 63.9454C114.389 64.1984 113.961 64.4415 113.479 64.4365C112.72 64.4315 112.368 63.994 112.154 63.3459C111.95 62.699 111.94 61.8764 111.94 61.2333C111.94 61.1897 111.94 61.1461 111.94 61.1062V53.5992C111.979 53.0446 112.023 53.1069 112.335 53.0733C112.471 53.0733 112.651 53.0882 112.856 53.0882H114.447C114.652 53.0882 114.817 53.1019 114.958 53.1019C115.095 53.1019 115.246 53.0882 115.353 52.9661C115.456 52.8489 115.474 52.6931 115.474 52.47C115.474 52.3529 115.479 52.2357 115.431 52.1185C115.382 51.9927 115.231 51.9054 115.075 51.9141H112.256C111.926 51.8605 111.974 51.8518 111.94 51.4617V49.3541C111.94 49.1883 111.896 48.8618 111.571 48.8568C111.313 48.8717 111.219 49.0911 111.157 49.2033C110.514 50.6054 109.72 51.3159 108.498 52.1485C108.366 52.2606 108.108 52.3965 108.098 52.7081C108.128 53.0882 108.512 53.1019 108.746 53.1069C108.917 53.1069 109.083 53.0882 109.122 53.0882C109.242 53.0882 109.345 53.0832 109.428 53.0832C109.706 53.1318 109.643 52.9997 109.691 53.4771V61.1062C109.691 61.3841 109.686 61.6807 109.686 61.9874C109.686 62.9807 109.745 64.0713 110.348 64.8702C110.869 65.542 111.707 65.8486 112.51 65.8486C113.551 65.8486 114.526 65.3862 115.261 64.6808C115.461 64.52 115.854 64.1548 115.869 63.7497C115.864 63.5802 115.747 63.4145 115.533 63.3945Z" fill="#007A33"/>
<path d="M120.095 49.5L120.181 49.4975L120.263 49.4913L120.344 49.4801L120.421 49.4639L120.495 49.4452L120.567 49.4215L120.637 49.3953L120.703 49.3641L120.768 49.3292L120.829 49.2919L120.887 49.2507L120.942 49.2071L120.996 49.1597L121.046 49.1099L121.094 49.0575L121.139 49.0014L121.181 48.9441L121.221 48.8843L121.257 48.822L121.292 48.7572L121.324 48.6911L121.352 48.6226L121.378 48.5528L121.402 48.4805L121.423 48.4082L121.441 48.3334L121.457 48.2586L121.469 48.1826L121.479 48.1053L121.487 48.0268L121.491 47.9483L121.493 47.8685C121.488 47.1045 121.001 46.3105 120.153 46.3055C119.287 46.3105 118.727 47.0995 118.727 47.9321C118.727 48.7497 119.233 49.5 120.095 49.5Z" fill="#007A33"/>
<path d="M122.919 64.6809L122.883 64.6722L122.847 64.6647L122.81 64.6573L122.774 64.6523L122.738 64.6473L122.702 64.6423L122.667 64.6386L122.632 64.6361L122.599 64.6336L122.565 64.6311L122.533 64.6286L122.503 64.6261L122.473 64.6236H122.458L122.444 64.6224L122.43 64.6211L122.418 64.6199L122.405 64.6186L122.393 64.6174C121.297 64.4803 121.249 64.0478 121.22 63.2202C121.22 62.9522 121.235 62.6506 121.235 62.324V52.4116C121.235 52.3767 121.235 52.3381 121.235 52.3044C121.235 52.1436 121.19 51.7984 120.835 51.7934C120.5 51.8121 120.353 52.105 120.222 52.2259C119.793 52.7618 118.562 53.5458 117.918 53.7303C117.7 53.8138 117.184 53.8724 117.164 54.3734C117.169 54.67 117.461 54.7486 117.647 54.7486H118.017C118.23 54.7436 118.64 54.8022 118.732 54.938C118.937 55.1187 118.995 55.9999 118.985 56.506C118.985 56.5982 118.985 56.6817 118.985 56.749V62.324C118.985 62.6456 119 62.9522 119 63.2202C118.975 64.0478 118.922 64.4803 117.831 64.6174C117.69 64.6311 117.481 64.6224 117.29 64.676C117.096 64.7146 116.896 64.8941 116.901 65.172C116.906 65.5222 117.237 65.6107 117.446 65.6107C118.342 65.6107 119.253 65.4936 120.153 65.4936C120.996 65.4936 121.907 65.6107 122.832 65.6157C122.953 65.6107 123.075 65.5808 123.172 65.5035C123.269 65.42 123.318 65.2892 123.314 65.1433C123.323 64.8704 123.105 64.7196 122.919 64.6809Z" fill="#007A33"/>
<path d="M135.381 58.9113C135.381 61.6907 133.749 64.9961 130.957 65.0011C129.486 65.0011 128.339 64.1299 127.542 62.8785C126.744 61.6222 126.333 59.9969 126.333 58.5548C126.333 55.571 127.978 52.6495 130.845 52.6395C133.861 52.6495 135.381 55.9512 135.381 58.9113ZM130.87 51.7932L130.521 51.7995L130.184 51.8219L129.835 51.8581L129.499 51.9104L129.337 51.9416L129.174 51.9777L129 52.0176L128.838 52.0612L128.676 52.1086L128.514 52.1597L128.352 52.2158L128.19 52.2756L128.04 52.3404L127.878 52.4089L127.729 52.4812L127.567 52.5585L127.417 52.6395L127.268 52.7255L127.118 52.8153L126.981 52.91L126.831 53.0097L126.694 53.1132L126.557 53.2216L126.42 53.3338L126.283 53.4522L126.158 53.5743L126.021 53.7014L125.897 53.8323C124.712 55.0787 124.019 56.8909 124.019 58.7019C124.029 62.8399 127.143 65.8436 130.87 65.8486C134.584 65.8436 137.725 62.8399 137.725 58.7019C137.725 56.7688 136.927 54.802 135.568 53.5556C134.247 52.3092 132.577 51.7932 130.87 51.7932Z" fill="#007A33"/>
<path d="M153.466 64.6808L153.429 64.6708L153.392 64.6621L153.354 64.6559L153.317 64.6496L153.279 64.6447L153.255 64.6409L153.217 64.6372L153.18 64.6334L153.142 64.6309L153.105 64.6297L153.08 64.6272L153.043 64.626L153.018 64.6235L152.993 64.6222L152.968 64.621L152.955 64.6197L152.943 64.6185L152.93 64.6172C151.846 64.4801 151.796 64.0476 151.759 63.22C151.759 62.9521 151.784 62.6504 151.784 62.3239V57.63C151.784 57.4742 151.784 57.3184 151.784 57.1577C151.784 55.8926 151.734 54.5777 150.899 53.4584C150.076 52.3529 148.88 51.7933 147.421 51.7933C146.075 51.7982 145.003 52.4214 144.206 53.0446C143.62 53.512 143.134 53.9831 142.885 54.1589V52.4115C142.885 52.3766 142.885 52.3379 142.885 52.3043C142.885 52.1385 142.847 51.7982 142.486 51.7933C142.149 51.812 142 52.1049 141.875 52.2258C141.451 52.7617 140.217 53.5457 139.569 53.7301C139.357 53.8136 138.834 53.8722 138.821 54.3733C138.821 54.6699 139.108 54.7484 139.308 54.7484H139.669C139.881 54.7434 140.292 54.802 140.392 54.9379C140.591 55.1186 140.654 55.9998 140.641 56.5058C140.641 56.598 140.641 56.6816 140.641 56.7489V62.3239C140.641 62.6504 140.654 62.9521 140.654 63.22C140.629 64.0476 140.579 64.4801 139.482 64.6172C139.345 64.6309 139.133 64.6222 138.946 64.6758C138.747 64.7145 138.547 64.8939 138.56 65.1719C138.56 65.5221 138.884 65.6106 139.108 65.6106C139.993 65.6106 140.915 65.4934 141.813 65.4934C142.648 65.4934 143.558 65.6106 144.492 65.6106C144.605 65.6106 144.729 65.5857 144.817 65.5034C144.916 65.4199 144.966 65.289 144.966 65.1432C144.979 64.8702 144.754 64.7194 144.567 64.6808C144.38 64.6272 144.181 64.6309 144.044 64.6172C142.947 64.4801 142.897 64.0476 142.872 63.22C142.872 62.9521 142.885 62.6504 142.885 62.3239V57.3434C142.897 56.1506 142.959 55.581 143.757 54.7098C144.48 53.9308 145.44 53.4771 146.474 53.4771C147.546 53.4771 148.531 53.9345 149.042 54.7434C149.515 55.4925 149.528 56.6616 149.528 57.6064V62.3239C149.528 62.6455 149.54 62.9521 149.54 63.22C149.515 64.0476 149.466 64.4801 148.369 64.6172C148.232 64.6309 148.032 64.6222 147.833 64.6758C147.646 64.7145 147.434 64.8939 147.459 65.1719C147.459 65.5221 147.783 65.6106 147.995 65.6106C148.88 65.6106 149.802 65.4934 150.699 65.4934C151.535 65.4934 152.457 65.6106 153.379 65.6106C153.491 65.6106 153.616 65.5857 153.716 65.5034C153.815 65.4199 153.853 65.289 153.853 65.1432C153.865 64.8702 153.653 64.7194 153.466 64.6808Z" fill="#007A33"/>
</svg>
