<svg width="170" height="38" viewBox="0 0 170 38" fill="none" xmlns="http://www.w3.org/2000/svg">
<g clip-path="url(#clip0_1_9609)">
<path d="M13.218 11.0841C13.218 13.4941 12.013 14.5441 9.408 14.5441H7.425V7.7791H9.564C11.974 7.7791 13.218 8.71309 13.218 11.0841ZM20.605 11.0061C20.605 5.01909 16.017 2.2981 10.069 2.2981H0V28.1901H7.425V19.9871H9.33C16.056 19.9871 20.605 17.0711 20.605 11.0061Z" fill="black"/>
<path d="M33.618 18.7039C33.618 21.8529 33.23 23.6029 31.014 23.6029C28.798 23.6029 28.137 21.6199 28.137 18.4709C28.137 15.3219 28.603 13.5339 30.819 13.5339C33.035 13.5339 33.618 15.5159 33.618 18.7039ZM41.044 18.4709C41.044 13.2219 37.739 8.55688 30.897 8.55688C24.054 8.55688 20.75 13.4559 20.75 18.7039C20.75 23.9139 24.054 28.6569 30.897 28.6569C37.778 28.6569 41.044 23.6029 41.044 18.4709Z" fill="black"/>
<path d="M49.746 0.197998H42.748V28.19H49.746V0.197998Z" fill="black"/>
<path d="M55.738 7.123C57.944 7.123 59.462 5.46 59.462 3.543C59.462 1.627 57.944 0 55.738 0C53.532 0 52.014 1.627 52.014 3.543C52.014 5.46 53.532 7.123 55.738 7.123Z" fill="black"/>
<path d="M59.276 9.02295H52.2V28.1899H59.276V9.02295Z" fill="black"/>
<path d="M71.789 28.6569C75.405 28.6569 77.076 27.6459 78.048 27.1019L76.143 22.5919C75.521 22.8629 74.472 23.4459 72.45 23.4459C69.728 23.4459 68.368 21.5799 68.368 18.4309C68.368 15.3599 69.884 13.6879 72.294 13.6879C73.966 13.6879 75.132 14.0769 75.91 14.4659L77.815 9.83891C76.921 9.29491 75.055 8.55591 71.944 8.55591C65.374 8.55591 60.981 12.2489 60.981 18.6639C60.98 25.0809 65.295 28.6569 71.789 28.6569Z" fill="black"/>
<path d="M81.918 37.366C87.556 37.366 89.81 35.1099 91.793 29.8229L99.53 9.02395H92.415L89.577 19.6369H89.421L86 9.02295H78.652L85.806 27.568L85.223 29.1619C84.717 30.5999 83.94 31.728 81.257 31.728C79.935 31.728 79.352 31.5329 79.08 31.4549L78.069 36.8979C78.537 37.0549 79.819 37.366 81.918 37.366Z" fill="black"/>
<path d="M100.944 28.1901H117.623V22.3191H108.41V2.29712H100.944V28.1901Z" fill="#D36149"/>
<path d="M123.605 7.123C125.812 7.123 127.33 5.46 127.33 3.543C127.33 1.627 125.812 0 123.605 0C121.4 0 119.881 1.627 119.881 3.543C119.881 5.46 121.4 7.123 123.605 7.123Z" fill="#D36149"/>
<path d="M127.143 9.02295H120.067V28.1899H127.143V9.02295Z" fill="#D36149"/>
<path d="M129.597 28.1899H136.595V15.8269C136.984 15.3599 137.994 14.2719 139.316 14.2719C140.677 14.2719 141.22 14.8549 141.22 16.4099V28.1899H148.218V14.9329C148.218 11.2779 146.702 8.55688 142.388 8.55688C139.355 8.55688 137.567 9.95688 136.439 11.2009V9.02288H129.597V28.1899Z" fill="#D36149"/>
<path d="M150.599 28.19H157.597V20.492L162.03 28.19H170L163.545 17.654L170 9.023H162.535L157.597 15.788V0.197998H150.599V28.19Z" fill="#D36149"/>
</g>
<defs>
<clipPath id="clip0_1_9609">
<rect width="170" height="37.366" fill="white"/>
</clipPath>
</defs>
</svg>
