<svg width="198" height="42" viewBox="0 0 198 42" fill="none" xmlns="http://www.w3.org/2000/svg">
<g clip-path="url(#clip0_1_9176)">
<path fill-rule="evenodd" clip-rule="evenodd" d="M194.526 36.54H194.067V37.674H194.526C194.943 37.674 195.194 37.506 195.194 37.128C195.194 36.75 194.943 36.54 194.526 36.54ZM195.528 39.816L194.442 38.22H194.108V39.774H193.482V35.994H194.568C195.319 35.994 195.82 36.372 195.82 37.086C195.82 37.632 195.528 37.968 195.068 38.136L196.112 39.69L195.528 39.816ZM194.568 34.944C193.023 34.944 191.812 36.036 191.812 37.968C191.812 39.9 193.023 40.992 194.568 40.992C196.112 40.992 197.323 39.9 197.323 37.968C197.323 36.036 196.07 34.944 194.568 34.944ZM194.568 41.412C192.689 41.412 191.353 40.026 191.353 38.01C191.353 35.994 192.689 34.566 194.568 34.566C196.446 34.566 197.782 35.952 197.782 38.01C197.782 40.026 196.404 41.412 194.568 41.412ZM28.8867 23.394H19.1186C19.7448 22.386 28.8867 6.93 28.8867 6.93V23.394ZM24.754 0L0 41.37H8.39049C8.39049 41.37 14.4851 31.08 14.6938 30.702H28.8867V41.37H36.8597V0H24.754ZM42.5786 0V41.412H50.3429V0H42.5786ZM55.9784 0H63.7427V41.412H55.9784V0ZM80.7741 21.84C76.558 20.706 75.6814 20.034 75.7649 18.228C75.8484 16.59 77.1424 15.624 79.3131 15.624C81.9847 15.624 85.2825 16.59 88.0793 18.27L88.5385 18.522L89.6238 11.634L89.3733 11.508C86.493 10.122 83.0283 9.408 79.3548 9.408C75.8066 9.408 72.8011 10.542 70.8391 12.6C69.2946 14.238 68.5015 16.38 68.5432 18.732C68.6685 25.116 71.5905 26.922 78.52 28.77C83.1118 29.946 84.0301 30.66 83.9884 32.928C83.9467 34.986 82.7778 35.742 79.6888 35.742C76.4328 35.742 72.7593 34.482 69.5868 32.34L69.1276 32.004L68.0423 38.934L68.2928 39.06C70.7556 40.488 75.0135 41.958 79.4801 41.958C83.8214 41.958 86.994 40.908 88.9977 38.808C90.5422 37.17 91.2936 34.986 91.2518 32.214C91.1266 25.368 87.8288 23.73 80.7741 21.84ZM110.078 34.398L109.661 34.524C109.118 34.692 108.45 34.734 107.532 34.734C105.236 34.734 104.151 33.642 104.151 31.332V16.674H109.828L109.953 9.954H104.151V0H96.5115V9.954H92.5459V16.674H96.5115V32.55C96.5115 38.85 99.684 41.916 106.154 41.916C108.242 41.916 109.536 41.664 110.663 41.412L110.997 41.328L110.078 34.398ZM123.895 35.7C121.975 35.7 120.806 34.482 120.806 32.508C120.806 29.022 124.021 26.754 130.157 25.914V32.718C128.237 34.65 126.108 35.7 123.895 35.7ZM126.567 9.324C121.725 9.324 118.093 10.542 115.213 11.718L114.921 11.844L115.922 18.48L116.34 18.27C119.805 16.674 122.768 15.918 125.607 15.918C128.654 15.918 130.115 17.22 130.115 20.076V20.874C118.677 22.092 113.084 26.166 113.084 33.306C113.084 38.598 116.382 42 121.474 42C124.981 42 127.945 40.656 130.616 37.926C130.783 38.85 131.159 41.37 131.159 41.37H137.88V19.866C137.88 12.684 134.29 9.324 126.567 9.324ZM157.791 34.398L157.416 34.524C156.873 34.692 156.205 34.734 155.287 34.734C152.991 34.734 151.905 33.642 151.905 31.332V16.674H157.624L157.75 9.954H151.947V0H144.308V9.954H140.259V16.674H144.225V32.55C144.225 38.85 147.397 41.916 153.909 41.916C155.996 41.916 157.332 41.664 158.417 41.412L158.751 41.328L157.791 34.398ZM167.768 22.218C168.102 17.724 170.022 15.12 172.986 15.12C176.993 15.12 178.079 18.9 178.204 22.218H167.768ZM184.382 32.004C180.917 34.524 178.079 35.574 174.865 35.574C170.69 35.574 168.102 32.634 167.685 27.552H185.76L185.843 25.41C185.843 14.742 181.585 9.324 173.195 9.324C169.521 9.324 166.474 10.5 164.178 12.894C161.423 15.75 159.92 20.244 159.92 25.788C159.92 35.826 165.347 42.042 174.113 42.042C178.371 42.042 182.253 40.824 185.634 38.388L185.843 38.262L184.883 31.71L184.382 32.004Z" fill="#0033A0"/>
</g>
<defs>
<clipPath id="clip0_1_9176">
<rect width="197.782" height="42" fill="white"/>
</clipPath>
</defs>
</svg>
