<svg width="204" height="29" viewBox="0 0 204 29" fill="none" xmlns="http://www.w3.org/2000/svg">
<g clip-path="url(#clip0_1_9184)">
<path d="M64.4731 1.69336H67.6669C69.0329 1.69336 70.0667 1.88503 70.7686 2.26844C71.4705 2.65274 71.8219 3.32657 71.8219 4.28986C71.8219 4.67806 71.7595 5.02949 71.6355 5.34312C71.5116 5.65675 71.3325 5.91334 71.0987 6.11466C70.8649 6.31606 70.5793 6.44671 70.2424 6.50773V6.5784C70.5841 6.64811 70.893 6.76911 71.1689 6.93948C71.4448 7.11082 71.666 7.35864 71.832 7.68398C71.998 8.00925 72.0813 8.44005 72.0813 8.97836C72.0813 9.60083 71.9293 10.1343 71.6253 10.5786C71.3208 11.023 70.8871 11.3637 70.3232 11.6C69.7592 11.8362 69.0889 11.9543 68.3125 11.9543H64.473L64.4731 1.69336ZM66.6489 5.75645H67.9122C68.5439 5.75645 68.9815 5.65771 69.2245 5.4583C69.468 5.25985 69.5895 4.96649 69.5895 4.57732C69.5895 4.18426 69.4458 3.90254 69.1582 3.73216C68.8702 3.56083 68.4152 3.47565 67.7927 3.47565H66.6489V5.75645ZM66.6489 7.48354V10.1574H68.0667C68.7216 10.1574 69.1781 10.0316 69.4356 9.77887C69.6926 9.52618 69.8214 9.18639 69.8214 8.76046C69.8214 8.50777 69.7652 8.28611 69.6529 8.09444C69.5406 7.90277 69.3523 7.75274 69.088 7.64522C68.8237 7.53778 68.4597 7.48354 67.9965 7.48354H66.6489Z" fill="black"/>
<path d="M75.5278 11.9542H73.3873V1.03308H75.5278V11.9542Z" fill="black"/>
<path d="M84.4004 4.10779V11.9542H82.7581L82.4705 10.9504H82.3582C82.1898 11.2176 81.9787 11.4354 81.726 11.6038C81.4733 11.7723 81.195 11.8962 80.891 11.9756C80.5871 12.055 80.271 12.0947 79.9437 12.0947C79.3822 12.0947 78.8929 11.996 78.4766 11.7965C78.0603 11.5981 77.736 11.2873 77.5046 10.8662C77.2727 10.4451 77.157 9.89812 77.157 9.22429V4.10794H79.298V8.69092C79.298 9.25244 79.3982 9.6755 79.5995 9.96105C79.8009 10.2466 80.1213 10.389 80.5613 10.389C80.996 10.389 81.3378 10.2902 81.5856 10.0908C81.8339 9.89237 82.0081 9.59997 82.1089 9.21375C82.2095 8.82747 82.2594 8.35599 82.2594 7.79933V4.10779H84.4004Z" fill="black"/>
<path d="M89.3067 3.95959C90.0323 3.95959 90.6567 4.09902 91.181 4.37779C91.7052 4.6556 92.1098 5.05936 92.3945 5.58794C92.6801 6.11748 92.8234 6.76324 92.8234 7.52513V8.56387H87.7627C87.7864 9.16799 87.9674 9.64138 88.3067 9.98603C88.6461 10.3297 89.1175 10.5011 89.7212 10.5011C90.2217 10.5011 90.6805 10.4498 91.0968 10.3471C91.5131 10.2445 91.9415 10.0896 92.381 9.88338V11.5398C91.9928 11.7324 91.5872 11.8728 91.1637 11.9609C90.7401 12.05 90.2265 12.0945 89.6229 12.0945C88.8369 12.0945 88.1408 11.9493 87.5348 11.6598C86.9287 11.3694 86.4539 10.927 86.1102 10.3326C85.766 9.73917 85.5942 8.98988 85.5942 8.08665C85.5942 7.16986 85.7496 6.40606 86.0608 5.79516C86.3721 5.18529 86.8062 4.72635 87.3629 4.4195C87.9194 4.11353 88.5675 3.95959 89.3067 3.95959ZM89.3212 5.48337C88.9044 5.48337 88.5594 5.61602 88.2859 5.88322C88.0119 6.14947 87.8541 6.56862 87.812 7.1398H90.816C90.8111 6.8213 90.754 6.53863 90.6441 6.28977C90.5343 6.04195 90.3702 5.84542 90.1528 5.70017C89.935 5.55603 89.6581 5.48337 89.3212 5.48337Z" fill="black"/>
<path d="M98.7317 3.35659C98.3154 3.35659 97.9466 3.43691 97.6261 3.59859C97.3057 3.76026 97.0365 3.99261 96.8187 4.29659C96.6018 4.60152 96.4363 4.96843 96.324 5.39922C96.2117 5.82906 96.1555 6.31409 96.1555 6.85137C96.1555 7.57745 96.2456 8.19608 96.4256 8.70816C96.6056 9.22024 96.8854 9.61139 97.2649 9.88051C97.6435 10.1496 98.1324 10.2842 98.7316 10.2842C99.1479 10.2842 99.5661 10.2367 99.9844 10.1438C100.404 10.0499 100.859 9.91632 101.349 9.743V11.5679C100.895 11.7557 100.449 11.8903 100.009 11.9716C99.569 12.0539 99.0753 12.0945 98.5283 12.0945C97.4702 12.0945 96.6018 11.8757 95.9202 11.4381C95.2396 11.0005 94.7353 10.3877 94.4081 9.59967C94.0809 8.81067 93.9172 7.89005 93.9172 6.83767C93.9172 6.06126 94.0218 5.3497 94.2329 4.70395C94.4429 4.0582 94.7518 3.49866 95.1593 3.02623C95.5659 2.5538 96.0693 2.18881 96.6686 1.93133C97.2669 1.67378 97.9551 1.54504 98.7316 1.54504C99.2418 1.54504 99.753 1.60989 100.265 1.73863C100.777 1.86737 101.268 2.04356 101.736 2.26817L101.034 4.0369C100.65 3.85488 100.264 3.6952 99.8759 3.5596C99.4877 3.42431 99.1063 3.35659 98.7317 3.35659Z" fill="black"/>
<path d="M107.169 3.95959C107.276 3.95959 107.401 3.96637 107.544 3.97802C107.686 3.98966 107.803 4.00418 107.892 4.02348L107.73 6.03038C107.659 6.00717 107.561 5.9897 107.432 5.97813C107.303 5.96649 107.192 5.96074 107.098 5.96074C106.822 5.96074 106.554 5.9956 106.294 6.06531C106.035 6.13598 105.802 6.24924 105.596 6.40606C105.39 6.56287 105.228 6.76906 105.108 7.02373C104.989 7.27929 104.929 7.59101 104.929 7.96086V11.9542H102.789V4.10771H104.411L104.726 5.42722H104.832C104.986 5.16002 105.178 4.9161 105.411 4.69341C105.642 4.47175 105.906 4.29356 106.203 4.15996C106.501 4.02636 106.822 3.95959 107.169 3.95959Z" fill="black"/>
<path d="M115.872 8.01694C115.872 8.67235 115.785 9.25222 115.609 9.75759C115.433 10.263 115.179 10.6899 114.844 11.0384C114.51 11.3869 114.107 11.6503 113.636 11.8284C113.166 12.0055 112.636 12.0946 112.047 12.0946C111.495 12.0946 110.988 12.0055 110.527 11.8284C110.066 11.6503 109.666 11.3869 109.328 11.0384C108.988 10.6899 108.726 10.263 108.541 9.75759C108.357 9.25222 108.264 8.67235 108.264 8.01694C108.264 7.14665 108.419 6.40989 108.727 5.80577C109.036 5.20261 109.476 4.74374 110.047 4.43011C110.617 4.11648 111.299 3.95959 112.089 3.95959C112.823 3.95959 113.475 4.11641 114.044 4.43011C114.612 4.74374 115.059 5.20269 115.384 5.80577C115.709 6.40989 115.872 7.14658 115.872 8.01694ZM110.447 8.01694C110.447 8.53196 110.503 8.96468 110.615 9.31515C110.727 9.66658 110.903 9.93084 111.142 10.108C111.38 10.2861 111.692 10.3752 112.075 10.3752C112.454 10.3752 112.761 10.2861 112.998 10.108C113.234 9.93084 113.407 9.66651 113.517 9.31515C113.627 8.96468 113.682 8.53196 113.682 8.01694C113.682 7.49705 113.627 7.06625 113.517 6.7216C113.407 6.37791 113.233 6.11947 112.995 5.94615C112.756 5.77283 112.445 5.68669 112.061 5.68669C111.495 5.68669 111.085 5.8813 110.829 6.26951C110.574 6.65771 110.447 7.24053 110.447 8.01694Z" fill="black"/>
<path d="M122.756 9.62399C122.756 10.1574 122.631 10.6075 122.38 10.9755C122.131 11.3424 121.757 11.6212 121.261 11.8109C120.765 11.9997 120.148 12.0945 119.408 12.0945C118.86 12.0945 118.392 12.0597 118.001 11.989C117.61 11.9193 117.216 11.8022 116.818 11.6385V9.86982C117.244 10.0615 117.701 10.2193 118.19 10.3432C118.679 10.4672 119.109 10.5291 119.478 10.5291C119.895 10.5291 120.193 10.4671 120.373 10.3432C120.553 10.2193 120.643 10.0566 120.643 9.8553C120.643 9.72458 120.608 9.60652 120.535 9.501C120.462 9.39643 120.307 9.27639 120.067 9.14375C119.829 9.01014 119.455 8.83587 118.945 8.62002C118.454 8.4148 118.05 8.20662 117.734 7.99557C117.419 7.78548 117.184 7.53574 117.032 7.2482C116.88 6.96065 116.804 6.59471 116.804 6.14939C116.804 5.42427 117.086 4.8783 117.65 4.51139C118.214 4.14353 118.969 3.95959 119.914 3.95959C120.401 3.95959 120.864 4.00897 121.307 4.10771C121.749 4.2055 122.204 4.36232 122.672 4.57727L122.026 6.12139C121.638 5.95293 121.272 5.8155 120.928 5.70798C120.583 5.60054 120.234 5.54631 119.879 5.54631C119.565 5.54631 119.329 5.58794 119.169 5.67217C119.01 5.7564 118.931 5.88514 118.931 6.05846C118.931 6.18528 118.972 6.29758 119.054 6.39537C119.135 6.49412 119.295 6.60252 119.531 6.7216C119.767 6.84164 120.115 6.99463 120.573 7.18143C121.018 7.36441 121.403 7.55512 121.732 7.75357C122.059 7.95298 122.311 8.19792 122.49 8.49025C122.667 8.78266 122.756 9.16121 122.756 9.62399Z" fill="black"/>
<path d="M129.614 9.62399C129.614 10.1574 129.488 10.6075 129.238 10.9755C128.987 11.3424 128.615 11.6212 128.119 11.8109C127.622 11.9997 127.005 12.0945 126.266 12.0945C125.718 12.0945 125.249 12.0597 124.859 11.989C124.467 11.9193 124.073 11.8022 123.675 11.6385V9.86982C124.101 10.0615 124.559 10.2193 125.048 10.3432C125.537 10.4672 125.966 10.5291 126.336 10.5291C126.752 10.5291 127.05 10.4671 127.23 10.3432C127.411 10.2193 127.501 10.0566 127.501 9.8553C127.501 9.72458 127.465 9.60652 127.392 9.501C127.319 9.39643 127.165 9.27639 126.925 9.14375C126.687 9.01014 126.313 8.83587 125.802 8.62002C125.312 8.4148 124.908 8.20662 124.591 7.99557C124.276 7.78548 124.041 7.53574 123.889 7.2482C123.737 6.96065 123.662 6.59471 123.662 6.14939C123.662 5.42427 123.944 4.8783 124.507 4.51139C125.071 4.14353 125.826 3.95959 126.771 3.95959C127.257 3.95959 127.722 4.00897 128.165 4.10771C128.606 4.2055 129.061 4.36232 129.53 4.57727L128.884 6.12139C128.496 5.95293 128.129 5.8155 127.785 5.70798C127.441 5.60054 127.092 5.54631 126.736 5.54631C126.422 5.54631 126.186 5.58794 126.027 5.67217C125.868 5.7564 125.789 5.88514 125.789 6.05846C125.789 6.18528 125.829 6.29758 125.911 6.39537C125.993 6.49412 126.152 6.60252 126.388 6.7216C126.624 6.84164 126.972 6.99463 127.431 7.18143C127.875 7.36441 128.261 7.55512 128.589 7.75357C128.917 7.95298 129.169 8.19792 129.347 8.49025C129.525 8.78266 129.614 9.16121 129.614 9.62399Z" fill="black"/>
<path d="M134.468 1.69336H137.662C139.028 1.69336 140.062 1.88503 140.764 2.26844C141.465 2.65274 141.817 3.32657 141.817 4.28986C141.817 4.67806 141.754 5.02949 141.63 5.34312C141.506 5.65675 141.327 5.91334 141.094 6.11466C140.859 6.31606 140.574 6.44671 140.237 6.50773V6.5784C140.579 6.64811 140.887 6.76911 141.163 6.93948C141.439 7.11082 141.661 7.35864 141.826 7.68398C141.993 8.00925 142.076 8.44005 142.076 8.97836C142.076 9.60083 141.924 10.1343 141.62 10.5786C141.315 11.023 140.882 11.3637 140.318 11.6C139.754 11.8362 139.084 11.9543 138.307 11.9543H134.468L134.468 1.69336ZM136.643 5.75645H137.907C138.539 5.75645 138.976 5.65771 139.219 5.4583C139.462 5.25985 139.584 4.96649 139.584 4.57732C139.584 4.18426 139.44 3.90254 139.153 3.73216C138.865 3.56083 138.41 3.47565 137.788 3.47565H136.643V5.75645ZM136.643 7.48354V10.1574H138.062C138.716 10.1574 139.173 10.0316 139.43 9.77887C139.687 9.52618 139.816 9.18639 139.816 8.76046C139.816 8.50777 139.76 8.28611 139.647 8.09444C139.535 7.90277 139.347 7.75274 139.083 7.64522C138.819 7.53778 138.455 7.48354 137.991 7.48354H136.643Z" fill="black"/>
<path d="M145.523 11.9542H143.382V1.03308H145.523V11.9542Z" fill="black"/>
<path d="M154.395 4.10779V11.9542H152.752L152.465 10.9504H152.352C152.184 11.2176 151.973 11.4354 151.72 11.6038C151.468 11.7723 151.19 11.8962 150.886 11.9756C150.582 12.055 150.265 12.0947 149.938 12.0947C149.377 12.0947 148.888 11.996 148.471 11.7965C148.055 11.5981 147.731 11.2873 147.499 10.8662C147.267 10.4451 147.152 9.89812 147.152 9.22429V4.10794H149.292V8.69092C149.292 9.25244 149.393 9.6755 149.594 9.96105C149.796 10.2466 150.116 10.389 150.556 10.389C150.99 10.389 151.332 10.2902 151.58 10.0908C151.829 9.89237 152.003 9.59997 152.104 9.21375C152.204 8.82747 152.254 8.35599 152.254 7.79933V4.10779H154.395Z" fill="black"/>
<path d="M159.302 3.95959C160.027 3.95959 160.651 4.09902 161.176 4.37779C161.7 4.6556 162.104 5.05936 162.39 5.58794C162.675 6.11748 162.818 6.76324 162.818 7.52513V8.56387H157.757C157.781 9.16799 157.962 9.64138 158.302 9.98603C158.64 10.3297 159.112 10.5011 159.716 10.5011C160.216 10.5011 160.675 10.4498 161.092 10.3471C161.508 10.2445 161.936 10.0896 162.376 9.88338V11.5398C161.987 11.7324 161.581 11.8728 161.158 11.9609C160.734 12.05 160.221 12.0945 159.617 12.0945C158.831 12.0945 158.135 11.9493 157.529 11.6598C156.923 11.3694 156.449 10.927 156.105 10.3326C155.76 9.73917 155.589 8.98988 155.589 8.08665C155.589 7.16986 155.744 6.40606 156.056 5.79516C156.366 5.18529 156.801 4.72635 157.358 4.4195C157.914 4.11353 158.562 3.95959 159.302 3.95959ZM159.316 5.48337C158.899 5.48337 158.554 5.61602 158.28 5.88322C158.006 6.14947 157.848 6.56862 157.807 7.1398H160.811C160.806 6.8213 160.749 6.53863 160.638 6.28977C160.529 6.04195 160.364 5.84542 160.148 5.70017C159.93 5.55603 159.653 5.48337 159.316 5.48337Z" fill="black"/>
<path d="M170.641 9.10516C170.641 9.71311 170.493 10.2417 170.198 10.6909C169.903 11.1401 169.474 11.4867 168.91 11.7297C168.346 11.9736 167.662 12.0946 166.858 12.0946C166.501 12.0946 166.155 12.0714 165.815 12.0249C165.476 11.9775 165.151 11.9088 164.839 11.8178C164.528 11.7268 164.232 11.6126 163.951 11.477V9.45563C164.438 9.67155 164.944 9.86513 165.467 10.0385C165.992 10.2118 166.511 10.2979 167.026 10.2979C167.381 10.2979 167.668 10.2514 167.886 10.1575C168.103 10.0646 168.261 9.93587 168.359 9.77125C168.458 9.60766 168.507 9.42078 168.507 9.20972C168.507 8.95321 168.42 8.73243 168.247 8.55049C168.073 8.36751 167.836 8.19714 167.534 8.03834C167.233 7.87857 166.892 7.7082 166.514 7.52523C166.275 7.41292 166.015 7.27645 165.734 7.11477C165.454 6.95405 165.186 6.7556 164.934 6.52229C164.681 6.28803 164.474 6.00336 164.313 5.6694C164.152 5.33447 164.071 4.93367 164.071 4.46507C164.071 3.85225 164.212 3.32853 164.492 2.89287C164.773 2.45817 165.174 2.12516 165.696 1.89281C166.218 1.66142 166.834 1.54529 167.545 1.54529C168.078 1.54529 168.587 1.60822 169.071 1.73209C169.556 1.85604 170.063 2.03511 170.591 2.26842L169.89 3.95969C169.417 3.76802 168.993 3.61991 168.619 3.51438C168.245 3.40886 167.863 3.35661 167.475 3.35661C167.203 3.35661 166.972 3.40016 166.78 3.4863C166.588 3.57341 166.443 3.69448 166.345 3.8513C166.247 4.00811 166.197 4.18917 166.197 4.39535C166.197 4.63831 166.269 4.84362 166.411 5.00913C166.554 5.17567 166.769 5.33536 167.057 5.49025C167.345 5.64419 167.705 5.82518 168.134 6.03048C168.659 6.2783 169.106 6.53681 169.479 6.80593C169.851 7.07505 170.137 7.39162 170.339 7.75367C170.54 8.11674 170.641 8.56692 170.641 9.10516Z" fill="black"/>
<path d="M174.113 1.03308V3.25773C174.113 3.6469 174.101 4.01572 174.075 4.36715C174.05 4.71762 174.029 4.9664 174.016 5.11062H174.128C174.296 4.83958 174.496 4.61976 174.727 4.45138C174.96 4.28292 175.215 4.15905 175.496 4.07961C175.777 4.00017 176.079 3.95957 176.402 3.95957C176.967 3.95957 177.461 4.05927 177.882 4.25868C178.303 4.45713 178.632 4.76788 178.865 5.1919C179.099 5.61496 179.216 6.16388 179.216 6.83763V11.954H177.076V7.37101C177.076 6.80948 176.972 6.38643 176.767 6.10087C176.561 5.81532 176.242 5.67199 175.813 5.67199C175.382 5.67199 175.042 5.7717 174.794 5.9711C174.546 6.16955 174.371 6.46196 174.268 6.84817C174.165 7.23446 174.114 7.70593 174.114 8.26259V11.9539H171.973V1.03308H174.113Z" fill="black"/>
<path d="M181.918 1.03308C182.237 1.03308 182.511 1.10662 182.74 1.25474C182.97 1.4019 183.084 1.67684 183.084 2.07861C183.084 2.47646 182.97 2.7514 182.74 2.90343C182.511 3.05545 182.237 3.13187 181.918 3.13187C181.596 3.13187 181.321 3.05538 181.094 2.90343C180.867 2.7514 180.754 2.47646 180.754 2.07861C180.754 1.67684 180.867 1.4019 181.094 1.25474C181.321 1.1067 181.596 1.03308 181.918 1.03308ZM182.985 4.10776V11.9542H180.845V4.10776H182.985Z" fill="black"/>
<path d="M187.892 3.95959C188.617 3.95959 189.242 4.09902 189.767 4.37779C190.29 4.6556 190.695 5.05936 190.981 5.58794C191.266 6.11748 191.408 6.76324 191.408 7.52513V8.56387H186.348C186.371 9.16799 186.552 9.64138 186.892 9.98603C187.231 10.3297 187.703 10.5011 188.307 10.5011C188.807 10.5011 189.266 10.4498 189.682 10.3471C190.099 10.2445 190.527 10.0896 190.967 9.88338V11.5398C190.578 11.7324 190.172 11.8728 189.749 11.9609C189.325 12.05 188.812 12.0945 188.208 12.0945C187.422 12.0945 186.726 11.9493 186.12 11.6598C185.514 11.3694 185.039 10.927 184.696 10.3326C184.351 9.73917 184.18 8.98988 184.18 8.08665C184.18 7.16986 184.335 6.40606 184.646 5.79516C184.957 5.18529 185.392 4.72635 185.948 4.4195C186.505 4.11353 187.153 3.95959 187.892 3.95959ZM187.907 5.48337C187.49 5.48337 187.145 5.61602 186.871 5.88322C186.597 6.14947 186.439 6.56862 186.398 7.1398H189.402C189.397 6.8213 189.34 6.53863 189.229 6.28977C189.12 6.04195 188.955 5.84542 188.738 5.70017C188.521 5.55603 188.244 5.48337 187.907 5.48337Z" fill="black"/>
<path d="M194.859 11.9542H192.718V1.03308H194.859V11.9542Z" fill="black"/>
<path d="M199.015 12.0946C198.14 12.0946 197.427 11.7519 196.877 11.0665C196.327 10.3811 196.052 9.37422 196.052 8.04506C196.052 6.70234 196.331 5.68577 196.888 4.99559C197.445 4.30532 198.173 3.95971 199.071 3.95971C199.445 3.95971 199.775 4.01196 200.06 4.11461C200.346 4.21726 200.593 4.35565 200.801 4.52897C201.009 4.7023 201.185 4.89588 201.33 5.11076H201.401C201.373 4.96169 201.339 4.73995 201.3 4.44762C201.26 4.15529 201.239 3.85515 201.239 3.54631V1.03308H203.387V11.9542H201.745L201.33 10.9368H201.239C201.104 11.1516 200.935 11.3472 200.73 11.5225C200.527 11.6987 200.285 11.8371 200.004 11.9407C199.723 12.0433 199.393 12.0946 199.015 12.0946ZM199.765 10.3888C200.351 10.3888 200.763 10.2145 201.004 9.86603C201.245 9.51755 201.373 8.9928 201.387 8.29097V8.05862C201.387 7.29673 201.27 6.71295 201.036 6.30831C200.802 5.90368 200.367 5.70036 199.73 5.70036C199.258 5.70036 198.888 5.90464 198.622 6.31126C198.355 6.71885 198.221 7.3055 198.221 8.07321C198.221 8.84092 198.355 9.41888 198.625 9.80708C198.894 10.1952 199.274 10.3888 199.765 10.3888Z" fill="black"/>
<path d="M70.7686 23.9906C70.7686 25.2356 70.4671 26.2076 69.8635 26.9065C69.2599 27.6064 68.4268 27.9559 67.3649 27.9559C66.6959 27.9559 66.1064 27.7943 65.5961 27.4719C65.086 27.1485 64.6953 26.6858 64.4238 26.0817C64.1527 25.4785 64.0172 24.7816 64.0172 23.9906C64.0172 22.7456 64.3187 21.7765 64.9223 21.0815C65.5259 20.3864 66.3541 20.0388 67.4069 20.0388C68.4549 20.0388 69.2773 20.3912 69.8741 21.095C70.4705 21.7998 70.7686 22.765 70.7686 23.9906ZM64.7471 23.9906C64.7471 25.0391 64.9775 25.8562 65.4383 26.4438C65.8991 27.0305 66.5506 27.3248 67.3929 27.3248C68.2351 27.3248 68.8866 27.0305 69.3474 26.4438C69.8082 25.8562 70.0387 25.0391 70.0387 23.9906C70.0387 22.9374 69.8063 22.1212 69.3407 21.5414C68.875 20.9605 68.2211 20.6711 67.3788 20.6711C66.5366 20.6711 65.8874 20.9596 65.431 21.5375C64.9751 22.1154 64.7471 22.9335 64.7471 23.9906Z" fill="black"/>
<path d="M75.2858 20.79H73.489V27.8155H72.7944V20.79H71.3761V20.3824L72.7944 20.123V19.5334C72.7944 18.5981 72.9662 17.9108 73.3099 17.4733C73.654 17.0357 74.2165 16.8169 74.9978 16.8169C75.4189 16.8169 75.84 16.8808 76.2611 17.0066L76.1 17.6108C75.7258 17.4936 75.3536 17.4346 74.9842 17.4346C74.4411 17.4346 74.0563 17.5953 73.8293 17.9157C73.6022 18.2361 73.489 18.757 73.489 19.4772V20.1858H75.2858V20.79Z" fill="black"/>
<path d="M79.9505 27.8155V17.5547H80.6659V27.8155H79.9505Z" fill="black"/>
<path d="M83.516 27.8155H82.8214V16.8944H83.516V27.8155Z" fill="black"/>
<path d="M86.1909 27.8155H85.4963V16.8944H86.1909V27.8155Z" fill="black"/>
<path d="M88.0729 18.0668C88.0729 17.6176 88.22 17.3929 88.5153 17.3929C88.66 17.3929 88.7738 17.451 88.8556 17.5682C88.9374 17.6854 88.9781 17.8518 88.9781 18.0668C88.9781 18.2769 88.9374 18.4433 88.8556 18.5654C88.7738 18.6864 88.66 18.7474 88.5153 18.7474C88.22 18.7473 88.0729 18.5208 88.0729 18.0668ZM88.8658 27.8155H88.1712V20.1859H88.8658V27.8155Z" fill="black"/>
<path d="M96.1652 27.8156V22.8676C96.1652 22.0999 96.0035 21.5423 95.6811 21.1938C95.3578 20.8453 94.8573 20.671 94.1786 20.671C93.2667 20.671 92.5987 20.9014 92.1757 21.3622C91.7521 21.823 91.5401 22.5704 91.5401 23.6044V27.8156H90.8455V20.186H91.4351L91.5681 21.2325H91.6107C92.1064 20.4367 92.9879 20.0388 94.2561 20.0388C95.9881 20.0388 96.8535 20.9682 96.8535 22.825V27.8156H96.1652Z" fill="black"/>
<path d="M105.059 23.9906C105.059 25.2356 104.757 26.2076 104.154 26.9065C103.55 27.6064 102.717 27.9559 101.655 27.9559C100.986 27.9559 100.397 27.7943 99.8866 27.4719C99.3764 27.1485 98.9853 26.6858 98.7142 26.0817C98.4432 25.4785 98.3076 24.7816 98.3076 23.9906C98.3076 22.7456 98.6087 21.7765 99.2128 21.0815C99.8159 20.3863 100.645 20.0388 101.697 20.0388C102.745 20.0388 103.567 20.3912 104.165 21.095C104.761 21.7998 105.059 22.765 105.059 23.9906ZM99.0375 23.9906C99.0375 25.0391 99.268 25.8562 99.7287 26.4438C100.19 27.0305 100.841 27.3248 101.683 27.3248C102.526 27.3248 103.177 27.0305 103.638 26.4438C104.099 25.8562 104.329 25.0391 104.329 23.9906C104.329 22.9374 104.097 22.1212 103.631 21.5414C103.165 20.9605 102.511 20.6711 101.669 20.6711C100.827 20.6711 100.178 20.9596 99.721 21.5375C99.265 22.1154 99.0375 22.9335 99.0375 23.9906Z" fill="black"/>
<path d="M106.499 18.0668C106.499 17.6176 106.646 17.3929 106.941 17.3929C107.085 17.3929 107.2 17.451 107.281 17.5682C107.363 17.6854 107.404 17.8518 107.404 18.0668C107.404 18.2769 107.363 18.4433 107.281 18.5654C107.2 18.6864 107.085 18.7474 106.941 18.7474C106.646 18.7473 106.499 18.5208 106.499 18.0668ZM107.291 27.8155H106.596V20.1859H107.291V27.8155Z" fill="black"/>
<path d="M114.001 25.829C114.001 26.5124 113.742 27.0381 113.222 27.405C112.703 27.7728 111.966 27.9558 111.012 27.9558C109.992 27.9558 109.182 27.799 108.583 27.4853V26.7351C109.351 27.1184 110.16 27.3101 111.012 27.3101C111.765 27.3101 112.337 27.1852 112.727 26.9345C113.118 26.6848 113.314 26.3508 113.314 25.9345C113.314 25.5511 113.158 25.2278 112.847 24.9664C112.536 24.7041 112.025 24.4465 111.313 24.1938C110.551 23.9179 110.015 23.6807 109.706 23.4813C109.397 23.2829 109.165 23.0583 109.008 22.8075C108.851 22.5577 108.773 22.2518 108.773 21.8917C108.773 21.3214 109.013 20.8693 109.492 20.5373C109.972 20.2052 110.642 20.0387 111.503 20.0387C112.327 20.0387 113.108 20.1936 113.847 20.5024L113.587 21.1337C112.839 20.8248 112.144 20.6709 111.503 20.6709C110.88 20.6709 110.387 20.7735 110.022 20.9797C109.657 21.185 109.475 21.4706 109.475 21.8355C109.475 22.2334 109.616 22.5519 109.9 22.79C110.182 23.0291 110.736 23.2954 111.559 23.5907C112.247 23.8385 112.748 24.0621 113.061 24.2606C113.375 24.46 113.609 24.6856 113.766 24.9383C113.923 25.191 114.001 25.4882 114.001 25.829Z" fill="black"/>
<path d="M21.863 27.3951C21.863 26.6096 22.5051 25.9675 23.298 25.9675C24.0888 25.9675 24.7267 26.6096 24.7267 27.3951C24.7267 28.1899 24.0888 28.8312 23.298 28.8312C22.5051 28.8312 21.863 28.1898 21.863 27.3951ZM24.5009 27.3951C24.5009 26.6998 23.9929 26.1586 23.298 26.1586C22.5988 26.1586 22.0892 26.6998 22.0892 27.3951C22.0892 28.0982 22.5987 28.6447 23.298 28.6447C23.9929 28.6447 24.5009 28.0982 24.5009 27.3951ZM24.0133 28.1983H23.7797L23.3215 27.4598H22.9619V28.1983H22.7664V26.5995H23.4652C23.8876 26.5995 24.0315 26.7575 24.0315 27.022C24.0315 27.3357 23.8133 27.4537 23.5292 27.4598L24.0133 28.1983ZM23.2613 27.3057C23.4876 27.3057 23.8214 27.3442 23.8214 27.019C23.8214 26.7692 23.6167 26.7383 23.4198 26.7383H22.9619V27.3058L23.2613 27.3057Z" fill="#007CBF"/>
<path d="M48.8298 27.3951C48.8298 26.6096 49.4715 25.9675 50.265 25.9675C51.0544 25.9675 51.6931 26.6096 51.6931 27.3951C51.6931 28.1899 51.0544 28.8312 50.265 28.8312C49.4715 28.8312 48.8298 28.1898 48.8298 27.3951ZM51.4672 27.3951C51.4672 26.6998 50.9612 26.1586 50.265 26.1586C49.5667 26.1586 49.0572 26.6998 49.0572 27.3951C49.0572 28.0982 49.5667 28.6447 50.265 28.6447C50.9612 28.6447 51.4672 28.0982 51.4672 27.3951ZM50.9801 28.1983H50.7465L50.289 27.4598H49.929V28.1983H49.7317V26.5995H50.4309C50.8548 26.5995 50.9983 26.7575 50.9983 27.022C50.9983 27.3357 50.7801 27.4537 50.496 27.4598L50.9801 28.1983ZM50.2269 27.3057C50.4544 27.3057 50.7866 27.3442 50.7866 27.019C50.7866 26.7692 50.5835 26.7383 50.3869 26.7383H49.9291V27.3058L50.2269 27.3057Z" fill="#007CBF"/>
<path d="M20.4554 28.6947V20.8058H28.3439V8.19345H20.4554V0.307495H7.88742V8.19345H0V20.8058H7.88742V28.6947H20.4554Z" fill="#007CBF"/>
<path d="M43.9113 29C49.3586 25.9913 52.6613 21.1974 54.3618 15.9378C56.1274 10.4809 55.8353 4.02271 53.7894 0C50.6783 1.56711 47.5489 2.35302 43.9113 2.36422C40.2728 2.37425 37.1436 1.56711 34.0332 0C31.9878 4.02271 31.6937 10.4809 33.4597 15.9378C35.1618 21.1974 38.464 25.9913 43.9113 29Z" fill="#007CBF"/>
<path d="M6.89925 11.7768L12.1279 12.2824C13.1084 12.4166 13.2229 13.3686 12.9631 13.9409L9.38093 20.6655L9.38557 20.6562C7.56865 19.2271 6.40161 17.0132 6.40161 14.5229C6.40161 13.5571 6.57928 12.6297 6.90035 11.774L6.89925 11.7768Z" fill="white"/>
<path d="M21.4884 11.7768L16.2589 12.2824C15.2768 12.4166 15.1628 13.3686 15.4229 13.9409L19.0058 20.6655L19 20.6562C20.8162 19.2271 21.9836 17.0132 21.9836 14.5229C21.9836 13.5571 21.8075 12.6297 21.4853 11.774L21.4884 11.7768Z" fill="white"/>
<path d="M14.1934 7.72241C15.1153 7.72241 15.3797 8.76535 14.9723 9.30462C14.6058 9.78103 14.5341 9.92208 14.5545 10.3707C14.5692 10.748 14.9172 11.2101 15.7097 11.2282H21.2536C20.0134 8.5711 17.3177 6.73303 14.1934 6.73303C11.0683 6.73303 8.37345 8.5711 7.1308 11.2282H12.6763C13.468 11.2101 13.8161 10.748 13.8327 10.3707C13.8515 9.922 13.781 9.78096 13.4129 9.30462C13.0071 8.76535 13.2692 7.72241 14.1934 7.72241Z" fill="white"/>
<path d="M14.1934 22.3135C15.7756 22.3135 17.2479 21.8425 18.4767 21.0301L18.4778 21.0378L14.6794 15.3589C14.4119 14.9947 13.9883 14.962 13.7066 15.3589L9.909 21.0378L9.90973 21.0301C11.1382 21.8425 12.6101 22.3135 14.1934 22.3135Z" fill="white"/>
<path d="M43.9048 26.5625C48.39 23.7843 50.7778 19.8074 52.3086 15.3134C53.6669 11.3253 53.9983 6.65785 52.5052 3.01392C50.2639 3.78443 48.9519 4.02267 47.7321 4.21183C46.5954 4.38869 45.5802 4.49628 43.9159 4.52016H43.9047C42.2428 4.49628 41.226 4.38877 40.0909 4.21183C38.871 4.0226 37.557 3.78443 35.3162 3.01392C33.8238 6.65785 34.1564 11.3253 35.5143 15.3134C37.0441 19.8074 39.433 23.7843 43.9159 26.5625H43.9048Z" fill="white"/>
<path d="M7.67548 12.9272L11.633 13.2922C11.9182 13.3157 11.9414 13.4353 11.8751 13.6011L9.1042 18.8926C8.09397 17.7193 7.48389 16.1923 7.48389 14.5229C7.48389 13.9729 7.54977 13.4384 7.67548 12.9272Z" fill="#007CBF"/>
<path d="M12.3283 8.07629C11.9341 8.73465 12.254 9.59337 12.627 10.0004C12.6968 10.0693 12.6621 10.1434 12.5996 10.1611L9.09265 10.1634C9.93486 9.17981 11.0544 8.44438 12.3283 8.07629Z" fill="#007CBF"/>
<path d="M20.7109 12.9272L16.753 13.2922C16.4662 13.3157 16.445 13.4353 16.5105 13.6011L19.2829 18.8926C20.2923 17.7193 20.9021 16.1923 20.9021 14.5229C20.9021 13.9729 20.8362 13.4384 20.7109 12.9272Z" fill="#007CBF"/>
<path d="M16.0569 8.07629C16.4516 8.73465 16.1318 9.59337 15.7578 10.0004C15.6884 10.0693 15.7224 10.1434 15.7856 10.1611L19.2918 10.1634C18.4516 9.17981 17.3326 8.44438 16.0569 8.07629Z" fill="#007CBF"/>
<path d="M43.9083 25.4587C46.9404 23.5532 50.3785 19.2224 51.7525 13.5278C52.4825 10.5064 52.6864 7.11076 51.7363 4.41699C50.3773 4.77889 49.1108 5.07837 47.8 5.25486C46.4894 5.4337 45.1925 5.56008 43.916 5.56863H43.906C42.6306 5.56008 41.3325 5.4337 40.0231 5.25486C38.7104 5.07837 37.4435 4.77889 36.0861 4.41699C35.1355 7.11076 35.3402 10.5063 36.0687 13.5278C37.4435 19.2224 40.8814 23.5531 43.9148 25.4587H43.9083Z" fill="#007CBF"/>
<path d="M14.0831 16.6432C14.1444 16.5645 14.2311 16.5569 14.3025 16.6432L16.9226 20.6547C16.0889 21.0247 15.1643 21.2328 14.1933 21.2328C13.2206 21.2328 12.2978 21.0247 11.4626 20.6547L14.0831 16.6432C14.156 16.5569 14.2415 16.5645 14.3025 16.6432Z" fill="#007CBF"/>
<path d="M40.8149 7.59204C39.7896 8.12475 39.4346 9.37779 39.8941 10.3883C40.2933 11.2652 41.0827 11.8468 41.9969 12.1181C42.4568 12.2569 42.9201 12.2901 43.3957 12.3124C43.9761 12.3405 44.5026 12.3576 45.0622 12.5001C45.181 12.5313 45.3097 12.6007 45.3737 12.716C45.5213 12.9965 45.3857 13.3029 45.0919 13.3889C45.085 13.8772 45.043 14.8589 45.043 14.8589C45.043 14.8589 47.4211 14.6338 47.0195 12.4931C46.9224 11.9809 46.5188 11.4564 46.0594 11.219C44.8657 10.6077 43.5568 10.8732 42.333 10.4766C41.9229 10.3428 41.3483 10.1394 41.2376 9.6769C41.1925 9.4915 41.2331 9.12142 41.4241 9.06136C41.7317 8.96232 42.0728 9.2209 42.5207 9.32422C42.8036 9.38892 43.0839 9.38818 43.3066 9.32076C43.4038 9.29224 43.5498 9.25215 43.561 9.19629C43.5487 9.14699 43.4377 9.10263 43.3803 9.07249C43.243 9.00123 43.1008 8.96962 42.9512 8.91258C42.7053 8.81885 42.4587 8.70028 42.2097 8.56108C42.4439 8.51362 42.8386 8.50131 43.0703 8.52828C43.2576 8.55179 43.8343 8.54405 44.0065 8.49859C44.0439 8.49004 44.1298 8.45459 44.0925 8.39137C44.0255 8.2781 43.9113 8.23757 43.8358 8.13234C43.6671 7.90302 43.5217 7.6664 43.2503 7.56345C42.4664 7.26301 41.5949 7.1863 40.8149 7.59204Z" fill="white"/>
<path d="M44.7843 15.2274L44.7978 12.7294C44.7978 12.7294 44.4767 12.6628 44.0278 12.6346C43.4446 12.5953 43.1798 12.6026 43.1798 12.6026L43.1778 12.813C43.1778 12.813 42.8964 12.9318 42.8537 13.0081C42.834 13.0427 42.7596 13.1376 42.7943 13.2312C43.0252 13.8476 43.3435 14.4468 43.4341 15.1064C43.8697 15.1665 44.254 15.1549 44.7843 15.2274Z" fill="white"/>
<path d="M41.7985 14.8485C41.6943 15.829 42.3342 16.3524 43.041 16.5213C43.5995 16.6538 44.1422 16.6831 44.7246 16.751C44.7978 16.7602 44.9539 16.7633 45.0715 16.8149C45.1744 16.8604 45.2264 16.9205 45.2457 16.9853C45.2738 17.0763 45.2626 17.1457 45.2029 17.2182C45.1397 17.2976 44.9724 17.3414 44.9724 17.3414L44.9381 18.5185C44.9381 18.5185 45.4129 18.4993 45.7972 18.2696C46.1599 18.0507 46.385 17.7716 46.4667 17.4216C46.5604 17.0161 46.496 16.6199 46.21 16.2245C46.0201 15.9625 45.6874 15.7743 45.3517 15.6571C44.6564 15.4143 43.9048 15.4513 43.1836 15.348C43.075 15.3341 42.974 15.2478 42.964 15.1491C42.9459 14.9653 43.1166 14.8825 43.1166 14.8825C43.1166 14.8825 43.0311 14.601 42.9393 14.329C42.8584 14.1216 42.7408 13.8341 42.6599 13.6819C42.1704 13.8907 41.8528 14.3433 41.7985 14.8485Z" fill="white"/>
<path d="M44.7246 17.0254L44.7065 19.1383L44.1773 18.8955L43.6536 18.6781L43.6424 16.9144C44.1114 16.9707 44.3253 16.9761 44.7246 17.0254Z" fill="white"/>
<path d="M42.3569 18.1925C42.0697 18.8747 42.4312 19.5446 43.0079 19.8283C43.3085 19.9748 43.7032 20.1089 44.0278 20.2338C44.3446 20.3548 44.9065 20.704 44.9477 20.8721C44.9766 20.9731 44.8552 21.074 44.8552 21.074L44.8421 21.8989C44.8421 21.8989 45.1871 21.8257 45.4411 21.6152C45.68 21.4179 45.8527 21.1619 45.8515 20.7503C45.8492 20.2986 45.64 19.9454 44.9978 19.5716C44.4991 19.2772 43.8943 19.0451 43.4241 18.8354C43.3551 18.8062 43.2954 18.6713 43.3217 18.5903C43.3494 18.5024 43.4037 18.4716 43.4037 18.4716L43.3925 17.5181C43.3925 17.5181 43.031 17.5881 42.8606 17.6884C42.7026 17.7817 42.4648 17.9382 42.3569 18.1925Z" fill="white"/>
<path d="M44.6371 21C44.6429 20.9306 44.6194 20.9214 44.5881 20.8759C44.446 20.7294 44.2428 20.6268 44.1939 20.5976C44.0463 20.5105 43.7206 20.3894 43.7206 20.3894C43.7206 20.3894 43.7429 22.5502 43.7826 23.6671C43.7912 23.9222 43.933 23.9877 44.1773 24.0017C44.4757 24.0186 44.562 23.8321 44.5658 23.7226C44.5785 23.3658 44.6229 21.814 44.6371 21Z" fill="white"/>
<path d="M44.8656 7.08946C44.9732 7.16926 44.9732 7.17501 45.0059 7.33426C45.0791 7.67884 45.0024 8.22002 45.0715 8.45664C45.1065 8.53291 45.1844 8.53137 45.2422 8.49946C45.7216 8.23999 46.0474 7.79674 46.5299 7.59019C46.7585 7.4938 47.389 7.81023 47.2425 8.28435C47.1748 8.50601 47.0738 8.53947 46.935 8.68516C46.6544 8.97889 46.254 9.25523 45.9059 9.63415C45.6697 9.89317 45.3848 10.0789 45.2029 10.3707C45.1459 10.4624 45.0502 10.5904 45.0502 10.5904C44.3769 10.4524 43.7008 10.4766 43.1763 10.3707L43.1751 9.59097C43.1751 9.59097 43.71 9.50077 43.8107 9.23865C43.8176 9.21551 43.803 9.12458 43.7259 9.06828C43.6358 9.00004 43.4769 8.92988 43.4288 8.91257C43.9645 8.99694 44.2979 9.08677 44.8159 9.313C44.8511 9.25523 44.8306 9.12686 44.7913 9.08294C44.7207 9.00394 44.6822 8.97771 44.5003 8.93453C44.1831 8.85133 43.3224 8.74639 43.3224 8.74639C43.3224 8.74639 43.7206 8.74411 44.0536 8.6898C44.2166 8.66239 44.3492 8.63085 44.3854 8.57646C44.4236 8.49319 44.3545 8.36762 44.239 8.24773C44.1637 8.16601 44.0786 8.08273 44.0142 7.99836C43.9364 7.8893 43.8088 7.69313 43.6681 7.56933C43.5463 7.46182 43.243 7.30456 43.243 7.30456C43.243 7.30456 43.1887 6.886 43.2739 6.71791C43.3371 6.59226 43.499 6.52174 43.5856 6.56456C43.9715 6.78158 44.3511 7.00007 44.8656 7.08946Z" fill="white"/>
<path d="M43.1991 21.7971C43.0692 21.9327 42.8511 22.2079 42.8133 22.6496C42.7798 23.0443 42.8688 23.1553 42.9698 23.3681C43.0511 23.5431 43.2411 23.5331 43.3086 23.3704C43.3629 23.2377 43.2839 23.1144 43.3324 22.8238C43.3711 22.6142 43.5383 22.4977 43.5383 22.4977L43.5225 21.5365C43.5225 21.5365 43.3717 21.6151 43.1991 21.7971Z" fill="white"/>
<path d="M43.1705 7.89397C43.0711 7.96487 43.0021 8.03811 42.8908 8.05433C42.6714 8.09058 42.7026 7.89935 42.55 7.79228C42.4579 7.72559 42.3704 7.81034 42.2868 7.65662C42.6068 7.66583 43.0272 7.63812 43.2659 7.88056C43.2364 7.86465 43.1836 7.88506 43.1705 7.89397Z" fill="#007CBF"/>
</g>
<defs>
<clipPath id="clip0_1_9184">
<rect width="203.387" height="29" fill="white"/>
</clipPath>
</defs>
</svg>
