<svg width="218" height="37" viewBox="0 0 218 37" fill="none" xmlns="http://www.w3.org/2000/svg">
<g clip-path="url(#clip0_1_9566)">
<path d="M9.51418 22.792C9.51418 24.9063 8.81646 25.8789 6.34275 25.8789H4.87332V20.0858H6.49075C8.70018 20.0858 9.51418 20.8258 9.51418 22.792ZM12.7702 23.014C12.7702 20.5826 10.7933 19.7158 8.39361 19.6629V19.5678C10.4339 19.4092 12.1147 18.5106 12.1147 16.4809C12.1147 14.1869 10.2119 13.764 8.08703 13.764C5.53932 13.764 2.53703 13.8275 -0.0106812 13.764V14.3983C0.528462 14.3983 1.83932 14.3983 1.83932 15.1172V25.1918C1.83932 25.8472 0.496747 25.9529 -0.0106812 25.9529V26.5766C2.45246 26.5026 5.37018 26.5766 7.84389 26.5766C10.3176 26.5766 12.7702 25.678 12.7702 23.014ZM9.00675 16.9143C9.00675 18.5212 8.29846 19.4198 6.44846 19.4198H4.87332V14.4406C5.07418 14.4406 5.75075 14.4406 5.93046 14.4406H6.46961C8.36189 14.4406 8.98561 15.2863 8.98561 16.9038" fill="#0078C1"/>
<path d="M29.2511 26.5554C28.1094 26.5554 26.9677 26.5554 25.826 26.5554V25.9105C26.344 25.9105 27.7923 25.9105 27.7923 25.1705V15.8571L22.5066 26.7774H21.9674L16.8508 15.8571V25.2445C16.8508 25.9739 18.352 25.9845 18.8911 25.9845V26.6294C17.4746 26.5659 15.5188 26.5342 14.1234 26.6294V25.9845C14.6626 25.9845 15.9628 25.9317 15.9628 25.2445V15.1277C15.9628 14.4511 14.6203 14.3982 14.1234 14.3982V13.7639C15.7408 13.8274 17.4957 13.8274 19.1131 13.7639L23.4791 22.9082L27.8874 13.7428C29.452 13.8168 31.1434 13.7957 32.708 13.7428V14.3771C32.1794 14.3771 30.8157 14.3771 30.8157 15.1065V25.1705C30.8157 25.8788 32.1583 25.9105 32.708 25.9105V26.5554C31.5557 26.5554 30.3928 26.5554 29.2511 26.5554Z" fill="#0078C1"/>
<path d="M48.1317 20.1385C48.1317 15.9099 45.5417 13.5314 40.8797 13.5314C36.2177 13.5314 33.596 15.8571 33.596 20.1385C33.596 24.4199 36.186 26.7668 40.8797 26.7668C45.5734 26.7668 48.1317 24.3988 48.1317 20.1385ZM44.7383 20.1385C44.7383 22.6439 44.5057 26.1325 40.8797 26.1325C37.2537 26.1325 37 22.6439 37 20.1385C37 17.6331 37.2643 14.1762 40.8903 14.1762C44.5163 14.1762 44.7489 17.6648 44.7489 20.1385" fill="#0078C1"/>
<path d="M74.4969 3.02821e-06C70.8393 0.0062732 67.2656 1.09661 64.2275 3.13322C61.1893 5.16983 58.8231 8.06133 57.4277 11.4423C56.0324 14.8233 55.6705 18.542 56.3879 22.1286C57.1053 25.7151 58.8698 29.0086 61.4583 31.5926C64.0468 34.1767 67.3433 35.9356 70.9311 36.6468C74.5188 37.3581 78.2369 36.9899 81.6155 35.5887C84.9941 34.1876 87.8815 31.8164 89.913 28.7748C91.9444 25.7331 93.0286 22.1576 93.0286 18.5C93.023 13.5897 91.0677 8.88263 87.5927 5.41351C84.1176 1.94439 79.4071 -0.00280284 74.4969 3.02821e-06Z" fill="#ED3124"/>
<path d="M73.9366 12.8549L70.7651 8.62633C70.7006 8.53822 70.6163 8.46649 70.519 8.41692C70.4216 8.36734 70.3141 8.34131 70.2048 8.3409C70.0964 8.33924 69.9891 8.36328 69.8917 8.41105C69.7943 8.45883 69.7096 8.52897 69.6445 8.61576L65.8177 13.4258V20.9843L69.6234 16.1109C69.6918 16.0218 69.7798 15.9496 69.8807 15.9001C69.9816 15.8506 70.0925 15.8251 70.2048 15.8255C70.3168 15.8274 70.4269 15.8539 70.5274 15.9033C70.6279 15.9526 70.7163 16.0235 70.7863 16.1109L74.0211 20.3395C74.0829 20.4212 74.1628 20.4876 74.2545 20.5335C74.3462 20.5793 74.4472 20.6034 74.5497 20.6038C74.6537 20.6034 74.7563 20.5794 74.8497 20.5336C74.943 20.4878 75.0248 20.4215 75.0888 20.3395L78.2603 16.1109C78.3306 16.0228 78.4198 15.9516 78.5214 15.9027C78.623 15.8538 78.7342 15.8284 78.847 15.8284C78.9597 15.8284 79.071 15.8538 79.1726 15.9027C79.2741 15.9516 79.3634 16.0228 79.4337 16.1109L83.2394 20.9843V13.468L79.4126 8.65804C79.3465 8.57048 79.2611 8.49944 79.1629 8.45052C79.0648 8.4016 78.9566 8.37614 78.847 8.37614C78.7373 8.37614 78.6292 8.4016 78.531 8.45052C78.4329 8.49944 78.3474 8.57048 78.2814 8.65804L75.11 12.8866C75.0416 12.9724 74.9548 13.0417 74.8559 13.0893C74.7571 13.1368 74.6488 13.1615 74.5391 13.1615C74.4307 13.1631 74.3234 13.1391 74.226 13.0913C74.1286 13.0435 74.0439 12.9734 73.9788 12.8866L73.9366 12.8549Z" fill="#FEFEFE"/>
<path d="M65.7649 26.566H83.2395V21.0266H65.7649V26.566Z" fill="#FEFEFE"/>
<path d="M109.837 26.5766V25.9635C110.345 25.9635 111.74 25.9635 111.74 25.2763V20.0858H105.397V25.234C105.397 25.9212 106.782 25.9212 107.3 25.9212V26.5343C105.27 26.4603 102.913 26.4603 100.894 26.5343V25.9212C101.401 25.9212 102.797 25.9212 102.797 25.234V14.8C102.797 14.1129 101.38 14.1129 100.894 14.1129V13.4998C102.892 13.5738 105.291 13.5738 107.3 13.4998V14.1129C106.782 14.1129 105.397 14.1129 105.397 14.8V19.4832H111.74V14.8C111.74 14.134 110.323 14.1129 109.837 14.1129V13.4998C111.835 13.5738 114.235 13.5738 116.243 13.4998V14.1129C115.725 14.1129 114.319 14.1129 114.319 14.8V25.2975C114.319 25.9846 115.725 25.9846 116.243 25.9846V26.5978C114.214 26.5238 111.856 26.5238 109.837 26.5978" fill="#0078C1"/>
<path d="M123.379 21.6608C121.434 21.8194 119.859 21.9568 119.859 24.1451C119.859 25.0331 120.165 25.9317 121.328 25.9317C122.946 25.9317 123.379 24.5891 123.379 23.3628V21.6608ZM124.891 26.6188C124.13 26.6188 123.4 26.5026 123.4 25.6674C122.562 26.4105 121.463 26.7907 120.345 26.7246C118.368 26.7246 117.364 25.8154 117.364 24.0077C117.364 20.942 121.106 21.1534 123.379 20.9948V19.6311C123.379 18.6268 122.872 18.0666 121.719 18.0666C120.567 18.0666 120.028 18.6586 120.028 19.758C120.028 20.2443 119.616 20.3394 119.182 20.3394C118.527 20.3394 118.062 20.3394 118.062 19.5783C118.062 17.8234 120.081 17.464 121.614 17.464C124.013 17.464 125.726 17.7811 125.726 20.2866V24.5151C125.726 25.7837 125.853 25.9423 127.269 25.9634V26.5554C126.466 26.5554 125.673 26.5554 124.891 26.5554V26.6188Z" fill="#0078C1"/>
<path d="M135.166 20.3394C133.359 20.3394 134.796 18.3626 133.57 18.3626C132.344 18.3626 131.91 20.6354 131.91 21.534V25.308C131.91 26.0163 133.094 26.0163 133.633 26.0163V26.6083C131.741 26.5554 129.807 26.5343 127.914 26.6083V26.0163C128.432 26.0163 129.532 26.0163 129.532 25.308V18.9651C129.532 18.2991 128.475 18.2569 127.914 18.2357V17.686C129.215 17.686 130.547 17.686 131.857 17.686V19.0286C132.085 18.569 132.433 18.1803 132.866 17.9045C133.298 17.6287 133.797 17.4764 134.31 17.464C134.553 17.4314 134.8 17.4524 135.035 17.5256C135.269 17.5987 135.484 17.7223 135.665 17.8875C135.847 18.0527 135.99 18.2556 136.084 18.4819C136.179 18.7083 136.223 18.9526 136.213 19.1977C136.213 19.906 136.012 20.35 135.156 20.35" fill="#0078C1"/>
<path d="M144.723 20.3394C142.915 20.3394 144.353 18.3626 143.127 18.3626C141.9 18.3626 141.467 20.6354 141.467 21.534V25.308C141.467 26.0163 142.651 26.0163 143.179 26.0163V26.6083C141.298 26.5554 139.353 26.5343 137.471 26.6083V26.0163C137.989 26.0163 139.088 26.0163 139.088 25.308V18.9651C139.088 18.2991 138.031 18.2569 137.471 18.2357V17.686C138.782 17.686 140.114 17.686 141.425 17.686V19.0286C141.652 18.569 142.001 18.1803 142.433 17.9045C142.865 17.6287 143.365 17.4764 143.877 17.464C144.12 17.4314 144.368 17.4524 144.602 17.5256C144.836 17.5987 145.051 17.7223 145.233 17.8875C145.414 18.0527 145.557 18.2556 145.651 18.4819C145.746 18.7083 145.79 18.9526 145.78 19.1977C145.78 19.906 145.579 20.35 144.723 20.35" fill="#0078C1"/>
<path d="M149.787 15.91C149.439 15.91 149.106 15.7719 148.86 15.5261C148.614 15.2803 148.476 14.9468 148.476 14.5992C148.476 14.2515 148.614 13.9181 148.86 13.6723C149.106 13.4264 149.439 13.2883 149.787 13.2883C150.134 13.2883 150.468 13.4264 150.714 13.6723C150.959 13.9181 151.097 14.2515 151.097 14.5992C151.097 14.9468 150.959 15.2803 150.714 15.5261C150.468 15.7719 150.134 15.91 149.787 15.91ZM146.943 26.5766V25.9846C147.461 25.9846 148.56 25.9846 148.56 25.2763V18.9335C148.56 18.3203 147.419 18.3098 146.943 18.2886V17.6966C148.254 17.6966 149.628 17.7495 150.939 17.6966V25.3292C150.939 25.9846 152.059 26.0375 152.577 26.0375V26.6295C150.727 26.5555 148.793 26.5555 146.943 26.6295" fill="#0078C1"/>
<path d="M157.398 26.7668C156.262 26.7588 155.133 26.5843 154.047 26.2488V23.4791H154.967C154.967 24.9062 155.664 26.1959 157.44 26.1959C158.497 26.1959 159.555 25.7414 159.555 24.6631C159.555 22.4748 154.174 23.5002 154.174 20.2971C154.174 18.2568 155.886 17.4534 157.916 17.4534C158.906 17.4621 159.888 17.6335 160.823 17.9608V20.2971H159.977C159.84 18.9968 159.343 18.0665 157.747 18.0665C156.764 18.0665 156.077 18.4365 156.077 19.3879C156.077 21.5657 161.479 20.2654 161.479 23.8702C161.479 25.9845 159.364 26.7668 157.356 26.7668" fill="#0078C1"/>
<path d="M174.016 19.8955H172.314V25.9106H173.615C175.951 25.9106 177.135 24.9592 177.135 22.8132C177.135 20.6672 176.342 19.8955 174.069 19.8955M173.932 14.1129C173.393 14.1129 172.875 14.1129 172.314 14.1658V19.2189H174.006C175.866 19.2189 176.501 18.3098 176.501 16.6923C176.501 15.0749 175.909 14.1129 173.932 14.1129ZM174.83 26.5766C172.494 26.5766 170.137 26.5026 167.811 26.5766V25.9635C168.276 25.9635 169.714 25.9635 169.714 25.2763V14.8C169.714 14.1446 168.297 14.0918 167.811 14.1129V13.4998C170.242 13.5738 172.695 13.4998 175.137 13.4998C177.579 13.4998 179.249 14.0389 179.249 16.4386C179.249 18.3838 177.811 19.24 175.856 19.4832V19.5572C178.287 19.7052 179.968 20.6143 179.968 22.9823C179.968 25.6886 177.441 26.5978 174.851 26.5978" fill="#0078C1"/>
<path d="M188.034 21.6608C186.089 21.8194 184.514 21.9568 184.514 24.1451C184.514 25.0331 184.82 25.9317 185.983 25.9317C187.601 25.9317 188.034 24.5891 188.034 23.3628V21.6608ZM189.546 26.6188C188.785 26.6188 188.055 26.5026 188.055 25.6674C187.217 26.4105 186.118 26.7907 185 26.7246C183.023 26.7246 182.019 25.8154 182.019 24.0077C182.019 20.942 185.761 21.1534 188.034 20.9948V19.6311C188.034 18.6268 187.516 18.0666 186.374 18.0666C185.063 18.0666 184.672 18.6586 184.672 19.758C184.672 20.2443 184.271 20.3394 183.837 20.3394C183.182 20.3394 182.717 20.3394 182.717 19.5783C182.717 17.8234 184.736 17.464 186.269 17.464C188.668 17.464 190.381 17.7811 190.381 20.2866V24.5151C190.381 25.7837 190.508 25.9423 191.924 25.9634V26.5554C191.121 26.5554 190.328 26.5554 189.546 26.5554V26.6188Z" fill="#0078C1"/>
<path d="M199.24 26.5765V26.0057C199.758 26.0057 200.741 25.9317 200.741 25.2763V20.5085C200.741 19.3563 200.508 18.3943 199.018 18.3943C197.305 18.3943 196.681 19.7368 196.681 21.09V25.3186C196.681 25.9211 197.739 26.0268 198.183 26.0268V26.6083C196.396 26.5343 194.451 26.5448 192.675 26.6083V26.0057C193.203 26.0057 194.292 26.0057 194.292 25.2763V18.9334C194.292 18.2568 193.235 18.2251 192.675 18.204V17.6331C193.986 17.6331 195.297 17.6331 196.607 17.6331V18.9545C197.015 18.4614 197.532 18.07 198.118 17.8113C198.703 17.5526 199.341 17.4337 199.98 17.464C202.21 17.464 203.045 18.4471 203.045 20.4028V25.2868C203.045 25.9423 204.103 25.9951 204.642 25.9951V26.5871C202.866 26.5343 200.963 26.5131 199.176 26.5871" fill="#0078C1"/>
<path d="M212.095 26.566V25.9846C212.253 25.9846 212.835 25.9846 212.771 25.7415C212.708 25.4983 212.274 25.1177 212.052 24.8112C211.481 24.1135 210.921 23.4052 210.329 22.6969L210.065 22.3057L209.251 23.0246V25.3715C209.251 26.1115 210.308 26.0163 210.847 26.0163V26.6083C209.018 26.5343 207.094 26.5343 205.276 26.6083V26.0163C205.773 26.0163 206.872 25.9423 206.872 25.308V14.2926C206.872 13.6266 205.815 13.5843 205.297 13.5737V12.9923C206.608 12.9923 207.961 12.9923 209.272 12.9923V22.2212C210.447 21.0261 211.542 19.7548 212.549 18.4155C212.549 18.2675 211.788 18.2357 211.64 18.2357V17.6966H215.657V18.2146H215.403C214.824 18.1685 214.242 18.2704 213.712 18.5106C212.958 19.2321 212.252 20.0019 211.598 20.8152L215.34 25.2763C215.554 25.5134 215.815 25.7035 216.106 25.8346C216.397 25.9656 216.712 26.0347 217.031 26.0375V26.6083C215.425 26.5237 213.744 26.6083 212.147 26.6083" fill="#0078C1"/>
</g>
<defs>
<clipPath id="clip0_1_9566">
<rect width="217.771" height="37" fill="white"/>
</clipPath>
</defs>
</svg>
