<svg width="193" height="128" viewBox="0 0 193 128" fill="none" xmlns="http://www.w3.org/2000/svg">
<path fill-rule="evenodd" clip-rule="evenodd" d="M158.524 65.1907V63.6581C158.524 63.4468 158.354 63.3946 158.269 63.5422C158.269 63.5422 156.898 65.6345 153.711 65.6345C150.523 65.6345 147.346 63.3411 147.346 58.0244C147.346 52.697 149.576 49.7586 153.817 49.7586C153.817 49.7586 156.26 49.5364 158.269 51.4808V44.4828H163.975V65.1907H158.524ZM88.8616 59.2403C88.8616 59.2403 87.5027 65.6243 79.6287 65.6243C71.7545 65.6243 69.5018 60.0543 69.5018 55.0754C69.5018 50.0958 72.1266 43.9442 80.0002 43.9442C87.8738 43.9442 89.1063 50.1391 89.1063 51.6925H82.9967C82.9967 51.6925 82.7099 48.9542 79.7984 48.9542C76.8868 48.9542 75.8989 51.6076 75.8989 55.075C75.8989 58.5418 77.1314 60.7091 79.6287 60.7091C82.1356 60.7091 83.0392 58.3836 83.0392 57.316H88.8932C88.8932 57.316 88.9367 49.8531 97.426 49.8531C105.916 49.8531 105.629 57.9715 105.629 57.9715C105.629 57.9715 105.789 65.6673 97.3407 65.6673C89.7543 65.6673 88.8616 59.2403 88.8616 59.2403Z" fill="#EF3742"/>
<path fill-rule="evenodd" clip-rule="evenodd" d="M155.793 61.6285C153.837 61.5866 153.264 59.5147 153.254 57.7704C153.254 56.1955 153.647 53.913 155.963 53.8912C158.024 53.8802 158.534 56.1642 158.502 57.6862C158.471 59.2822 158.184 61.6922 155.793 61.6285ZM97.1824 61.6285C95.2159 61.5866 94.6419 59.5147 94.6419 57.7704C94.6317 56.1955 95.025 53.913 97.3407 53.8912C99.4028 53.8802 99.9127 56.1642 99.8798 57.6862C99.849 59.2822 99.5622 61.6922 97.1824 61.6285Z" fill="white"/>
<path fill-rule="evenodd" clip-rule="evenodd" d="M105.874 65.1907V50.139H111.293L111.441 52.2852C111.441 52.2852 112.919 49.7688 116.276 49.7688C119.613 49.7688 120.845 52.2317 120.845 52.2317C120.845 52.2317 122.014 49.7688 126.168 49.7688C130.057 49.7688 131.12 52.094 131.237 55.5826L123.374 50.847L130.228 56.7552L126.126 58.341L130.313 58.0976L127.263 64.7155L131.247 58.9331V65.1903H125.574V56.7344C125.574 56.7344 125.69 54.2296 123.639 54.2296C121.588 54.2296 121.44 56.037 121.44 57.5379V65.1907H115.744V56.7136C115.744 56.7136 115.851 54.2504 113.747 54.2504C111.643 54.2504 111.526 56.0373 111.526 57.062V65.191L105.874 65.1907ZM147.005 49.642H138.505V52.4857H147.005V57.242H138.505V60.0952H147.005V65.1903H132.14V58.2783L141.459 64.7993L133.256 57.4005L146.198 54.1239L132.926 55.9528L137.942 45.0752L132.14 54.3983V44.5366H147.005V49.642Z" fill="#EF3742"/>
<path fill-rule="evenodd" clip-rule="evenodd" d="M113.801 73.0031L114.375 74.7262H113.152L113.79 73.0031H113.801Z" fill="white"/>
<path d="M22.2692 70.4069H163.886V70.8971H22.2692V70.4069ZM90.5657 81.7958H89.6446L89.144 80.3907H86.5775L86.0769 81.7958H85.2363L87.4362 75.7915H88.3477L90.5657 81.7958ZM88.9206 79.7324L88.1335 77.5951C88.0284 77.3012 87.9389 77.0019 87.8655 76.6986H87.8474C87.7754 76.9952 87.6836 77.2962 87.5702 77.6036L86.7923 79.7324H88.9202H88.9206ZM92.4256 77.3749C92.4256 77.7604 92.4016 78.0686 92.3537 78.3001L92.3718 78.3093C92.6579 77.6275 93.1795 77.2863 93.9364 77.2863C94.8307 77.2863 95.2782 77.7574 95.2782 78.7006V81.7958H94.473V78.9344C94.473 78.2745 94.2194 77.9442 93.713 77.9442C93.3494 77.9442 93.0482 78.1078 92.8101 78.435C92.5713 78.7616 92.4524 79.172 92.4524 79.6649V81.7958H91.6474V77.9977C91.3899 77.9549 91.1302 77.9252 90.8696 77.9087V77.4369C91.4299 77.3722 91.9483 77.351 92.4253 77.3749H92.4256ZM101.834 81.7958H98.7316V75.7915H101.835V76.4675H99.5543V78.3713H101.727V79.0299H99.5543V81.111H101.835L101.834 81.7958ZM106.905 81.7958H105.867L104.74 80.0968L103.614 81.7958H102.639L104.276 79.5807L102.72 77.3752H103.703L104.803 79.0387L105.921 77.3752H106.824L105.296 79.5545L106.905 81.7958ZM111.223 79.154C111.223 79.2552 111.215 79.3824 111.197 79.5364H108.291C108.255 80.6579 108.722 81.218 109.694 81.218C110.17 81.218 110.604 81.1294 110.991 80.9511L111.063 81.6001C110.621 81.7842 110.12 81.8762 109.561 81.8762C108.16 81.8762 107.459 81.1202 107.459 79.608C107.459 78.9263 107.636 78.3699 107.991 77.9401C108.346 77.5102 108.83 77.2948 109.444 77.2948C110.04 77.2948 110.493 77.4785 110.803 77.8463C111.083 78.1726 111.223 78.6082 111.223 79.154ZM110.401 78.9675C110.412 78.6413 110.328 78.3788 110.146 78.1801C109.965 77.9817 109.718 77.8821 109.408 77.8821C109.122 77.8821 108.882 77.9817 108.688 78.1801C108.494 78.3788 108.374 78.6413 108.326 78.9675H110.401ZM113.262 75.3023V81.7958H112.458V75.9248C112.2 75.8818 111.941 75.8522 111.68 75.8362V75.3651C112.205 75.3012 112.734 75.2802 113.262 75.3023ZM118.529 79.5098C118.529 80.1862 118.329 80.7489 117.93 81.2003C117.53 81.6509 117.006 81.8759 116.356 81.8759C115.73 81.8759 115.247 81.6952 114.908 81.3339C114.544 80.9484 114.362 80.3788 114.362 79.6257C114.362 78.9617 114.559 78.4067 114.952 77.9622C115.346 77.517 115.87 77.2948 116.526 77.2948C117.135 77.2948 117.611 77.4642 117.956 77.802C118.338 78.1818 118.529 78.7507 118.529 79.5098ZM117.688 79.5501C117.688 78.4855 117.277 77.9534 116.454 77.9534C116.103 77.9534 115.814 78.0812 115.587 78.3369C115.331 78.6225 115.203 79.0234 115.203 79.5409C115.203 80.647 115.62 81.2003 116.454 81.2003C116.807 81.2003 117.095 81.0663 117.321 80.7984C117.566 80.5073 117.688 80.091 117.688 79.5501ZM120.666 77.3749C120.666 77.7604 120.642 78.0686 120.594 78.3001L120.613 78.3093C120.898 77.6275 121.42 77.2863 122.178 77.2863C123.072 77.2863 123.519 77.7574 123.519 78.7006V81.7958H122.714V78.9344C122.714 78.2745 122.46 77.9442 121.954 77.9442C121.59 77.9442 121.289 78.1078 121.05 78.435C120.812 78.7616 120.694 79.172 120.694 79.6649V81.7958H119.888V77.9977C119.631 77.9549 119.371 77.9252 119.11 77.9087V77.4369C119.671 77.3722 120.189 77.351 120.666 77.3749ZM131.003 81.5647C130.508 81.7668 129.963 81.867 129.366 81.867C128.436 81.867 127.736 81.5913 127.265 81.0411C126.836 80.5434 126.621 79.848 126.621 78.9535C126.621 77.9888 126.859 77.2249 127.337 76.6621C127.849 76.0519 128.594 75.7472 129.572 75.7472C130.007 75.7472 130.463 75.8058 130.94 75.9231L130.85 76.6631C130.407 76.5299 129.946 76.461 129.483 76.4586C128.827 76.4586 128.326 76.687 127.98 77.1424C127.67 77.5627 127.515 78.1218 127.515 78.8206C127.515 80.3658 128.198 81.1376 129.564 81.1376C130.058 81.1376 130.508 81.0367 130.914 80.8352L131.003 81.5647ZM135.938 79.5098C135.938 80.1862 135.739 80.7489 135.339 81.2003C134.94 81.6509 134.415 81.8759 133.765 81.8759C133.14 81.8759 132.657 81.6952 132.317 81.3339C131.954 80.9484 131.772 80.3788 131.772 79.6257C131.772 78.9617 131.968 78.4067 132.362 77.9622C132.755 77.517 133.28 77.2948 133.936 77.2948C134.544 77.2948 135.02 77.4642 135.366 77.802C135.747 78.1818 135.938 78.7507 135.938 79.5098ZM135.098 79.5501C135.098 78.4855 134.687 77.9534 133.864 77.9534C133.512 77.9534 133.223 78.0812 132.997 78.3369C132.741 78.6225 132.612 79.0234 132.612 79.5409C132.612 80.647 133.03 81.2003 133.864 81.2003C134.216 81.2003 134.505 81.0663 134.731 80.7984C134.975 80.5073 135.098 80.091 135.098 79.5501ZM143.637 81.7958H142.833V78.9522C142.833 78.6191 142.785 78.3754 142.69 78.221C142.577 78.0366 142.385 77.9442 142.112 77.9442C141.779 77.9442 141.495 78.0986 141.257 78.4078C141.002 78.7405 140.874 79.1656 140.874 79.6827V81.7958H140.07V78.9426C140.07 78.2772 139.828 77.9442 139.345 77.9442C138.999 77.9442 138.706 78.1098 138.465 78.4391C138.223 78.7691 138.103 79.1836 138.103 79.683V81.7958H137.297V77.9977C137.04 77.9548 136.78 77.9251 136.519 77.9087V77.4369C137.08 77.3722 137.599 77.351 138.076 77.3749C138.076 77.755 138.052 78.0631 138.004 78.3001L138.022 78.3093C138.144 78.005 138.356 77.7445 138.63 77.5617C138.904 77.3783 139.217 77.2863 139.569 77.2863C139.986 77.2863 140.302 77.4076 140.517 77.651C140.678 77.8283 140.77 78.0423 140.794 78.2912C140.905 78.0324 141.08 77.8061 141.304 77.6333C141.59 77.4015 141.927 77.2863 142.314 77.2863C143.196 77.2863 143.637 77.77 143.637 78.736V81.7958ZM145.39 77.9977C145.133 77.9549 144.873 77.9252 144.612 77.9087V77.4369C145.178 77.3722 145.694 77.351 146.159 77.3749C146.159 77.7782 146.138 78.0778 146.097 78.2735L146.114 78.282C146.383 77.6237 146.88 77.2948 147.608 77.2948C148.126 77.2948 148.528 77.4744 148.81 77.8324C149.093 78.1899 149.234 78.7037 149.234 79.3725C149.234 80.1541 149.034 80.7605 148.631 81.1924C148.229 81.6247 147.667 81.8401 146.946 81.8401C146.654 81.8401 146.403 81.8255 146.195 81.7958V83.9931H145.39V77.9977ZM148.395 79.4437C148.395 78.4504 148.067 77.9534 147.411 77.9534C147.035 77.9534 146.731 78.1395 146.498 78.5117C146.296 78.8434 146.195 79.2249 146.195 79.6568V81.111C146.427 81.1826 146.69 81.218 146.982 81.218C147.924 81.218 148.395 80.6259 148.395 79.4437ZM154.278 81.7338C153.712 81.7992 153.199 81.8197 152.74 81.7958C152.74 81.3755 152.755 81.0813 152.785 80.9153H152.768C152.654 81.1941 152.463 81.4239 152.195 81.6046C151.927 81.7863 151.614 81.8759 151.256 81.8759C150.88 81.8759 150.581 81.7794 150.357 81.5872C150.134 81.3946 150.022 81.126 150.022 80.782C150.022 80.2959 150.259 79.91 150.733 79.6257C151.207 79.3411 151.861 79.1986 152.695 79.1986V78.8697C152.695 78.5492 152.621 78.312 152.472 78.1576C152.323 78.0035 152.073 77.9264 151.721 77.9264C151.232 77.9264 150.785 78.0481 150.38 78.2912L150.299 77.6064C150.812 77.3926 151.33 77.2859 151.855 77.2859C152.457 77.2859 152.893 77.423 153.16 77.6957C153.387 77.9322 153.501 78.2885 153.501 78.7626V81.1737C153.745 81.2153 154.004 81.2446 154.278 81.2623L154.278 81.7338ZM152.695 79.8391V79.759C151.438 79.759 150.809 80.0498 150.809 80.6303C150.809 80.8144 150.869 80.9634 150.992 81.0755C151.114 81.1887 151.28 81.2446 151.488 81.2446C151.834 81.2446 152.126 81.0963 152.365 80.7997C152.583 80.527 152.7 80.1876 152.695 79.8391ZM156.21 77.3749C156.21 77.7604 156.186 78.0686 156.138 78.3001L156.156 78.3093C156.442 77.6275 156.963 77.2863 157.72 77.2863C158.615 77.2863 159.062 77.7574 159.062 78.7006V81.7958H158.257V78.9344C158.257 78.2745 158.004 77.9442 157.497 77.9442C157.133 77.9442 156.833 78.1078 156.594 78.435C156.355 78.7616 156.236 79.172 156.236 79.6649V81.7958H155.432V77.9977C155.174 77.9548 154.914 77.9251 154.653 77.9087V77.4369C155.214 77.3722 155.733 77.351 156.21 77.3749ZM164.034 77.3749L162.183 82.241C161.921 82.9347 161.655 83.4102 161.387 83.6683C161.119 83.9263 160.743 84.0558 160.26 84.0558C160.111 84.0558 159.917 84.0378 159.679 84.0023L159.75 83.2814C159.935 83.3416 160.128 83.3716 160.323 83.3703C160.573 83.3703 160.773 83.2964 160.923 83.1484C161.071 82.9995 161.226 82.7155 161.387 82.2942L161.576 81.7958L159.894 77.3749H160.806L161.646 79.6704C161.735 79.9066 161.849 80.2721 161.985 80.7643H162.004C162.082 80.4677 162.227 80.0144 162.442 79.4031L163.158 77.3749H164.034ZM168.574 61.2703C169.176 61.2703 169.685 61.4768 170.104 61.8893C170.522 62.3021 170.731 62.8076 170.731 63.4059C170.731 63.9905 170.519 64.4926 170.093 64.9122C169.669 65.3315 169.162 65.5405 168.574 65.5405C167.968 65.5405 167.454 65.3343 167.036 64.9221C166.618 64.5097 166.409 64.0031 166.409 63.4059C166.409 62.8141 166.619 62.3103 167.041 61.8944C167.462 61.4785 167.973 61.2703 168.574 61.2703ZM168.574 61.8262C168.137 61.8262 167.766 61.9786 167.462 62.2844C167.158 62.5902 167.006 62.96 167.006 63.3957C167.006 63.8317 167.16 64.207 167.468 64.5219C167.774 64.8369 168.143 64.9947 168.574 64.9947C169.006 64.9947 169.375 64.8403 169.682 64.5322C169.989 64.223 170.143 63.8538 170.143 63.4246C170.143 62.9893 169.989 62.6147 169.682 62.2994C169.375 61.9837 169.006 61.8262 168.574 61.8262ZM169.476 64.5073H168.888L168.369 63.5808H168.33V64.5073H167.849V62.2844H168.624C169.133 62.2844 169.388 62.4797 169.388 62.8697C169.388 63.2269 169.215 63.4379 168.868 63.5027C168.901 63.5358 168.963 63.6329 169.055 63.7959L169.476 64.5073ZM168.879 62.9273C168.879 62.7459 168.764 62.6546 168.536 62.6546H168.33V63.2692H168.467C168.741 63.2692 168.879 63.1557 168.879 62.9273Z" fill="#83706C"/>
</svg>
