<svg width="182" height="34" viewBox="0 0 182 34" fill="none" xmlns="http://www.w3.org/2000/svg">
<g clip-path="url(#clip0_1_9260)">
<path d="M171.8 29C171.8 26.3 174 24.2 176.6 24.2C179.3 24.2 181.4 26.4 181.4 29C181.4 31.6 179.2 33.7999 176.6 33.7999C174 33.7999 171.8 31.7 171.8 29Z" fill="#86BC25"/>
<path d="M27.6 16.1C27.6 21.7 26.2 25.9 23.2 28.9C20.2 31.9 16 33.4 10.6 33.4H0V0.0999756H11.2C16.5 0.0999756 20.5 1.39998 23.3 4.19998C26.2 6.89998 27.6 10.9 27.6 16.1ZM18.4 16.4C18.4 13.3 17.8 11.1 16.6 9.59998C15.5 8.19998 13.6 7.39998 11.2 7.39998H8.8V26H10.8C13.5 26 15.4 25.2 16.7 23.6C17.8 22 18.4 19.6 18.4 16.4Z" fill="black"/>
<path d="M65 0H56.7V33.4H65V0Z" fill="black"/>
<path d="M92.4 20.9C92.4 24.9 91.4 28.1 89.2 30.4C87 32.7 84 33.8 80.2 33.8C76.5 33.8 73.6 32.7 71.4 30.3C69.2 27.9 68.1 24.8 68.1 20.9C68.1 16.9 69.1 13.7 71.3 11.5C73.5 9.19998 76.5 8.09998 80.3 8.09998C82.7 8.09998 84.8 8.59998 86.6 9.59998C88.5 10.6 89.8 12.1 90.8 14C92 16.1 92.4 18.3 92.4 20.9ZM76.7 20.9C76.7 23.1 77 24.6 77.5 25.7C78 26.8 78.9 27.3 80.3 27.3C81.7 27.3 82.5 26.8 83.1 25.7C83.6 24.6 83.9 22.9 83.9 20.9C83.9 18.7 83.6 17.2 83.1 16.1C82.6 15.1 81.7 14.5 80.3 14.5C79.1 14.5 78.1 15 77.5 16.1C77 17.2 76.7 18.7 76.7 20.9Z" fill="black"/>
<path d="M104.1 8.5H95.8V33.3H104.1V8.5Z" fill="black"/>
<path d="M104.1 0H95.8V5.6H104.1V0Z" fill="black"/>
<path d="M121 27C122.1 27 123.5 26.7 125 26.2V32.5C123.9 33 122.8 33.3 121.8 33.5C120.8 33.7 119.6 33.8 118.2 33.8C115.4 33.8 113.4 33.1 112.1 31.6C110.9 30.2 110.2 28 110.2 25.1V14.9H107.3V8.50002H110.2V2.30002L118.6 0.900024V8.70002H124V15H118.6V24.6C118.8 26.3 119.5 27 121 27Z" fill="black"/>
<path d="M140.4 27C141.5 27 142.9 26.7 144.4 26.2V32.5C143.3 33 142.2 33.3 141.2 33.5C140.2 33.7 139 33.8 137.6 33.8C134.8 33.8 132.8 33.1 131.5 31.6C130.3 30.2 129.6 28 129.6 25.1V14.9H126.7V8.50002H129.6V2.20002L138 0.900024V8.70002H143.4V15H138V24.6C138.1 26.3 138.9 27 140.4 27Z" fill="black"/>
<path d="M166.8 11C164.8 8.99998 162 8.09998 158.4 8.09998C154.6 8.09998 151.6 9.19998 149.5 11.5C147.4 13.8 146.4 17 146.4 21.2C146.4 25.2 147.5 28.4 149.7 30.6C152 32.8 155.1 33.9 159.1 33.9C161.1 33.9 162.7 33.8 164.1 33.5C165.4 33.2 166.9 32.8 168.1 32.1L166.9 26.5C166 26.9 165 27.2 164.2 27.4C163 27.7 161.6 27.8 160.2 27.8C158.6 27.8 157.3 27.4 156.4 26.7C155.5 25.9 155 24.8 155 23.4H169.9V19.5C169.8 15.8 168.7 13 166.8 11ZM155 17.9C155.1 16.6 155.5 15.5 156.1 14.9C156.7 14.3 157.5 14 158.6 14C159.6 14 160.6 14.3 161.2 15C161.8 15.7 162.1 16.6 162.2 17.9H155Z" fill="black"/>
<path d="M50.5 11C48.4 8.99998 45.7 8.09998 42.1 8.09998C38.3 8.09998 35.3 9.19998 33.2 11.5C31.1 13.8 30.1 17 30.1 21.2C30.1 25.2 31.2 28.4 33.4 30.6C35.7 32.8 38.8 33.9 42.8 33.9C44.8 33.9 46.4 33.8 47.8 33.5C49.1 33.2 50.6 32.8 51.8 32.1L50.6 26.4C49.7 26.8 48.7 27.1 47.9 27.3C46.7 27.6 45.3 27.7 43.9 27.7C42.3 27.7 41 27.3 40.1 26.6C39.2 25.8 38.7 24.7 38.7 23.3H53.6V19.5C53.5 15.8 52.4 13 50.5 11ZM38.6 17.9C38.7 16.6 39.1 15.5 39.7 14.9C40.3 14.3 41.1 14 42.2 14C43.3 14 44.2 14.3 44.8 15C45.4 15.7 45.7 16.6 45.8 17.9H38.6Z" fill="black"/>
</g>
<defs>
<clipPath id="clip0_1_9260">
<rect width="182" height="34" fill="white"/>
</clipPath>
</defs>
</svg>
