<svg width="200" height="27" viewBox="0 0 200 27" fill="none" xmlns="http://www.w3.org/2000/svg">
<path d="M32.6961 9.49573C32.6961 12.2792 31.1916 15.0229 28.2256 17.6523C28.0945 17.7678 27.9314 17.8248 27.7689 17.8248C27.5793 17.8248 27.39 17.7468 27.2537 17.5931C27.0016 17.3089 27.0275 16.874 27.3126 16.6216C29.9715 14.2659 31.3197 11.8682 31.3197 9.49573V9.4624C31.3197 7.53685 30.1116 5.2702 28.5693 4.30289C28.2473 4.10095 28.1502 3.67604 28.3524 3.35436C28.5541 3.03235 28.9793 2.93527 29.3013 3.13656C31.2359 4.35079 32.6961 7.07083 32.6961 9.4624V9.49573ZM23.7625 15.3035C23.6564 15.3633 23.5411 15.3912 23.4266 15.3912C23.1855 15.3912 22.9515 15.2643 22.8253 15.0394C22.6402 14.7077 22.7583 14.2879 23.0903 14.1028C24.6835 13.2103 25.755 11.476 25.7593 9.78343C25.7557 8.22778 24.8981 6.81226 23.5188 6.0867C23.1819 5.90935 23.0528 5.4935 23.2298 5.15693C23.4072 4.82069 23.8233 4.69124 24.1596 4.86794C25.9897 5.83039 27.1278 7.70836 27.1363 9.7734V9.79444C27.1275 11.9659 25.7732 14.1776 23.7625 15.3035ZM18.236 13.2811C16.5868 13.2805 15.2503 11.9433 15.2503 10.2938C15.2503 8.6446 16.5868 7.3074 18.236 7.30675C19.8849 7.3074 21.2214 8.6446 21.2214 10.2938C21.2214 11.9433 19.8849 13.2805 18.236 13.2811ZM13.6464 15.0394C13.5202 15.2643 13.2862 15.3912 13.0454 15.3912C12.9309 15.3912 12.8157 15.3633 12.7092 15.3035C10.6985 14.1776 9.34417 11.9659 9.33543 9.79444V9.7734C9.34385 7.70836 10.482 5.83039 12.3121 4.86794C12.6484 4.69124 13.0645 4.82069 13.2419 5.15693C13.4189 5.4935 13.2898 5.90935 12.9529 6.0867C11.5736 6.81226 10.716 8.22778 10.7124 9.78343C10.7166 11.476 11.7882 13.2103 13.3814 14.1028C13.7137 14.2879 13.8318 14.7077 13.6464 15.0394ZM9.21796 17.5931C9.08171 17.7468 8.89239 17.8248 8.70307 17.8248C8.54029 17.8248 8.37719 17.7678 8.24644 17.6523C5.28012 15.0229 3.77593 12.2792 3.77593 9.49573V9.4624C3.77593 7.07083 5.23579 4.35079 7.1704 3.13656C7.49273 2.93527 7.91764 3.03235 8.11926 3.35436C8.32152 3.67604 8.22476 4.10095 7.90243 4.30289C6.36005 5.2702 5.15229 7.53685 5.15229 9.4624V9.49573C5.15229 11.8682 6.5005 14.2659 9.15905 16.6216C9.44417 16.874 9.47006 17.3089 9.21796 17.5931ZM26.5382 8.37198e-06C23.0945 8.37198e-06 20.0175 1.8246 18.236 4.48898C16.4541 1.8246 13.3775 8.37198e-06 9.93348 8.37198e-06C4.44582 8.37198e-06 0 4.44626 0 9.93327C0 13.4148 2.20493 15.9245 4.50828 18.2474L13.5144 26.7619C13.9862 27.2079 14.7629 26.8733 14.7629 26.2241V19.5902C14.7629 17.6707 16.3173 16.1145 18.236 16.1115C20.1544 16.1145 21.7088 17.6707 21.7088 19.5902V26.2241C21.7088 26.8733 22.4855 27.2079 22.9573 26.7619L31.9634 18.2474C34.267 15.9245 36.4718 13.4148 36.4718 9.93327C36.4718 4.44626 32.0259 8.37198e-06 26.5382 8.37198e-06Z" fill="#C71D2C"/>
<path d="M48.6562 6.23213H53.7109V13.0576H60.196V6.23213H65.2474V24.4644H60.196V17.5372H53.7109V24.4644H48.6562V6.23213Z" fill="#17191D"/>
<path d="M76.2904 16.1929C76.2904 14.6868 75.1973 13.7082 73.8432 13.7082C72.5406 13.7082 71.5109 14.7146 71.3953 16.1929H76.2904ZM66.707 17.4852V17.4331C66.707 13.3182 69.6497 10.0626 73.817 10.0626C78.6875 10.0626 80.927 13.6298 80.927 17.7719C80.927 18.0835 80.927 18.4476 80.9008 18.7877H71.4724C71.8639 20.3246 72.9834 21.1071 74.5199 21.1071C75.6927 21.1071 76.6293 20.6625 77.6458 19.6715L80.382 21.9375C79.0257 23.6573 77.0726 24.8032 74.2591 24.8032C69.8329 24.8032 66.707 21.8605 66.707 17.4852Z" fill="#17191D"/>
<path d="M97.5664 10.3745H102.513V13.2127C103.321 11.2858 104.624 10.0366 106.967 10.1395V15.3495H106.551C103.973 15.3495 102.513 16.8333 102.513 20.0899V24.4644H97.5664V10.3745Z" fill="#17191D"/>
<path d="M110.054 20.09V14.3587H108.39V10.3746H110.054V6.80598H115.005V10.3746H118.287V14.3587H115.005V19.1266C115.005 20.1162 115.449 20.5308 116.358 20.5308C117.01 20.5308 117.636 20.3496 118.234 20.0641V23.9431C117.349 24.4382 116.177 24.7524 114.796 24.7524C111.829 24.7524 110.054 23.4476 110.054 20.09Z" fill="#17191D"/>
<path d="M43.8023 4.91916C42.3515 4.91916 41.1758 6.09489 41.1758 7.54568C41.1758 8.99616 42.3515 10.1719 43.8023 10.1719C45.2528 10.1719 46.4288 8.99616 46.4288 7.54568C46.4288 6.09489 45.2528 4.91916 43.8023 4.91916Z" fill="#17191D"/>
<path d="M88.2595 21.6511C86.9773 21.7062 86.2155 20.9667 86.2155 20.08C86.2155 19.2224 86.8967 18.7787 88.1404 18.7787H90.9624V18.9324C90.9449 19.5113 90.7086 21.5456 88.2595 21.6511ZM95.6507 17.3835C95.6507 13.0078 92.5248 10.0651 88.0986 10.0651C85.2851 10.0651 83.332 11.2111 81.9757 12.9308L84.7119 15.1968C85.7281 14.2059 86.665 13.7616 87.8378 13.7616C89.3572 13.7616 90.4675 14.5279 90.8708 16.0314L90.875 16.1392L87.6168 16.1531C83.5676 16.2059 81.4414 17.7149 81.4414 20.5738C81.4414 23.3269 83.4035 24.8032 86.7825 24.8032C88.6129 24.8032 90.0193 24.0851 90.9624 23.1065V24.4644H95.6449V17.5712C95.6458 17.525 95.6507 17.4829 95.6507 17.4356V17.3835Z" fill="#17191D"/>
<path d="M120.906 7.4988C120.906 6.96158 121.366 6.50139 121.904 6.50139H122.134C122.567 6.50139 122.875 6.73245 123.08 7.03892L129.471 16.6528L135.863 7.03892C136.068 6.70786 136.401 6.50139 136.81 6.50139H137.04C137.575 6.50139 138.037 6.96158 138.037 7.4988V23.5809C138.037 24.1437 137.575 24.6035 137.04 24.6035C136.476 24.6035 136.016 24.1184 136.016 23.5809V10.2344L130.289 18.6476C130.059 18.9806 129.803 19.1595 129.446 19.1595C129.088 19.1595 128.807 18.9806 128.576 18.6476L122.875 10.2616V23.6061C122.875 24.1702 122.439 24.6035 121.877 24.6035C121.34 24.6035 120.906 24.1702 120.906 23.6061V7.4988Z" fill="#8B8F92"/>
<path d="M142.145 23.4543V7.60104C142.145 7.03859 142.605 6.57872 143.142 6.57872H154.263C154.775 6.57872 155.184 6.98875 155.184 7.49878C155.184 8.01075 154.775 8.41884 154.263 8.41884H144.164V14.5314H153.113C153.624 14.5314 154.033 14.9644 154.033 15.4518C154.033 15.9618 153.624 16.3715 153.113 16.3715H144.164V22.6359H154.391C154.902 22.6359 155.311 23.044 155.311 23.5563C155.311 24.0682 154.902 24.4763 154.391 24.4763H143.142C142.605 24.4763 142.145 24.0161 142.145 23.4543Z" fill="#8B8F92"/>
<path d="M158.312 7.60096C158.312 7.03883 158.773 6.57864 159.31 6.57864H164.525C170.15 6.57864 174.037 10.4401 174.037 15.4766V15.5287C174.037 20.5646 170.15 24.4766 164.525 24.4766H159.31C158.773 24.4766 158.312 24.0164 158.312 23.4539V7.60096ZM164.525 22.6089C169.051 22.6089 171.94 19.5426 171.94 15.5786V15.5287C171.94 11.5647 169.051 8.44594 164.525 8.44594H160.332V22.6089H164.525Z" fill="#8B8F92"/>
<path d="M177.609 7.47371C177.609 6.91157 178.07 6.4517 178.607 6.4517C179.169 6.4517 179.629 6.91157 179.629 7.47371V23.581C179.629 24.1432 179.169 24.603 178.607 24.603C178.07 24.603 177.609 24.1432 177.609 23.581V7.47371Z" fill="#8B8F92"/>
<path d="M182.717 23.1463L189.978 7.26999C190.235 6.70786 190.618 6.37486 191.257 6.37486H191.36C191.973 6.37486 192.382 6.70786 192.612 7.26999L199.874 23.1213C199.951 23.3 200.001 23.4793 200.001 23.6336C200.001 24.1702 199.566 24.6035 199.029 24.6035C198.544 24.6035 198.211 24.2721 198.032 23.8624L196.165 19.7463H186.348L184.481 23.9145C184.302 24.3495 183.97 24.6035 183.51 24.6035C182.999 24.6035 182.59 24.1954 182.59 23.6835C182.59 23.531 182.615 23.3524 182.717 23.1463ZM195.374 17.9065L191.257 8.75218L187.141 17.9065H195.374Z" fill="#8B8F92"/>
<path d="M43.8952 11.4081H43.7133C42.2862 11.4081 41.1289 12.5651 41.1289 13.9926V24.4644H46.4793V13.9926C46.4793 12.5651 45.3224 11.4081 43.8952 11.4081Z" fill="#17191D"/>
</svg>
