<svg width="246" height="136" viewBox="0 0 246 136" fill="none" xmlns="http://www.w3.org/2000/svg">
<rect width="246" height="136" fill="white"/>
<path fill-rule="evenodd" clip-rule="evenodd" d="M203.555 61.9815C203.555 56.6177 201.445 53.4521 197.752 53.4521C197.752 53.4521 197.048 53.5401 196.697 53.5401C195.378 53.7159 195.026 54.0677 195.026 55.7384V68.5763C195.026 70.3349 196.081 70.4228 197.664 70.5108C201.445 70.6866 203.555 67.4332 203.555 61.9815ZM205.402 54.1556C207.16 56.0021 208.128 58.728 208.128 62.0694C208.128 65.7625 206.897 68.8401 204.61 70.6866C202.852 72.0935 200.653 72.797 197.312 72.797C193.531 72.797 190.981 72.4452 190.102 72.3573C189.222 72.1815 188.783 72.0935 188.783 71.478C188.783 71.0383 189.047 70.5987 189.486 70.5987H190.102C190.278 70.5987 190.541 70.4228 190.629 70.159C190.717 69.8952 190.717 69.7194 190.717 68.928V55.2108C190.717 54.4194 190.717 54.2435 190.629 53.9797C190.541 53.7159 190.278 53.5401 190.102 53.5401H189.486C189.047 53.5401 188.783 53.1884 188.783 52.6608C188.783 51.9573 189.222 51.8694 190.102 51.7815C190.981 51.6935 193.443 51.3418 197.312 51.3418C201.181 51.4297 203.555 52.2211 205.402 54.1556ZM184.122 62.0694C184.122 56.8815 182.012 53.628 178.583 53.628C175.241 53.628 173.131 56.8815 173.131 62.1573C173.131 67.3452 175.153 70.5108 178.583 70.5108C182.012 70.5108 184.122 67.2573 184.122 62.0694ZM164.074 62.0694C164.074 56.8815 161.964 53.628 158.534 53.628C155.193 53.628 153.083 56.8815 153.083 62.1573C153.083 67.3452 155.105 70.5108 158.534 70.5108C161.964 70.5108 164.074 67.2573 164.074 62.0694ZM178.583 51.4297C184.65 51.4297 188.607 55.5625 188.607 61.9815C188.607 68.5763 184.65 72.709 178.495 72.709C173.571 72.709 170.053 69.8952 168.91 65.4108V65.3228C168.822 64.7952 168.383 64.7952 168.207 65.3228C168.207 65.3228 168.207 65.3228 168.207 65.4108C167.064 69.9832 163.547 72.709 158.534 72.709C152.467 72.709 148.598 68.4883 148.598 62.1573C148.598 55.5625 152.467 51.4297 158.622 51.4297C163.634 51.4297 167.24 54.2435 168.295 58.8159C168.383 59.3435 168.822 59.3435 168.91 58.8159C170.053 54.1556 173.571 51.4297 178.583 51.4297ZM148.862 54.6832L148.422 52.5728C148.334 52.0452 147.983 51.7815 147.367 51.7815H134.178C133.122 51.7815 132.771 52.0452 132.771 52.6608C132.771 53.1004 133.122 53.5401 133.562 53.5401H134.178C134.353 53.5401 134.617 53.7159 134.705 53.9797C134.793 54.2435 134.793 54.4194 134.793 55.2108V68.928C134.793 69.7194 134.793 69.8952 134.705 70.159C134.617 70.4228 134.353 70.5987 134.178 70.5987H133.562C133.122 70.5987 132.771 70.9504 132.771 71.478C132.771 72.1815 133.122 72.3573 134.178 72.3573H139.805C140.948 72.3573 141.3 72.1815 141.3 71.478C141.3 71.0383 140.948 70.5987 140.509 70.5987H139.805C139.541 70.5987 139.278 70.4228 139.19 70.159C139.102 69.9832 139.102 69.8073 139.102 68.928V63.9159C139.102 63.2125 139.19 62.9487 139.366 62.7728C139.541 62.6849 139.717 62.6849 140.597 62.6849H143.147C144.466 62.6849 144.641 62.7728 144.729 63.3883V63.5642C144.817 64.0918 145.081 64.3556 145.521 64.3556C146.136 64.3556 146.4 64.0039 146.4 62.9487V60.3987C146.4 59.3435 146.224 58.9918 145.521 58.9918C145.081 58.9918 144.817 59.2556 144.729 59.7832V59.959C144.641 60.5746 144.466 60.6625 143.147 60.6625H140.597C139.717 60.6625 139.541 60.6625 139.366 60.5746C139.19 60.4866 139.102 60.1349 139.102 59.4315V55.8263C139.102 54.1556 139.278 53.9797 140.948 53.9797H144.905C146.312 53.9797 146.928 54.0677 147.279 54.859C147.455 55.2108 147.543 55.4746 147.543 55.4746C147.719 55.9142 148.071 55.9142 148.334 55.9142C148.774 55.9142 149.038 55.4746 148.862 54.6832ZM220.878 62.6849C219.91 61.7177 219.119 61.1021 216.657 59.3435C216.041 58.9039 215.514 58.5521 215.162 58.2884C214.547 57.8487 214.107 57.3211 213.755 56.8815C213.491 56.5297 213.403 56.0901 213.403 55.6504C213.403 54.4194 214.283 53.628 215.69 53.628C216.657 53.628 217.712 53.9797 218.591 54.5952C219.207 55.1228 219.383 55.2108 220.086 56.2659C220.35 56.6177 220.526 56.7935 220.878 56.7935C221.405 56.7935 221.757 56.4418 221.757 56.0901C221.757 56.0021 221.757 55.8263 221.669 55.6504L220.966 52.309C220.878 51.7815 220.526 51.4297 220.086 51.4297C219.822 51.4297 219.734 51.4297 219.471 51.6935C219.207 51.8694 218.943 51.9573 218.767 51.9573C218.679 51.9573 218.503 51.9573 218.328 51.8694C217.888 51.7815 217.624 51.6935 217.536 51.6935C216.657 51.5177 215.778 51.4297 214.898 51.4297C211.557 51.4297 209.271 53.3642 209.271 56.3539C209.271 57.5849 209.622 58.6401 210.414 59.6073C211.381 60.6625 211.645 60.9263 214.547 62.9487C216.305 64.1797 217.097 64.8832 217.8 65.5866C218.416 66.2901 218.767 67.0815 218.767 67.8728C218.767 69.4556 217.448 70.5987 215.426 70.5987C213.667 70.5987 211.997 69.6315 210.941 68.1366L210.502 67.5211C210.326 67.2573 210.062 67.0815 209.71 67.0815C209.183 67.0815 208.743 67.5211 208.743 68.0487C208.743 68.2246 208.743 68.4883 208.831 68.6642L209.622 71.7418C209.798 72.4452 210.062 72.797 210.59 72.797C210.853 72.797 211.029 72.709 211.293 72.5332C211.557 72.2694 211.645 72.2694 211.909 72.2694C212.084 72.2694 212.172 72.2694 212.612 72.4452C213.491 72.709 214.722 72.8849 215.778 72.8849C219.822 72.8849 222.46 70.5108 222.46 66.9935C222.548 65.2349 221.933 63.7401 220.878 62.6849ZM82.4741 53.2763C85.1121 54.2435 86.1672 57.1452 86.1672 61.6297C86.1672 66.9935 83.969 70.4228 80.4517 70.4228C76.8465 70.4228 74.7362 67.1694 74.7362 61.7177C74.7362 58.2004 75.2638 55.4746 77.7259 53.0125C80.1879 50.5504 82.4741 50.9021 84.7603 48.0004C85.7276 46.7694 85.7276 45.7142 84.9362 45.5384C84.2328 45.3625 83.7931 46.2418 83.1776 46.6815C80.7155 48.2642 77.9897 46.7694 76.4948 45.0987C75 43.3401 73.0655 43.428 71.9224 43.6918C71.3948 43.7797 71.131 43.428 71.6586 42.9884C72.8897 42.0211 75.4397 41.9332 77.0224 43.428C78.3414 44.659 80.1879 45.6263 81.5069 45.3625C82.2983 45.1866 82.3862 44.3073 81.5069 43.9556C78.9569 43.0763 79.2207 40.1746 75.7914 39.2073C71.7466 38.0642 68.0534 41.8452 66.9983 45.7142C66.7345 46.7694 67.35 47.4728 68.4052 47.0332C71.7465 45.5384 72.6259 47.6487 75.5276 48.7918C76.8465 49.3194 78.3414 49.1435 79.2207 49.0556C79.9241 48.8797 79.9241 49.6711 79.5724 49.759C77.6379 50.3746 75.7034 51.4297 74.4724 52.309C71.6586 54.1556 70.0759 57.497 70.0759 61.8056C70.0759 68.4883 74.2086 72.8849 80.4517 72.8849C86.9586 72.8849 91.0034 68.4883 91.0034 61.6297C91.0034 57.6728 89.7724 54.7711 87.2224 52.9246C85.8155 51.8694 84.4965 51.4297 83.0897 51.5177C81.419 51.5177 81.2431 52.7487 82.4741 53.2763ZM51.1707 53.4521C51.6983 53.3642 52.4017 53.4521 52.4017 55.0349V68.8401C52.4017 69.6315 52.4017 69.8073 52.3138 70.0711C52.2259 70.247 51.9621 70.4228 51.7862 70.4228H51.1707C50.731 70.4228 50.3793 70.8625 50.3793 71.3021C50.3793 72.0056 50.731 72.1815 51.7862 72.1815H57.3259C58.2931 72.1815 58.6448 72.0056 58.6448 71.3021C58.6448 70.7746 58.2931 70.4228 57.9414 70.4228H57.3259C57.0621 70.4228 56.7983 70.247 56.7103 70.0711C56.6224 69.8073 56.6224 69.6315 56.6224 68.8401V64.1797C56.6224 62.7728 56.7103 62.6849 57.8534 62.6849H61.9862C62.6017 62.6849 62.8655 62.7728 63.0414 62.9487C63.2172 63.1246 63.2172 63.2125 63.2172 64.3556V68.8401C63.2172 69.6315 63.2172 69.8073 63.1293 70.0711C63.0414 70.247 62.7776 70.4228 62.6017 70.4228H61.9862C61.5466 70.4228 61.1948 70.8625 61.1948 71.3021C61.1948 72.0056 61.5466 72.1815 62.6017 72.1815H68.1414C69.1966 72.1815 69.5483 72.0056 69.5483 71.3021C69.5483 70.8625 69.1966 70.4228 68.7569 70.4228H68.1414C67.9655 70.4228 67.7017 70.247 67.6138 70.0711C67.5259 69.8073 67.5259 69.6315 67.5259 68.8401V55.0349C67.5259 54.2435 67.5259 54.0677 67.6138 53.8039C67.7017 53.628 67.9655 53.4521 68.1414 53.4521H68.8448C69.2845 53.4521 69.6362 53.1004 69.6362 52.5728C69.6362 51.8694 69.2845 51.6935 68.2293 51.6935H62.6897C61.6345 51.6935 61.2828 51.8694 61.2828 52.5728C61.2828 53.1004 61.6345 53.4521 62.0741 53.4521H62.6897C62.8655 53.4521 63.1293 53.628 63.2172 53.8039C63.3052 54.0677 63.3052 54.2435 63.3052 55.0349V58.8159C63.3052 59.959 63.3052 60.047 63.1293 60.2228C62.9534 60.3987 62.6897 60.4866 62.0741 60.4866H57.9414C56.7983 60.4866 56.7103 60.3987 56.7103 58.9918V55.0349C56.7103 54.2435 56.7103 54.0677 56.7983 53.8039C56.8862 53.628 57.15 53.4521 57.4138 53.4521H58.0293C58.469 53.4521 58.8207 53.1004 58.8207 52.5728C58.8207 51.8694 58.469 51.6935 57.5017 51.6935H46.95C46.1586 51.6935 45.8069 51.9573 45.8069 52.5728C45.8069 53.1004 46.1586 53.3642 46.7741 53.4521C47.4776 53.5401 47.8293 53.8039 47.8293 54.2435C47.8293 54.4194 47.8293 54.6832 47.7414 54.947C47.7414 54.947 44.8397 64.7952 44.4 66.2901C44.3121 66.5539 44.0483 66.5539 43.9603 66.2901C43.5207 64.7952 40.531 55.3866 40.531 55.3866C40.2672 54.6832 40.1793 54.4194 40.1793 54.0677C40.1793 53.5401 40.3552 53.3642 41.2345 53.2763C41.9379 53.1883 42.2017 52.9246 42.2017 52.4849C42.2017 51.9573 41.85 51.6935 41.1466 51.6935H35.1672C34.4638 51.6935 34.1121 52.0452 34.1121 52.6608C34.1121 53.1004 34.3759 53.3642 34.9914 53.4521C35.6948 53.628 35.9586 53.8039 36.1345 54.2435C36.2224 54.3315 36.3103 54.5952 36.3983 54.947C36.3983 54.947 37.4534 58.0246 37.4534 58.2004C37.6293 58.8159 37.5414 59.4315 37.4534 59.959C37.3655 60.1349 35.7828 64.8832 35.1672 66.5539C35.0793 66.8177 34.8155 66.8177 34.7276 66.5539C34.2 64.9711 30.8586 55.3866 30.8586 55.3866L30.419 54.7711C30.331 54.5073 30.331 54.3315 30.331 54.0677C30.331 53.5401 30.5948 53.3642 31.2983 53.2763C32.0897 53.1883 32.3534 53.0125 32.3534 52.4849C32.3534 51.9573 32.0897 51.6935 31.3862 51.6935H25.0552C24.3517 51.6935 24 51.9573 24 52.4849C24 53.0125 24.1759 53.1883 24.8793 53.2763C25.8466 53.4521 26.0224 53.628 26.4621 54.859L32.4414 70.9504C32.881 72.0935 33.3207 72.4452 34.2 72.4452C34.6397 72.4452 34.9914 72.2694 35.2552 72.0935C35.519 71.8297 35.6069 71.6539 35.8707 70.8625C35.8707 70.8625 38.5966 63.3004 38.6845 63.0366C38.7724 62.7728 39.0362 62.7728 39.1241 63.0366C39.2121 63.3004 41.7621 70.8625 41.7621 70.8625C42.1138 72.0056 42.5534 72.3573 43.5207 72.3573C44.4 72.3573 44.8397 71.9177 45.2793 70.4228L50.1155 54.6832C50.2914 53.8039 50.6431 53.4521 51.1707 53.4521ZM99.9724 70.0711C98.7414 70.0711 98.3017 69.9832 97.95 69.8073C97.5983 69.6315 97.5103 69.2797 97.5103 67.9608V55.0349C97.5103 54.2435 97.5103 54.0677 97.5983 53.8039C97.6862 53.5401 97.95 53.3642 98.2138 53.3642H98.9172C99.3569 53.3642 99.7086 53.0125 99.7086 52.4849C99.7086 51.7815 99.3569 51.6056 98.2138 51.6056H92.5862C91.531 51.6056 91.1793 51.7815 91.1793 52.4849C91.1793 53.0125 91.531 53.3642 91.9707 53.3642H92.5862C92.7621 53.3642 93.0259 53.5401 93.1138 53.8039C93.2017 54.0677 93.2017 54.1556 93.2017 55.0349V68.928C93.2017 69.7194 93.2017 69.8073 93.1138 70.0711C93.0259 70.247 92.85 70.4228 92.5862 70.4228H91.9707C91.531 70.4228 91.1793 70.7746 91.1793 71.2142C91.1793 71.9177 91.531 72.0935 92.4983 72.0935H103.929C104.545 72.0935 104.897 71.9177 104.984 71.3021L105.424 68.928C105.6 68.1366 105.336 67.697 104.721 67.697C104.457 67.697 104.105 67.8728 103.929 68.3125C103.929 68.4004 103.841 68.4884 103.666 68.8401C103.314 69.6315 102.522 69.9832 101.467 69.9832C101.731 70.0711 99.9724 70.0711 99.9724 70.0711ZM121.867 67.7849C121.603 67.7849 121.252 67.9608 121.076 68.4004C121.076 68.4884 120.988 68.5763 120.812 68.928C120.46 69.7194 119.669 70.0711 118.614 70.0711H115.536C114.569 70.0711 114.129 69.9832 113.69 69.8952C113.25 69.7194 113.074 69.3677 113.074 67.7849V63.9159C113.074 63.2125 113.162 62.9487 113.338 62.7728C113.514 62.6849 113.69 62.6849 114.569 62.6849H115.976C117.295 62.6849 117.471 62.7728 117.559 63.3883V63.5642C117.647 64.0918 117.91 64.3556 118.35 64.3556C118.966 64.3556 119.229 64.0039 119.229 62.9487V60.3987C119.229 59.3435 119.053 58.9918 118.35 58.9918C117.91 58.9918 117.647 59.2556 117.559 59.7832V59.959C117.471 60.5746 117.295 60.6625 115.976 60.6625H114.569C113.69 60.6625 113.426 60.6625 113.338 60.5746C113.162 60.4866 113.074 60.1349 113.074 59.4315V55.6504C113.074 53.9797 113.25 53.8039 114.921 53.8039H117.822C119.229 53.8039 119.845 53.8918 120.197 54.6832C120.372 55.0349 120.46 55.2987 120.46 55.3866C120.636 55.8263 120.988 55.8263 121.252 55.8263C121.779 55.8263 122.043 55.3866 121.955 54.5952L121.516 52.4849C121.428 51.9573 121.076 51.6935 120.46 51.6935H108.238C107.183 51.6935 106.831 51.9573 106.831 52.5728C106.831 53.0125 107.183 53.4521 107.622 53.4521H108.238C108.414 53.4521 108.678 53.628 108.766 53.8918C108.853 54.1556 108.853 54.3315 108.853 55.1228V68.8401C108.853 69.6315 108.853 69.8073 108.766 70.0711C108.678 70.247 108.502 70.5108 108.238 70.5108H107.622C107.183 70.5108 106.831 70.8625 106.831 71.3021C106.831 72.0056 107.183 72.1815 108.238 72.1815H120.197H120.988C121.603 72.1815 121.955 72.0056 122.043 71.3901L122.483 69.0159C122.747 68.2246 122.395 67.7849 121.867 67.7849ZM161.084 79.5677C160.557 79.5677 160.557 80.2711 160.557 80.6228C160.557 80.9746 160.645 81.3263 161.084 81.3263H163.634C164.074 81.3263 164.25 81.5021 164.25 81.8539V89.328C164.25 89.8556 164.602 89.8556 165.217 89.8556C165.833 89.8556 166.184 89.7677 166.184 89.2401V81.7659C166.184 81.3263 166.448 81.2383 166.8 81.2383H169.262C169.702 81.2383 169.79 80.8866 169.79 80.359C169.79 79.6556 169.526 79.4797 169.174 79.4797H161.084V79.5677ZM146.752 79.5677C146.312 79.5677 146.136 79.8315 146.136 80.2711V89.1521C146.136 89.6797 146.312 89.9435 146.752 89.9435H154.578C155.017 89.9435 155.105 89.5918 155.105 89.0642C155.105 88.3608 154.929 88.097 154.578 88.097H148.51C148.247 88.097 147.983 87.9211 147.983 87.5694V86.0746C147.983 85.7228 148.247 85.547 148.51 85.547H152.028C152.379 85.547 152.555 85.1073 152.555 84.6677C152.555 84.1401 152.467 83.7883 152.028 83.7883H148.51C148.247 83.7883 147.983 83.6125 147.983 83.3487V81.9418C147.983 81.678 148.159 81.5021 148.422 81.5021H154.578C155.105 81.5021 155.193 81.0625 155.193 80.5349C155.193 80.0073 155.105 79.6556 154.666 79.6556H146.752V79.5677ZM131.891 79.5677C131.188 79.5677 130.924 79.6556 130.924 80.1832V89.328C130.924 89.7677 131.188 89.9435 131.803 89.9435C132.331 89.9435 132.859 89.9435 132.859 89.328V86.3384C132.859 85.8987 133.122 85.547 133.474 85.547C134.09 85.547 134.529 85.6349 134.969 85.9866L138.222 89.5039C138.486 89.7677 138.662 89.9435 139.541 89.9435C140.333 89.9435 140.86 89.6797 140.333 89.0642C139.981 88.6246 136.376 84.7556 136.376 84.7556C136.112 84.4918 136.024 84.1401 136.376 83.8763C136.376 83.8763 139.366 81.1504 139.629 80.8866C139.981 80.5349 139.893 80.1832 139.541 79.8315C139.102 79.4797 138.662 79.3918 138.31 79.8315C138.31 79.8315 134.969 82.909 134.617 83.2608C134.353 83.5246 134.178 83.7004 133.386 83.7004C133.122 83.7004 132.947 83.5246 132.947 82.997V80.1832C132.771 79.6556 132.419 79.5677 131.891 79.5677ZM116.503 81.3263H119.669C120.724 81.3263 121.603 81.8539 121.603 82.997C121.603 84.1401 120.724 84.6677 119.669 84.6677H116.503C116.152 84.6677 115.8 84.4918 115.8 84.0521V81.7659C115.8 81.5021 116.152 81.3263 116.503 81.3263ZM123.45 83.0849C123.45 80.8866 121.867 79.5677 119.757 79.5677H114.393C114.129 79.5677 113.953 79.7435 113.953 79.9194V89.328C113.953 89.7677 114.217 89.9435 114.569 89.9435C114.921 89.9435 115.8 90.0315 115.8 89.5039V87.0418C115.8 86.778 116.064 86.5142 116.328 86.5142H118.614C118.966 86.5142 119.229 86.6901 119.405 86.9539L120.988 89.4159C121.252 89.7677 121.603 89.8556 122.131 89.8556C123.098 89.8556 123.362 89.5039 123.098 89.0642C122.922 88.7125 121.428 86.6901 121.34 86.5142C121.164 86.2504 121.252 86.1625 121.516 85.8987C122.131 85.547 123.45 84.9315 123.45 83.0849ZM100.5 85.7228C100.588 85.547 101.643 83.4366 101.731 83.1728C101.819 82.909 102.083 82.909 102.259 83.1728C102.347 83.4366 103.402 85.6349 103.49 85.7228C103.578 85.8987 103.402 86.0746 103.226 86.0746H100.764C100.5 86.1625 100.412 85.9866 100.5 85.7228ZM96.719 89.328C96.4552 89.9435 97.3345 89.9435 97.5983 89.9435C97.8621 89.9435 98.5655 89.8556 98.6534 89.5918L99.269 88.4487C99.4448 88.097 99.6207 87.8332 99.8845 87.8332H104.105C104.281 87.8332 104.457 88.009 104.545 88.1849L105.248 89.5918C105.424 89.9435 105.864 89.9435 106.216 89.9435C106.567 89.9435 107.447 89.8556 107.271 89.4159C107.183 89.1521 102.874 79.9194 102.874 79.9194C102.698 79.6556 102.522 79.4797 102.083 79.4797C101.643 79.4797 101.379 79.6556 101.291 79.9194L96.719 89.328ZM85.4638 83.9642L88.4534 79.9194C88.6293 79.6556 88.8931 79.4797 89.2448 79.4797C89.5965 79.4797 89.8603 79.5677 90.0362 80.1832L91.0914 89.4159C91.0914 89.9435 90.3 89.9435 89.9483 89.9435C89.6845 89.9435 89.1569 89.7677 89.1569 89.4159L88.4534 83.8763C88.3655 83.6125 88.2776 83.5246 88.1017 83.5246C87.9259 83.5246 87.9259 83.6125 87.75 83.7004L85.2879 86.8659C85.2 87.0418 85.0241 87.1297 84.7603 87.1297C84.4965 87.1297 84.3207 87.0418 84.2328 86.778L82.0345 83.8763C81.9465 83.7883 81.8586 83.7004 81.6828 83.7004C81.5069 83.7004 81.419 83.8763 81.419 84.0521L80.7155 89.4159C80.6276 89.8556 80.1 89.9435 79.6603 89.9435C79.3086 89.9435 78.869 89.7677 78.869 89.4159L79.9241 80.447C80.0121 79.9194 80.1879 79.5677 80.8914 79.5677C81.0672 79.5677 81.419 79.6556 81.6828 80.0073L84.4966 83.9642C84.6724 84.1401 84.8483 84.4039 85.0241 84.3159C85.1121 84.4039 85.3759 84.228 85.4638 83.9642Z" fill="#046F46"/>
</svg>
