<svg width="122" height="50" viewBox="0 0 122 50" fill="none" xmlns="http://www.w3.org/2000/svg">
<path d="M2.055 2.055H118.562V42.74H2.055V2.055ZM0 44.788H120.616V0H0V44.788Z" fill="black"/>
<path d="M32.288 11.7119V33.0479L33.958 33.2679V34.5199H25.671V33.2669L27.459 33.0469V23.3359H16.869V33.0479L18.507 33.2679V34.5199H10.37V33.2669L12.007 33.0469V11.7129L10.37 11.4869V10.2749H18.507V11.4869L16.87 11.7129V20.8369H27.459V11.7129L25.671 11.4869V10.2749H33.959V11.4869L32.288 11.7129V11.7119ZM43.575 33.1919L45.137 33.4109V34.5209H37.52V33.4109L39.082 33.1909V18.5899L37.52 18.3699V17.2679H43.575V33.1919ZM48.445 33.4449L49.965 33.2329V11.5619L48.445 11.3419V10.2739H54.5V33.2329L56.055 33.4449V34.5199H48.445V33.4449ZM65.308 17.2669H69.418V18.8839H65.308V29.1569C65.308 31.8079 65.863 32.6569 68.274 32.6569C69.0845 32.6939 69.8964 32.6322 70.692 32.4729V33.6509C68.8917 34.3256 66.991 34.6937 65.069 34.7399C61.575 34.7399 60.76 33.1569 60.76 30.1369V18.8839H57.582V17.2669H60.884V13.6569L65.308 12.3289V17.2669ZM89.856 26.0269C89.856 31.3969 86.219 35.0069 80.5 35.0069C74.966 35.0069 71.431 32.6509 71.431 26.0269C71.431 20.4729 75.075 16.7599 80.795 16.7599C86.514 16.7599 89.856 20.1369 89.856 26.0269ZM84.884 25.9169C84.884 20.4379 83.247 18.0819 80.61 18.0819C77.973 18.0819 76.411 20.3629 76.411 25.9179C76.411 31.4729 78.048 33.6779 80.61 33.6779C83.35 33.6779 84.884 31.5059 84.884 25.9169ZM110.507 33.4109V34.5139H102.897V33.4099L104.418 33.1899V23.3699C104.418 20.6299 103.418 19.4309 101.336 19.4309C100.031 19.5927 98.7902 20.0884 97.733 20.8699V33.1989L99.294 33.4179V34.5199H91.644V33.4109L93.199 33.1909V18.6999L91.644 18.4939V17.2679H97.733V19.6579C99.623 18.1449 101.445 16.9179 104.007 16.9179C107.432 16.9179 108.952 18.9049 108.952 22.8019V33.1919L110.507 33.4109ZM43.794 12.7059C43.7978 13.1918 43.6571 13.6677 43.3898 14.0734C43.1225 14.4791 42.7407 14.7962 42.2928 14.9844C41.8449 15.1727 41.3512 15.2236 40.8744 15.1307C40.3975 15.0378 39.959 14.8053 39.6146 14.4627C39.2701 14.1201 39.0353 13.6828 38.9398 13.2065C38.8444 12.7301 38.8927 12.2361 39.0785 11.7873C39.2644 11.3384 39.5795 10.9549 39.9837 10.6854C40.388 10.416 40.8632 10.2728 41.349 10.2739C41.6694 10.2728 41.9868 10.3348 42.2832 10.4564C42.5796 10.578 42.8491 10.7569 43.0763 10.9828C43.3035 11.2087 43.4839 11.4771 43.6072 11.7728C43.7305 12.0685 43.7933 12.3856 43.794 12.7059ZM118.719 47.8629H119.082C119.329 47.8629 119.411 47.7939 119.411 47.6159C119.411 47.4379 119.329 47.3839 119.082 47.3839H118.719V47.8629ZM119.712 47.6029C119.723 47.7019 119.699 47.8016 119.642 47.8835C119.585 47.9654 119.501 48.0238 119.404 48.0479L119.774 48.5959H119.438L119.103 48.0889H118.719V48.6299H118.425V47.1159H119.075C119.521 47.1159 119.712 47.2669 119.712 47.6029ZM117.822 47.8699C117.822 48.0513 117.862 48.2304 117.939 48.3944C118.017 48.5584 118.129 48.7031 118.27 48.8182C118.41 48.9332 118.574 49.0156 118.75 49.0595C118.926 49.1034 119.109 49.1076 119.287 49.0719C119.465 49.0363 119.632 48.9618 119.777 48.8538C119.923 48.7458 120.043 48.607 120.128 48.4473C120.213 48.2876 120.263 48.1109 120.272 47.93C120.281 47.7491 120.25 47.5685 120.181 47.4009C120.088 47.1768 119.931 46.9853 119.729 46.8505C119.528 46.7158 119.291 46.6439 119.048 46.6439C118.804 46.6423 118.565 46.7132 118.362 46.8476C118.158 46.982 117.999 47.1739 117.905 47.3989C117.842 47.5479 117.809 47.7079 117.808 47.8689L117.822 47.8699ZM120.616 47.8699C120.618 48.1809 120.528 48.4856 120.357 48.7451C120.186 49.0047 119.941 49.2073 119.654 49.3272C119.367 49.4471 119.051 49.4789 118.746 49.4185C118.441 49.3581 118.161 49.2082 117.941 48.9879C117.721 48.7689 117.57 48.4894 117.509 48.1849C117.448 47.8803 117.479 47.5644 117.597 47.2773C117.716 46.9902 117.917 46.7448 118.175 46.5722C118.434 46.3996 118.737 46.3076 119.048 46.3079C119.358 46.3069 119.661 46.3979 119.919 46.5694C120.177 46.7408 120.378 46.985 120.497 47.2709C120.576 47.4609 120.616 47.6639 120.616 47.8699Z" fill="black"/>
</svg>
