<svg width="150" height="100" viewBox="0 0 150 100" fill="none" xmlns="http://www.w3.org/2000/svg">
<g clip-path="url(#clip0_1_9548)">
<path d="M57.631 1.56022C82.5434 -2.59616 103.679 1.84696 122.751 11.3907C137.183 18.612 148.311 35.5014 149.214 47.8746C150.486 65.3194 141.345 78.7608 123.64 88.5834C110.922 95.6388 98.8687 99.1232 78.4243 100.001C67.2411 99.8445 59.8471 99.7029 53.4026 98.6555C41.7283 96.7593 35.9282 93.5363 35.9282 93.5363C35.9282 93.5363 52.5325 97.9898 77.5512 96.4197C111.678 94.2783 140.775 76.9885 140.724 52.4941C140.694 37.8933 131.282 22.2146 119.198 14.7475C107.577 7.56665 98.458 5.04306 90.0312 3.14687C79.5521 0.788161 62.1374 0.808383 57.631 1.56022Z" fill="#E21D38"/>
<path d="M119.996 83.4066C106.519 89.1766 89.593 95.7902 69.1663 95.8094C47.6268 95.8296 32.9353 91.6271 22.9405 85.6772C10.1846 78.0846 1.33366 63.7224 0.199673 52.4168C-1.39993 36.4798 6.68832 23.9412 22.7518 14.4991C34.2902 7.71647 46.4975 3.62801 65.3023 2.30373C92.7233 0.268057 116.786 14.0656 116.786 14.0656C116.786 14.0656 100.593 7.83728 91.6769 6.67996C85.5901 5.89027 76.4648 4.20252 63.4855 5.33546C32.1031 8.07787 7.15601 26.5317 7.80208 48.9536C8.18785 62.3188 16.5198 75.5387 27.8306 82.0673C38.7084 88.3454 56.5919 92.3151 69.3405 92.4904C93.7914 92.8269 116.127 85.0633 119.996 83.4066Z" fill="#E21D38"/>
<path d="M47.4106 20.0385C47.4106 20.0385 44.1414 34.676 42.42 41.7381C41.0843 44.8902 38.458 46.9673 35.3065 47.8254C33.4694 48.4461 20.2438 48.3725 20.2438 48.3725L21.7231 41.5717C21.7231 41.5717 28.0261 41.5717 31.1781 41.4773C32.3246 41.2875 32.8 40.0442 33.0878 38.9926C34.8062 32.785 37.6699 20.0385 37.6699 20.0385H47.4106Z" fill="#E21D38"/>
<path d="M50.5274 40.2126C50.195 41.2632 49.9653 42.352 50.4745 43.3662C51.2958 44.9596 52.8788 45.3661 54.3861 45.1069C55.8976 44.8232 57.3246 43.9102 57.7917 42.8965H62.8026C61.1206 46.7023 55.9308 49.2809 52.4827 49.2809C50.558 49.2809 48.877 48.668 47.6849 47.7922C46.1232 46.594 45.3029 44.8227 45.1582 43.1122C45.1551 42.7871 45.1582 41.9134 45.3029 40.7187C45.4776 39.563 45.8027 38.0344 46.3793 36.5089C49.284 28.8194 54.6931 28.458 56.9434 28.458C60.7918 28.458 62.7772 30.3806 63.5918 32.3375C64.7636 35.2028 64.1979 37.8519 63.5908 40.2126H50.5274ZM59.0527 36.7998C59.3659 35.3081 59.3836 32.8482 56.3674 32.701C53.2781 32.5532 51.6069 34.9482 51.2533 36.7998H59.0527Z" fill="#E21D38"/>
<path d="M72.2556 28.7883L72.3769 42.5693L78.1713 28.7883H83.4342L83.3699 42.5693L89.3488 28.7883H94.6091L84.9508 48.4466H79.7263L79.579 34.6195L73.5223 48.4466H68.2962L66.9963 28.7883H72.2556Z" fill="#E21D38"/>
<path d="M98.2024 40.2126C97.868 41.2632 97.6398 42.352 98.1469 43.3662C98.9703 44.9596 100.555 45.3661 102.059 45.1069C103.571 44.8232 104.999 43.9102 105.469 42.8965H110.475C108.795 46.7023 103.605 49.2809 100.158 49.2809C98.2335 49.2809 96.5504 48.668 95.3573 47.7922C93.7966 46.594 92.9769 44.8227 92.8327 43.1122C92.8265 42.7871 92.8327 41.9134 92.9769 40.7187C93.1516 39.563 93.4767 38.0344 94.0554 36.5089C96.9585 28.8194 102.367 28.458 104.618 28.458C108.465 28.458 110.448 30.3806 111.268 32.3375C112.436 35.2028 111.873 37.8519 111.264 40.2126H98.2024ZM106.727 36.7998C107.042 35.3081 107.059 32.8482 104.041 32.701C100.951 32.5532 99.2835 34.9482 98.9252 36.7998H106.727Z" fill="#E21D38"/>
<path d="M123.439 21.9954L117.822 48.4467H112.741L118.363 21.9954H123.439Z" fill="#E21D38"/>
<path d="M43.9723 51.1356C47.5921 51.1356 56.7925 52.6175 54.0625 64.8419C51.3305 77.0741 41.4721 78.5628 37.8498 78.5628C34.23 78.5628 25.027 77.0741 27.7606 64.8419C30.4885 52.618 40.3505 51.1356 43.9723 51.1356ZM38.878 73.9542C41.9641 73.9542 46.7184 72.141 48.3444 64.8419C49.9705 57.5522 46.0293 55.7426 42.9452 55.7426C39.8548 55.7426 35.1048 57.5522 33.4766 64.8419C31.848 72.141 35.7882 73.9542 38.878 73.9542Z" fill="#E21D38"/>
<path d="M69.3986 64.4499C69.4447 63.2179 69.2772 61.9107 66.3814 61.9107C63.4839 61.9107 62.87 62.9644 62.6802 63.7924C62.002 66.8413 75.1924 64.6303 73.6037 71.7443C72.3474 77.3618 66.399 78.3802 63.2371 78.3802C58.6255 78.3802 53.9734 76.8584 54.9715 71.7075H60.4589C60.0949 73.3382 60.8914 74.5334 64.2493 74.5334C66.9953 74.5334 67.9255 73.2646 68.0831 72.5381C68.808 69.312 55.6855 71.7443 57.2971 64.524C57.9291 61.694 60.6052 58.067 66.9341 58.067C70.9017 58.067 75.4185 59.0071 74.6195 64.4504H69.3986V64.4499Z" fill="#E21D38"/>
<path d="M94.7704 70.8365C94.1363 72.827 91.2585 78.3798 83.822 78.3798C76.2004 78.3798 75.6856 72.827 76.593 68.7718C77.9888 62.5273 81.8377 58.0656 88.7023 58.0656C91.9061 58.0656 96.8538 59.4479 96.0096 65.4683H90.5985C90.6503 64.1938 90.2578 62.197 87.7472 62.3448C84.3966 62.3448 82.8021 65.5352 82.2675 67.9328C81.7957 70.0385 80.949 74.2094 84.984 74.2094C87.687 74.2094 89.1575 71.7439 89.3603 70.8365H94.7704Z" fill="#E21D38"/>
<path d="M105.626 78.3797C100.177 78.3797 95.9754 75.1851 97.5268 68.2288C99.0829 61.2559 104.715 58.0649 110.166 58.0649C115.617 58.0649 119.823 61.2553 118.268 68.2288C116.708 75.1851 111.081 78.3797 105.626 78.3797ZM109.209 62.3442C105.095 62.3442 103.569 65.7529 103.018 68.2288C102.464 70.6886 102.469 74.0973 106.585 74.0973C110.702 74.0973 112.224 70.6886 112.778 68.2288C113.326 65.7534 113.326 62.3442 109.209 62.3442Z" fill="#E21D38"/>
<path d="M122.583 77.2488C120.655 77.2488 118.889 75.9002 118.889 73.8044C118.889 71.6951 120.654 70.3464 122.583 70.3464C124.537 70.3464 126.29 71.6951 126.29 73.8044C126.29 75.9002 124.537 77.2488 122.583 77.2488ZM122.583 71.0329C121.011 71.0329 119.787 72.2691 119.787 73.8044C119.787 75.3309 121.011 76.5691 122.583 76.5691C124.172 76.5691 125.41 75.3309 125.41 73.8044C125.41 72.2691 124.172 71.0329 122.583 71.0329ZM123.433 75.7286L122.442 74.0787H121.923V75.7286H121.15V71.8683H122.693C123.698 71.8683 124.263 72.1711 124.263 73.0199C124.263 73.7105 123.81 73.9817 123.204 74.045L124.285 75.7291L123.433 75.7286ZM122.654 72.4397H121.923V73.5026H122.717C123.14 73.5026 123.494 73.4414 123.494 72.938C123.494 72.4941 123.038 72.4397 122.654 72.4397Z" fill="#E21D38"/>
</g>
<defs>
<clipPath id="clip0_1_9548">
<rect width="149.331" height="100" fill="white"/>
</clipPath>
</defs>
</svg>
