<svg width="198" height="28" viewBox="0 0 198 28" fill="none" xmlns="http://www.w3.org/2000/svg">
<g clip-path="url(#clip0_1_9310)">
<path d="M52.8136 20.583C53.3092 20.7823 54.0436 20.9107 55.0168 20.9699V21.3864H44.0324V20.9699C45.0037 20.9107 45.7401 20.7823 46.2356 20.583C46.7312 20.3855 47.0747 20.0677 47.2622 19.6294C47.4498 19.1931 47.5445 18.5476 47.5445 17.6947V4.41627H47.4557L39.9241 21.7734H39.8353L31.7668 4.47747H31.6779V17.6947C31.6779 18.5476 31.7766 19.1931 31.976 19.6294C32.1734 20.0657 32.517 20.3836 33.0026 20.583C33.4883 20.7823 34.2187 20.9107 35.19 20.9699V21.3864H26.8096V20.9699C27.7809 20.9107 28.5113 20.7823 28.997 20.583C29.4826 20.3855 29.8261 20.0677 30.0235 19.6294C30.221 19.1931 30.3217 18.5476 30.3217 17.6947V4.38666C30.3217 3.53381 30.2229 2.88825 30.0235 2.45195C29.8242 2.01565 29.4826 1.69781 28.997 1.49841C28.5093 1.30099 27.7809 1.1707 26.8096 1.11147V0.694916H34.3273L41.1935 15.685L47.8525 0.694916H55.0168V1.11147C54.0436 1.1707 53.3092 1.30099 52.8136 1.49841C52.3181 1.69781 51.9707 2.0196 51.7713 2.46577C51.5719 2.91194 51.4732 3.55158 51.4732 4.38666V17.6947C51.4732 18.5476 51.5719 19.1931 51.7713 19.6294C51.9707 20.0677 52.3181 20.3836 52.8136 20.583ZM67.7386 10.5501C68.3525 11.6813 68.6605 12.9606 68.6605 14.3899C68.6605 15.8192 68.3525 17.0985 67.7386 18.2297C67.1226 19.3609 66.2658 20.2355 65.1642 20.8495C64.0626 21.4654 62.807 21.7734 61.3974 21.7734C59.9879 21.7734 58.7382 21.4654 57.6465 20.8495C56.5547 20.2355 55.696 19.3609 55.0721 18.2297C54.4463 17.0985 54.1344 15.8192 54.1344 14.3899C54.1344 12.9606 54.4463 11.6813 55.0721 10.5501C55.6979 9.41888 56.5547 8.54629 57.6465 7.93034C58.7382 7.31439 59.9879 7.00642 61.3974 7.00642C62.807 7.00642 64.0626 7.31439 65.1642 7.93034C66.2658 8.54629 67.1226 9.41888 67.7386 10.5501ZM64.7615 14.3899C64.7615 12.9803 64.6272 11.7701 64.3587 10.7574C64.0902 9.74462 63.7033 8.97666 63.1979 8.44955C62.6925 7.92442 62.0904 7.65987 61.3974 7.65987C60.7025 7.65987 60.1024 7.92244 59.597 8.44955C59.0916 8.97666 58.7046 9.74462 58.4362 10.7574C58.1677 11.7701 58.0334 12.9803 58.0334 14.3899C58.0334 15.7995 58.1677 17.0097 58.4362 18.0224C58.7046 19.0352 59.0916 19.8031 59.597 20.3303C60.1024 20.8574 60.7025 21.1199 61.3974 21.1199C62.0924 21.1199 62.6925 20.8574 63.1979 20.3303C63.7033 19.8051 64.0902 19.0352 64.3587 18.0224C64.6272 17.0097 64.7615 15.7995 64.7615 14.3899ZM78.7546 10.1928C79.2698 10.1928 79.7377 10.2816 80.1543 10.4613V7.18607C79.8956 7.06762 79.5896 7.00839 79.2323 7.00839C78.3183 7.00839 77.5108 7.41113 76.806 8.21462C76.1012 9.01812 75.5524 9.94204 75.0431 11.782H74.976V7.12684H74.8575L68.9626 8.82465V9.21159C69.6377 9.21159 70.1589 9.27674 70.5261 9.40506C70.8933 9.53338 71.1559 9.74265 71.3158 10.0309C71.4737 10.3191 71.5547 10.71 71.5547 11.2075V18.591C71.5547 19.2069 71.4954 19.663 71.377 19.9611C71.2585 20.2592 71.0394 20.4823 70.7216 20.6303C70.4037 20.7784 69.8983 20.8929 69.2034 20.9719V21.3884H77.4792V20.9719C76.7843 20.9126 76.2631 20.808 75.9157 20.6599C75.5682 20.5119 75.3254 20.2829 75.1872 19.9749C75.049 19.6669 74.9779 19.205 74.9779 18.591V12.7395C75.6018 11.2726 76.9758 10.1928 78.7546 10.1928ZM122.197 19.9433C122.078 19.6353 122.019 19.1754 122.019 18.5594V11.7701C122.019 8.58182 120.254 7.00642 117.94 7.00642C115.627 7.00642 114.14 8.645 113.504 9.51759H113.445V7.12684H113.327L107.432 8.82465V9.21159C108.087 9.21159 108.602 9.27674 108.979 9.40506C109.357 9.53338 109.625 9.73673 109.783 10.0151C109.941 10.2934 110.022 10.6804 110.022 11.1759V18.5574C110.022 19.1734 109.963 19.6353 109.844 19.9413C109.726 20.2493 109.507 20.4763 109.189 20.6264C108.871 20.7744 108.366 20.889 107.671 20.9679V21.3845H115.411V20.9679C114.876 20.889 114.464 20.7744 114.176 20.6264C113.887 20.4783 113.694 20.2493 113.595 19.9413C113.496 19.6334 113.447 19.1734 113.447 18.5574V10.5994C114.132 9.76831 114.938 8.97074 116.246 8.97074C118.045 8.97074 118.598 10.327 118.598 11.859V18.5574C118.598 19.1734 118.542 19.6353 118.434 19.9413C118.325 20.2493 118.136 20.4763 117.867 20.6264C117.599 20.7744 117.188 20.889 116.631 20.9679V21.3845H124.283V20.9679C123.628 20.889 123.146 20.7744 122.84 20.6264C122.528 20.4783 122.317 20.2513 122.197 19.9433ZM197.419 17.2781C196.762 18.7134 194.928 21.7734 191.197 21.7734C187.653 21.7734 184.708 18.8753 184.708 14.5103C184.708 13.1402 185.006 11.8807 185.6 10.7297C186.196 9.57879 187.004 8.67066 188.026 8.00536C189.049 7.34005 190.174 7.00839 191.406 7.00839C194.981 7.00839 196.764 9.52746 196.764 12.1531V12.7454H187.894C187.894 12.7987 187.892 12.85 187.892 12.9033C187.892 16.062 189.298 19.0964 192.833 19.0964C195.522 19.0964 196.648 17.6078 197.09 17.0728L197.419 17.2781ZM187.955 11.7405H193.518C193.481 9.58274 192.837 7.69936 191.078 7.69146C189.428 7.68554 188.232 9.22541 187.955 11.7405ZM157.934 19.9433C157.815 19.6353 157.756 19.1754 157.756 18.5594V11.7701C157.756 10.7376 157.582 9.86505 157.235 9.15039C156.887 8.43573 156.406 7.90073 155.792 7.5434C155.176 7.18607 154.471 7.00839 153.677 7.00839C152.763 7.00839 151.956 7.24135 151.251 7.70725C150.546 8.17316 149.877 8.84439 149.241 9.71698H149.182V0H149.064L143.169 1.69781V2.08475C143.824 2.08475 144.339 2.1499 144.716 2.27822C145.093 2.40654 145.362 2.60988 145.52 2.88825C145.678 3.16661 145.759 3.55355 145.759 4.04907V18.5574C145.759 19.1734 145.699 19.6353 145.581 19.9413C145.463 20.2493 145.243 20.4763 144.926 20.6264C144.608 20.7744 144.102 20.889 143.407 20.9679V21.3845H151.148V20.9679C150.613 20.889 150.201 20.7744 149.912 20.6264C149.624 20.4783 149.431 20.2493 149.332 19.9413C149.233 19.6334 149.184 19.1734 149.184 18.5574V10.5994C149.869 9.76831 150.674 8.97074 151.983 8.97074C152.718 8.97074 153.292 9.21357 153.711 9.69922C154.127 10.1849 154.337 10.9054 154.337 11.857V18.5574C154.337 19.1734 154.281 19.6353 154.173 19.9413C154.064 20.2493 153.875 20.4763 153.606 20.6264C153.338 20.7744 152.927 20.889 152.37 20.9679V21.3845H160.022V20.9679C159.367 20.889 158.885 20.7744 158.579 20.6264C158.265 20.4783 158.054 20.2513 157.934 19.9433ZM136.31 20.1012C131.92 20.1309 128.437 16.601 128.437 10.8739C128.437 4.82098 131.681 1.29112 135.39 1.29112C139.1 1.29112 140.691 4.63343 141.502 7.91652L142.097 7.90665V1.86561C140.703 1.0937 138.417 0.223084 135.094 0.223084C128.686 0.223084 123.849 4.9118 123.849 11.172C123.849 17.136 127.884 21.8524 134.828 21.8227C138.656 21.7931 141.325 19.509 142.6 17.7579L142.185 17.3137C141.325 18.2929 139.603 20.0716 136.31 20.1012ZM180.51 13.1106L178.457 12.1275C177.093 11.5174 176.313 10.71 176.313 9.71698C176.313 8.59169 177.344 7.82176 178.785 7.82176C180.884 7.82176 181.971 8.98258 182.421 11.5629H183.041V7.81189C182.425 7.57301 180.799 7.00839 179.142 7.00839C175.867 7.00839 173.873 9.06747 173.873 11.4444C173.873 12.3585 174.116 13.156 174.602 13.8411C175.087 14.5261 175.818 15.1164 176.789 15.6119L178.933 16.6839C180.4 17.3532 180.988 18.0125 180.988 19.0056C180.988 20.1032 180.104 20.962 178.428 20.962C175.978 20.962 174.813 18.6384 174.493 16.7728H173.873V20.6126C174.807 21.2167 176.564 21.7734 178.191 21.7734C181.33 21.7734 183.519 19.8505 183.519 17.1301C183.517 15.1697 182.471 13.9437 180.51 13.1106ZM17.7737 12.3664V17.6947C17.7737 18.5278 17.8921 19.1675 18.131 19.6156C18.3699 20.0618 18.7667 20.3855 19.3214 20.583C19.8762 20.7823 20.7211 20.9107 21.8524 20.9699V21.3864H10.331V20.9699C11.3023 20.9107 12.0327 20.7823 12.5184 20.583C13.004 20.3855 13.3475 20.0677 13.5449 19.6294C13.7424 19.1931 13.8431 18.5476 13.8431 17.6947V4.47747C13.8431 1.75506 12.6131 1.20228 10.7455 1.20228C8.69633 1.20228 7.44271 1.75308 7.44271 4.38863V19.1773C7.44271 22.5196 5.2711 25.6981 0.983149 25.6981C0.651484 25.6981 0.323768 25.6783 0 25.6408V25.2835C1.01868 25.2223 1.8439 24.8768 2.47169 24.2392C3.16661 23.5344 3.51407 22.3795 3.51407 20.7705V4.38666C3.51407 3.55355 3.41536 2.91194 3.21596 2.46577C3.01657 2.0196 2.66911 1.69781 2.17359 1.49841C1.67807 1.30099 0.953536 1.1707 0 1.11147V0.694916H20.3441C24.9716 0.694916 27.8361 3.00867 27.8361 6.50102C27.8361 10.4988 23.9095 12.3664 20.3994 12.3664H17.7737ZM17.7737 11.5668H19.1931C21.6076 11.5668 23.639 10.1533 23.639 6.53064C23.639 2.10252 20.7152 1.49447 19.2662 1.49447H17.7737V11.5668ZM106.231 20.198C106.723 20.198 107.155 19.9828 107.43 19.7972V20.504C106.881 21.0173 105.862 21.7635 104.33 21.7635C103.039 21.7635 101.955 20.9442 101.667 19.6946H101.59C101.087 20.6461 99.5487 21.8484 97.8707 21.8484C95.857 21.8484 94.3744 20.506 94.3744 18.4646C94.3744 16.8695 95.4661 15.8074 97.2824 15.1638L101.59 13.6121V11.6122C101.59 9.79398 100.275 8.95495 98.8499 8.95495C97.3949 8.95495 96.0525 9.57089 94.6547 10.9963L94.2362 10.6054C95.4661 8.61933 97.4245 6.99654 100.25 6.99654C102.934 6.99654 105.088 8.7595 105.061 11.6122L105.005 18.745C105.001 19.7498 105.422 20.198 106.231 20.198ZM101.59 14.5439L99.8567 15.2467C98.5143 15.7778 97.6476 16.3937 97.6476 17.8191C97.6476 19.0214 98.4866 19.8604 99.6613 19.8604C100.277 19.8604 101.172 19.3846 101.592 18.8536V14.5439H101.59ZM171.954 20.198C172.448 20.198 172.878 19.9808 173.155 19.7972V20.504C172.606 21.0173 171.587 21.7655 170.053 21.7655C168.762 21.7655 167.678 20.9462 167.39 19.6965H167.313C166.81 20.6481 165.272 21.8504 163.594 21.8504C161.58 21.8504 160.097 20.5079 160.097 18.4666C160.097 16.8715 161.189 15.8093 163.005 15.1658L167.313 13.614V11.6122C167.313 9.79398 165.998 8.95495 164.573 8.95495C163.118 8.95495 161.775 9.57089 160.378 10.9963L159.957 10.6054C161.187 8.61933 163.145 6.99654 165.971 6.99654C168.655 6.99654 170.809 8.7595 170.782 11.6122L170.726 18.745C170.724 19.7498 171.143 20.198 171.954 20.198ZM167.311 14.5439L165.578 15.2467C164.235 15.7778 163.369 16.3937 163.369 17.8191C163.369 19.0214 164.208 19.8604 165.382 19.8604C165.998 19.8604 166.892 19.3846 167.313 18.8536V14.5439H167.311ZM90.8386 7.98562C92.112 8.97864 92.6746 10.408 92.6746 11.628C92.6746 14.8321 89.9364 16.4924 86.8191 16.4924C85.9979 16.4924 85.2043 16.3759 84.4797 16.1469C84.077 16.4569 83.7315 16.8616 83.7315 17.3354C83.7315 18.3541 85.3918 18.5594 86.3828 18.6167L89.7627 18.8496C92.4713 19.0253 94.1888 19.9848 94.1888 22.4032C94.1888 25.4612 90.5721 27.996 85.3049 27.996C82.2469 27.996 80.0615 26.9478 80.0615 25.0821C80.0615 23.4613 80.9538 22.5335 83.2478 21.4319C81.7474 20.9956 81.4 20.1012 81.4 19.2267C81.4 18.0303 82.468 16.9564 83.9151 15.9377C82.1818 15.2072 80.9637 13.7601 80.9637 11.6241C80.9637 8.41994 83.7019 6.75964 86.8191 6.75964C88.2524 6.75964 89.3935 7.08538 90.272 7.5967C90.9274 6.27991 92.2205 4.74794 94.5382 4.74794V7.4822C93.3004 7.0992 91.7902 7.2986 90.8386 7.98562ZM82.5075 23.8048C82.5075 25.4947 84.4304 26.2509 86.9356 26.2509C89.3244 26.2509 92.5562 25.173 92.5562 23.4534C92.5562 22.4624 92.0034 22.2294 90.5464 22.113L84.6929 21.6786C84.3494 21.653 84.0395 21.6135 83.7611 21.5602C82.9181 22.2176 82.5075 22.8928 82.5075 23.8048ZM89.0618 11.63C89.0618 8.89177 88.1596 7.58091 86.8191 7.58091C85.4787 7.58091 84.5765 8.89177 84.5765 11.63C84.5765 14.3682 85.4787 15.6791 86.8191 15.6791C88.1596 15.6791 89.0618 14.3682 89.0618 11.63Z" fill="black"/>
</g>
<defs>
<clipPath id="clip0_1_9310">
<rect width="197.419" height="28" fill="white"/>
</clipPath>
</defs>
</svg>
