<svg width="192" height="94" viewBox="0 0 192 94" fill="none" xmlns="http://www.w3.org/2000/svg">
<g clip-path="url(#clip0_1_9334)">
<path fill-rule="evenodd" clip-rule="evenodd" d="M70.3766 9.37671L67.4785 12.2748C74.0829 12.5359 80.3862 14.7806 85.6669 18.41C86.095 17.573 86.56 16.7577 87.0515 15.9608C82.2575 12.4561 76.5637 10.1103 70.3766 9.37671Z" fill="#007665"/>
<path fill-rule="evenodd" clip-rule="evenodd" d="M107.236 0.500244C98.7537 2.99614 91.5974 8.59077 87.0518 15.9604C86.5594 16.7578 86.0958 17.5726 85.6667 18.4101C83.6023 22.4431 82.2785 26.916 81.899 31.6548L83.3521 33.1083C83.5824 28.2548 85.0199 23.6879 87.3293 19.6158C87.7769 18.8255 88.257 18.0565 88.7701 17.3068C93.6028 10.236 101.199 4.99635 109.773 3.03674L107.236 0.500244Z" fill="#6BA342"/>
<path fill-rule="evenodd" clip-rule="evenodd" d="M79.2533 0.500244L76.7168 3.03674C90.8877 6.27663 102.441 18.4374 103.137 33.1083L104.59 31.6548C103.404 16.8371 93.0725 4.56581 79.2533 0.500244Z" fill="#007665"/>
<path fill-rule="evenodd" clip-rule="evenodd" d="M85.9763 35.7324L87.3656 37.1212C88.4783 32.8465 90.52 28.9004 93.2397 25.4665C92.7506 24.8495 92.2323 24.2547 91.7002 23.6716C89.0816 27.2448 87.1121 31.3222 85.9763 35.7324Z" fill="#6BA342"/>
<path fill-rule="evenodd" clip-rule="evenodd" d="M119.01 12.2748L116.112 9.37671C106.966 10.4616 98.8757 15.0393 93.2197 21.7358C93.756 22.3684 94.2748 23.0156 94.7667 23.6845C100.85 17.006 109.63 12.6459 119.01 12.2748Z" fill="#6BA342"/>
<path fill-rule="evenodd" clip-rule="evenodd" d="M94.7665 23.6842C94.2746 23.0153 93.7562 22.3681 93.219 21.7355C91.8627 20.1375 90.3841 18.6457 88.7696 17.3069C88.2574 18.0565 87.7764 18.8256 87.3288 19.6158C88.9061 20.8399 90.362 22.2047 91.7003 23.671C92.2323 24.254 92.7497 24.8489 93.2393 25.4663C95.9627 28.9003 98.0106 32.8436 99.1243 37.1211L100.513 35.7317C99.3763 31.3192 97.3912 27.2536 94.7665 23.6842Z" fill="#007665"/>
<path fill-rule="evenodd" clip-rule="evenodd" d="M110.389 93.0684V82.719H115.349V84.2674H112.167V86.9328H114.548V88.4812H112.167V93.0684H110.389Z" fill="#007665"/>
<path fill-rule="evenodd" clip-rule="evenodd" d="M118.473 90.5168C118.473 91.292 118.703 91.6649 119.42 91.6649C120.136 91.6649 120.365 91.292 120.365 90.5168V85.2711C120.365 84.4959 120.136 84.1234 119.42 84.1234C118.703 84.1234 118.473 84.4959 118.473 85.2711V90.5168ZM116.695 85.2267C116.695 83.7656 117.556 82.5764 119.42 82.5764C121.283 82.5764 122.142 83.7656 122.142 85.2267V90.5607C122.142 92.0223 121.283 93.2115 119.42 93.2115C117.556 93.2115 116.695 92.0223 116.695 90.5607V85.2267Z" fill="#007665"/>
<path fill-rule="evenodd" clip-rule="evenodd" d="M125.469 87.3633H126.1C127.061 87.3633 127.419 87.0041 127.419 85.7733C127.419 84.5398 127.061 84.1805 126.1 84.1805H125.469V87.3633ZM125.469 93.0679H123.691V82.7185H126.186C128.179 82.7185 129.196 83.5645 129.196 85.7733C129.196 87.4351 128.55 88.1083 127.949 88.3802L129.453 93.0679H127.648L126.386 88.7833C126.158 88.8112 125.785 88.8253 125.469 88.8253V93.0679Z" fill="#007665"/>
<path fill-rule="evenodd" clip-rule="evenodd" d="M29.7212 93.0684V82.719H34.6809V84.2674H31.4986V86.9328H33.8793V88.4812H31.4986V93.0684H29.7212Z" fill="#007665"/>
<path fill-rule="evenodd" clip-rule="evenodd" d="M37.8051 90.5168C37.8051 91.292 38.035 91.6649 38.7521 91.6649C39.4687 91.6649 39.6972 91.292 39.6972 90.5168V85.2711C39.6972 84.4959 39.4687 84.1234 38.7521 84.1234C38.035 84.1234 37.8051 84.4959 37.8051 85.2711V90.5168ZM36.0277 85.2267C36.0277 83.7656 36.8878 82.5764 38.7521 82.5764C40.6149 82.5764 41.4746 83.7656 41.4746 85.2267V90.5607C41.4746 92.0223 40.6149 93.2115 38.7521 93.2115C36.8878 93.2115 36.0277 92.0223 36.0277 90.5607V85.2267Z" fill="#007665"/>
<path fill-rule="evenodd" clip-rule="evenodd" d="M44.8008 87.3633H45.4319C46.3931 87.3633 46.7505 87.0041 46.7505 85.7733C46.7505 84.5398 46.3931 84.1805 45.4319 84.1805H44.8008V87.3633ZM44.8008 93.0679H43.0234V82.7185H45.5179C47.511 82.7185 48.5279 83.5645 48.5279 85.7733C48.5279 87.4351 47.8825 88.1083 47.2811 88.3802L48.7856 93.0679H46.9804L45.718 88.7833C45.4895 88.8112 45.1166 88.8253 44.8008 88.8253V93.0679Z" fill="#007665"/>
<path fill-rule="evenodd" clip-rule="evenodd" d="M56.7826 82.719H58.2442L59.4494 89.3135H59.4773L60.4658 82.719H62.1299L60.3091 93.0684H58.8178L57.529 86.2313H57.4997L56.2959 93.0684H54.8051L52.8407 82.719H54.5034L55.593 89.3135H55.6208L56.7826 82.719Z" fill="#007665"/>
<mask id="mask0_1_9334" style="mask-type:luminance" maskUnits="userSpaceOnUse" x="0" y="0" width="192" height="94">
<path fill-rule="evenodd" clip-rule="evenodd" d="M0.715286 93.2116H191.858V0.5H0.715286V93.2116Z" fill="white"/>
</mask>
<g mask="url(#mask0_1_9334)">
<path fill-rule="evenodd" clip-rule="evenodd" d="M63.8623 93.0684H65.6397V82.719H63.8623V93.0684Z" fill="#007665"/>
</g>
<mask id="mask1_1_9334" style="mask-type:luminance" maskUnits="userSpaceOnUse" x="0" y="0" width="192" height="94">
<path fill-rule="evenodd" clip-rule="evenodd" d="M0.715286 93.2116H191.858V0.5H0.715286V93.2116Z" fill="white"/>
</mask>
<g mask="url(#mask1_1_9334)">
<path fill-rule="evenodd" clip-rule="evenodd" d="M67.8735 93.0684V82.719H69.6509V91.52H72.4466V93.0684H67.8735Z" fill="#007665"/>
</g>
<mask id="mask2_1_9334" style="mask-type:luminance" maskUnits="userSpaceOnUse" x="0" y="0" width="192" height="94">
<path fill-rule="evenodd" clip-rule="evenodd" d="M0.715286 93.2116H191.858V0.5H0.715286V93.2116Z" fill="white"/>
</mask>
<g mask="url(#mask2_1_9334)">
<path fill-rule="evenodd" clip-rule="evenodd" d="M75.6684 91.6071H76.2859C77.231 91.6071 77.5605 91.2474 77.5605 90.1592V85.6287C77.5605 84.5391 77.231 84.1808 76.2859 84.1808H75.6684V91.6071ZM73.8911 82.7192H76.5286C78.3631 82.7192 79.3375 83.7219 79.3375 85.8449V89.9435C79.3375 92.066 78.3631 93.0687 76.5286 93.0687H73.8911V82.7192Z" fill="#007665"/>
</g>
<mask id="mask3_1_9334" style="mask-type:luminance" maskUnits="userSpaceOnUse" x="0" y="0" width="192" height="94">
<path fill-rule="evenodd" clip-rule="evenodd" d="M0.715286 93.2116H191.858V0.5H0.715286V93.2116Z" fill="white"/>
</mask>
<g mask="url(#mask3_1_9334)">
<path fill-rule="evenodd" clip-rule="evenodd" d="M81.3297 93.0684V82.719H83.1076V91.52H85.9032V93.0684H81.3297Z" fill="#007665"/>
</g>
<mask id="mask4_1_9334" style="mask-type:luminance" maskUnits="userSpaceOnUse" x="0" y="0" width="192" height="94">
<path fill-rule="evenodd" clip-rule="evenodd" d="M0.715286 93.2116H191.858V0.5H0.715286V93.2116Z" fill="white"/>
</mask>
<g mask="url(#mask4_1_9334)">
<path fill-rule="evenodd" clip-rule="evenodd" d="M87.5919 93.0684H89.3693V82.719H87.5919V93.0684Z" fill="#007665"/>
</g>
<mask id="mask5_1_9334" style="mask-type:luminance" maskUnits="userSpaceOnUse" x="0" y="0" width="192" height="94">
<path fill-rule="evenodd" clip-rule="evenodd" d="M0.715286 93.2116H191.858V0.5H0.715286V93.2116Z" fill="white"/>
</mask>
<g mask="url(#mask5_1_9334)">
<path fill-rule="evenodd" clip-rule="evenodd" d="M91.6901 93.0684V82.719H96.6498V84.2674H93.468V86.9328H95.8487V88.4812H93.468V93.0684H91.6901Z" fill="#007665"/>
</g>
<mask id="mask6_1_9334" style="mask-type:luminance" maskUnits="userSpaceOnUse" x="0" y="0" width="192" height="94">
<path fill-rule="evenodd" clip-rule="evenodd" d="M0.715286 93.2116H191.858V0.5H0.715286V93.2116Z" fill="white"/>
</mask>
<g mask="url(#mask6_1_9334)">
<path fill-rule="evenodd" clip-rule="evenodd" d="M98.3339 93.0684V82.719H103.093V84.2674H100.111V86.9328H102.404V88.4812H100.111V91.52H103.294V93.0684H98.3339Z" fill="#007665"/>
</g>
<mask id="mask7_1_9334" style="mask-type:luminance" maskUnits="userSpaceOnUse" x="0" y="0" width="192" height="94">
<path fill-rule="evenodd" clip-rule="evenodd" d="M0.715286 93.2116H191.858V0.5H0.715286V93.2116Z" fill="white"/>
</mask>
<g mask="url(#mask7_1_9334)">
<path fill-rule="evenodd" clip-rule="evenodd" d="M104.535 93.0684H106.227V91.3765H104.535V93.0684Z" fill="#007665"/>
</g>
<mask id="mask8_1_9334" style="mask-type:luminance" maskUnits="userSpaceOnUse" x="0" y="0" width="192" height="94">
<path fill-rule="evenodd" clip-rule="evenodd" d="M0.715286 93.2116H191.858V0.5H0.715286V93.2116Z" fill="white"/>
</mask>
<g mask="url(#mask8_1_9334)">
<path fill-rule="evenodd" clip-rule="evenodd" d="M136.39 89.2264H137.824L137.121 84.7841H137.091L136.39 89.2264ZM135.817 93.0687H134.097L136.003 82.7192H138.21L140.116 93.0687H138.396L138.08 90.7748H136.132L135.817 93.0687Z" fill="#007665"/>
</g>
<mask id="mask9_1_9334" style="mask-type:luminance" maskUnits="userSpaceOnUse" x="0" y="0" width="192" height="94">
<path fill-rule="evenodd" clip-rule="evenodd" d="M0.715286 93.2116H191.858V0.5H0.715286V93.2116Z" fill="white"/>
</mask>
<g mask="url(#mask9_1_9334)">
<path fill-rule="evenodd" clip-rule="evenodd" d="M141.618 93.0684V82.719H143.396V91.52H146.191V93.0684H141.618Z" fill="#007665"/>
</g>
<mask id="mask10_1_9334" style="mask-type:luminance" maskUnits="userSpaceOnUse" x="0" y="0" width="192" height="94">
<path fill-rule="evenodd" clip-rule="evenodd" d="M0.715286 93.2116H191.858V0.5H0.715286V93.2116Z" fill="white"/>
</mask>
<g mask="url(#mask10_1_9334)">
<path fill-rule="evenodd" clip-rule="evenodd" d="M147.351 93.0684V82.719H149.128V91.52H151.924V93.0684H147.351Z" fill="#007665"/>
</g>
<mask id="mask11_1_9334" style="mask-type:luminance" maskUnits="userSpaceOnUse" x="0" y="0" width="192" height="94">
<path fill-rule="evenodd" clip-rule="evenodd" d="M0.715286 93.2116H191.858V0.5H0.715286V93.2116Z" fill="white"/>
</mask>
<g mask="url(#mask11_1_9334)">
<path fill-rule="evenodd" clip-rule="evenodd" d="M153.253 93.0684H154.945V91.3765H153.253V93.0684Z" fill="#007665"/>
</g>
<mask id="mask12_1_9334" style="mask-type:luminance" maskUnits="userSpaceOnUse" x="0" y="0" width="192" height="94">
<path fill-rule="evenodd" clip-rule="evenodd" d="M0.715286 93.2116H191.858V0.5H0.715286V93.2116Z" fill="white"/>
</mask>
<g mask="url(#mask12_1_9334)">
<path fill-rule="evenodd" clip-rule="evenodd" d="M0.715378 72.8117V52.8049H4.1526V69.8192H9.55557V72.8117H0.715378Z" fill="#007665"/>
</g>
<mask id="mask13_1_9334" style="mask-type:luminance" maskUnits="userSpaceOnUse" x="0" y="0" width="192" height="94">
<path fill-rule="evenodd" clip-rule="evenodd" d="M0.715286 93.2116H191.858V0.5H0.715286V93.2116Z" fill="white"/>
</mask>
<g mask="url(#mask13_1_9334)">
<path fill-rule="evenodd" clip-rule="evenodd" d="M12.6424 72.8115H16.0782V52.8047H12.6424V72.8115Z" fill="#007665"/>
</g>
<mask id="mask14_1_9334" style="mask-type:luminance" maskUnits="userSpaceOnUse" x="0" y="0" width="192" height="94">
<path fill-rule="evenodd" clip-rule="evenodd" d="M0.715286 93.2116H191.858V0.5H0.715286V93.2116Z" fill="white"/>
</mask>
<g mask="url(#mask14_1_9334)">
<path fill-rule="evenodd" clip-rule="evenodd" d="M19.3704 72.8117V52.8049H22.5574L26.742 64.2491H26.7977V52.8049H29.9002V72.8117H26.9077L22.5301 60.3148H22.4744V72.8117H19.3704Z" fill="#007665"/>
</g>
<mask id="mask15_1_9334" style="mask-type:luminance" maskUnits="userSpaceOnUse" x="0" y="0" width="192" height="94">
<path fill-rule="evenodd" clip-rule="evenodd" d="M0.715286 93.2116H191.858V0.5H0.715286V93.2116Z" fill="white"/>
</mask>
<g mask="url(#mask15_1_9334)">
<path fill-rule="evenodd" clip-rule="evenodd" d="M40.1196 59.4051V57.8538C40.1196 56.1638 39.3445 55.4425 38.4574 55.4425C37.0723 55.4425 36.6281 56.1638 36.6281 57.6603V67.8011C36.6281 69.298 37.0723 70.0189 38.4574 70.0189C39.7047 70.0189 40.1196 69.298 40.1196 67.9965V65.5847H43.5569V67.8851C43.5569 70.7115 41.8932 73.0119 38.4574 73.0119C34.855 73.0119 33.1928 70.7115 33.1928 67.8851V57.5758C33.1928 54.7504 34.855 52.4495 38.4574 52.4495C41.8932 52.4495 43.5569 54.9435 43.5569 57.9369V59.4051H40.1196Z" fill="#007665"/>
</g>
<mask id="mask16_1_9334" style="mask-type:luminance" maskUnits="userSpaceOnUse" x="0" y="0" width="192" height="94">
<path fill-rule="evenodd" clip-rule="evenodd" d="M0.715286 93.2116H191.858V0.5H0.715286V93.2116Z" fill="white"/>
</mask>
<g mask="url(#mask16_1_9334)">
<path fill-rule="evenodd" clip-rule="evenodd" d="M50.1567 67.8011C50.1567 69.2985 50.6014 70.0194 51.986 70.0194C53.372 70.0194 53.8148 69.2985 53.8148 67.8011V57.6603C53.8148 56.1633 53.372 55.442 51.986 55.442C50.6014 55.442 50.1567 56.1633 50.1567 57.6603V67.8011ZM46.7209 57.5758C46.7209 54.7499 48.3831 52.449 51.986 52.449C55.5884 52.449 57.2506 54.7499 57.2506 57.5758V67.8851C57.2506 70.7114 55.5884 73.0119 51.986 73.0119C48.3831 73.0119 46.7209 70.7114 46.7209 67.8851V57.5758Z" fill="#007665"/>
</g>
<mask id="mask17_1_9334" style="mask-type:luminance" maskUnits="userSpaceOnUse" x="0" y="0" width="192" height="94">
<path fill-rule="evenodd" clip-rule="evenodd" d="M0.715286 93.2116H191.858V0.5H0.715286V93.2116Z" fill="white"/>
</mask>
<g mask="url(#mask17_1_9334)">
<path fill-rule="evenodd" clip-rule="evenodd" d="M60.5425 72.7861V52.7793H63.9797V69.7936H69.3827V72.7861H60.5425Z" fill="#007665"/>
</g>
<mask id="mask18_1_9334" style="mask-type:luminance" maskUnits="userSpaceOnUse" x="0" y="0" width="192" height="94">
<path fill-rule="evenodd" clip-rule="evenodd" d="M0.715286 93.2116H191.858V0.5H0.715286V93.2116Z" fill="white"/>
</mask>
<g mask="url(#mask18_1_9334)">
<path fill-rule="evenodd" clip-rule="evenodd" d="M72.1633 72.7861V52.7793H75.3503L79.5349 64.2235H79.5906V52.7793H82.6936V72.7861H79.7006L75.323 60.2892H75.2673V72.7861H72.1633Z" fill="#007665"/>
</g>
<mask id="mask19_1_9334" style="mask-type:luminance" maskUnits="userSpaceOnUse" x="0" y="0" width="192" height="94">
<path fill-rule="evenodd" clip-rule="evenodd" d="M0.715286 93.2116H191.858V0.5H0.715286V93.2116Z" fill="white"/>
</mask>
<g mask="url(#mask19_1_9334)">
<path fill-rule="evenodd" clip-rule="evenodd" d="M96.712 61.7834H98.0418C100.288 61.7834 100.98 61.0899 100.98 58.7064C100.98 56.3233 100.288 55.6312 98.0418 55.6312H96.712V61.7834ZM93.2762 72.8117V52.804H98.2094C102.448 52.804 104.415 54.4402 104.415 58.7064C104.415 62.9735 102.448 64.6098 98.2094 64.6098H96.712V72.8117H93.2762Z" fill="#007665"/>
</g>
<mask id="mask20_1_9334" style="mask-type:luminance" maskUnits="userSpaceOnUse" x="0" y="0" width="192" height="94">
<path fill-rule="evenodd" clip-rule="evenodd" d="M0.715286 93.2116H191.858V0.5H0.715286V93.2116Z" fill="white"/>
</mask>
<g mask="url(#mask20_1_9334)">
<path fill-rule="evenodd" clip-rule="evenodd" d="M108.946 65.3857H111.717L110.359 56.7947H110.304L108.946 65.3857ZM107.838 72.8115H104.512L108.198 52.8052H112.464L116.152 72.8115H112.825L112.216 68.3782H108.447L107.838 72.8115Z" fill="#007665"/>
</g>
<mask id="mask21_1_9334" style="mask-type:luminance" maskUnits="userSpaceOnUse" x="-1" y="0" width="192" height="93">
<path fill-rule="evenodd" clip-rule="evenodd" d="M-0.999557 92.7116H190.143V0H-0.999557V92.7116Z" fill="white"/>
</mask>
<g mask="url(#mask21_1_9334)">
<path fill-rule="evenodd" clip-rule="evenodd" d="M121.839 61.7834H123.058C124.917 61.7834 125.608 61.0899 125.608 58.7064C125.608 56.3233 124.917 55.6312 123.058 55.6312H121.839V61.7834ZM121.839 72.8117H118.404V52.804H123.226C127.078 52.804 129.045 54.4402 129.045 58.7064C129.045 61.9217 127.798 63.2237 126.634 63.7506L129.543 72.8117H126.052L123.613 64.5271C123.17 64.5814 122.449 64.6098 121.839 64.6098V72.8117Z" fill="#007665"/>
</g>
<path fill-rule="evenodd" clip-rule="evenodd" d="M131.695 72.8117V52.8049H135.133V60.2034H135.188L138.789 52.8049H142.227L138.513 60.2591L142.697 72.8117H139.205L136.407 63.5013H136.352L135.133 65.7178V72.8117H131.695Z" fill="#007665"/>
<path fill-rule="evenodd" clip-rule="evenodd" d="M150.952 55.7975V52.8049H160.04V56.0736L153.723 69.8192H160.04V72.8117H150.176V69.5426L156.577 55.7975H150.952Z" fill="#007665"/>
<path fill-rule="evenodd" clip-rule="evenodd" d="M165.68 67.8784C165.68 69.3764 166.124 70.0968 167.509 70.0968C168.895 70.0968 169.338 69.3764 169.338 67.8784V57.7377C169.338 56.2407 168.895 55.5194 167.509 55.5194C166.124 55.5194 165.68 56.2407 165.68 57.7377V67.8784ZM162.244 57.6536C162.244 54.8273 163.906 52.5264 167.509 52.5264C171.112 52.5264 172.774 54.8273 172.774 57.6536V67.963C172.774 70.7888 171.112 73.0893 167.509 73.0893C163.906 73.0893 162.244 70.7888 162.244 67.963V57.6536Z" fill="#007665"/>
<path fill-rule="evenodd" clip-rule="evenodd" d="M178.68 67.8784C178.68 69.3764 179.125 70.0968 180.51 70.0968C181.896 70.0968 182.338 69.3764 182.338 67.8784V57.7377C182.338 56.2407 181.896 55.5194 180.51 55.5194C179.125 55.5194 178.68 56.2407 178.68 57.7377V67.8784ZM175.245 57.6536C175.245 54.8273 176.906 52.5264 180.51 52.5264C184.112 52.5264 185.774 54.8273 185.774 57.6536V67.963C185.774 70.7888 184.112 73.0893 180.51 73.0893C176.906 73.0893 175.245 70.7888 175.245 67.963V57.6536Z" fill="#007665"/>
<path fill-rule="evenodd" clip-rule="evenodd" d="M189.53 71.0278H189.901C190.214 71.0278 190.324 70.9286 190.324 70.7247C190.324 70.5222 190.193 70.4533 189.88 70.4533H189.53V71.0278ZM189.53 72.2859H189.103V70.1195H189.922C190.465 70.1195 190.762 70.2923 190.762 70.7625C190.762 71.1581 190.522 71.3148 190.241 71.3412L190.762 72.2859H190.288L189.802 71.3615H189.53V72.2859ZM189.875 69.6767C189.051 69.6767 188.404 70.313 188.404 71.2053C188.404 72.0985 189.051 72.7348 189.875 72.7348C190.689 72.7348 191.347 72.0985 191.347 71.2053C191.347 70.313 190.689 69.6767 189.875 69.6767ZM187.891 71.2053C187.891 70.0317 188.826 69.2688 189.875 69.2688C190.924 69.2688 191.858 70.0317 191.858 71.2053C191.858 72.3845 190.924 73.1418 189.875 73.1418C188.826 73.1418 187.891 72.3845 187.891 71.2053Z" fill="#007665"/>
</g>
<defs>
<clipPath id="clip0_1_9334">
<rect width="192" height="94" fill="white"/>
</clipPath>
</defs>
</svg>
