<svg width="182" height="66" viewBox="0 0 182 66" fill="none" xmlns="http://www.w3.org/2000/svg">
<path d="M33.5203 48.6675C32.8959 48.6675 31.4986 48.2513 31.2905 47.9243C29.7051 44.7547 28.4594 41.4263 27.5743 37.9946C27.4851 37.6378 27.277 37.6378 27.0689 38.0243C25.619 41.2629 23.8036 44.3251 21.6581 47.1513C21.2716 47.627 19.577 47.1513 19.2203 46.5567C18.15 44.7729 15.3554 38.9756 14.3446 36.3892C14.1662 36.0027 13.9284 36.181 13.8689 36.5378C12.7689 41.354 9.76622 50.8081 9.11217 50.8081C8.57703 50.8081 7.62568 50.5108 7.32838 50.0946C7.12027 49.7378 7.03109 48.9054 7.15 48.5486C9.07082 43.0297 10.6592 37.4007 11.9068 31.6919C11.9662 31.3946 11.9068 31.127 11.7878 30.7108C11.6095 29.8783 10.4203 27.3513 10.4203 26.7567C10.4203 26.1621 11.7284 25.1216 12.2635 25.1216C12.7095 25.1216 13.9581 25.2702 14.0473 25.6567C15.3851 30.5324 19.1014 39.481 20.8851 42.2756C21.0041 42.5135 21.1824 42.5135 21.3608 42.3351C22.4905 41.0864 25.523 35.2594 26.1176 32.3162C26.177 31.9297 25.7608 30.4135 25.7608 29.9378C25.7608 29.581 26.7419 29.2837 27.5149 29.2837C28.4662 29.2837 29.2986 29.7891 29.3581 30.354C29.7446 35.1108 32.8959 44.2081 34.4122 47.2108C34.6203 47.627 34.1149 48.6378 33.55 48.6378M46.8689 38.5892C46.75 38.3513 46.5419 38.3513 46.423 38.7081C45.8284 40.0756 44.1932 43.0783 43.5986 44.0297C43.4203 44.2973 43.5095 44.4756 43.8068 44.4459C45.2652 44.2146 46.6986 43.8463 48.0878 43.3459C48.4446 43.2864 48.5338 43.0486 48.4446 42.7513C48.1473 41.681 47.1662 39.1837 46.8689 38.5892ZM55.1932 53.3054C54.7473 53.3054 54.0041 53.0081 53.7959 52.7702C52.4665 50.7852 51.2265 48.7418 50.0797 46.6459C50.0203 46.4378 49.7824 46.2892 49.5743 46.2892C47.7311 46.2892 42.5284 47.4783 41.1905 48.4297C40.4607 49.0232 39.7659 49.6585 39.1095 50.3324C38.4554 51.1351 36.7905 51.5216 36.4635 51.5216C35.6608 51.5216 34.9176 50.2729 34.9176 49.6783C34.9176 48.6378 38.1878 47.0621 39.5851 45.2783C42.3203 41.5919 44.9662 35.9432 44.9662 34.3973C44.9662 33.327 44.2824 31.0081 44.0149 30.0864C43.9257 29.6108 45.1446 28.7189 46.0365 28.5405C46.3338 28.481 47.6122 28.6594 47.6716 29.1351C47.9689 30.681 49.2176 35.4973 51.4176 40.7297C52.8264 44.4866 54.8344 47.9905 57.3635 51.1054C58.0473 51.7 56.204 53.3054 55.1932 53.3054ZM84.0311 31.3351C84.0311 31.7513 83.7338 32.4351 83.704 33.8027C83.6149 35.2892 83.5851 39.6892 83.5257 42.8108C83.4959 45.7243 83.1392 49.054 82.7824 49.827C82.5149 50.3621 81.504 51.1946 80.7013 51.1946C80.3743 51.1946 79.6311 50.1243 79.6311 49.3216C79.6311 48.5189 80.2554 46.6162 80.2554 40.2837C80.2554 35.6459 80.0473 32.8513 80.0473 31.6919C80.0473 30.8297 82.0094 29.8189 82.5149 29.8189C83.0203 29.8189 84.0013 30.7702 84.0013 31.3054V31.3351H84.0311ZM97.1121 37.9648C97.023 37.727 96.8148 37.727 96.6959 38.0837C96.1013 39.4513 94.4662 42.454 93.8716 43.4054C93.6932 43.6729 93.7824 43.8513 94.0797 43.8216C95.0608 43.7027 97.5878 43.0783 98.3608 42.7216C98.7176 42.6324 98.777 42.4243 98.7176 42.127C98.2824 40.7031 97.7459 39.3122 97.1121 37.9648ZM105.436 52.6513C105.02 52.6513 104.247 52.354 104.069 52.1459C102.74 50.1605 101.5 48.117 100.353 46.0216C100.309 45.9215 100.239 45.8352 100.15 45.7723C100.061 45.7094 99.9561 45.6722 99.8473 45.6648C96.9373 45.8692 94.0876 46.5942 91.4338 47.8054C91.0473 48.1027 89.7094 49.2919 89.3824 49.6783C88.7284 50.5108 87.0635 50.8973 86.7067 50.8973C85.904 50.8973 85.1608 49.6486 85.1608 49.054C85.1608 48.0135 88.4608 46.4378 89.8581 44.654C92.5932 40.9675 95.2392 35.3189 95.2392 33.7729C95.2392 32.7027 94.5257 30.4135 94.2878 29.4621C94.1689 28.9864 95.4176 28.0946 96.3094 27.9459C96.6067 27.8567 97.8554 28.0648 97.9446 28.5405C98.8489 32.4986 100.102 36.3687 101.691 40.1054C103.1 43.862 105.108 47.3659 107.636 50.481C108.32 51.0756 106.477 52.6513 105.466 52.6513M130.023 30.9783C130.023 32.4351 129.845 34.7837 129.815 38.1729C129.755 40.6108 129.577 45.8432 129.309 47.2702C129.22 47.5973 127.704 48.9054 127.377 48.5783C123.097 44.6844 119.195 40.3941 115.723 35.7648C115.426 35.3189 115.277 35.4675 115.188 35.9729C114.742 39.8973 113.404 47.5081 112.691 49.3513C112.363 50.0648 111.145 50.927 110.491 50.927C110.045 50.927 109.153 50.3324 109.301 49.8567C110.725 44.0243 111.767 38.1055 112.423 32.1378C112.423 31.6324 112.363 31.3648 111.828 30.6216C110.639 29.0459 109.658 27.6189 109.628 27.1432C109.599 26.4594 110.907 25.3594 111.799 25.3594C112.096 25.3594 113.166 25.8054 113.374 26.1621C114.772 28.3027 117.536 32.5837 119.826 35.527C122.204 38.5 124.88 41.5027 125.98 42.4837C126.158 42.6621 126.366 42.5729 126.426 42.1864C126.545 41.354 126.604 39.0054 126.634 37.4297C126.634 34.6648 126.515 32.1378 126.426 30.1162C126.396 29.8189 127.347 29.2837 127.734 29.2837C128.863 29.2837 130.023 30.354 130.023 30.9486V30.9783ZM148.753 39.8378C148.753 36.954 147.236 34.4864 145.423 33.2973C144.63 32.8784 143.76 32.6255 142.866 32.554C142.123 32.554 140.904 32.8216 140.101 33.2081C139.054 33.8649 138.186 34.7705 137.574 35.8443C136.962 36.918 136.625 38.1266 136.593 39.3621C136.593 40.9973 137.128 42.454 138.02 43.7621C139.001 45.3378 141.201 46.7351 143.253 46.7351C145.928 46.7351 148.753 43.1675 148.753 39.8675V39.8081V39.8378ZM152.439 38.7675C152.439 44.8621 148.218 50.1837 142.242 50.1837C137.426 50.1837 132.936 44.981 132.936 40.0162C133.078 37.0886 134.198 34.2932 136.118 32.0783C137.337 30.7914 138.86 29.8306 140.547 29.2837C141.053 29.1648 142.42 28.8675 142.866 28.8675C144.763 28.9284 146.61 29.4927 148.218 30.5027C149.428 31.5301 150.425 32.7864 151.149 34.1996C151.873 35.6127 152.312 37.1549 152.439 38.7378V38.7675ZM155.799 34.6054C155.263 35.1108 153.777 34.6054 154.074 33.9216C154.639 32.554 155.918 29.2243 156.274 28.4216C156.423 27.9756 157.018 27.7973 157.255 27.7973C157.85 27.7973 158.682 28.7189 158.445 29.2837C157.672 31.1153 156.778 32.8931 155.769 34.6054M168.642 43.6135C168.642 45.0405 168.196 47.0919 167.066 48.5783C165.58 50.6 163.023 52.3837 162.131 52.3837C160.466 52.3837 159.396 51.4324 159.396 50.8675C159.396 50.6594 159.782 49.7675 160.05 49.7378C163.439 48.8459 165.104 46.8243 165.104 44.5648C165.104 43.1973 164.48 41.8594 163.053 40.1351C161.96 38.8275 161.087 37.3516 160.466 35.7648C160.177 34.0957 160.299 32.3812 160.823 30.7702C161.804 28.0054 164.985 25.6567 166.204 25.6567C166.858 25.6567 168.018 26.3108 168.374 27.0243C168.434 27.2027 168.226 28.3621 167.988 28.3919C165.58 28.8675 163.826 30.7702 163.826 32.7621C163.826 34.2486 164.034 35.527 165.907 37.5189C168.434 40.3432 168.642 41.8594 168.642 43.5837V43.6135ZM65.4203 39.8378C65.4203 39.8378 64.2608 40.9973 65.5986 42.3351L66.55 41.4432L65.4203 39.8378ZM118.072 52.9189C112.958 57.0513 103.92 57.7351 103.92 57.7351C97.0245 58.5236 90.0469 57.3284 83.8066 54.2899C77.5663 51.2514 72.3224 46.4957 68.6905 40.581L69.1067 40.254C69.7013 39.6594 71.3365 38.7081 72.0797 37.5783C72.5007 36.8803 72.7075 36.0739 72.6743 35.2594C72.6743 34.2783 71.9608 33.0892 70.2959 31.9891C68.6013 30.8594 63.0122 28.1837 61.1689 28.2135C60.277 28.2432 59.2662 29.1946 59.2959 29.5216C59.2959 29.9675 59.8905 31.0973 60.277 31.127C63.1106 31.7086 65.7993 32.8508 68.1851 34.4864C68.4552 34.6803 68.6763 34.9343 68.8311 35.2284C68.9859 35.5226 69.0701 35.8487 69.077 36.181C69.077 36.627 68.9284 36.9837 68.6608 37.3108C67.977 38.2027 66.6392 39.1837 65.5986 39.7486C65.004 40.1054 65.1824 40.581 65.2419 41.1756C65.3013 41.5621 65.5095 41.7702 65.5986 41.9783H65.777C65.689 42.0484 65.6092 42.1282 65.5392 42.2162C86.6473 69.8351 109.658 59.4594 112.453 58.1513C115.182 56.9182 117.615 55.1136 119.588 52.8594C119.291 51.7892 118.161 52.8594 118.101 52.9189H118.072ZM63.9338 34.1892C63.9338 33.5648 62.7446 32.9405 62.3284 32.9405C61.4365 33 60.3365 33.8621 60.3662 34.2486C60.3662 35.6756 60.277 38.2621 60.0689 41.5919C59.8013 44.8621 59.4446 48.727 59.0581 50.0946C59.0284 50.3919 59.7122 50.9864 59.95 50.9864C60.6635 50.9567 62.15 49.7973 62.4176 49.1135C62.9824 47.5378 63.4284 43.1973 63.6068 40.1351C63.8149 37.5486 63.9635 35.3783 63.9338 34.2189V34.1892ZM170.961 49.7081C171.177 49.8367 171.423 49.9083 171.674 49.9162C172.12 49.9162 172.358 49.6783 172.358 49.3513C172.358 49.054 172.18 48.8756 171.763 48.727C171.228 48.5486 170.872 48.2513 170.872 47.8351C170.872 47.3 171.318 46.9432 171.942 46.9432C172.239 46.9432 172.536 47.0027 172.655 47.0919L172.536 47.4189C172.355 47.3182 172.15 47.267 171.942 47.2702C171.496 47.2702 171.318 47.5675 171.318 47.7459C171.318 48.0432 171.526 48.1919 171.972 48.3702C172.507 48.5783 172.774 48.8459 172.774 49.3216C172.774 49.827 172.418 50.2432 171.645 50.2432C171.347 50.2432 170.991 50.154 170.812 50.0351L170.931 49.7081H170.961ZM176.074 48.8162L176.015 47.3892C175.896 47.7756 175.777 48.1919 175.599 48.6081L175.034 50.1837H174.736L174.201 48.6378L173.815 47.3892L173.755 48.8162L173.666 50.2135H173.28L173.488 46.9729H174.023L174.588 48.5486C174.7 48.9017 174.799 49.2587 174.885 49.6189H174.915L175.272 48.5486L175.836 46.9729H176.372L176.58 50.2135H176.163L176.074 48.7864V48.8162Z" fill="#64433D"/>
<path d="M151.934 3.38616C150.037 3.37427 148.167 3.61508 146.434 4.21859H146.463C146.463 4.21859 136.082 7.61075 136.245 18.691C132.431 21.7294 130.466 24.2802 130.38 24.3783C128.507 26.3999 130.053 27.7378 129.993 27.6783C130.766 28.3918 131.182 27.9162 131.301 27.827C133.309 25.5712 135.458 23.4452 137.735 21.4618C140.22 23.0702 145.845 25.8053 152.707 23.3081C152.766 23.3081 160.674 22.2378 168.82 8.20535C168.82 8.20535 160.145 3.4367 151.934 3.38616ZM153.64 6.30562C157.698 6.33535 161.4 7.72373 163.017 8.42832C154.753 8.91653 146.76 11.5588 139.834 16.0926C141.059 9.33805 149.02 6.9567 149.02 6.9567C150.517 6.49924 152.076 6.27856 153.64 6.30265V6.30562ZM163.698 9.18048C159.179 17.7367 152.439 19.6216 152.499 19.6216H152.469C150.605 20.4757 148.563 20.8689 146.515 20.768C144.467 20.6671 142.473 20.0751 140.702 19.0418C150.947 11.1872 159.869 9.52238 163.698 9.18048Z" fill="#648326"/>
</svg>
