<svg width="117" height="92" viewBox="0 0 117 92" fill="none" xmlns="http://www.w3.org/2000/svg">
<g clip-path="url(#clip0_1_9330)">
<path d="M74.4 6.5C83.3 6.5 90.6 44.2 90.6 90.6H103.5C103.5 40.6 90.5 0 74.4 0C65.3 0 57.1 12.2 51.8 31.2C46.4 12.2 38.3 0 29.1 0C13 0 0 40.6 0 90.6H12.9C12.9 44.1 20.1 6.5 29.1 6.5C38 6.5 45.3 41.3 45.3 84.1H58.2C58.2 41.2 65.5 6.5 74.4 6.5Z" fill="#FDBB20"/>
<path d="M111.2 87H112.1C112.8 87 113.5 87 113.5 86.1C113.5 85.4 112.9 85.3 112.3 85.3H111.2V87ZM110.4 84.7H112.4C113.6 84.7 114.2 85.2 114.2 86.2C114.2 87.2 113.6 87.6 112.8 87.6L114.3 89.9H113.4L112 87.6H111.1V90H110.3V84.7H110.4ZM112.1 91.2C114.2 91.2 115.8 89.5 115.8 87.3C115.8 85.1 114.2 83.5 112.1 83.5C110 83.5 108.4 85.2 108.4 87.3C108.4 89.5 110 91.2 112.1 91.2ZM112.1 82.8C114.6 82.8 116.6 84.7 116.6 87.3C116.6 89.9 114.5 91.8 112.1 91.8C109.6 91.8 107.6 89.9 107.6 87.3C107.6 84.8 109.6 82.8 112.1 82.8Z" fill="#FDBB20"/>
</g>
<defs>
<clipPath id="clip0_1_9330">
<rect width="116.6" height="91.9" fill="white"/>
</clipPath>
</defs>
</svg>
