<svg width="202" height="43" viewBox="0 0 202 43" fill="none" xmlns="http://www.w3.org/2000/svg">
<g clip-path="url(#clip0_1_9321)">
<path d="M71.0667 24.7666L69.8667 28.1666H69.7667C69.5667 27.4 69.2 26.2333 68.6 24.8333L62.1667 8.66662H55.8667V34.4333H60.0334V18.5333C60.0334 17.5333 60.0334 16.4 60 15C59.9667 14.3 59.9 13.7666 59.8667 13.3666H59.9667C60.1667 14.3666 60.4 15.1 60.5667 15.5666L68.3 34.3666H71.2334L78.9 15.4C79.0667 14.9666 79.2334 14.1 79.4 13.3666H79.5C79.4 15.2666 79.3334 16.9666 79.3 18V34.3333H83.7334V8.59995H77.6667L71.0667 24.7666ZM87.9334 15.8666H92.2667V34.3333H87.9334V15.8666ZM90.1334 8.06662C89.4 8.06662 88.8 8.33328 88.3 8.79995C87.8 9.26662 87.5334 9.86662 87.5334 10.6C87.5334 11.3 87.8 11.9 88.3 12.3666C88.8 12.8333 89.4 13.0666 90.1334 13.0666C90.8667 13.0666 91.5 12.8 91.9667 12.3666C92.4667 11.9 92.7334 11.3 92.7334 10.6C92.7334 9.89995 92.4667 9.29995 91.9667 8.79995C91.5334 8.33328 90.9 8.06662 90.1334 8.06662ZM107.633 15.6999C106.833 15.5333 106 15.4333 105.2 15.4333C103.233 15.4333 101.433 15.8666 99.9334 16.7333C98.4334 17.6 97.2334 18.8 96.4667 20.3C95.6667 21.8333 95.2667 23.6 95.2667 25.6333C95.2667 27.4 95.6667 28.9666 96.4334 30.3999C97.2 31.7999 98.2667 32.9333 99.7 33.6999C101.067 34.4666 102.667 34.8666 104.467 34.8666C106.533 34.8666 108.3 34.4333 109.7 33.6333L109.733 33.6V29.6L109.567 29.7333C108.933 30.1999 108.2 30.6 107.467 30.8333C106.7 31.1 106 31.2333 105.4 31.2333C103.667 31.2333 102.3 30.7333 101.333 29.6333C100.333 28.5666 99.8334 27.1 99.8334 25.2666C99.8334 23.3666 100.333 21.8666 101.367 20.7666C102.4 19.6666 103.767 19.0999 105.433 19.0999C106.833 19.0999 108.267 19.5666 109.567 20.5L109.733 20.6333V16.4L109.7 16.3666C109.133 16.1333 108.5 15.8666 107.633 15.6999ZM121.933 15.5666C120.867 15.5666 119.867 15.9 119 16.6C118.267 17.2 117.767 18.0666 117.333 19.0999H117.3V15.8666H112.967V34.3333H117.3V24.8999C117.3 23.2999 117.633 21.9666 118.367 21C119.1 20 120.033 19.5 121.167 19.5C121.567 19.5 121.967 19.6 122.467 19.6666C122.933 19.8 123.267 19.9333 123.5 20.0999L123.667 20.2333V15.9L123.567 15.8666C123.267 15.6666 122.667 15.5666 121.933 15.5666ZM133.733 15.4666C130.7 15.4666 128.267 16.3666 126.567 18.1333C124.833 19.9 124 22.3333 124 25.3999C124 28.2666 124.867 30.6 126.533 32.3C128.2 33.9666 130.467 34.8333 133.3 34.8333C136.267 34.8333 138.633 33.9333 140.333 32.1333C142.067 30.3333 142.9 27.9333 142.9 24.9666C142.9 22.0333 142.1 19.7 140.467 18C138.9 16.3 136.6 15.4666 133.733 15.4666ZM137.2 29.6666C136.4 30.7 135.133 31.1999 133.567 31.1999C132 31.1999 130.733 30.7 129.833 29.6C128.933 28.5666 128.5 27.0666 128.5 25.1666C128.5 23.2 128.967 21.7 129.833 20.6333C130.733 19.5666 131.967 19.0333 133.533 19.0333C135.067 19.0333 136.267 19.5333 137.133 20.5666C138 21.5999 138.467 23.0999 138.467 25.0666C138.4 27.0666 138.033 28.6333 137.2 29.6666ZM152.567 23.5333C151.2 22.9666 150.333 22.5333 149.933 22.1666C149.6 21.8333 149.433 21.3666 149.433 20.7666C149.433 20.2666 149.633 19.7666 150.133 19.4333C150.633 19.0999 151.2 18.9333 152.033 18.9333C152.767 18.9333 153.533 19.0666 154.267 19.2666C155 19.4666 155.667 19.7666 156.2 20.1666L156.367 20.3V16.2333L156.267 16.1999C155.767 15.9999 155.1 15.8 154.3 15.6333C153.5 15.5 152.767 15.4333 152.167 15.4333C150.1 15.4333 148.4 15.9333 147.067 17.0333C145.733 18.0666 145.1 19.4666 145.1 21.0999C145.1 21.9666 145.233 22.7333 145.533 23.3666C145.833 24 146.267 24.6 146.867 25.1C147.467 25.5666 148.333 26.1 149.533 26.6C150.533 27.0333 151.3 27.3666 151.767 27.6333C152.233 27.9 152.533 28.2 152.767 28.4333C152.933 28.7 153.033 29.0333 153.033 29.4666C153.033 30.7 152.1 31.3 150.2 31.3C149.467 31.3 148.7 31.1666 147.8 30.8666C146.9 30.5666 146.067 30.1333 145.367 29.6333L145.2 29.5V33.7333L145.3 33.7666C145.933 34.0666 146.7 34.2666 147.633 34.5C148.567 34.6666 149.4 34.8 150.133 34.8C152.367 34.8 154.2 34.2999 155.5 33.1999C156.833 32.1333 157.533 30.7666 157.533 29C157.533 27.7666 157.2 26.6666 156.467 25.8333C155.5 25.0333 154.3 24.2 152.567 23.5333ZM168.967 15.4666C165.933 15.4666 163.5 16.3666 161.8 18.1333C160.1 19.9 159.233 22.3333 159.233 25.3999C159.233 28.2666 160.1 30.6 161.767 32.3C163.433 33.9666 165.7 34.8333 168.533 34.8333C171.5 34.8333 173.867 33.9333 175.567 32.1333C177.3 30.3333 178.133 27.9333 178.133 24.9666C178.133 22.0333 177.333 19.7 175.7 18C174.133 16.3 171.833 15.4666 168.967 15.4666ZM172.4 29.6666C171.6 30.7 170.333 31.1999 168.767 31.1999C167.167 31.1999 165.933 30.7 165.033 29.6C164.133 28.5666 163.7 27.0666 163.7 25.1666C163.7 23.2 164.167 21.7 165.033 20.6333C165.933 19.5666 167.167 19.0333 168.733 19.0333C170.233 19.0333 171.467 19.5333 172.333 20.5666C173.2 21.5999 173.667 23.0999 173.667 25.0666C173.667 27.0666 173.233 28.6333 172.4 29.6666ZM201.3 19.4333V15.8666H196.933V10.4L196.8 10.4333L192.667 11.6666L192.567 11.7V15.8666H186.033V13.5333C186.033 12.4666 186.3 11.6333 186.767 11.1C187.233 10.5666 187.933 10.3 188.8 10.3C189.4 10.3 190.033 10.4333 190.733 10.7333L190.9 10.8333V7.06662L190.8 7.03328C190.2 6.83328 189.4 6.69995 188.367 6.69995C187.067 6.69995 185.933 6.99995 184.9 7.49995C183.867 8.06662 183.1 8.83328 182.533 9.86662C181.967 10.8666 181.667 12 181.667 13.3V15.8666H178.633V19.3999H181.667V34.3333H186.033V19.4333H192.567V28.9333C192.567 32.8333 194.4 34.8 198.067 34.8C198.667 34.8 199.3 34.7 199.9 34.6C200.533 34.4666 201 34.3 201.267 34.1666L201.3 34.1333V30.5666L201.133 30.6999C200.867 30.8666 200.633 31 200.233 31.1C199.9 31.2 199.6 31.2333 199.367 31.2333C198.5 31.2333 197.9 31.0333 197.467 30.5333C197.067 30.0666 196.867 29.3 196.867 28.1666V19.4333H201.3Z" fill="#737373"/>
<path d="M0 0H20.4333V20.4333H0V0Z" fill="#F25022"/>
<path d="M22.5667 0H43V20.4333H22.5667V0Z" fill="#7FBA00"/>
<path d="M0 22.5667H20.4333V43H0V22.5667Z" fill="#00A4EF"/>
<path d="M22.5667 22.5667H43V43H22.5667V22.5667Z" fill="#FFB900"/>
</g>
<defs>
<clipPath id="clip0_1_9321">
<rect width="201.333" height="43" fill="white"/>
</clipPath>
</defs>
</svg>
