<svg width="146" height="54" viewBox="0 0 146 54" fill="none" xmlns="http://www.w3.org/2000/svg">
<g clip-path="url(#clip0_1_9477)">
<path d="M3.90865 0H0V54H3.90865V0Z" fill="black"/>
<path d="M3.90866 6.47689L6.91587 3.60376L25.0096 28.4406L22.0024 31.322L3.90866 6.47689Z" fill="black"/>
<path d="M25.0096 28.4406L27.9808 31.322L46.0745 6.47689L43.1034 3.60376L25.0096 28.4406Z" fill="black"/>
<path d="M49.9832 0H46.0745V54H49.9832V0Z" fill="black"/>
<path d="M100.01 13.7263L96.9231 16.5163L92.0769 9.49959L95.1274 6.65967L100.01 13.7263Z" fill="black"/>
<path d="M92.9351 4.63353L91.2188 8.73564L84.1803 4.81622L85.8606 0.722412L92.9351 4.63353Z" fill="black"/>
<path d="M83.1274 0H75.3101V4.50069H83.1274V0Z" fill="black"/>
<path d="M72.5769 0.722412L74.2572 4.7747L67.2188 8.68581L65.5385 4.63353L72.5769 0.722412Z" fill="black"/>
<path d="M63.3459 6.64526L58.4647 13.7188L61.5136 16.5083L66.3948 9.43483L63.3459 6.64526Z" fill="black"/>
<path d="M57.2524 16.6077L61.0457 17.5958L59.3293 26.373L55.4928 25.4264L57.2524 16.6077Z" fill="black"/>
<path d="M55.4928 28.6234L59.3293 27.6353L61.0457 36.4041L57.2524 37.4421L55.4928 28.6234Z" fill="black"/>
<path d="M58.464 40.3236L61.5144 37.4836L66.3967 44.5502L63.3534 47.3901L58.464 40.3236Z" fill="black"/>
<path d="M65.5385 49.3665L67.2188 45.3142L74.2572 49.2336L72.5769 53.2859L65.5385 49.3665Z" fill="black"/>
<path d="M83.1274 49.4993H75.3101V54H83.1274V49.4993Z" fill="black"/>
<path d="M85.8606 53.2859L84.1803 49.2336L91.2188 45.3142L92.9351 49.3665L85.8606 53.2859Z" fill="black"/>
<path d="M95.1274 47.3901L92.0769 44.5502L96.9231 37.5334L100.01 40.3235L95.1274 47.3901Z" fill="black"/>
<path d="M118.778 0.0001698L99.2289 51.7229L102.807 53.5143L122.356 1.79157L118.778 0.0001698Z" fill="black"/>
<path d="M132.317 28.2996H112.19V32.7919H132.317V28.2996Z" fill="black"/>
<path d="M125.696 0.00410758L122.124 1.80981L141.814 53.4606L145.387 51.6549L125.696 0.00410758Z" fill="black"/>
</g>
<defs>
<clipPath id="clip0_1_9477">
<rect width="145.385" height="54" fill="white"/>
</clipPath>
</defs>
</svg>
