<svg width="223" height="33" viewBox="0 0 223 33" fill="none" xmlns="http://www.w3.org/2000/svg">
<g clip-path="url(#clip0_1_9471)">
<path d="M0 0H29.1522V5.47826H0V0Z" fill="#FFC425"/>
<path d="M0.0652161 8.25H29.2174V24.6848H0.0652161V8.25Z" fill="#00539B"/>
<path d="M0 27.4565H29.1522V33H0V27.4565Z" fill="#FFC425"/>
<path d="M53.7717 16.5C53.7717 21.75 50.25 24.9783 45.0326 24.9783C40.1413 24.9783 36.6196 21.7826 36.6196 16.7283C36.6196 11.9348 40.2065 8.25002 45.2609 8.25002C50.2826 8.1848 53.7717 11.6087 53.7717 16.5ZM45.0652 9.32611C42.0652 9.32611 40.5 12.0978 40.5 16.1739C40.5 19.1087 41.5435 23.8696 45.4891 23.8696C48.6522 23.8696 49.8913 20.7718 49.8913 16.8587C49.8913 12.6848 48.0652 9.32611 45.0652 9.32611ZM61.3043 20.5761C61.3043 21.7174 61.4022 22.4674 61.7283 22.8587C62.0543 23.2826 62.4783 23.4457 64.2391 23.4457C66.4565 23.4457 67.1087 23.3805 68.5435 20.5761C68.7717 20.3478 69.2935 20.4131 69.4565 20.7392C69.3587 21.9783 68.7391 24 68.413 24.6522C67.1087 24.587 64.8261 24.587 62.837 24.587H59.5761C58.4348 24.587 57.2283 24.587 55.7609 24.6522C55.5326 24.4892 55.5 23.9348 55.6957 23.7718L56.6087 23.6739C57.6848 23.5109 57.8478 23.3478 57.8478 21.0652V12.0978C57.8478 9.88046 57.6848 9.6522 56.6087 9.48915L55.8913 9.39133C55.663 9.22828 55.663 8.67394 55.9565 8.51089C57.1957 8.57611 58.4022 8.57611 59.6087 8.57611C60.75 8.57611 61.9891 8.57611 63.1957 8.51089C63.4239 8.67394 63.4239 9.22828 63.1957 9.39133L62.5435 9.48915C61.4674 9.6522 61.3043 9.88046 61.3043 12.0978V20.5761ZM72.3913 12.5218C72.3913 10.2391 72.3261 9.75002 71.25 9.6522L70.8261 9.58698C70.5978 9.48915 70.5978 8.77176 70.8913 8.70654C72.913 8.60872 74.8043 8.47828 77.3478 8.47828C79.3696 8.47828 81.3261 8.70654 82.9891 9.2935C86.1522 10.4348 87.8804 13.3044 87.8804 16.3044C87.8804 19.5652 86.3152 22.1739 83.5435 23.5109C81.913 24.3261 79.8913 24.6522 77.413 24.6522C76.2717 24.6522 75.0652 24.4892 74.2174 24.4892C73.0761 24.4892 71.837 24.4892 70.4022 24.5544C70.1739 24.3913 70.1739 23.837 70.4022 23.6739L71.1522 23.5761C72.2283 23.4131 72.3913 23.1848 72.3913 20.9674V12.5218ZM75.8478 20.1848C75.8478 21.5544 75.913 22.4022 76.337 22.8913C76.7609 23.3805 77.4783 23.6087 78.3587 23.6087C82.5326 23.6087 83.9348 19.8587 83.9348 16.5978C83.9348 12.2609 81.6522 9.6522 77.25 9.6522C76.5978 9.6522 76.1087 9.75002 76.0109 9.97828C75.8478 10.2065 75.8478 10.6305 75.8478 11.3805V20.1848ZM111.098 20.4783C111.098 22.0435 111.098 23.5761 111.163 24.3913C111 24.6522 110.283 24.9457 109.761 24.9457C109.761 24.9457 108.946 23.7065 107.804 22.2718L102.228 15.3913C100.826 13.6631 100.011 12.6848 99.5543 12.2935C99.4565 12.5218 99.4565 12.9457 99.4565 13.8587V18.5218C99.4565 20.4783 99.5543 22.337 99.8478 22.9892C100.076 23.4783 100.598 23.6413 101.25 23.7392L101.902 23.837C102.13 24.0652 102.065 24.5544 101.902 24.7174C100.598 24.6522 99.6196 24.6522 98.6413 24.6522C97.7609 24.6522 96.8478 24.6522 95.9348 24.7174C95.7717 24.5544 95.7065 24.0652 95.9348 23.837L96.3587 23.7718C97.0109 23.6739 97.5 23.5109 97.7283 22.9565C97.9891 22.3044 98.0543 20.5109 98.0543 18.4892V12.3587C98.0543 10.9891 98.0543 10.6305 97.8913 10.3044C97.663 9.88046 97.337 9.58698 96.5217 9.48915L95.8696 9.39133C95.7065 9.16307 95.7065 8.64133 95.9674 8.51089C97.1087 8.57611 98.3152 8.57611 99.3261 8.57611C100.141 8.57611 100.859 8.57611 101.348 8.51089C101.576 9.58698 103.141 11.4457 105.359 14.0544L107.38 16.4348C108.457 17.6739 109.174 18.5544 109.728 19.1087C109.826 18.8805 109.826 18.4565 109.826 18.0326V14.6739C109.826 12.7174 109.728 10.8587 109.435 10.2065C109.207 9.71741 108.685 9.55437 108.033 9.45654L107.38 9.35872C107.152 9.13046 107.217 8.64133 107.38 8.47828C108.685 8.5435 109.598 8.5435 110.641 8.5435C111.522 8.5435 112.435 8.5435 113.348 8.47828C113.511 8.64133 113.576 9.13046 113.348 9.35872L112.924 9.42393C112.272 9.52176 111.848 9.6848 111.62 10.2391C111.359 10.8913 111.228 12.6848 111.228 14.7065V20.5109H111.098V20.4783ZM118.891 19.1087C118.304 19.1087 118.239 19.1087 118.076 19.5978L117.196 22.4348C117.033 22.9239 117.033 23.087 117.033 23.3152C117.033 23.4783 117.261 23.5761 117.913 23.7392L118.63 23.837C118.793 24 118.859 24.5544 118.565 24.7174C117.685 24.6522 116.772 24.6522 115.728 24.6522C114.913 24.6522 114.359 24.7174 113.217 24.7174C112.957 24.5544 112.989 24.0652 113.152 23.837L113.804 23.7718C114.391 23.7065 114.88 23.5109 115.272 22.5652C115.696 21.587 116.152 20.4457 116.804 18.7174L118.989 12.8152C119.543 11.2826 120.033 10.4348 119.902 9.71741C121.043 9.45654 121.957 8.25002 122.022 8.25002C122.348 8.25002 122.446 8.34785 122.576 8.73915C122.804 9.45654 123.065 10.3044 123.652 12.0652L126.978 21.5544C127.467 23.0218 127.696 23.5761 128.609 23.7392L129.522 23.9022C129.685 24 129.75 24.6196 129.522 24.7826C128.38 24.7174 127.076 24.7174 125.772 24.7174C124.565 24.7174 123.587 24.7174 122.511 24.7826C122.25 24.6196 122.185 24.1305 122.446 23.9022L123.196 23.8044C123.75 23.7065 123.848 23.5435 123.848 23.3805C123.848 23.2174 123.685 22.6305 123.424 21.75L122.772 19.6957C122.674 19.3044 122.446 19.2718 121.63 19.2718H118.859C118.891 19.2065 118.891 19.1087 118.891 19.1087ZM121.5 17.8044C122.054 17.8044 122.152 17.7392 121.989 17.087L121.337 15.1305C121.011 14.087 120.685 13.1087 120.457 12.587C120.228 13.1413 119.804 14.1522 119.478 15.2609L118.891 17.0544C118.663 17.7065 118.793 17.7718 119.38 17.7718L121.5 17.8044ZM133.728 10.4348C133.728 9.84785 133.728 9.71741 133.141 9.71741H131.609C129.815 9.71741 129.326 10.6957 128.609 12.4239C128.348 12.587 127.859 12.5218 127.728 12.1957C128.217 10.5 128.38 9.03263 128.543 8.05437C128.641 7.98915 128.772 7.95654 128.87 7.95654C128.967 7.95654 129.098 7.95654 129.196 8.05437C129.293 8.47828 129.424 8.5435 131.217 8.5435H140.217C141.783 8.5435 142.174 8.5435 142.402 7.98915C142.5 7.92393 142.565 7.92394 142.728 7.92394C142.891 7.92394 143.054 8.02176 143.12 8.08698C142.891 8.9022 142.696 10.8587 142.728 12.2609C142.63 12.4892 141.978 12.5218 141.848 12.3261C141.424 10.7609 141.098 9.6522 139.304 9.6522H137.837C137.25 9.6522 137.185 9.71741 137.185 10.3696V21.0652C137.185 23.2826 137.348 23.5109 138.424 23.6739L139.402 23.7718C139.565 23.9348 139.565 24.4892 139.402 24.6522C137.837 24.587 136.63 24.587 135.554 24.587C134.413 24.587 133.109 24.587 131.413 24.6522C131.185 24.4892 131.185 23.9348 131.413 23.7718L132.489 23.6739C133.565 23.5761 133.728 23.3478 133.728 21.0652V10.4348ZM149.739 21.0652C149.739 23.3478 149.902 23.5109 150.978 23.7392L151.63 23.837C151.859 24 151.793 24.5544 151.63 24.7174C150.326 24.6522 149.12 24.6522 147.978 24.6522C146.837 24.6522 145.598 24.6522 144.293 24.7174C144.065 24.5544 144.065 24 144.293 23.837L144.946 23.7392C146.087 23.5109 146.185 23.3478 146.185 21.0652V12.1631C146.185 9.88046 146.022 9.71741 144.946 9.48915L144.293 9.39133C144.065 9.22828 144.065 8.67394 144.293 8.51089C145.598 8.57611 146.804 8.57611 147.978 8.57611C149.12 8.57611 150.326 8.57611 151.63 8.51089C151.859 8.67394 151.859 9.22828 151.63 9.39133L150.978 9.48915C149.902 9.71741 149.739 9.88046 149.739 12.1631V21.0652ZM170.967 16.5C170.967 21.75 167.446 24.9783 162.228 24.9783C157.337 24.9783 153.815 21.7826 153.815 16.7283C153.815 11.9348 157.402 8.25002 162.457 8.25002C167.478 8.1848 170.967 11.6087 170.967 16.5ZM162.293 9.32611C159.293 9.32611 157.728 12.0978 157.728 16.1739C157.728 19.1087 158.772 23.8696 162.717 23.8696C165.88 23.8696 167.12 20.7718 167.12 16.8587C167.12 12.6848 165.261 9.32611 162.293 9.32611ZM188.054 20.4783C188.054 22.0435 188.054 23.5761 188.12 24.3913C187.957 24.6522 187.239 24.9457 186.717 24.9457C186.717 24.9457 185.902 23.7065 184.761 22.2718L179.185 15.3913C177.783 13.6631 176.967 12.6848 176.511 12.2935C176.413 12.5218 176.413 12.9457 176.413 13.8587V18.5218C176.413 20.4783 176.511 22.337 176.804 22.9892C177.033 23.4783 177.554 23.6413 178.207 23.7392L178.859 23.837C179.087 24.0652 179.022 24.5544 178.859 24.7174C177.554 24.6522 176.576 24.6522 175.598 24.6522C174.717 24.6522 173.804 24.6522 172.891 24.7174C172.728 24.5544 172.663 24.0652 172.891 23.837L173.315 23.7718C173.967 23.6739 174.457 23.5109 174.685 22.9565C174.946 22.3044 175.011 20.5109 175.011 18.4892V12.3587C175.011 10.9891 175.011 10.6305 174.848 10.3044C174.62 9.88046 174.293 9.58698 173.478 9.48915L172.826 9.39133C172.663 9.16307 172.663 8.64133 172.924 8.51089C174.065 8.57611 175.272 8.57611 176.283 8.57611C177.098 8.57611 177.815 8.57611 178.304 8.51089C178.533 9.58698 180.098 11.4457 182.315 14.0544L184.337 16.4348C185.413 17.6739 186.13 18.5544 186.685 19.1087C186.783 18.8805 186.783 18.4565 186.783 18.0326V14.6739C186.783 12.7174 186.685 10.8587 186.391 10.2065C186.163 9.71741 185.641 9.55437 184.989 9.45654L184.337 9.35872C184.109 9.13046 184.174 8.64133 184.337 8.47828C185.641 8.5435 186.554 8.5435 187.598 8.5435C188.478 8.5435 189.391 8.5435 190.304 8.47828C190.467 8.64133 190.533 9.13046 190.304 9.35872L189.88 9.42393C189.228 9.52176 188.804 9.6848 188.576 10.2391C188.315 10.8913 188.185 12.6848 188.185 14.7065V20.5109H188.054V20.4783ZM195.88 19.1087C195.293 19.1087 195.228 19.1087 195.065 19.5978L194.185 22.4348C194.022 22.9239 194.022 23.087 194.022 23.3152C194.022 23.4783 194.25 23.5761 194.902 23.7392L195.62 23.837C195.783 24 195.848 24.5544 195.554 24.7174C194.674 24.6522 193.761 24.6522 192.717 24.6522C191.902 24.6522 191.348 24.7174 190.207 24.7174C189.946 24.5544 189.978 24.0652 190.141 23.837L190.793 23.7718C191.38 23.7065 191.87 23.5109 192.261 22.5652C192.685 21.587 193.141 20.4457 193.793 18.7174L195.978 12.8152C196.533 11.2826 197.022 10.4348 196.891 9.71741C198.033 9.45654 198.946 8.25002 199.011 8.25002C199.337 8.25002 199.435 8.34785 199.565 8.73915C199.793 9.45654 200.054 10.3044 200.641 12.0652L203.967 21.5544C204.457 23.0218 204.685 23.5761 205.598 23.7392L206.511 23.9022C206.674 24 206.739 24.6196 206.511 24.7826C205.37 24.7174 204.065 24.7174 202.761 24.7174C201.554 24.7174 200.576 24.7174 199.5 24.7826C199.239 24.6196 199.174 24.1305 199.435 23.9022L200.185 23.8044C200.739 23.7065 200.837 23.5435 200.837 23.3805C200.837 23.2174 200.674 22.6305 200.413 21.75L199.761 19.6957C199.663 19.3044 199.435 19.2718 198.62 19.2718H195.848C195.88 19.2065 195.88 19.1087 195.88 19.1087ZM198.489 17.8044C199.043 17.8044 199.141 17.7392 198.978 17.087L198.326 15.1305C198 14.087 197.674 13.1087 197.446 12.587C197.217 13.1413 196.793 14.1522 196.467 15.2609L195.88 17.0544C195.652 17.7065 195.783 17.7718 196.37 17.7718L198.489 17.8044ZM213.359 20.5761C213.359 21.7174 213.457 22.4674 213.783 22.8587C214.109 23.2826 214.533 23.4457 216.293 23.4457C218.511 23.4457 219.163 23.3805 220.598 20.5761C220.826 20.3478 221.348 20.4131 221.511 20.7392C221.413 21.9783 220.793 24 220.467 24.6522C219.163 24.587 216.88 24.587 214.891 24.587H211.63C210.489 24.587 209.283 24.587 207.815 24.6522C207.587 24.4892 207.554 23.9348 207.75 23.7718L208.663 23.6739C209.739 23.5109 209.902 23.3478 209.902 21.0652V12.0978C209.902 9.88046 209.739 9.6522 208.663 9.48915L207.946 9.39133C207.717 9.22828 207.717 8.67394 208.011 8.51089C209.25 8.57611 210.457 8.57611 211.663 8.57611C212.804 8.57611 214.043 8.57611 215.25 8.51089C215.478 8.67394 215.478 9.22828 215.25 9.39133L214.598 9.48915C213.522 9.6522 213.359 9.88046 213.359 12.0978V20.5761ZM220.924 5.70654C222 5.70654 222.88 6.58698 222.88 7.66306C222.88 8.73915 222 9.61959 220.924 9.61959C219.848 9.61959 218.967 8.73915 218.967 7.66306C218.902 6.61959 219.815 5.70654 220.924 5.70654ZM220.924 9.39133C221.837 9.39133 222.489 8.64133 222.489 7.69568C222.489 6.75002 221.772 6.00002 220.924 6.00002C220.011 6.00002 219.293 6.75002 219.293 7.69568C219.293 8.64133 219.978 9.39133 220.924 9.39133ZM220.141 6.52176H221.022C221.576 6.52176 221.837 6.75002 221.837 7.17393C221.837 7.56524 221.609 7.82611 221.25 7.82611L221.902 8.86959H221.511L220.859 7.82611H220.533V8.86959H220.141V6.52176ZM220.533 7.53263H220.957C221.217 7.53263 221.446 7.46741 221.446 7.14132C221.446 6.88045 221.217 6.81524 220.957 6.81524H220.533V7.53263Z" fill="#00539B"/>
</g>
<defs>
<clipPath id="clip0_1_9471">
<rect width="222.848" height="33" fill="white"/>
</clipPath>
</defs>
</svg>
