<svg width="200" height="200" viewBox="0 0 200 200" fill="none" xmlns="http://www.w3.org/2000/svg">
<path d="M6.34967 125.491C11.5951 129.632 18.2208 132.116 25.3987 132.116C32.6073 132.116 39.2331 129.632 44.4785 125.491H6.34967Z" fill="#00AEEF"/>
<path d="M24.908 124.479C24.908 124.479 8.28219 108.497 19.7853 94.6933C30.3681 82.0552 26.6871 75.9509 26.6871 75.9509C26.6871 75.9509 46.3804 90.8282 32.3006 102.945C21.4417 112.301 24.908 124.479 24.908 124.479Z" fill="#00AEEF"/>
<path d="M26.227 120.092C26.227 120.092 23.9878 112.791 33.4663 105.552C40.3068 100.307 39.908 94.7852 39.908 94.7852C39.908 94.7852 46.1963 104.969 34.3865 111.718C27.8221 115.491 26.227 120.092 26.227 120.092Z" fill="#00AEEF"/>
<path d="M22.1166 65.4294C17.4233 70.1534 17.9141 73.1288 20.3375 77.9141C22.7608 82.6994 22.4847 86.9632 22.4847 86.9632C22.4847 86.9632 27.2393 77.9141 24.6626 74.2331C20.4295 68.1902 22.1166 65.4294 22.1166 65.4294Z" fill="#00AEEF"/>
<path d="M57.0859 109.202C57.0859 103.957 57.0859 102.975 57.0245 101.871C56.9632 100.705 56.6871 100.153 55.5214 99.9079C55.2454 99.8466 54.6626 99.8159 54.1718 99.8159C53.8037 99.8159 53.5889 99.7545 53.5889 99.5091C53.5889 99.2637 53.8343 99.2024 54.3558 99.2024C56.1963 99.2024 58.3742 99.2944 59.3251 99.2944C60.7362 99.2944 62.7607 99.2024 64.3558 99.2024C68.681 99.2024 70.2454 100.644 70.7975 101.166C71.5644 101.902 72.5153 103.436 72.5153 105.276C72.5153 110.184 68.9264 113.65 64.0184 113.65C63.8343 113.65 63.4662 113.65 63.2822 113.62C63.0981 113.589 62.8527 113.558 62.8527 113.313C62.8527 113.037 63.0981 112.945 63.8343 112.945C65.7668 112.945 68.4662 110.767 68.4662 107.239C68.4662 106.104 68.3742 103.773 66.411 102.055C65.1533 100.92 63.7423 100.705 62.9448 100.705C62.4233 100.705 61.9018 100.736 61.5951 100.828C61.411 100.89 61.319 101.104 61.319 101.472V115.307C61.319 118.497 61.319 121.227 61.503 122.699C61.5951 123.681 61.8098 124.417 62.8527 124.57C63.3435 124.632 64.1104 124.724 64.6319 124.724C65 124.724 65.184 124.816 65.184 125C65.184 125.245 64.9079 125.337 64.5398 125.337C62.2699 125.337 60.0613 125.245 59.1717 125.245C58.3742 125.245 56.1963 125.337 54.8159 125.337C54.3558 125.337 54.1104 125.245 54.1104 125C54.1104 124.816 54.2331 124.724 54.6625 124.724C55.184 124.724 55.5828 124.663 55.9202 124.57C56.6257 124.448 56.7791 123.681 56.9325 122.669C57.1165 121.227 57.1165 118.497 57.1165 115.307L57.0859 109.202Z" fill="black"/>
<path d="M76.4111 111.595C76.4111 107.116 76.411 106.288 76.3804 105.368C76.319 104.356 76.043 104.049 75.0614 103.773C74.816 103.712 74.2945 103.681 73.865 103.681C73.5583 103.681 73.3436 103.589 73.3436 103.374C73.3436 103.159 73.589 103.098 74.0491 103.098C75.6442 103.098 77.5767 103.159 78.4356 103.159C79.4172 103.159 86.1656 103.19 86.7485 103.159C87.3006 103.129 87.7914 103.037 88.0368 102.975C88.2209 102.945 88.3742 102.822 88.5276 102.822C88.7117 102.822 88.7423 102.975 88.7423 103.098C88.7423 103.313 88.5583 103.65 88.4969 105C88.4663 105.307 88.4049 106.595 88.3129 106.932C88.2822 107.055 88.2209 107.423 87.9755 107.423C87.7607 107.423 87.7301 107.301 87.7301 107.055C87.7301 106.84 87.6994 106.319 87.5153 105.982C87.2699 105.46 87.0245 105.061 85.5215 104.908C85 104.847 81.3804 104.785 80.7362 104.785C80.6135 104.785 80.5215 104.877 80.5215 105.061V112.331C80.5215 112.515 80.5522 112.638 80.7362 112.638C81.4417 112.638 85.3681 112.638 86.0736 112.577C86.8098 112.515 87.2393 112.454 87.5153 112.116C87.7607 111.902 87.8528 111.748 88.0061 111.748C88.1595 111.748 88.2515 111.871 88.2515 112.055C88.2515 112.239 88.1902 112.699 88.0061 114.202C87.9448 114.785 87.8834 115.982 87.8834 116.166C87.8834 116.411 87.8528 116.81 87.5767 116.81C87.362 116.81 87.3006 116.718 87.3006 116.564C87.2699 116.258 87.2699 115.859 87.2086 115.491C87.0245 114.908 86.6564 114.448 85.5215 114.356C84.9693 114.294 81.5031 114.202 80.7362 114.202C80.6135 114.202 80.5522 114.356 80.5522 114.509V116.871C80.5522 117.883 80.5215 120.368 80.5522 121.227C80.6135 123.221 81.5644 123.681 84.6626 123.681C85.4601 123.681 86.7485 123.65 87.546 123.313C88.3129 122.975 88.6503 122.331 88.865 121.135C88.9264 120.828 88.9877 120.675 89.2025 120.675C89.4479 120.675 89.4785 121.043 89.4785 121.38C89.4785 122.024 89.2331 124.049 89.0491 124.632C88.8344 125.399 88.5583 125.399 87.4233 125.399C85.1534 125.399 83.3129 125.368 81.8098 125.307C80.3068 125.276 79.1718 125.245 78.2822 125.245C77.9448 125.245 77.2699 125.276 76.5644 125.276C75.8282 125.307 75.0614 125.337 74.4479 125.337C74.0798 125.337 73.865 125.245 73.865 125.031C73.865 124.877 73.9571 124.724 74.3558 124.724C74.816 124.724 75.1534 124.693 75.4295 124.632C76.0429 124.478 76.227 123.926 76.319 123.067C76.4417 121.81 76.4417 119.509 76.4417 116.81L76.4111 111.595Z" fill="black"/>
<path d="M91.6258 114.172C91.6258 109.141 95.1534 102.638 104.387 102.638C112.055 102.638 116.841 106.902 116.841 113.65C116.841 120.399 111.933 125.675 104.08 125.675C95.2454 125.705 91.6258 119.417 91.6258 114.172ZM112.331 114.724C112.331 108.221 108.436 104.202 103.497 104.202C100.092 104.202 96.135 106.012 96.135 113.282C96.135 119.325 99.6012 124.11 105.337 124.11C107.485 124.11 112.331 123.098 112.331 114.724Z" fill="black"/>
<path d="M120.552 111.595C120.552 107.117 120.552 106.288 120.521 105.368C120.46 104.356 120.184 104.049 119.202 103.773C118.957 103.712 118.436 103.681 118.006 103.681C117.699 103.681 117.485 103.589 117.485 103.374C117.485 103.159 117.73 103.098 118.19 103.098C119.785 103.098 121.718 103.159 122.577 103.159C123.834 103.159 126.258 103.098 127.638 103.098C131.442 103.098 132.822 104.356 133.313 104.755C133.957 105.368 134.847 106.687 134.847 108.282C134.847 112.423 131.534 115.399 127.209 115.399C127.086 115.399 126.442 115.399 126.319 115.368C126.135 115.368 125.951 115.276 125.951 115.061C125.951 114.816 126.288 114.693 126.963 114.693C128.65 114.693 131.043 112.914 131.043 109.908C131.043 108.926 130.951 106.994 129.233 105.552C128.129 104.571 126.871 104.448 126.196 104.448C125.736 104.448 125.153 104.479 124.877 104.571C124.693 104.632 124.632 104.816 124.632 105.123V116.779C124.632 119.479 124.632 121.81 124.755 123.067C124.847 123.896 125.031 124.448 125.92 124.601C126.38 124.663 127.025 124.693 127.485 124.693C127.822 124.693 127.975 124.877 127.975 125C127.975 125.215 127.73 125.307 127.423 125.307C125.368 125.307 123.252 125.215 122.454 125.215C121.748 125.215 119.816 125.307 118.62 125.307C118.252 125.307 118.037 125.215 118.037 125C118.037 124.847 118.129 124.693 118.528 124.693C118.988 124.693 119.325 124.663 119.601 124.601C120.215 124.448 120.399 123.896 120.491 123.037C120.614 121.779 120.614 119.479 120.614 116.779L120.552 111.595Z" fill="black"/>
<path d="M142.025 116.779C142.025 120.552 142.025 122.423 142.669 122.975C143.19 123.436 144.356 123.589 146.718 123.589C148.344 123.589 149.509 123.558 150.276 122.761C150.644 122.393 150.982 121.564 151.043 120.982C151.074 120.706 151.135 120.521 151.38 120.521C151.595 120.521 151.656 120.828 151.656 121.166C151.656 121.503 151.442 123.681 151.196 124.571C150.982 125.215 150.859 125.368 149.264 125.368C147.086 125.368 145.307 125.337 143.804 125.276C142.27 125.245 141.012 125.215 139.755 125.215C139.417 125.215 138.742 125.245 138.037 125.245C137.301 125.276 136.534 125.307 135.92 125.307C135.552 125.307 135.337 125.215 135.337 125C135.337 124.847 135.429 124.693 135.828 124.693C136.288 124.693 136.626 124.663 136.902 124.601C137.515 124.448 137.699 123.896 137.791 123.037C137.945 121.779 137.945 119.479 137.945 116.779V111.595C137.945 107.117 137.945 106.288 137.914 105.368C137.853 104.356 137.577 104.049 136.595 103.773C136.35 103.712 135.982 103.681 135.583 103.681C135.245 103.681 135.061 103.589 135.061 103.374C135.061 103.159 135.276 103.098 135.706 103.098C137.117 103.098 139.049 103.159 139.877 103.159C140.613 103.159 143.098 103.098 144.264 103.098C144.724 103.098 144.908 103.159 144.908 103.374C144.908 103.589 144.724 103.681 144.356 103.681C144.018 103.681 143.528 103.712 143.19 103.773C142.362 103.926 142.117 104.325 142.055 105.368C141.994 106.288 141.994 107.147 141.994 111.595L142.025 116.779Z" fill="black"/>
<path d="M154.969 111.595C154.969 107.116 154.969 106.288 154.939 105.368C154.877 104.356 154.601 104.049 153.62 103.773C153.374 103.712 152.853 103.681 152.423 103.681C152.117 103.681 151.902 103.589 151.902 103.374C151.902 103.159 152.147 103.098 152.607 103.098C154.202 103.098 156.135 103.159 156.994 103.159C157.975 103.159 164.724 103.19 165.307 103.159C165.859 103.129 166.35 103.037 166.595 102.975C166.779 102.945 166.933 102.822 167.086 102.822C167.27 102.822 167.301 102.975 167.301 103.098C167.301 103.313 167.117 103.65 167.055 105C167.025 105.307 166.963 106.595 166.871 106.932C166.841 107.055 166.779 107.423 166.534 107.423C166.319 107.423 166.288 107.301 166.288 107.055C166.288 106.84 166.258 106.319 166.074 105.982C165.828 105.46 165.583 105.061 164.08 104.908C163.558 104.847 159.939 104.785 159.294 104.785C159.172 104.785 159.08 104.877 159.08 105.061V112.331C159.08 112.515 159.11 112.638 159.294 112.638C160 112.638 163.926 112.638 164.632 112.577C165.368 112.515 165.798 112.454 166.074 112.116C166.319 111.902 166.411 111.748 166.564 111.748C166.687 111.748 166.81 111.871 166.81 112.055C166.81 112.239 166.748 112.699 166.564 114.202C166.503 114.785 166.442 115.982 166.442 116.166C166.442 116.411 166.411 116.81 166.135 116.81C165.92 116.81 165.859 116.718 165.859 116.564C165.828 116.258 165.828 115.859 165.767 115.491C165.583 114.908 165.215 114.448 164.08 114.356C163.528 114.294 160.061 114.202 159.294 114.202C159.172 114.202 159.11 114.356 159.11 114.509V116.871C159.11 117.883 159.08 120.368 159.11 121.227C159.172 123.221 160.123 123.681 163.221 123.681C164.018 123.681 165.307 123.65 166.104 123.313C166.871 122.975 167.209 122.331 167.423 121.135C167.485 120.828 167.546 120.675 167.761 120.675C168.006 120.675 168.037 121.043 168.037 121.38C168.037 122.024 167.791 124.049 167.607 124.632C167.393 125.399 167.117 125.399 165.982 125.399C163.712 125.399 161.871 125.368 160.368 125.307C158.865 125.276 157.73 125.245 156.84 125.245C156.503 125.245 155.828 125.276 155.123 125.276C154.387 125.307 153.62 125.337 153.006 125.337C152.638 125.337 152.423 125.245 152.423 125.031C152.423 124.877 152.515 124.724 152.914 124.724C153.374 124.724 153.712 124.693 153.988 124.632C154.601 124.478 154.785 123.926 154.877 123.067C155 121.81 155 119.509 155 116.81L154.969 111.595Z" fill="black"/>
<path d="M171.841 124.939C171.35 124.724 171.258 124.601 171.258 123.926C171.258 122.331 171.38 120.491 171.442 120C171.442 119.54 171.564 119.233 171.81 119.233C172.086 119.233 172.117 119.509 172.117 119.724C172.117 120.092 172.209 120.736 172.393 121.258C173.037 123.435 175.337 124.172 177.239 124.172C179.877 124.172 181.472 122.515 181.472 120.429C181.472 119.141 181.166 117.883 178.466 116.288L176.687 115.245C173.098 113.129 171.902 111.166 171.902 108.558C171.902 104.969 175.368 102.638 179.571 102.638C181.534 102.638 183.098 102.914 183.896 103.129C184.172 103.19 184.325 103.313 184.325 103.497C184.325 103.865 184.233 104.693 184.233 107.024C184.233 107.638 184.11 107.945 183.865 107.945C183.65 107.945 183.558 107.761 183.558 107.423C183.558 107.147 183.436 106.258 182.761 105.491C182.301 104.939 181.35 104.11 179.356 104.11C177.178 104.11 175.215 105.245 175.215 107.27C175.215 108.589 175.706 109.632 178.436 111.135L179.693 111.84C183.712 114.049 184.939 116.319 184.939 118.957C184.939 121.135 184.11 122.914 181.902 124.448C180.46 125.491 178.436 125.644 176.81 125.644C175.031 125.705 173.16 125.521 171.841 124.939Z" fill="black"/>
<path d="M186.933 103.313H186.227V103.067H187.945V103.313H187.239V105.215H186.963L186.933 103.313Z" fill="black"/>
<path d="M188.282 103.067H188.681L189.356 104.877L190.031 103.067H190.429V105.215H190.153V103.435L189.479 105.215H189.233L188.558 103.435V105.215H188.282V103.067Z" fill="black"/>
</svg>
