<svg width="199" height="37" viewBox="0 0 199 37" fill="none" xmlns="http://www.w3.org/2000/svg">
<g clip-path="url(#clip0_1_9508)">
<path d="M195.552 34.9788H0V37.0001H195.552V34.9788Z" fill="#0D417E"/>
<mask id="mask0_1_9508" style="mask-type:luminance" maskUnits="userSpaceOnUse" x="0" y="0" width="199" height="37">
<path d="M198.156 0H0V37H198.156V0Z" fill="white"/>
</mask>
<g mask="url(#mask0_1_9508)">
<path d="M30.7991 22.7139H30.9019L36.1093 7.33148C36.4176 6.40648 36.7259 5.31019 36.7259 4.7963C36.7259 3.49444 34.7389 1.06204 33.8482 0.959259L32.0667 0.616667V0H42.5158V0.582407C42.1389 0.582407 41.7963 0.650926 41.5565 0.925L38.713 3.7C37.9935 4.41944 37.3083 5.48148 37.0685 6.26944L28.9148 30.1139H28.5722L21.2408 8.66759H21.1722L13.8408 30.1139H13.4296L4.69353 4.4537C4.3852 3.5287 3.59724 2.22685 2.29538 1.43889L0.822235 0.582407V0H12.8815V0.582407C11.4769 0.650926 9.66112 2.9463 9.66112 4.14537C9.66112 4.625 10.0722 5.89259 10.3463 6.6463L15.725 22.8852H15.7935L20.4185 9.45556C20.7954 8.39352 20.8982 8.11944 20.8982 7.84537C20.8982 7.43426 19.8704 4.59074 19.6648 4.17963C18.9111 2.6037 16.7185 0.856481 15.0398 0.616667V0H27.9213V0.582407C27.613 0.650926 27.3046 0.753704 26.9963 0.925C25.763 1.64444 24.6667 2.9463 24.6667 3.97407C24.6667 4.76204 25.1463 5.96111 25.4204 6.88611L30.7991 22.7139ZM2.5352 0.582407V0.719444L5.65279 3.18611V3.66574L5.24168 3.8713L13.6009 28.675H13.7037L14.4574 26.6537C14.6287 26.2769 14.6972 25.9343 14.6972 25.7287C14.6972 25.3519 14.4917 24.8722 14.2861 24.2556L8.18798 6.13241C7.87964 5.20741 7.63983 4.31667 7.63983 3.42593C7.63983 2.70648 8.01668 2.36389 8.42779 2.0213L10.1065 0.685185V0.582407H2.5352ZM17.4037 0.582407V0.685185H17.6093L20.7269 3.15185V3.63148L20.3158 3.83704L28.7435 28.7093H28.8463L29.6 26.5852C29.7713 26.1741 29.8056 25.9 29.8056 25.6944C29.8056 25.3519 29.7713 25.0093 29.6343 24.6667L23.125 5.65278C22.8852 4.86481 22.6796 4.24815 22.6796 3.59722C22.6796 2.91204 23.0222 2.53519 23.4333 2.15833L25.0093 0.685185V0.582407H17.4037ZM34.7046 0.582407V0.685185C35.9037 1.54167 36.7945 2.67222 37.3426 3.97407C38.062 2.70648 39.1583 1.43889 40.0833 0.582407H34.7046Z" fill="black"/>
</g>
<mask id="mask1_1_9508" style="mask-type:luminance" maskUnits="userSpaceOnUse" x="0" y="0" width="199" height="37">
<path d="M198.156 0H0V37H198.156V0Z" fill="white"/>
</mask>
<g mask="url(#mask1_1_9508)">
<path d="M39.4324 29.7713V29.3259C39.7408 29.3259 40.2204 29.2916 40.5287 29.2231C41.0769 29.1203 42.276 28.1611 42.276 27.5102V9.66108C42.276 9.04441 41.1454 7.63978 40.3917 7.57126C40.0148 7.537 39.5352 7.537 39.1926 7.50274V7.05737H49.1278V7.50274C48.8195 7.50274 48.4426 7.537 48.0658 7.60552C47.4491 7.7083 46.3871 8.59904 46.3871 9.31848V26.7222C46.3871 27.5787 47.0037 28.6064 47.8602 29.0518C48.2713 29.2916 48.888 29.3259 49.3334 29.3259V29.7713H39.4324ZM41.5565 7.50274V7.537L43.1667 9.01015V9.31848L42.7213 9.59256V27.3046C42.7213 28.4694 41.9334 28.8805 41.5223 29.1889V29.2574H46.4556V29.1889C45.8047 28.7435 44.8454 28.1611 44.8454 27.2018V8.90737L46.2158 7.537V7.46848H41.5565V7.50274Z" fill="black"/>
</g>
<mask id="mask2_1_9508" style="mask-type:luminance" maskUnits="userSpaceOnUse" x="0" y="0" width="199" height="37">
<path d="M198.156 0H0V37H198.156V0Z" fill="white"/>
</mask>
<g mask="url(#mask2_1_9508)">
<path d="M50.738 29.7713V29.326C53.3417 29.2232 54.6435 26.2084 54.6435 24.5639V9.76393C54.6435 9.38708 52.6565 7.70838 52.0056 7.6056C51.5602 7.53708 51.1491 7.46856 50.738 7.46856V7.02319H57.5556L74.1028 24.6325V12.1278C74.1028 11.0658 72.1158 8.39356 70.6083 7.70838C70.0945 7.46856 69.2722 7.46856 68.7926 7.46856V7.02319H78.3852V7.46856C78.1111 7.46856 77.563 7.53708 77.1176 7.74264C76.1926 8.11949 74.5482 10.1408 74.5482 11.9565V30.251H74L55.0889 10.038V24.1186C55.0889 25.9343 57.1787 29.2232 58.5491 29.2575L60.1593 29.2917V29.7371H50.738V29.7713ZM52.8963 7.50282V7.53708C53.2732 7.74264 53.9583 8.29079 54.438 8.77042L74.1028 29.7028V27.0306L56.3565 8.01671C56.0824 7.74264 55.8769 7.50282 55.5343 7.50282H52.8963ZM71.2935 7.50282V7.53708C72.3556 8.25653 73.5546 9.4556 74 10.7232H74.0685C74.2056 9.83245 74.5482 8.49634 75.3019 7.53708V7.46856H71.2935V7.50282ZM55.9454 29.326C55.6028 28.6408 55.1232 27.5102 54.8491 26.4825H54.7806C54.4037 27.7158 53.5472 28.7093 52.588 29.2575V29.326H55.9454Z" fill="black"/>
</g>
<mask id="mask3_1_9508" style="mask-type:luminance" maskUnits="userSpaceOnUse" x="0" y="0" width="199" height="37">
<path d="M198.156 0H0V37H198.156V0Z" fill="white"/>
</mask>
<g mask="url(#mask3_1_9508)">
<path d="M102.332 7.02319C102.264 7.87967 102.23 8.77042 102.23 9.59264C102.23 10.7917 102.332 12.025 102.641 13.1556L102.093 13.3269C101.339 11.2713 96.9537 7.50282 94.6926 7.50282C93.6991 7.50282 92.6713 8.59912 92.6713 9.42134V26.7565C92.6713 28.6065 94.5213 29.326 96.0287 29.326V29.7713H85.3056V29.326C86.7445 29.326 88.7658 28.5723 88.7658 26.7908V9.2843C88.7658 8.63338 87.4639 7.50282 86.5732 7.50282C84.5519 7.50282 80.7148 11.4084 79.6528 13.1556L79.1389 13.0871C79.4472 11.1 79.4472 9.04449 79.4472 7.02319H102.332ZM88.1148 7.46856V7.53708L89.5537 8.80467V9.14727L89.2454 9.42134V26.9278C89.2454 28.2297 88.2519 28.8806 87.601 29.2575V29.326H93.1167V29.2575C92.0204 28.401 91.1297 28.0241 91.1297 27.2362V8.97597L92.7398 7.53708V7.46856H88.1148ZM96.7482 7.46856V7.53708C98.2556 8.29079 100.208 9.69541 101.305 10.9973L101.373 10.9287C101.099 9.96949 100.654 7.94819 100.688 7.46856H96.7482ZM80.0982 11.3399H80.1667C80.9204 9.83245 82.188 8.5306 83.25 7.57134V7.50282H80.0982V11.3399Z" fill="black"/>
</g>
<mask id="mask4_1_9508" style="mask-type:luminance" maskUnits="userSpaceOnUse" x="0" y="0" width="199" height="37">
<path d="M198.156 0H0V37H198.156V0Z" fill="white"/>
</mask>
<g mask="url(#mask4_1_9508)">
<path d="M128.198 30.0111C127.479 30.3195 126.725 30.4565 125.732 30.4565C121.929 30.4565 119.599 27.3389 118.297 24.5639L116.619 21.001C115.385 18.3973 114.494 17.8834 113.227 17.8834H111.343V27.0991C111.343 28.3667 112.542 29.2917 113.775 29.2917H114.803V29.7371H104.388V29.2917C104.559 29.2917 105.005 29.2232 105.484 28.9834C105.998 28.7436 107.3 27.9899 107.3 27.0991V9.59263C107.3 8.94171 106.683 7.91393 105.93 7.63985C105.45 7.46856 104.902 7.46856 104.388 7.46856V7.02319H111.788C113.124 7.02319 114.46 6.92041 115.796 6.92041C120.969 6.92041 124.327 9.86671 124.327 12.95C124.327 17.6436 120.044 17.8491 116.036 17.9862V18.0547C118.982 18.7399 120.832 21.5149 121.929 23.7074L123.059 25.9686C123.95 27.7158 125.012 29.6686 126.999 29.6686C127.41 29.6686 127.856 29.5658 128.198 29.4287V30.0111ZM111.411 29.326V29.2574L110.281 28.2639C109.904 27.9899 109.801 27.7158 109.801 27.4074V8.80467L111.377 7.53708V7.46856H106.683V7.53708C107.3 7.94819 107.951 8.56485 108.259 8.90745V9.2843L107.745 9.62689V27.613C107.745 27.9899 107.471 28.2639 107.266 28.4352L106.135 29.2574V29.326H111.411ZM111.343 17.4723H115.111C116.139 17.4723 117.167 17.3695 117.989 16.9584C119.222 16.3417 120.079 14.8686 120.079 12.8815C120.079 9.66115 118.194 7.4343 114.837 7.4343C112.85 7.4343 111.308 8.11948 111.308 9.86671V17.4723H111.343ZM119.257 22.0973C118.332 20.4186 117.132 18.8084 115.831 18.6028L115.762 18.6713C116.276 19.3223 116.893 20.3843 117.407 21.4121C118.469 23.5362 118.743 24.4611 119.942 26.2769C121.175 28.1954 123.231 29.9426 125.56 29.9769V29.9084C123.95 29.1889 122.511 27.8186 121.346 25.6945L119.257 22.0973ZM118.571 17.1297V17.1982C121.107 16.9584 122.58 15.2112 122.58 12.7445C122.58 10.2436 120.524 8.3593 118.194 7.84541L118.126 7.91393C119.462 8.80467 120.558 10.3806 120.558 12.8473C120.558 14.4574 119.907 16.3074 118.571 17.1297Z" fill="black"/>
</g>
<mask id="mask5_1_9508" style="mask-type:luminance" maskUnits="userSpaceOnUse" x="0" y="0" width="199" height="37">
<path d="M198.156 0H0V37H198.156V0Z" fill="white"/>
</mask>
<g mask="url(#mask5_1_9508)">
<path d="M137.037 7.02319V7.46856C136.249 7.46856 135.598 7.46856 135.153 7.6056C134.81 7.70838 133.748 8.46208 133.748 9.69542V22.988C133.748 26.2084 137.277 28.9149 140.394 28.9149C144.78 28.9149 147.623 25.2149 147.623 20.1445V11.8195C147.623 10.9287 145.67 8.18801 143.923 7.63986C143.512 7.50282 142.587 7.46856 142.107 7.46856V7.02319H152.351V7.46856C152.043 7.46856 151.529 7.6056 151.083 7.74264C149.507 8.29079 148.069 11.1343 148.069 11.8537V20.3843C148.069 26.2084 144.54 30.0112 138.716 30.0112C134.056 30.0112 129.774 26.6537 129.774 21.001V9.25005C129.774 8.63338 128.746 7.7769 128.027 7.57134C127.65 7.46856 127.136 7.46856 126.691 7.46856V7.02319H137.037ZM128.918 7.50282V7.53708L130.802 8.87319V9.18153L130.254 9.4556V21.1723C130.254 26.1399 134.228 29.1889 137.825 29.5658V29.4973C137.174 29.2232 136.523 28.9149 135.941 28.5723C132.857 26.688 132.241 24.5982 132.241 22.0973V8.87319C132.789 8.42782 133.337 7.98245 133.919 7.53708V7.46856H128.918V7.50282ZM144.917 7.50282V7.53708C146.081 8.15375 147.178 9.38708 147.794 10.7232H147.863C148.137 9.38708 148.617 8.25653 149.028 7.46856H144.917V7.50282Z" fill="black"/>
</g>
<mask id="mask6_1_9508" style="mask-type:luminance" maskUnits="userSpaceOnUse" x="0" y="0" width="199" height="37">
<path d="M198.156 0H0V37H198.156V0Z" fill="white"/>
</mask>
<g mask="url(#mask6_1_9508)">
<path d="M153.413 21.7205L153.995 21.652C154.886 24.701 157.695 29.5659 161.293 29.5659C164.513 29.5659 166.706 27.4418 166.706 23.9816C166.706 18.1918 154.544 20.3159 154.544 12.8473C154.544 8.94178 158.141 6.78345 161.704 6.78345C162.971 6.78345 164.239 7.02326 165.438 7.02326C166.226 7.02326 166.945 6.95474 167.768 6.78345C167.87 8.66771 168.179 11.3057 168.453 13.1557L168.007 13.327C166.74 10.7918 164.924 7.26308 161.635 7.26308C159.134 7.26308 157.353 8.73623 157.353 10.9631C157.353 17.027 169.412 14.0807 169.412 22.4057C169.412 27.6473 165.095 30.0455 160.333 30.0455C157.832 30.0455 155.708 29.6344 154.132 29.1547L153.413 21.7205ZM155.023 28.8122C156.051 29.1547 157.558 29.4288 158.826 29.4631V29.3946C157.216 28.7779 155.606 27.4418 154.475 25.7631H154.406L154.475 25.6946V25.7631H154.406C154.406 26.551 154.406 27.3733 154.475 28.1955C154.509 28.6409 154.749 28.7436 155.023 28.8122ZM165.609 28.2297L165.678 28.2983C167.288 27.2362 168.35 25.1464 168.35 23.0223C168.35 15.2797 156.256 17.952 156.256 12.0251C156.256 10.2094 157.25 8.839 158.141 8.05104V7.94826C156.325 8.73623 154.955 10.826 154.955 12.676C154.955 16.2733 157.901 17.5066 161.053 18.6714C163.896 19.6992 167.117 20.5899 167.117 24.2899C167.117 25.8316 166.5 27.202 165.609 28.2297ZM166.397 7.46863H165.678C165.061 7.46863 164.479 7.3316 163.896 7.26308L163.828 7.3316C165.232 7.914 166.192 9.1816 166.98 10.4149L167.048 10.3464L166.397 7.46863Z" fill="black"/>
</g>
<mask id="mask7_1_9508" style="mask-type:luminance" maskUnits="userSpaceOnUse" x="0" y="0" width="199" height="37">
<path d="M198.156 0H0V37H198.156V0Z" fill="white"/>
</mask>
<g mask="url(#mask7_1_9508)">
<path d="M194.627 7.02319C194.558 7.87967 194.524 8.77042 194.524 9.59264C194.524 10.7917 194.627 12.025 194.935 13.1556L194.387 13.3269C193.633 11.2713 189.248 7.50282 186.987 7.50282C185.994 7.50282 185 8.59912 185 9.42134V26.7565C185 28.6065 186.85 29.326 188.357 29.326V29.7713H177.634V29.326C179.073 29.326 181.094 28.5723 181.094 26.7908V9.2843C181.094 8.63338 179.793 7.50282 178.902 7.50282C176.846 7.50282 173.044 11.4084 171.981 13.1556L171.468 13.0871C171.776 11.1 171.776 9.04449 171.776 7.02319H194.627ZM180.444 7.46856V7.53708L181.882 8.80467V9.14727L181.574 9.42134V26.9278C181.574 28.2297 180.581 28.8806 179.93 29.2575V29.326H185.445V29.2575C184.349 28.401 183.493 28.0241 183.493 27.2362V8.97597L185.103 7.53708V7.46856H180.444ZM189.043 7.46856V7.53708C190.55 8.29079 192.503 9.69541 193.599 10.9973L193.668 10.9287C193.394 9.96949 192.948 7.94819 192.982 7.46856H189.043ZM172.393 11.3399H172.461C173.215 9.83245 174.482 8.5306 175.544 7.57134V7.50282H172.393V11.3399Z" fill="black"/>
</g>
<mask id="mask8_1_9508" style="mask-type:luminance" maskUnits="userSpaceOnUse" x="0" y="0" width="199" height="37">
<path d="M198.156 0H0V37H198.156V0Z" fill="white"/>
</mask>
<g mask="url(#mask8_1_9508)">
<path d="M195.826 8.08523C195.826 7.50282 196.34 7.02319 196.991 7.02319C197.642 7.02319 198.156 7.46856 198.156 8.08523C198.156 8.7019 197.642 9.14727 196.991 9.14727C196.34 9.14727 195.826 8.66764 195.826 8.08523ZM196.031 8.08523C196.031 8.56486 196.477 8.97597 196.991 8.97597C197.505 8.97597 197.95 8.56486 197.95 8.08523C197.95 7.6056 197.505 7.22875 196.991 7.22875C196.477 7.22875 196.031 7.6056 196.031 8.08523ZM197.025 8.59912H196.408V8.56486H196.545V7.57134H196.408V7.53708H197.162C197.333 7.53708 197.539 7.6056 197.539 7.81116C197.539 7.98245 197.265 8.05097 197.128 8.05097C197.402 8.08523 197.505 8.18801 197.505 8.32504C197.505 8.46208 197.505 8.5306 197.539 8.5306C197.539 8.5306 197.573 8.56486 197.676 8.5306V8.56486C197.607 8.59912 197.539 8.59912 197.47 8.59912C197.231 8.59912 197.162 8.49634 197.162 8.25653C197.162 8.05097 197.128 8.01671 196.957 8.01671H196.888V8.56486H197.059V8.59912H197.025ZM196.854 8.01671H196.922C197.128 8.01671 197.162 7.98245 197.162 7.87967V7.70838C197.162 7.63986 197.196 7.57134 196.957 7.57134H196.819V8.01671H196.854Z" fill="black"/>
</g>
</g>
<defs>
<clipPath id="clip0_1_9508">
<rect width="198.156" height="37" fill="white"/>
</clipPath>
</defs>
</svg>
