<svg width="258" height="86" viewBox="0 0 258 85" fill="none" xmlns="http://www.w3.org/2000/svg">
<g clip-path="url(#clip0_1_14917)">
<path fill-rule="evenodd" clip-rule="evenodd" d="M63.0457 8.48877L60.4495 11.0786C66.366 11.3119 72.0126 13.3178 76.7433 16.5611C77.1268 15.8131 77.5434 15.0845 77.9836 14.3724C73.689 11.2406 68.5884 9.14434 63.0457 8.48877Z" fill="#272018"/>
<path fill-rule="evenodd" clip-rule="evenodd" d="M96.0656 0.556396C88.4669 2.78677 82.056 7.78623 77.9839 14.3719C77.5428 15.0844 77.1275 15.8125 76.7431 16.5609C74.8937 20.1649 73.7079 24.162 73.3679 28.3966L74.6696 29.6955C74.8759 25.3584 76.1637 21.2773 78.2325 17.6383C78.6335 16.9322 79.0636 16.2449 79.5233 15.575C83.8525 9.25641 90.6575 4.57419 98.3379 2.82305L96.0656 0.556396Z" fill="#272018"/>
<path fill-rule="evenodd" clip-rule="evenodd" d="M70.9977 0.556396L68.7254 2.82305C81.4202 5.71827 91.77 16.5854 92.3938 29.6955L93.6955 28.3966C92.6328 15.1553 83.3775 4.18945 70.9977 0.556396Z" fill="#272018"/>
<path fill-rule="evenodd" clip-rule="evenodd" d="M77.0204 32.0404L78.265 33.2815C79.2618 29.4615 81.0909 25.9352 83.5272 22.8666C83.0891 22.3152 82.6248 21.7837 82.1482 21.2627C79.8023 24.4558 78.0379 28.0994 77.0204 32.0404Z" fill="#272018"/>
<path fill-rule="evenodd" clip-rule="evenodd" d="M106.614 11.0783L104.017 8.48853C95.8235 9.45796 88.5761 13.5487 83.5093 19.5328C83.9897 20.0981 84.4545 20.6765 84.8952 21.2743C90.3452 15.3062 98.2104 11.4099 106.614 11.0783Z" fill="#272018"/>
<path fill-rule="evenodd" clip-rule="evenodd" d="M84.895 21.2741C84.4543 20.6763 83.99 20.098 83.5087 19.5327C82.2937 18.1047 80.9691 16.7716 79.5228 15.5752C79.0639 16.2451 78.633 16.9323 78.2321 17.6385C79.645 18.7324 80.9493 19.952 82.1482 21.2623C82.6248 21.7833 83.0883 22.3148 83.5269 22.8666C85.9666 25.9352 87.8012 29.459 88.7988 33.2815L90.0426 32.04C89.0247 28.0968 87.2463 24.4638 84.895 21.2741Z" fill="#272018"/>
<path fill-rule="evenodd" clip-rule="evenodd" d="M98.8901 83.277V74.0286H103.333V75.4123H100.483V77.7941H102.615V79.1778H100.483V83.277H98.8901Z" fill="#272018"/>
<path fill-rule="evenodd" clip-rule="evenodd" d="M106.132 80.9968C106.132 81.6895 106.338 82.0228 106.981 82.0228C107.622 82.0228 107.827 81.6895 107.827 80.9968V76.3091C107.827 75.6164 107.622 75.2836 106.981 75.2836C106.338 75.2836 106.132 75.6164 106.132 76.3091V80.9968ZM104.54 76.2694C104.54 74.9638 105.311 73.9011 106.981 73.9011C108.649 73.9011 109.419 74.9638 109.419 76.2694V81.036C109.419 82.3421 108.649 83.4048 106.981 83.4048C105.311 83.4048 104.54 82.3421 104.54 81.036V76.2694Z" fill="#272018"/>
<path fill-rule="evenodd" clip-rule="evenodd" d="M112.399 78.1788H112.965C113.826 78.1788 114.146 77.8577 114.146 76.7579C114.146 75.6556 113.826 75.3346 112.965 75.3346H112.399V78.1788ZM112.399 83.2765H110.807V74.0281H113.042C114.827 74.0281 115.738 74.7841 115.738 76.7579C115.738 78.2429 115.159 78.8445 114.621 79.0874L115.969 83.2765H114.351L113.22 79.4477C113.016 79.4726 112.682 79.4853 112.399 79.4853V83.2765Z" fill="#272018"/>
<path fill-rule="evenodd" clip-rule="evenodd" d="M26.6252 83.277V74.0286H31.0683V75.4123H28.2175V77.7941H30.3502V79.1778H28.2175V83.277H26.6252Z" fill="#272018"/>
<path fill-rule="evenodd" clip-rule="evenodd" d="M33.8671 80.9968C33.8671 81.6895 34.073 82.0228 34.7154 82.0228C35.3574 82.0228 35.5621 81.6895 35.5621 80.9968V76.3091C35.5621 75.6164 35.3574 75.2836 34.7154 75.2836C34.073 75.2836 33.8671 75.6164 33.8671 76.3091V80.9968ZM32.2748 76.2694C32.2748 74.9638 33.0454 73.9011 34.7154 73.9011C36.3842 73.9011 37.1543 74.9638 37.1543 76.2694V81.036C37.1543 82.3421 36.3842 83.4048 34.7154 83.4048C33.0454 83.4048 32.2748 82.3421 32.2748 81.036V76.2694Z" fill="#272018"/>
<path fill-rule="evenodd" clip-rule="evenodd" d="M40.134 78.1788H40.6995C41.5605 78.1788 41.8806 77.8577 41.8806 76.7579C41.8806 75.6556 41.5605 75.3346 40.6995 75.3346H40.134V78.1788ZM40.134 83.2765H38.5418V74.0281H40.7764C42.5619 74.0281 43.4729 74.7841 43.4729 76.7579C43.4729 78.2429 42.8948 78.8445 42.356 79.0874L43.7038 83.2765H42.0866L40.9557 79.4477C40.7511 79.4726 40.417 79.4853 40.134 79.4853V83.2765Z" fill="#272018"/>
<path fill-rule="evenodd" clip-rule="evenodd" d="M50.8678 74.0286H52.1771L53.2568 79.9215H53.2817L54.1673 74.0286H55.658L54.0269 83.277H52.6909L51.5364 77.1672H51.5102L50.4318 83.277H49.0962L47.3365 74.0286H48.826L49.8021 79.9215H49.827L50.8678 74.0286Z" fill="#272018"/>
<mask id="mask0_1_14917" style="mask-type:luminance" maskUnits="userSpaceOnUse" x="0" y="0" width="172" height="84">
<path fill-rule="evenodd" clip-rule="evenodd" d="M0.640785 83.4048H171.873V0.556152H0.640785V83.4048Z" fill="white"/>
</mask>
<g mask="url(#mask0_1_14917)">
<path fill-rule="evenodd" clip-rule="evenodd" d="M57.21 83.277H58.8022V74.0286H57.21V83.277Z" fill="#272018"/>
</g>
<mask id="mask1_1_14917" style="mask-type:luminance" maskUnits="userSpaceOnUse" x="0" y="0" width="172" height="84">
<path fill-rule="evenodd" clip-rule="evenodd" d="M0.640785 83.4048H171.873V0.556152H0.640785V83.4048Z" fill="white"/>
</mask>
<g mask="url(#mask1_1_14917)">
<path fill-rule="evenodd" clip-rule="evenodd" d="M60.8034 83.277V74.0286H62.3956V81.8933H64.9001V83.277H60.8034Z" fill="#272018"/>
</g>
<mask id="mask2_1_14917" style="mask-type:luminance" maskUnits="userSpaceOnUse" x="0" y="0" width="172" height="84">
<path fill-rule="evenodd" clip-rule="evenodd" d="M0.640785 83.4048H171.873V0.556152H0.640785V83.4048Z" fill="white"/>
</mask>
<g mask="url(#mask2_1_14917)">
<path fill-rule="evenodd" clip-rule="evenodd" d="M67.7863 81.9709H68.3395C69.1861 81.9709 69.4813 81.6495 69.4813 80.6771V76.6285C69.4813 75.6548 69.1861 75.3346 68.3395 75.3346H67.7863V81.9709ZM66.1941 74.0286H68.5568C70.2003 74.0286 71.0731 74.9246 71.0731 76.8217V80.4843C71.0731 82.381 70.2003 83.277 68.5568 83.277H66.1941V74.0286Z" fill="#272018"/>
</g>
<mask id="mask3_1_14917" style="mask-type:luminance" maskUnits="userSpaceOnUse" x="0" y="0" width="172" height="84">
<path fill-rule="evenodd" clip-rule="evenodd" d="M0.640785 83.4048H171.873V0.556152H0.640785V83.4048Z" fill="white"/>
</mask>
<g mask="url(#mask3_1_14917)">
<path fill-rule="evenodd" clip-rule="evenodd" d="M72.8579 83.277V74.0286H74.4505V81.8933H76.955V83.277H72.8579Z" fill="#272018"/>
</g>
<mask id="mask4_1_14917" style="mask-type:luminance" maskUnits="userSpaceOnUse" x="0" y="0" width="172" height="84">
<path fill-rule="evenodd" clip-rule="evenodd" d="M0.640785 83.4048H171.873V0.556152H0.640785V83.4048Z" fill="white"/>
</mask>
<g mask="url(#mask4_1_14917)">
<path fill-rule="evenodd" clip-rule="evenodd" d="M78.4678 83.277H80.06V74.0286H78.4678V83.277Z" fill="#272018"/>
</g>
<mask id="mask5_1_14917" style="mask-type:luminance" maskUnits="userSpaceOnUse" x="0" y="0" width="172" height="84">
<path fill-rule="evenodd" clip-rule="evenodd" d="M0.640785 83.4048H171.873V0.556152H0.640785V83.4048Z" fill="white"/>
</mask>
<g mask="url(#mask5_1_14917)">
<path fill-rule="evenodd" clip-rule="evenodd" d="M82.1391 83.277V74.0286H86.5821V75.4123H83.7317V77.7941H85.8644V79.1778H83.7317V83.277H82.1391Z" fill="#272018"/>
</g>
<mask id="mask6_1_14917" style="mask-type:luminance" maskUnits="userSpaceOnUse" x="0" y="0" width="172" height="84">
<path fill-rule="evenodd" clip-rule="evenodd" d="M0.640785 83.4048H171.873V0.556152H0.640785V83.4048Z" fill="white"/>
</mask>
<g mask="url(#mask6_1_14917)">
<path fill-rule="evenodd" clip-rule="evenodd" d="M88.0908 83.277V74.0286H92.3541V75.4123H89.683V77.7941H91.7371V79.1778H89.683V81.8933H92.5338V83.277H88.0908Z" fill="#272018"/>
</g>
<mask id="mask7_1_14917" style="mask-type:luminance" maskUnits="userSpaceOnUse" x="0" y="0" width="172" height="84">
<path fill-rule="evenodd" clip-rule="evenodd" d="M0.640785 83.4048H171.873V0.556152H0.640785V83.4048Z" fill="white"/>
</mask>
<g mask="url(#mask7_1_14917)">
<path fill-rule="evenodd" clip-rule="evenodd" d="M93.6459 83.2768H95.1616V81.7649H93.6459V83.2768Z" fill="#272018"/>
</g>
<mask id="mask8_1_14917" style="mask-type:luminance" maskUnits="userSpaceOnUse" x="0" y="0" width="172" height="84">
<path fill-rule="evenodd" clip-rule="evenodd" d="M0.640785 83.4048H171.873V0.556152H0.640785V83.4048Z" fill="white"/>
</mask>
<g mask="url(#mask8_1_14917)">
<path fill-rule="evenodd" clip-rule="evenodd" d="M122.183 79.8435H123.467L122.838 75.8738H122.811L122.183 79.8435ZM121.669 83.277H120.129L121.836 74.0286H123.813L125.52 83.277H123.98L123.697 81.2272H121.952L121.669 83.277Z" fill="#272018"/>
</g>
<mask id="mask9_1_14917" style="mask-type:luminance" maskUnits="userSpaceOnUse" x="0" y="0" width="172" height="84">
<path fill-rule="evenodd" clip-rule="evenodd" d="M0.640785 83.4048H171.873V0.556152H0.640785V83.4048Z" fill="white"/>
</mask>
<g mask="url(#mask9_1_14917)">
<path fill-rule="evenodd" clip-rule="evenodd" d="M126.866 83.277V74.0286H128.459V81.8933H130.963V83.277H126.866Z" fill="#272018"/>
</g>
<mask id="mask10_1_14917" style="mask-type:luminance" maskUnits="userSpaceOnUse" x="0" y="0" width="172" height="84">
<path fill-rule="evenodd" clip-rule="evenodd" d="M0.640785 83.4048H171.873V0.556152H0.640785V83.4048Z" fill="white"/>
</mask>
<g mask="url(#mask10_1_14917)">
<path fill-rule="evenodd" clip-rule="evenodd" d="M132.002 83.277V74.0286H133.594V81.8933H136.099V83.277H132.002Z" fill="#272018"/>
</g>
<mask id="mask11_1_14917" style="mask-type:luminance" maskUnits="userSpaceOnUse" x="0" y="0" width="172" height="84">
<path fill-rule="evenodd" clip-rule="evenodd" d="M0.640785 83.4048H171.873V0.556152H0.640785V83.4048Z" fill="white"/>
</mask>
<g mask="url(#mask11_1_14917)">
<path fill-rule="evenodd" clip-rule="evenodd" d="M137.289 83.2768H138.805V81.7649H137.289V83.2768Z" fill="#272018"/>
</g>
<mask id="mask12_1_14917" style="mask-type:luminance" maskUnits="userSpaceOnUse" x="0" y="0" width="172" height="84">
<path fill-rule="evenodd" clip-rule="evenodd" d="M0.640785 83.4048H171.873V0.556152H0.640785V83.4048Z" fill="white"/>
</mask>
<g mask="url(#mask12_1_14917)">
<path fill-rule="evenodd" clip-rule="evenodd" d="M0.640869 65.1753V47.2969H3.72005V62.5011H8.56021V65.1753H0.640869Z" fill="#272018"/>
</g>
<mask id="mask13_1_14917" style="mask-type:luminance" maskUnits="userSpaceOnUse" x="0" y="0" width="172" height="84">
<path fill-rule="evenodd" clip-rule="evenodd" d="M0.640785 83.4048H171.873V0.556152H0.640785V83.4048Z" fill="white"/>
</mask>
<g mask="url(#mask13_1_14917)">
<path fill-rule="evenodd" clip-rule="evenodd" d="M11.3255 65.1751H14.4034V47.2966H11.3255V65.1751Z" fill="#272018"/>
</g>
<mask id="mask14_1_14917" style="mask-type:luminance" maskUnits="userSpaceOnUse" x="0" y="0" width="172" height="84">
<path fill-rule="evenodd" clip-rule="evenodd" d="M0.640785 83.4048H171.873V0.556152H0.640785V83.4048Z" fill="white"/>
</mask>
<g mask="url(#mask14_1_14917)">
<path fill-rule="evenodd" clip-rule="evenodd" d="M17.3527 65.1753V47.2969H20.2077L23.9564 57.5236H24.0063V47.2969H26.7856V65.1753H24.1048L20.1832 54.0078H20.1333V65.1753H17.3527Z" fill="#272018"/>
</g>
<mask id="mask15_1_14917" style="mask-type:luminance" maskUnits="userSpaceOnUse" x="0" y="0" width="172" height="84">
<path fill-rule="evenodd" clip-rule="evenodd" d="M0.640785 83.4048H171.873V0.556152H0.640785V83.4048Z" fill="white"/>
</mask>
<g mask="url(#mask15_1_14917)">
<path fill-rule="evenodd" clip-rule="evenodd" d="M35.9405 53.1947V51.8085C35.9405 50.2982 35.2461 49.6536 34.4514 49.6536C33.2106 49.6536 32.8127 50.2982 32.8127 51.6355V60.6975C32.8127 62.0352 33.2106 62.6794 34.4514 62.6794C35.5688 62.6794 35.9405 62.0352 35.9405 60.8721V58.7168H39.0197V60.7726C39.0197 63.2982 37.5294 65.354 34.4514 65.354C31.2243 65.354 29.7352 63.2982 29.7352 60.7726V51.56C29.7352 49.0352 31.2243 46.979 34.4514 46.979C37.5294 46.979 39.0197 49.2077 39.0197 51.8827V53.1947H35.9405Z" fill="#272018"/>
</g>
<mask id="mask16_1_14917" style="mask-type:luminance" maskUnits="userSpaceOnUse" x="0" y="0" width="172" height="84">
<path fill-rule="evenodd" clip-rule="evenodd" d="M0.640785 83.4048H171.873V0.556152H0.640785V83.4048Z" fill="white"/>
</mask>
<g mask="url(#mask16_1_14917)">
<path fill-rule="evenodd" clip-rule="evenodd" d="M44.932 60.6974C44.932 62.0355 45.3304 62.6797 46.5708 62.6797C47.8124 62.6797 48.2091 62.0355 48.2091 60.6974V51.6354C48.2091 50.2977 47.8124 49.6531 46.5708 49.6531C45.3304 49.6531 44.932 50.2977 44.932 51.6354V60.6974ZM41.8541 51.5599C41.8541 49.0347 43.3432 46.9785 46.5708 46.9785C49.798 46.9785 51.287 49.0347 51.287 51.5599V60.7725C51.287 63.2982 49.798 65.3539 46.5708 65.3539C43.3432 65.3539 41.8541 63.2982 41.8541 60.7725V51.5599Z" fill="#272018"/>
</g>
<mask id="mask17_1_14917" style="mask-type:luminance" maskUnits="userSpaceOnUse" x="0" y="0" width="172" height="84">
<path fill-rule="evenodd" clip-rule="evenodd" d="M0.640785 83.4048H171.873V0.556152H0.640785V83.4048Z" fill="white"/>
</mask>
<g mask="url(#mask17_1_14917)">
<path fill-rule="evenodd" clip-rule="evenodd" d="M54.236 65.1521V47.2737H57.3152V62.4779H62.1553V65.1521H54.236Z" fill="#272018"/>
</g>
<mask id="mask18_1_14917" style="mask-type:luminance" maskUnits="userSpaceOnUse" x="0" y="0" width="172" height="84">
<path fill-rule="evenodd" clip-rule="evenodd" d="M0.640785 83.4048H171.873V0.556152H0.640785V83.4048Z" fill="white"/>
</mask>
<g mask="url(#mask18_1_14917)">
<path fill-rule="evenodd" clip-rule="evenodd" d="M64.6463 65.1521V47.2737H67.5014L71.25 57.5004H71.2999V47.2737H74.0797V65.1521H71.3984L67.4768 53.9846H67.4269V65.1521H64.6463Z" fill="#272018"/>
</g>
<mask id="mask19_1_14917" style="mask-type:luminance" maskUnits="userSpaceOnUse" x="0" y="0" width="172" height="84">
<path fill-rule="evenodd" clip-rule="evenodd" d="M0.640785 83.4048H171.873V0.556152H0.640785V83.4048Z" fill="white"/>
</mask>
<g mask="url(#mask19_1_14917)">
<path fill-rule="evenodd" clip-rule="evenodd" d="M86.6378 55.3201H87.8291C89.8409 55.3201 90.4609 54.7004 90.4609 52.5704C90.4609 50.4409 89.8409 49.8224 87.8291 49.8224H86.6378V55.3201ZM83.5599 65.1752V47.2959H87.9793C91.7761 47.2959 93.5384 48.7581 93.5384 52.5704C93.5384 56.3836 91.7761 57.8458 87.9793 57.8458H86.6378V65.1752H83.5599Z" fill="#272018"/>
</g>
<mask id="mask20_1_14917" style="mask-type:luminance" maskUnits="userSpaceOnUse" x="0" y="0" width="172" height="84">
<path fill-rule="evenodd" clip-rule="evenodd" d="M0.640785 83.4048H171.873V0.556152H0.640785V83.4048Z" fill="white"/>
</mask>
<g mask="url(#mask20_1_14917)">
<path fill-rule="evenodd" clip-rule="evenodd" d="M97.5974 58.5393H100.079L98.8636 50.8623H98.8137L97.5974 58.5393ZM96.6045 65.1751H93.6251L96.9271 47.2971H100.749L104.053 65.1751H101.072L100.526 61.2134H97.1509L96.6045 65.1751Z" fill="#272018"/>
</g>
<mask id="mask21_1_14917" style="mask-type:luminance" maskUnits="userSpaceOnUse" x="0" y="0" width="172" height="84">
<path fill-rule="evenodd" clip-rule="evenodd" d="M0.640785 83.4048H171.873V0.556152H0.640785V83.4048Z" fill="white"/>
</mask>
<g mask="url(#mask21_1_14917)">
<path fill-rule="evenodd" clip-rule="evenodd" d="M109.148 55.3201H110.24C111.905 55.3201 112.524 54.7004 112.524 52.5704C112.524 50.4409 111.905 49.8224 110.24 49.8224H109.148V55.3201ZM109.148 65.1752H106.07V47.2959H110.39C113.841 47.2959 115.603 48.7581 115.603 52.5704C115.603 55.4437 114.486 56.6072 113.443 57.078L116.049 65.1752H112.921L110.737 57.7719C110.339 57.8205 109.694 57.8458 109.148 57.8458V65.1752Z" fill="#272018"/>
</g>
<mask id="mask22_1_14917" style="mask-type:luminance" maskUnits="userSpaceOnUse" x="0" y="0" width="172" height="84">
<path fill-rule="evenodd" clip-rule="evenodd" d="M0.640785 83.4048H171.873V0.556152H0.640785V83.4048Z" fill="white"/>
</mask>
<g mask="url(#mask22_1_14917)">
<path fill-rule="evenodd" clip-rule="evenodd" d="M117.977 65.1753V47.2969H121.056V53.9083H121.106L124.332 47.2969H127.412L124.085 53.958L127.833 65.1753H124.705L122.198 56.8554H122.149L121.056 58.836V65.1753H117.977Z" fill="#272018"/>
</g>
<mask id="mask23_1_14917" style="mask-type:luminance" maskUnits="userSpaceOnUse" x="0" y="0" width="172" height="84">
<path fill-rule="evenodd" clip-rule="evenodd" d="M0.640785 83.4048H171.873V0.556152H0.640785V83.4048Z" fill="white"/>
</mask>
<g mask="url(#mask23_1_14917)">
<path fill-rule="evenodd" clip-rule="evenodd" d="M135.228 49.971V47.2969H143.37V50.2178L137.71 62.5011H143.37V65.1753H134.533V62.2539L140.267 49.971H135.228Z" fill="#272018"/>
</g>
<mask id="mask24_1_14917" style="mask-type:luminance" maskUnits="userSpaceOnUse" x="0" y="0" width="172" height="84">
<path fill-rule="evenodd" clip-rule="evenodd" d="M0.640785 83.4048H171.873V0.556152H0.640785V83.4048Z" fill="white"/>
</mask>
<g mask="url(#mask24_1_14917)">
<path fill-rule="evenodd" clip-rule="evenodd" d="M148.422 60.7667C148.422 62.1053 148.82 62.7491 150.061 62.7491C151.302 62.7491 151.698 62.1053 151.698 60.7667V51.7048C151.698 50.367 151.302 49.7224 150.061 49.7224C148.82 49.7224 148.422 50.367 148.422 51.7048V60.7667ZM145.344 51.6297C145.344 49.104 146.833 47.0479 150.061 47.0479C153.288 47.0479 154.776 49.104 154.776 51.6297V60.8422C154.776 63.3675 153.288 65.4232 150.061 65.4232C146.833 65.4232 145.344 63.3675 145.344 60.8422V51.6297Z" fill="#272018"/>
</g>
<mask id="mask25_1_14917" style="mask-type:luminance" maskUnits="userSpaceOnUse" x="1" y="-1" width="184" height="90">
<path fill-rule="evenodd" clip-rule="evenodd" d="M1.14707 88.6035H184.614V-0.384766H1.14707V88.6035Z" fill="white"/>
</mask>
<g mask="url(#mask25_1_14917)">
<path fill-rule="evenodd" clip-rule="evenodd" d="M160.068 60.7667C160.068 62.1053 160.466 62.7491 161.707 62.7491C162.948 62.7491 163.344 62.1053 163.344 60.7667V51.7048C163.344 50.367 162.948 49.7224 161.707 49.7224C160.466 49.7224 160.068 50.367 160.068 51.7048V60.7667ZM156.99 51.6297C156.99 49.104 158.479 47.0479 161.707 47.0479C164.934 47.0479 166.422 49.104 166.422 51.6297V60.8422C166.422 63.3675 164.934 65.4232 161.707 65.4232C158.479 65.4232 156.99 63.3675 156.99 60.8422V51.6297Z" fill="#272018"/>
</g>
<path fill-rule="evenodd" clip-rule="evenodd" d="M169.788 63.5811H170.12C170.4 63.5811 170.499 63.4925 170.499 63.3103C170.499 63.1293 170.381 63.0677 170.101 63.0677H169.788V63.5811ZM169.788 64.7054H169.405V62.7695H170.138C170.625 62.7695 170.891 62.9239 170.891 63.344C170.891 63.6976 170.676 63.8376 170.424 63.8612L170.891 64.7054H170.466L170.031 63.8794H169.788V64.7054ZM170.097 62.3738C169.358 62.3738 168.778 62.9424 168.778 63.7397C168.778 64.5379 169.358 65.1066 170.097 65.1066C170.826 65.1066 171.415 64.5379 171.415 63.7397C171.415 62.9424 170.826 62.3738 170.097 62.3738ZM168.319 63.7397C168.319 62.691 169.157 62.0093 170.097 62.0093C171.036 62.0093 171.873 62.691 171.873 63.7397C171.873 64.7936 171.036 65.4702 170.097 65.4702C169.157 65.4702 168.319 64.7936 168.319 63.7397Z" fill="#272018"/>
</g>
<defs>
<clipPath id="clip0_1_14917">
<rect width="172" height="84" fill="white" transform="translate(0 0.109375)"/>
</clipPath>
</defs>
</svg>
