<svg width="177" height="52" viewBox="0 0 177 52" fill="none" xmlns="http://www.w3.org/2000/svg">
<path d="M42.8891 25.0301C41.7138 24.0766 40.2876 23.0347 38.4991 22.4487C40.2272 17.6812 40.6593 12.9463 39.6837 9.40209C39.0194 6.99277 37.7279 5.26253 35.9533 4.39276C33.4494 3.17414 30.2161 3.1974 27.0803 4.45787C25.7285 5.00206 24.4091 5.76951 23.1502 6.74161C22.1514 5.80207 21.0179 5.1602 19.7775 4.83462C17.7985 4.31834 15.7034 4.66718 13.729 5.84393C9.90573 8.12766 6.66779 13.3789 5.05578 19.9045C2.733 29.3092 4.91177 34.9139 7.14628 37.9604C9.30646 40.9046 12.498 42.7232 15.8799 42.9418C16.0332 42.9558 16.7626 43.0256 17.6917 42.9651C19.09 44.1325 20.8181 45.1186 22.5788 45.7512C25.9561 46.9605 28.5994 47.5 31.1545 47.5C34.5643 47.5 37.8673 46.4721 41.2493 44.3558C45.3002 41.8209 47.3582 37.9604 47.3535 32.8906C47.3535 30.365 45.5557 27.2069 42.8845 25.0301H42.8891ZM26.0072 25.5464C27.7957 19.7324 27.4659 13.5277 25.1385 9.35558C25.0967 9.28116 25.0502 9.20209 25.0084 9.13232C26.0351 8.34162 27.1082 7.71371 28.1999 7.27649C30.5134 6.3416 32.9105 6.28579 34.6247 7.123C35.8558 7.72301 36.469 9.13697 36.7663 10.216C37.8208 14.0347 36.9521 20.8487 32.6411 27.4627C31.9767 28.4813 31.2799 29.458 30.6063 30.4022L30.2951 30.8394C27.6424 34.5604 26.7877 35.4395 24.5439 37.3046C23.4522 38.2162 20.767 39.5372 19.0482 39.5372C18.7927 39.5372 18.4907 39.4907 18.1887 39.1511C18.0912 39.0209 18.0029 38.8953 17.924 38.779L17.8775 38.7046C17.7892 38.5465 17.701 38.3651 17.6173 38.1651C21.2827 35.4488 24.4045 30.7557 26.0072 25.551V25.5464ZM34.1137 30.6813C34.4435 30.2069 34.8152 29.6673 35.1729 29.1138C35.9673 27.8999 36.6873 26.6022 37.3238 25.258C38.75 25.672 39.9671 26.5557 40.9798 27.3836C42.0994 28.2952 43.0796 29.4952 43.6882 30.6859H34.1137V30.6813ZM23.1177 24.658C21.8494 28.7836 19.5731 32.4767 16.8183 34.9139C16.2005 30.8673 16.1912 24.5138 18.133 19.2347C19.3083 16.0393 20.8506 13.3603 22.7275 11.2672C24.451 14.7417 24.6089 19.8161 23.1177 24.658ZM19.0064 7.77417C19.6753 7.95092 20.3071 8.29045 20.8925 8.79743C18.5697 11.2486 16.6882 14.4068 15.2946 18.1882C13.074 24.2254 13.1623 31.4859 13.9102 35.8674C14.0681 36.7883 14.3376 38.3883 15.0205 39.779C12.916 39.3465 10.9696 38.0627 9.58055 36.1743C6.96046 32.6022 6.39834 27.0859 7.98712 20.6347C9.39008 14.9603 12.1774 10.2951 15.2621 8.4579C16.5442 7.6951 17.8032 7.46254 19.0017 7.77417H19.0064ZM41.8485 39.979C41.2307 40.6534 40.492 41.2581 39.6512 41.7837C33.8443 45.4163 29.2033 44.9046 23.6008 42.8953C22.9737 42.6721 22.3651 42.3976 21.7798 42.0814C23.494 41.5418 25.0642 40.6674 26.0211 39.9744H41.8485V39.979ZM44.306 33.7092C44.241 34.8906 44.0319 35.979 43.6789 36.9557H29.3613C30.1232 36.1278 30.8943 35.1557 31.9489 33.7092H44.3014H44.306Z" fill="#272018"/>
<path d="M70.0796 15.9517C69.1941 15.9517 68.37 15.8122 67.6116 15.5371C66.8531 15.2621 66.2177 14.8229 65.7093 14.2237C65.201 13.6244 64.8812 12.8527 64.75 11.9045H67.3697C67.4763 12.3109 67.6731 12.6393 67.9642 12.8855C68.2511 13.1318 68.5955 13.3083 68.9973 13.415C69.399 13.5218 69.8213 13.5751 70.2641 13.5751C70.6002 13.5751 70.9282 13.5341 71.2521 13.4479C71.576 13.3658 71.8425 13.2221 72.0515 13.0169C72.2606 12.8117 72.3672 12.5366 72.3672 12.1919C72.3672 11.9292 72.3098 11.7116 72.195 11.5433C72.0802 11.375 71.9203 11.2396 71.7113 11.1411C71.5022 11.0384 71.248 10.9481 70.9487 10.8619C70.6986 10.7922 70.4363 10.7306 70.1698 10.6813C69.8992 10.6321 69.6368 10.5746 69.3785 10.5007C69.1203 10.431 68.8743 10.3448 68.6324 10.2503C68.1773 10.1313 67.7428 9.98354 67.3246 9.81115C66.9064 9.63875 66.5334 9.4171 66.2136 9.14619C65.8897 8.87528 65.6355 8.5387 65.451 8.13234C65.2666 7.72598 65.1723 7.23342 65.1723 6.65877C65.1723 6.03486 65.2748 5.50946 65.4879 5.07847C65.697 4.64748 65.9799 4.29038 66.3325 4.01126C66.6851 3.72804 67.0786 3.51049 67.5173 3.35451C67.9519 3.19854 68.3946 3.09181 68.8374 3.03024C69.2801 2.96867 69.6983 2.93994 70.0919 2.93994C70.9159 2.93994 71.658 3.08361 72.318 3.37093C72.974 3.65826 73.5151 4.08925 73.9333 4.6639C74.3515 5.23855 74.5892 5.96508 74.6507 6.83937H72.1581C72.1089 6.47816 71.9777 6.18673 71.7646 5.96097C71.5514 5.73522 71.2767 5.56693 70.9487 5.4561C70.6207 5.34938 70.2518 5.29602 69.8459 5.29602C69.5835 5.29602 69.3252 5.32065 69.0752 5.3658C68.8251 5.41505 68.5996 5.48894 68.4028 5.59155C68.206 5.69417 68.0502 5.82962 67.9355 5.99381C67.8207 6.1621 67.7633 6.36323 67.7633 6.6054C67.7633 6.84758 67.8289 7.05281 67.9601 7.22521C68.0912 7.39761 68.2839 7.54948 68.5422 7.67262C68.8005 7.79986 69.0998 7.91479 69.4482 8.02152C69.809 8.14055 70.1821 8.23906 70.5797 8.30884C70.9733 8.37862 71.3505 8.47713 71.7113 8.59617C72.1663 8.7152 72.5886 8.85476 72.9863 9.01895C73.3839 9.18314 73.7283 9.38426 74.0276 9.63054C74.3269 9.87682 74.5605 10.1888 74.7286 10.5664C74.8967 10.944 74.9787 11.4079 74.9787 11.9579C74.9787 12.6885 74.8434 13.3083 74.5769 13.8173C74.3064 14.3263 73.9415 14.7367 73.4823 15.0487C73.0232 15.3607 72.4984 15.5864 71.9121 15.7301C71.3259 15.8737 70.7232 15.9476 70.1001 15.9476L70.0796 15.9517Z" fill="#272018"/>
<path d="M78.8574 15.8082L75.7539 3.08789H78.6073L80.8334 12.9883L83.0759 3.08789H86.4664L88.672 12.9883L90.8448 3.08789H93.5547L90.4841 15.8082H86.9296L84.7035 6.1787L82.5143 15.8082H78.8533H78.8574Z" fill="#272018"/>
<path d="M95.0059 15.8082V3.08789H104.16V5.4768H97.5723V8.35007H103.226V10.6487H97.5723V13.4357H104.16V15.8082H95.0059Z" fill="#272018"/>
<path d="M106.152 15.8082V3.08789H115.307V5.4768H108.719V8.35007H114.372V10.6487H108.719V13.4357H115.307V15.8082H106.152Z" fill="#272018"/>
<path d="M119.989 15.8082V5.4768H116.115V3.08789H126.471V5.4768H122.576V15.8082H119.994H119.989Z" fill="#272018"/>
<path d="M65.2715 35.5436V22.8232H70.8348C71.421 22.8232 71.9581 22.8807 72.4418 22.9956C72.9256 23.1106 73.3479 23.2912 73.7086 23.5416C74.0653 23.7919 74.3441 24.1285 74.545 24.5472C74.7418 24.9659 74.8401 25.4995 74.8401 26.148C74.8401 26.6734 74.7213 27.166 74.4794 27.6216C74.2416 28.0772 73.889 28.4261 73.4217 28.6642C74.0448 28.8694 74.5327 29.2183 74.8934 29.715C75.2501 30.2116 75.4305 30.8684 75.4305 31.6811C75.4305 32.4117 75.2911 33.0274 75.0164 33.5241C74.7418 34.0208 74.3646 34.4189 73.8849 34.7186C73.4053 35.0182 72.8477 35.2316 72.2163 35.3548C71.5809 35.482 70.9085 35.5436 70.187 35.5436H65.2715ZM67.8379 28.0156H70.187C70.5109 28.0156 70.802 27.9869 71.0643 27.9253C71.3267 27.8638 71.5481 27.7694 71.7285 27.638C71.9089 27.5067 72.0442 27.3425 72.1426 27.1455C72.2368 26.9484 72.286 26.7186 72.286 26.4518C72.2983 26.0906 72.2204 25.8279 72.0524 25.6514C71.8843 25.479 71.6588 25.3599 71.3718 25.2901C71.0848 25.2245 70.761 25.1916 70.4043 25.1916H67.8379V28.0115V28.0156ZM67.8379 33.1711H70.4945C70.8184 33.1711 71.1176 33.1465 71.4005 33.0972C71.6834 33.048 71.9294 32.97 72.1467 32.855C72.3639 32.7401 72.532 32.5841 72.6591 32.3789C72.7862 32.1737 72.8477 31.9233 72.8477 31.6236C72.8477 31.3486 72.7985 31.1188 72.696 30.9299C72.5935 30.7452 72.45 30.5934 72.2655 30.4702C72.0811 30.3512 71.8638 30.265 71.6178 30.2198C71.3718 30.1706 71.1012 30.1501 70.802 30.1501H67.842V33.167L67.8379 33.1711Z" fill="#272018"/>
<path d="M77.4375 35.5436V22.8232H86.5921V25.2122H80.0039V28.0854H85.6574V30.384H80.0039V33.1711H86.5921V35.5436H77.4375Z" fill="#272018"/>
<path d="M93.9831 35.6866C92.6917 35.6866 91.5889 35.4157 90.6829 34.8698C89.7728 34.3238 89.0799 33.5645 88.6003 32.5876C88.1206 31.6107 87.8828 30.4696 87.8828 29.1643C87.8828 28.1956 88.0181 27.309 88.2846 26.5127C88.5552 25.7164 88.9487 25.0309 89.4694 24.4562C89.99 23.8816 90.6255 23.4424 91.3798 23.1345C92.1342 22.8308 92.9869 22.6748 93.9462 22.6748C94.9056 22.6748 95.7829 22.8308 96.5495 23.1427C97.3162 23.4547 97.9516 23.9185 98.46 24.5342C98.9684 25.1499 99.3004 25.9216 99.4562 26.8451H96.8529C96.7586 26.4511 96.5823 26.1227 96.3323 25.8641C96.0822 25.6055 95.7665 25.4126 95.3893 25.2813C95.0122 25.1499 94.5858 25.0842 94.1061 25.0842C93.4502 25.0842 92.8926 25.1992 92.4376 25.4249C91.9825 25.6507 91.6135 25.9626 91.3347 26.3485C91.0519 26.7384 90.851 27.1817 90.7239 27.6784C90.5968 28.1751 90.5353 28.6881 90.5353 29.2135C90.5353 29.9319 90.6542 30.6009 90.892 31.2166C91.1298 31.8323 91.5069 32.329 92.0235 32.7066C92.536 33.0842 93.2206 33.273 94.0692 33.273C94.6309 33.273 95.1311 33.1868 95.5697 33.0144C96.0043 32.8421 96.361 32.5794 96.6274 32.2223C96.898 31.8693 97.0497 31.4424 97.0866 30.9375H93.6224V28.7292H99.7227V29.4311C99.7227 30.724 99.5054 31.8405 99.0749 32.7723C98.6445 33.7081 98.0049 34.4265 97.1563 34.9272C96.3077 35.4321 95.2499 35.6825 93.979 35.6825L93.9831 35.6866Z" fill="#272018"/>
<path d="M101.717 35.5436V22.8232H104.283V35.5436H101.717Z" fill="#272018"/>
<path d="M106.977 35.5436V22.8232H109.596L115.463 31.4307V22.8232H118.03V35.5436H115.479L109.539 27.0264V35.5436H106.973H106.977Z" fill="#272018"/>
<path d="M120.723 35.5436V22.8232H123.343L129.209 31.4307V22.8232H131.776V35.5436H129.226L123.285 27.0264V35.5436H120.719H120.723Z" fill="#272018"/>
<path d="M134.469 35.5436V22.8232H137.035V35.5436H134.469Z" fill="#272018"/>
<path d="M139.729 35.5436V22.8232H142.348L148.215 31.4307V22.8232H150.781V35.5436H148.231L142.291 27.0264V35.5436H139.725H139.729Z" fill="#272018"/>
<path d="M158.874 35.6866C157.582 35.6866 156.48 35.4157 155.574 34.8698C154.663 34.3238 153.971 33.5645 153.491 32.5876C153.011 31.6107 152.773 30.4696 152.773 29.1643C152.773 28.1956 152.909 27.309 153.175 26.5127C153.446 25.7164 153.839 25.0309 154.36 24.4562C154.881 23.8816 155.516 23.4424 156.27 23.1345C157.025 22.8308 157.878 22.6748 158.837 22.6748C159.796 22.6748 160.674 22.8308 161.44 23.1427C162.207 23.4547 162.842 23.9185 163.351 24.5342C163.859 25.1499 164.191 25.9216 164.347 26.8451H161.744C161.649 26.4511 161.473 26.1227 161.223 25.8641C160.973 25.6055 160.657 25.4126 160.28 25.2813C159.903 25.1499 159.476 25.0842 158.997 25.0842C158.341 25.0842 157.783 25.1992 157.328 25.4249C156.873 25.6507 156.504 25.9626 156.225 26.3485C155.942 26.7384 155.742 27.1817 155.615 27.6784C155.487 28.1751 155.426 28.6881 155.426 29.2135C155.426 29.9319 155.545 30.6009 155.783 31.2166C156.02 31.8323 156.398 32.329 156.914 32.7066C157.427 33.0842 158.111 33.273 158.96 33.273C159.522 33.273 160.022 33.1868 160.46 33.0144C160.895 32.8421 161.252 32.5794 161.518 32.2223C161.789 31.8693 161.94 31.4424 161.977 30.9375H158.513V28.7292H164.613V29.4311C164.613 30.724 164.396 31.8405 163.966 32.7723C163.535 33.7081 162.896 34.4265 162.047 34.9272C161.198 35.4321 160.141 35.6825 158.87 35.6825L158.874 35.6866Z" fill="#272018"/>
<path d="M171.601 35.6866C170.716 35.6866 169.892 35.547 169.133 35.272C168.375 34.997 167.739 34.5578 167.231 33.9585C166.722 33.3592 166.403 32.5876 166.271 31.6394H168.891C168.998 32.0458 169.195 32.3741 169.486 32.6204C169.773 32.8667 170.117 33.0432 170.519 33.1499C170.921 33.2566 171.343 33.31 171.786 33.31C172.122 33.31 172.45 33.2689 172.774 33.1827C173.097 33.1006 173.364 32.957 173.573 32.7518C173.782 32.5465 173.889 32.2715 173.889 31.9267C173.889 31.664 173.831 31.4465 173.717 31.2782C173.602 31.1099 173.442 30.9744 173.233 30.8759C173.024 30.7733 172.769 30.683 172.47 30.5968C172.22 30.527 171.958 30.4655 171.691 30.4162C171.421 30.3669 171.158 30.3095 170.9 30.2356C170.642 30.1658 170.396 30.0796 170.154 29.9852C169.699 29.8662 169.264 29.7184 168.846 29.546C168.428 29.3736 168.055 29.152 167.735 28.8811C167.411 28.6102 167.157 28.2736 166.973 27.8672C166.788 27.4608 166.694 26.9683 166.694 26.3936C166.694 25.7697 166.796 25.2443 167.009 24.8133C167.219 24.3823 167.501 24.0252 167.854 23.7461C168.207 23.4629 168.6 23.2454 169.039 23.0894C169.473 22.9334 169.916 22.8267 170.359 22.7651C170.802 22.7035 171.22 22.6748 171.613 22.6748C172.437 22.6748 173.179 22.8185 173.84 23.1058C174.495 23.3931 175.037 23.8241 175.455 24.3988C175.873 24.9734 176.111 25.6999 176.172 26.5742H173.68C173.63 26.213 173.499 25.9216 173.286 25.6958C173.073 25.4701 172.798 25.3018 172.47 25.191C172.142 25.0842 171.773 25.0309 171.367 25.0309C171.105 25.0309 170.847 25.0555 170.597 25.1007C170.347 25.1499 170.121 25.2238 169.924 25.3264C169.728 25.429 169.572 25.5645 169.457 25.7287C169.342 25.897 169.285 26.0981 169.285 26.3403C169.285 26.5824 169.35 26.7877 169.482 26.9601C169.613 27.1325 169.805 27.2843 170.064 27.4075C170.322 27.5347 170.621 27.6497 170.97 27.7564C171.33 27.8754 171.704 27.9739 172.101 28.0437C172.495 28.1135 172.872 28.212 173.233 28.331C173.688 28.4501 174.11 28.5896 174.508 28.7538C174.905 28.918 175.25 29.1191 175.549 29.3654C175.848 29.6117 176.082 29.9236 176.25 30.3013C176.418 30.6789 176.5 31.1427 176.5 31.6927C176.5 32.4234 176.365 33.0432 176.098 33.5522C175.828 34.0611 175.463 34.4716 175.004 34.7836C174.545 35.0955 174.02 35.3213 173.434 35.4649C172.847 35.6086 172.245 35.6825 171.622 35.6825L171.601 35.6866Z" fill="#272018"/>
<path d="M64.5 40.9863V50.0002H82.6329V40.9863H64.5ZM70.2355 48.543H65.9882V42.5502H67.1976V47.4265H70.2314V48.543H70.2355ZM75.2576 48.543H71.0144V42.5502H72.2238V47.4265H75.2576V48.543ZM80.7429 47.6892C80.5011 47.993 80.1936 48.2229 79.8205 48.3788C79.4474 48.5348 79.0375 48.6128 78.5865 48.6128C77.9716 48.6128 77.4509 48.4855 77.0163 48.2352C76.5859 47.9848 76.2579 47.6318 76.0365 47.1721C75.8151 46.7164 75.7044 46.1828 75.7044 45.5712C75.7044 44.9596 75.8192 44.4096 76.0447 43.9458C76.2743 43.482 76.6023 43.1249 77.0286 42.8663C77.455 42.6118 77.9716 42.4804 78.5742 42.4804C79.0293 42.4804 79.4392 42.5584 79.8 42.7144C80.1608 42.8704 80.4519 43.1002 80.6733 43.3999C80.8946 43.7036 81.034 44.073 81.0914 44.5122H79.923C79.8492 44.2372 79.7016 44.0156 79.4802 43.8555C79.2589 43.6954 78.9637 43.6133 78.5988 43.6133C78.1929 43.6133 77.8691 43.7036 77.6313 43.8883C77.3894 44.073 77.2172 44.307 77.1106 44.5984C77.004 44.8899 76.9507 45.1936 76.9507 45.5179C76.9507 45.8421 77.0081 46.1664 77.1188 46.4661C77.2336 46.7657 77.4099 47.0079 77.6559 47.1926C77.9019 47.3773 78.2216 47.4717 78.6234 47.4717C78.8612 47.4717 79.0703 47.4348 79.2589 47.365C79.4433 47.2952 79.5991 47.1926 79.718 47.0571C79.8369 46.9217 79.923 46.7616 79.9681 46.5728H81.1775C81.1283 47.0079 80.9807 47.3773 80.7388 47.681L80.7429 47.6892Z" fill="#272018"/>
</svg>
