<svg width="22" height="18" viewBox="0 0 22 18" fill="none" xmlns="http://www.w3.org/2000/svg">
<path d="M5 8.50024C5.83961 8.50024 6.58993 8.69674 7.25977 9.09302L7.67773 9.40259C8.03303 9.66522 8.30565 9.9258 8.50488 10.1819C8.66204 10.384 8.82397 10.63 8.98926 10.9221L9.15625 11.2297C9.24506 11.4383 9.31586 11.654 9.37012 11.8772L9.40723 12.0862C9.4706 12.4507 9.5 12.7541 9.5 13.0002C9.49998 13.2464 9.47063 13.5497 9.40723 13.9143L9.38184 14.0627C9.21499 14.7898 8.87054 15.4393 8.34277 16.0178L8.18262 16.1848C7.30371 17.0661 6.25229 17.5014 5 17.5002L4.76758 17.4954C3.6946 17.4477 2.77266 17.0662 1.9834 16.344L1.81641 16.1838C0.935784 15.3026 0.500704 14.2507 0.5 13.0002L0.504883 12.7678C0.552034 11.6954 0.933317 10.7735 1.65625 9.98364L1.81641 9.81665C2.69848 8.93519 3.75032 8.50024 5 8.50024ZM18.5 11.5002C18.6886 11.5002 18.8699 11.5165 19.0449 11.5461C19.3421 11.6107 19.5835 11.6885 19.7754 11.7756C19.8458 11.809 19.9145 11.8455 19.9824 11.885C20.1735 11.9993 20.3926 12.1661 20.6387 12.3977C21.216 12.9834 21.5 13.6747 21.5 14.5002C21.5 15.2302 21.2786 15.8558 20.8281 16.3958L20.6211 16.6213C20.0316 17.2108 19.3341 17.5002 18.5 17.5002C17.6659 17.5002 16.9684 17.2108 16.3789 16.6213C15.7894 16.0319 15.5 15.3343 15.5 14.5002C15.5 14.3239 15.516 14.1539 15.542 13.9895C15.6301 13.6226 15.7278 13.343 15.832 13.1409C15.9452 12.9215 16.1307 12.6601 16.4023 12.3557C16.9869 11.7818 17.6769 11.5002 18.5 11.5002ZM5 9.50024C4.03557 9.50024 3.19965 9.84356 2.52148 10.5217C1.84338 11.1999 1.5 12.0359 1.5 13.0002C1.50005 13.9646 1.84336 14.8006 2.52148 15.4788C3.19963 16.1569 4.03562 16.5002 5 16.5002C5.96438 16.5002 6.80037 16.1569 7.47852 15.4788C8.15664 14.8006 8.49995 13.9646 8.5 13.0002C8.5 12.0359 8.15662 11.1999 7.47852 10.5217C6.80035 9.84356 5.96443 9.50024 5 9.50024ZM18.502 12.5002C17.9518 12.4985 17.4678 12.696 17.082 13.0862C16.6996 13.473 16.5027 13.9528 16.5 14.4973C16.4974 15.0456 16.6962 15.5283 17.084 15.9163C17.4713 16.3036 17.953 16.502 18.5 16.4993V16.5002L18.501 16.4993L18.5029 16.5002L18.502 16.4993C19.0486 16.4988 19.5297 16.3026 19.916 15.9172C20.3035 15.5307 20.5009 15.0479 20.5 14.4993C20.4991 13.9519 20.3028 13.47 19.917 13.0842C19.5313 12.6985 19.0494 12.5021 18.502 12.5002ZM5.00195 12.0002C5.28395 11.9994 5.51012 12.0926 5.70898 12.2913C5.90792 12.4902 6.00128 12.7163 6 12.9973C5.99863 13.2822 5.90417 13.5117 5.70703 13.7122C5.53822 13.8837 5.34521 13.977 5.10742 13.9963L5.00293 14.0002H5C4.7143 14.0002 4.48835 13.9056 4.29199 13.7092C4.09558 13.5128 4.00046 13.2862 4 12.9993C3.99954 12.7138 4.09357 12.4885 4.29004 12.2932C4.48871 12.0959 4.71706 12.0012 5.00195 12.0002ZM15.0273 12.5002C14.8434 12.8136 14.7067 13.147 14.6191 13.5002H10.4775C10.4912 13.3365 10.4997 13.1702 10.5 13.0012L10.499 13.0002H10.5C10.5002 12.8309 10.4928 12.6643 10.4795 12.5002H15.0273ZM3 5.50024H6C6.41621 5.50024 6.7605 5.64258 7.05957 5.94165C7.22948 6.11158 7.3468 6.29658 7.41797 6.50024H3C2.84287 6.50024 2.73546 6.45185 2.64258 6.35864C2.5488 6.26452 2.50045 6.1561 2.5 5.99927C2.49963 5.84408 2.54645 5.73569 2.64062 5.64185C2.73579 5.54702 2.84489 5.50024 3 5.50024ZM11.2881 3.24536L12.043 4.03638L11.3037 3.29614L10.9502 2.94263L10.5967 3.29614L9.53711 4.35474L9.51855 4.33716L10.957 2.89868L11.2881 3.24536ZM12.5 4.50024H18.999L19.1523 4.50708C19.5021 4.53879 19.7986 4.68063 20.0596 4.94165C20.3577 5.23985 20.5 5.58382 20.5 6.00024V11.0266C20.4392 10.9909 20.3777 10.9571 20.3154 10.925C20.3099 10.9222 20.3044 10.919 20.2988 10.9163C20.2931 10.9134 20.287 10.9113 20.2812 10.9084C20.0325 10.7836 19.7723 10.6859 19.5 10.6184V5.50024H13.5V7.00024C13.5 7.9665 13.1619 8.78166 12.4717 9.47192C11.7814 10.1622 10.9663 10.5002 10 10.5002H9.91602C9.73516 10.1491 9.51358 9.81533 9.24902 9.50024H10V9.49927C10.6843 9.49995 11.2821 9.25121 11.7666 8.76587C12.2507 8.28094 12.5 7.68363 12.5 7.00024V4.50024Z" fill="#FF4B00" stroke="#FF4B00"/>
</svg>
