<svg width="17" height="20" viewBox="0 0 17 20" fill="none" xmlns="http://www.w3.org/2000/svg">
<path d="M2.08301 0.5H2.08496C2.41778 0.5 2.72449 0.61509 2.96582 0.807617L3.27246 1.05273L3.58398 0.8125C3.81355 0.635356 4.08875 0.52877 4.37598 0.504883L4.5 0.5C4.80264 0.5 5.08344 0.588505 5.31836 0.742188L5.41602 0.8125L5.72754 1.05371L6.03418 0.807617C6.25228 0.632942 6.51727 0.527842 6.79395 0.504883L6.91406 0.5H6.91504C7.59301 0.500018 8.17043 0.979163 8.29102 1.63574L8.30859 1.76855C8.39231 2.74022 8.5 4.23122 8.5 5.5L8.49219 5.75781C8.45356 6.35737 8.2798 6.94168 7.9834 7.4668C7.68691 7.99192 7.27565 8.44232 6.78223 8.78516L6.56543 8.92578C6.2279 9.12954 6.03011 9.45325 6.05078 9.77148V9.77246C6.17878 11.7217 6.5 16.7137 6.5 17.4971C6.49999 18.0275 6.28912 18.5361 5.91406 18.9111C5.53899 19.2862 5.03042 19.4971 4.5 19.4971C3.96958 19.4971 3.46101 19.2862 3.08594 18.9111C2.71088 18.5361 2.50001 18.0275 2.5 17.4971C2.5 17.1054 2.58053 15.6617 2.67676 14.0723L2.94922 9.77246V9.76855C2.96491 9.49443 2.82076 9.21307 2.55566 9.00879L2.43457 8.92578C1.84432 8.5698 1.35549 8.06702 1.0166 7.4668C0.677861 6.86668 0.499915 6.18913 0.5 5.5L0.504883 5.01562C0.526585 3.86775 0.618164 2.61974 0.691406 1.76953C0.717897 1.46535 0.843142 1.1793 1.04688 0.955078L1.13867 0.863281C1.36415 0.657585 1.65052 0.532813 1.95215 0.505859L2.08301 0.5ZM15.75 0.5C15.8163 0.5 15.8799 0.526366 15.9268 0.573242C15.9736 0.620121 16 0.683704 16 0.75V9.25C16 9.59013 16.1079 11.1925 16.2256 12.9209V12.9219L16.2305 13.0049L16.2314 13.0088C16.3625 14.9318 16.5 16.9804 16.5 17.4971C16.5 17.9613 16.3386 18.4087 16.0469 18.7646L15.9141 18.9111C15.539 19.2862 15.0304 19.4971 14.5 19.4971C13.9696 19.4971 13.461 19.2862 13.0859 18.9111C12.7109 18.5361 12.5 18.0275 12.5 17.4971C12.5 17.2505 12.532 16.609 12.5791 15.7871L12.751 12.9951L12.9229 10.3867V10.3857L12.9463 10.0322L12.9805 9.5H11.75C11.5858 9.5 11.4231 9.46809 11.2715 9.40527C11.1198 9.34245 10.9823 9.24986 10.8662 9.13379C10.7501 9.01772 10.6575 8.88017 10.5947 8.72852C10.5319 8.57687 10.5 8.41414 10.5 8.25V5.75C10.5 4.35762 11.0535 3.02265 12.0381 2.03809C13.0227 1.05353 14.3576 0.5 15.75 0.5ZM6.90625 1C6.69705 1.002 6.49554 1.07546 6.33496 1.20703L6.26758 1.26758C6.09598 1.43917 6 1.67237 6 1.91504V5.25C6 5.3163 5.97364 5.37987 5.92676 5.42676C5.87987 5.47364 5.8163 5.5 5.75 5.5C5.6837 5.5 5.62013 5.47364 5.57324 5.42676C5.52636 5.37987 5.5 5.3163 5.5 5.25V2C5.49999 1.73479 5.39456 1.4805 5.20703 1.29297C5.0195 1.10544 4.76521 1 4.5 1C4.23479 1 3.9805 1.10544 3.79297 1.29297C3.60544 1.4805 3.50001 1.73479 3.5 2V5.25C3.5 5.3163 3.47363 5.37988 3.42676 5.42676C3.37987 5.47364 3.3163 5.5 3.25 5.5C3.1837 5.5 3.12013 5.47364 3.07324 5.42676C3.02637 5.37988 3 5.3163 3 5.25V1.91504C3 1.70269 2.92638 1.49778 2.79297 1.33496L2.73242 1.26758L2.66504 1.20703C2.50421 1.07526 2.30233 1.00178 2.09277 1H2.08496C1.89151 0.998526 1.70355 1.05993 1.54883 1.17383L1.4834 1.22656C1.33688 1.35733 1.23811 1.53231 1.20117 1.72363L1.18945 1.80664L1.18848 1.8125C1.10519 2.78084 1 4.25299 1 5.5C1 6.69254 1.59522 7.74596 2.50684 8.37793L2.69336 8.49805C3.10588 8.74798 3.44011 9.18168 3.4502 9.70117L3.44824 9.80566C3.31924 11.7705 3 16.7345 3 17.498C3.00001 17.8959 3.15815 18.2773 3.43945 18.5586C3.72076 18.8399 4.10218 18.998 4.5 18.998C4.89782 18.998 5.27924 18.8399 5.56055 18.5586C5.84185 18.2773 5.99999 17.8959 6 17.498C6 17.1162 5.92013 15.6839 5.82422 14.1016L5.55176 9.80566C5.51547 9.24005 5.86675 8.76456 6.30664 8.49805L6.30566 8.49707C6.8224 8.18572 7.25012 7.74693 7.54688 7.22168C7.84369 6.69633 8.00004 6.1034 8 5.5L7.99512 5.02344C7.97987 4.2164 7.92998 3.35639 7.87598 2.62207L7.81152 1.8125L7.81055 1.80664L7.79883 1.72363C7.76715 1.55956 7.6899 1.40759 7.57617 1.28516L7.5166 1.22656L7.45117 1.17383C7.29645 1.05993 7.10849 0.998526 6.91504 1H6.90625ZM14.9121 1.07422C13.8151 1.27089 12.8215 1.84638 12.1064 2.70117C11.3914 3.55601 10.9998 4.6355 11 5.75V8.25C11 8.66414 11.3359 9 11.75 9H13.25C13.2842 9.00003 13.3182 9.00685 13.3496 9.02051C13.381 9.03414 13.4093 9.05414 13.4326 9.0791C13.456 9.10418 13.4739 9.13468 13.4854 9.16699C13.491 9.18288 13.4948 9.19922 13.4971 9.21582L13.499 9.26758V9.26855L13.4785 9.58203L13.249 13.0283C13.1238 14.9757 13 17.0252 13 17.4971C13 17.8949 13.1582 18.2763 13.4395 18.5576C13.7208 18.8389 14.1022 18.9971 14.5 18.9971C14.8978 18.9971 15.2792 18.8389 15.5605 18.5576C15.8418 18.2763 16 17.8949 16 17.4971C16 17.2459 15.9648 16.6019 15.9131 15.7754L15.7266 12.959L15.7197 12.8555C15.6056 11.1807 15.5 9.6046 15.5 9.25V0.96875L14.9121 1.07422Z" fill="#FF4040" stroke="#FF4B00"/>
</svg>
