<svg width="24" height="24" viewBox="0 0 24 24" fill="none" xmlns="http://www.w3.org/2000/svg">
<path d="M14.765 13.6L10.25 13.75L10.4 9.235L17.885 1.75L22.25 6.115L14.765 13.6Z" stroke="#FF4B00" stroke-width="2" stroke-linejoin="round"/>
<path d="M10.1151 3.25013H2.13513C2.01835 3.2481 1.90236 3.2696 1.79407 3.31336C1.68578 3.35712 1.58741 3.42223 1.50482 3.50482C1.42223 3.58741 1.35712 3.68578 1.31336 3.79407C1.2696 3.90236 1.2481 4.01835 1.25013 4.13513V21.8651C1.2481 21.9819 1.2696 22.0979 1.31336 22.2062C1.35712 22.3145 1.42223 22.4129 1.50482 22.4954C1.58741 22.578 1.68578 22.6431 1.79407 22.6869C1.90236 22.7307 2.01835 22.7522 2.13513 22.7501H19.8651C19.9819 22.7522 20.0979 22.7307 20.2062 22.6869C20.3145 22.6431 20.4129 22.578 20.4954 22.4954C20.578 22.4129 20.6431 22.3145 20.6869 22.2062C20.7307 22.0979 20.7522 21.9819 20.7501 21.8651V13.8851" stroke="#FF4B00" stroke-width="2" stroke-linecap="round"/>
</svg>
