<svg width="22" height="20" viewBox="0 0 22 20" fill="none" xmlns="http://www.w3.org/2000/svg">
<path d="M17.0004 7.99962C17.0004 7.99962 11.0004 11.9996 11.0004 18.9996M8.34942 9.18261C7.55709 9.77401 6.57827 10.0603 5.59213 9.98904C4.606 9.91778 3.6785 9.49377 2.97942 8.79462C0.555417 6.37162 1.03942 1.03962 1.03942 1.03962C1.03942 1.03962 6.37242 0.554615 8.79542 2.97862C9.25174 3.43315 9.59456 3.98879 9.79609 4.60052C9.99763 5.21225 10.0522 5.86286 9.95542 6.49962" stroke="#FF4B00" stroke-width="1.5" stroke-linecap="round" stroke-linejoin="round"/>
<path d="M13.964 10.8177C13.3257 10.1233 12.9805 9.20917 13.0004 8.26621C13.0203 7.32325 13.4039 6.42448 14.071 5.75772C16.225 3.60372 20.965 4.03472 20.965 4.03472C20.965 4.03472 21.395 8.77472 19.241 10.9287C18.8832 11.2872 18.4547 11.5672 17.9829 11.7511C17.511 11.9349 17.006 12.0186 16.5 11.9967M5 4.99972C5 4.99972 11 9.99972 11 18.9997" stroke="#FF4B00" stroke-width="1.5" stroke-linecap="round" stroke-linejoin="round"/>
</svg>
