<svg width="22" height="22" viewBox="0 0 22 22" fill="none" xmlns="http://www.w3.org/2000/svg">
<path d="M5 19.0138H7.61029C7.95063 19.0138 8.28888 19.0543 8.61881 19.1353L11.3769 19.8055C11.9753 19.9513 12.5988 19.9655 13.2035 19.8481L16.253 19.2548C17.0585 19.0978 17.7996 18.7121 18.3803 18.1472L20.5379 16.0484C21.154 15.45 21.154 14.4791 20.5379 13.8797C19.9832 13.3401 19.1047 13.2793 18.4771 13.737L15.9626 15.5715C15.6025 15.8347 15.1643 15.9765 14.7137 15.9765H12.2855L13.8311 15.9764C14.7022 15.9764 15.4079 15.29 15.4079 14.4426V14.1358C15.4079 13.4322 14.9156 12.8186 14.2141 12.6485L11.8286 12.0684C11.4404 11.9742 11.0428 11.9267 10.6431 11.9267C9.67833 11.9267 7.93189 12.7255 7.93189 12.7255L5 13.9515M1 13.5267L1 19.3267C1 19.8867 1 20.1667 1.10899 20.3806C1.20487 20.5688 1.35785 20.7218 1.54601 20.8177C1.75992 20.9267 2.03995 20.9267 2.6 20.9267H3.4C3.96005 20.9267 4.24008 20.9267 4.45399 20.8177C4.64215 20.7218 4.79513 20.5688 4.89101 20.3806C5 20.1667 5 19.8867 5 19.3267V13.5267C5 12.9666 5 12.6866 4.89101 12.4727C4.79513 12.2845 4.64215 12.1315 4.45399 12.0356C4.24008 11.9267 3.96005 11.9267 3.4 11.9267H2.6C2.03995 11.9267 1.75992 11.9267 1.54601 12.0356C1.35785 12.1315 1.20487 12.2845 1.10899 12.4727C1 12.6866 1 12.9666 1 13.5267ZM16.1914 2.51891C15.5946 1.27005 14.2186 0.608438 12.8804 1.24703C11.5423 1.88561 10.9722 3.40003 11.5325 4.72948C11.8787 5.55111 12.8707 7.14665 13.5781 8.24568C13.8394 8.65176 13.9701 8.8548 14.161 8.97358C14.3247 9.07546 14.5297 9.13038 14.7224 9.12401C14.9471 9.11658 15.1618 9.00608 15.5911 8.78508C16.7532 8.18697 18.4101 7.3012 19.1208 6.76278C20.2707 5.89157 20.5556 4.29023 19.6947 3.07289C18.8337 1.85556 17.3327 1.73577 16.1914 2.51891Z" stroke="#FF4B00" stroke-width="2" stroke-linecap="round" stroke-linejoin="round"/>
</svg>
