<svg width="22" height="22" viewBox="0 0 22 22" fill="none" xmlns="http://www.w3.org/2000/svg">
<path d="M14.6316 6.63137C14.2356 6.23535 14.0376 6.03735 13.9634 5.80902C13.8981 5.60817 13.8981 5.39183 13.9634 5.19098C14.0376 4.96265 14.2356 4.76465 14.6316 4.36863L17.47 1.53026C16.7168 1.18962 15.8806 1 15.0002 1C11.6865 1 9.00023 3.68629 9.00023 7C9.00023 7.49104 9.05921 7.9683 9.17049 8.42509C9.28965 8.91424 9.34923 9.15882 9.33865 9.31333C9.32758 9.47509 9.30346 9.56115 9.22886 9.70511C9.1576 9.84262 9.02108 9.97914 8.74804 10.2522L2.50023 16.5C1.6718 17.3284 1.6718 18.6716 2.50023 19.5C3.32865 20.3284 4.6718 20.3284 5.50023 19.5L11.748 13.2522C12.0211 12.9791 12.1576 12.8426 12.2951 12.7714C12.4391 12.6968 12.5251 12.6727 12.6869 12.6616C12.8414 12.651 13.086 12.7106 13.5751 12.8297C14.0319 12.941 14.5092 13 15.0002 13C18.3139 13 21.0002 10.3137 21.0002 7C21.0002 6.11959 20.8106 5.28347 20.47 4.53026L17.6316 7.36863C17.2356 7.76465 17.0376 7.96265 16.8092 8.03684C16.6084 8.1021 16.3921 8.1021 16.1912 8.03684C15.9629 7.96265 15.7649 7.76465 15.3689 7.36863L14.6316 6.63137Z" stroke="#FF4B00" stroke-width="2" stroke-linecap="round" stroke-linejoin="round"/>
</svg>
