<svg width="170" height="43" viewBox="0 0 170 43" fill="none" xmlns="http://www.w3.org/2000/svg">
<path d="M71.9376 27.0356V15.7769C71.9357 15.5702 71.9744 15.3652 72.0514 15.1736C72.1285 14.9819 72.2425 14.8074 72.3868 14.66C72.5311 14.5125 72.7029 14.3951 72.8925 14.3144C73.082 14.2336 73.2855 14.1912 73.4914 14.1895H81.4807C81.8562 14.1914 82.2157 14.342 82.4812 14.6085C82.7467 14.875 82.8968 15.2359 82.8987 15.6128C82.8968 15.9864 82.7471 16.3439 82.4825 16.6067C82.218 16.8695 81.8603 17.0161 81.4882 17.0143H75.0781V19.9505H80.5702C80.945 19.9525 81.3038 20.1034 81.5681 20.3701C81.8324 20.6368 81.9808 20.9977 81.9808 21.3739C81.9808 21.7454 81.8338 22.1018 81.572 22.3645C81.3103 22.6272 80.9553 22.7748 80.5852 22.7748H75.0758V25.8006H81.5791C81.9512 25.8006 82.3081 25.949 82.5712 26.2131C82.8344 26.4772 82.9822 26.8354 82.9822 27.2089C82.9822 27.5825 82.8344 27.9407 82.5712 28.2048C82.3081 28.4689 81.9512 28.6173 81.5791 28.6173H73.5191C73.3132 28.6193 73.1089 28.5805 72.9179 28.5032C72.7269 28.4258 72.553 28.3114 72.4061 28.1666C72.2593 28.0217 72.1423 27.8492 72.0619 27.6589C71.9815 27.4686 71.9392 27.2643 71.9376 27.0576V27.0356Z" fill="#272018"/>
<path d="M86.5117 15.6614C86.5393 15.2602 86.7175 14.8845 87.0103 14.6101C87.3032 14.3357 87.6889 14.1831 88.0895 14.1831C88.4901 14.1831 88.8758 14.3357 89.1687 14.6101C89.4615 14.8845 89.6397 15.2602 89.6672 15.6614V25.7394H95.5179C95.7084 25.7356 95.8979 25.77 96.075 25.8405C96.2522 25.9111 96.4136 26.0164 96.5497 26.1503C96.6858 26.2842 96.794 26.444 96.8678 26.6204C96.9416 26.7968 96.9796 26.9862 96.9796 27.1775C96.9796 27.3689 96.9416 27.5582 96.8678 27.7346C96.794 27.911 96.6858 28.0709 96.5497 28.2048C96.4136 28.3387 96.2522 28.444 96.075 28.5146C95.8979 28.5851 95.7084 28.6195 95.5179 28.6156H88.0938C87.8879 28.6176 87.6837 28.5788 87.4927 28.5015C87.3018 28.4241 87.1279 28.3098 86.9811 28.1649C86.8342 28.02 86.7173 27.8475 86.637 27.6572C86.5566 27.4669 86.5145 27.2626 86.5129 27.0559C86.5129 27.0484 86.5129 27.0409 86.5129 27.0334L86.5117 15.6614Z" fill="#272018"/>
<path d="M100.02 27.0357V15.7769C100.018 15.5703 100.056 15.3653 100.133 15.1736C100.211 14.982 100.325 14.8074 100.469 14.66C100.613 14.5126 100.785 14.3951 100.974 14.3144C101.164 14.2337 101.368 14.1912 101.573 14.1895H109.533C109.91 14.1735 110.279 14.3087 110.557 14.5653C110.835 14.822 111.001 15.179 111.017 15.558C111.017 15.5805 111.017 15.6036 111.017 15.6262C111.016 15.9997 110.867 16.3575 110.602 16.6207C110.338 16.8839 109.981 17.0311 109.609 17.0299H109.532H103.133V19.9512H108.612C108.987 19.9532 109.346 20.104 109.61 20.3707C109.874 20.6374 110.023 20.9983 110.023 21.3745C110.023 21.5585 109.987 21.7407 109.916 21.9107C109.846 22.0807 109.744 22.2352 109.614 22.3653C109.484 22.4954 109.33 22.5985 109.161 22.6689C108.992 22.7393 108.81 22.7755 108.627 22.7754H103.133V25.8012H109.636C110.008 25.8012 110.365 25.9496 110.628 26.2137C110.891 26.4778 111.039 26.8361 111.039 27.2096C111.039 27.5831 110.891 27.9413 110.628 28.2054C110.365 28.4696 110.008 28.6179 109.636 28.6179H101.601C101.395 28.6199 101.191 28.5811 101 28.5038C100.809 28.4264 100.635 28.3121 100.488 28.1672C100.341 28.0223 100.224 27.8498 100.144 27.6595C100.063 27.4693 100.021 27.2649 100.02 27.0582V27.0357Z" fill="#272018"/>
<path d="M118.44 27.5872L113.785 16.4087C113.674 16.1752 113.611 15.9218 113.6 15.6635C113.598 15.2507 113.76 14.854 114.049 14.5606C114.338 14.2671 114.732 14.1008 115.143 14.098H115.181C115.531 14.0882 115.875 14.1906 116.164 14.3903C116.452 14.5901 116.669 14.8768 116.784 15.2089L120.371 24.5319L124.001 15.1043C124.125 14.8102 124.331 14.5586 124.595 14.3799C124.859 14.2013 125.168 14.1033 125.486 14.098C125.88 14.0784 126.265 14.2163 126.557 14.4815C126.849 14.7467 127.024 15.1174 127.044 15.5122C127.044 15.5376 127.044 15.5636 127.044 15.589C127.035 15.8308 126.979 16.0687 126.88 16.2891L122.181 27.5722C122.053 27.9444 121.811 28.2666 121.49 28.4927C121.168 28.7188 120.784 28.8374 120.392 28.8315H120.192C119.808 28.8295 119.434 28.709 119.12 28.4864C118.807 28.2638 118.57 27.9499 118.44 27.5872Z" fill="#272018"/>
<path d="M128.09 26.5793L133.102 15.2293C133.245 14.8567 133.498 14.537 133.827 14.3132C134.156 14.0894 134.546 13.9722 134.944 13.9775H135.13C135.525 13.9721 135.913 14.0894 136.24 14.3135C136.567 14.5375 136.817 14.8573 136.956 15.2293L141.96 26.5793C142.074 26.8068 142.128 27.0599 142.117 27.3144C142.107 27.5689 142.031 27.8164 141.898 28.0332C141.764 28.25 141.578 28.4289 141.356 28.5528C141.134 28.6767 140.885 28.7415 140.631 28.741C140.295 28.7402 139.967 28.634 139.694 28.4372C139.421 28.2403 139.217 27.9628 139.109 27.6434L138.143 25.4078H131.802L130.801 27.7762C130.686 28.0756 130.481 28.3321 130.216 28.5107C129.95 28.6893 129.636 28.7814 129.317 28.7745C128.923 28.7745 128.545 28.6174 128.267 28.3379C127.988 28.0584 127.832 27.6793 127.832 27.2841C127.867 27.0334 127.955 26.7931 128.09 26.5793ZM137 22.5853L135.01 17.8305L133.02 22.5853H137Z" fill="#272018"/>
<path d="M147.239 17.1317H144.203C143.863 17.0671 143.556 16.8855 143.336 16.6181C143.115 16.3508 142.994 16.0145 142.994 15.6673C142.994 15.3201 143.115 14.9838 143.336 14.7164C143.556 14.4491 143.863 14.2674 144.203 14.2029H153.432C153.772 14.2674 154.078 14.4491 154.299 14.7164C154.52 14.9838 154.64 15.3201 154.64 15.6673C154.64 16.0145 154.52 16.3508 154.299 16.6181C154.078 16.8855 153.772 17.0671 153.432 17.1317H150.365V27.1571C150.391 27.5755 150.251 27.9871 149.976 28.3022C149.7 28.6172 149.312 28.8101 148.895 28.8388C148.478 28.8675 148.067 28.7296 147.752 28.4552C147.436 28.1809 147.241 27.7923 147.21 27.3743C147.205 27.302 147.205 27.2294 147.21 27.1571L147.239 17.1317Z" fill="#272018"/>
<path d="M157.982 27.0356V15.7769C157.981 15.5702 158.019 15.3651 158.096 15.1735C158.173 14.9818 158.287 14.8072 158.432 14.6598C158.576 14.5124 158.748 14.3949 158.937 14.3142C159.127 14.2335 159.33 14.1911 159.536 14.1895H167.525C167.901 14.1954 168.259 14.3498 168.521 14.6191C168.784 14.8884 168.931 15.2509 168.929 15.6278C168.927 16.0014 168.777 16.3589 168.512 16.6217C168.248 16.8845 167.89 17.0311 167.518 17.0293H161.108V19.9505H166.588C166.962 19.9525 167.321 20.1034 167.585 20.3701C167.85 20.6368 167.998 20.9977 167.998 21.3739C167.998 21.7454 167.851 22.1018 167.589 22.3645C167.328 22.6272 166.973 22.7748 166.602 22.7748H161.108V25.8006H167.611C167.983 25.8006 168.34 25.949 168.603 26.2131C168.867 26.4772 169.014 26.8354 169.014 27.209C169.014 27.5825 168.867 27.9407 168.603 28.2048C168.34 28.4689 167.983 28.6173 167.611 28.6173H159.564C159.358 28.6194 159.154 28.5806 158.963 28.5033C158.772 28.426 158.598 28.3116 158.451 28.1668C158.304 28.0219 158.187 27.8493 158.107 27.659C158.026 27.4687 157.984 27.2643 157.982 27.0576V27.0356Z" fill="#272018"/>
<path d="M17.9805 14.0714C17.9818 13.7464 17.887 13.4284 17.7082 13.1575C17.5293 12.8866 17.2745 12.6751 16.9758 12.5496C16.6772 12.4241 16.3482 12.3903 16.0305 12.4525C15.7127 12.5147 15.4205 12.6701 15.1907 12.899C14.9609 13.128 14.804 13.4201 14.7397 13.7386C14.6753 14.0571 14.7066 14.3876 14.8294 14.6882C14.9522 14.9889 15.1611 15.2463 15.4296 15.4278C15.6981 15.6093 16.0143 15.7067 16.338 15.7079H16.3685C16.8014 15.7077 17.2166 15.5355 17.5233 15.2287C17.8299 14.922 18.003 14.5059 18.0047 14.0714" fill="#272018"/>
<path d="M21.0929 17.1859C21.0913 16.7524 20.9184 16.3372 20.6121 16.0315C20.3059 15.7259 19.8913 15.5546 19.4594 15.5554C19.0275 15.5562 18.6136 15.729 18.3085 16.0358C18.0034 16.3426 17.832 16.7584 17.832 17.192C17.832 17.6255 18.0034 18.0413 18.3085 18.3481C18.6136 18.6549 19.0275 18.8277 19.4594 18.8285C19.8913 18.8293 20.3059 18.6581 20.6121 18.3524C20.9184 18.0467 21.0913 17.6315 21.0929 17.198V17.1859Z" fill="#272018"/>
<path d="M24.1934 20.3062C24.1909 19.8739 24.0178 19.4602 23.712 19.1558C23.4061 18.8514 22.9925 18.6812 22.5618 18.6824C22.1311 18.6836 21.7185 18.8562 21.4144 19.1623C21.1102 19.4684 20.9395 19.8831 20.9395 20.3154C20.9395 20.7478 21.1102 21.1624 21.4144 21.4686C21.7185 21.7747 22.1311 21.9473 22.5618 21.9485C22.9925 21.9497 23.4061 21.7795 23.712 21.4751C24.0178 21.1707 24.1909 20.757 24.1934 20.3247V20.3062Z" fill="#272018"/>
<path d="M27.2794 23.4268C27.2806 23.1019 27.1858 22.7838 27.007 22.513C26.8282 22.2421 26.5733 22.0305 26.2747 21.905C25.9761 21.7795 25.6471 21.7458 25.3293 21.808C25.0115 21.8702 24.7193 22.0256 24.4895 22.2545C24.2598 22.4834 24.1028 22.7756 24.0385 23.0941C23.9742 23.4126 24.0054 23.743 24.1282 24.0437C24.251 24.3444 24.4599 24.6017 24.7284 24.7832C24.997 24.9647 25.3131 25.0622 25.6368 25.0634H25.6489C25.863 25.0634 26.0751 25.021 26.2729 24.9388C26.4707 24.8565 26.6504 24.736 26.8018 24.584C26.9532 24.4321 27.0733 24.2517 27.1552 24.0531C27.2372 23.8545 27.2794 23.6417 27.2794 23.4268Z" fill="#272018"/>
<path d="M30.4054 26.5482C30.4055 26.2245 30.31 25.9081 30.1309 25.6389C29.9518 25.3697 29.6972 25.1598 29.3993 25.0359C29.1014 24.9119 28.7735 24.8794 28.4572 24.9425C28.1409 25.0056 27.8504 25.1614 27.6223 25.3903C27.3942 25.6191 27.2389 25.9107 27.1759 26.2282C27.1129 26.5457 27.1452 26.8747 27.2686 27.1738C27.392 27.4729 27.6009 27.7285 27.8691 27.9084C28.1372 28.0882 28.4525 28.1842 28.775 28.1842C28.9882 28.185 29.1996 28.1437 29.397 28.0625C29.5943 27.9814 29.7738 27.862 29.9252 27.7112C30.0766 27.5604 30.1969 27.3812 30.2793 27.1837C30.3617 26.9863 30.4045 26.7745 30.4054 26.5604V26.5482Z" fill="#272018"/>
<path d="M21.0714 10.9505C21.0714 10.6268 20.9758 10.3104 20.7966 10.0412C20.6174 9.77209 20.3627 9.56233 20.0648 9.43848C19.7668 9.31464 19.439 9.28226 19.1227 9.34545C18.8064 9.40865 18.5159 9.56457 18.2879 9.7935C18.0599 10.0224 17.9047 10.3141 17.8418 10.6316C17.779 10.9491 17.8113 11.2781 17.9348 11.5772C18.0583 11.8762 18.2674 12.1318 18.5356 12.3115C18.8038 12.4913 19.1191 12.5872 19.4415 12.587C19.6548 12.5878 19.8662 12.5464 20.0635 12.4652C20.2608 12.3839 20.4403 12.2645 20.5916 12.1137C20.743 11.9628 20.8632 11.7835 20.9456 11.586C21.0279 11.3885 21.0706 11.1767 21.0714 10.9626V10.9505Z" fill="#272018"/>
<path d="M24.1884 14.0832C24.1896 13.7584 24.0949 13.4405 23.9161 13.1697C23.7374 12.899 23.4827 12.6875 23.1842 12.562C22.8857 12.4366 22.5568 12.4028 22.2392 12.4649C21.9216 12.527 21.6294 12.6823 21.3997 12.9111C21.17 13.1399 21.0131 13.4319 20.9487 13.7503C20.8843 14.0686 20.9155 14.3989 21.0381 14.6995C21.1608 15.0001 21.3695 15.2574 21.6379 15.4389C21.9063 15.6204 22.2222 15.7179 22.5458 15.7192H22.5522C22.9851 15.719 23.4003 15.5467 23.7069 15.24C24.0136 14.9333 24.1867 14.5172 24.1884 14.0826" fill="#272018"/>
<path d="M27.2781 17.198C27.2744 16.8732 27.1749 16.5568 26.9922 16.2888C26.8094 16.0208 26.5515 15.8132 26.2512 15.6923C25.9509 15.5714 25.6216 15.5425 25.305 15.6094C24.9884 15.6763 24.6986 15.836 24.4723 16.0682C24.2461 16.3004 24.0935 16.5947 24.0339 16.9139C23.9743 17.2331 24.0103 17.5629 24.1374 17.8616C24.2645 18.1603 24.4769 18.4144 24.7479 18.5919C25.0189 18.7694 25.3362 18.8623 25.6598 18.8587C25.8747 18.8564 26.087 18.8116 26.2847 18.7269C26.4824 18.6421 26.6614 18.5191 26.8117 18.3649C26.962 18.2107 27.0806 18.0282 27.1606 17.828C27.2406 17.6278 27.2805 17.4137 27.2781 17.198Z" fill="#272018"/>
<path d="M30.3976 20.3182C30.3959 19.8847 30.2231 19.4695 29.9168 19.1639C29.6106 18.8582 29.196 18.6869 28.7641 18.6877C28.3322 18.6886 27.9183 18.8613 27.6132 19.1681C27.3081 19.475 27.1367 19.8908 27.1367 20.3243C27.1367 20.7578 27.3081 21.1736 27.6132 21.4804C27.9183 21.7872 28.3322 21.96 28.7641 21.9608C29.196 21.9616 29.6106 21.7904 29.9168 21.4847C30.2231 21.179 30.3959 20.7639 30.3976 20.3303V20.3182Z" fill="#272018"/>
<path d="M33.503 23.439C33.5027 23.1154 33.4068 22.7992 33.2274 22.5303C33.0481 22.2614 32.7933 22.0519 32.4954 21.9283C32.1974 21.8047 31.8696 21.7725 31.5535 21.8359C31.2373 21.8992 30.947 22.0552 30.7191 22.2841C30.4913 22.5131 30.3362 22.8047 30.2734 23.1221C30.2106 23.4395 30.243 23.7685 30.3665 24.0674C30.4899 24.3663 30.6989 24.6218 30.967 24.8016C31.2351 24.9813 31.5502 25.0773 31.8726 25.0773C32.305 25.0773 32.7197 24.9048 33.0255 24.5979C33.3313 24.291 33.503 23.8748 33.503 23.4407" fill="#272018"/>
<path d="M24.1729 7.85435C24.1713 7.42084 23.9984 7.00568 23.6922 6.7C23.386 6.39431 22.9714 6.22308 22.5395 6.22388C22.1076 6.22468 21.6937 6.39746 21.3886 6.70428C21.0835 7.0111 20.9121 7.4269 20.9121 7.86041C20.9121 8.29392 21.0835 8.70972 21.3886 9.01655C21.6937 9.32337 22.1076 9.49614 22.5395 9.49695C22.9714 9.49775 23.386 9.32651 23.6922 9.02083C23.9984 8.71514 24.1713 8.29999 24.1729 7.86648V7.85435Z" fill="#272018"/>
<path d="M27.2784 10.9505C27.2784 10.6268 27.1828 10.3104 27.0036 10.0413C26.8245 9.77216 26.5699 9.5624 26.2719 9.43854C25.974 9.31467 25.6462 9.28227 25.3299 9.34541C25.0137 9.40856 24.7231 9.56442 24.4951 9.7933C24.2671 10.0222 24.1118 10.3138 24.0489 10.6312C23.986 10.9487 24.0183 11.2777 24.1417 11.5768C24.2651 11.8758 24.4741 12.1314 24.7422 12.3112C25.0103 12.4911 25.3255 12.587 25.648 12.587C26.0804 12.587 26.4951 12.4146 26.8009 12.1077C27.1066 11.8008 27.2784 11.3845 27.2784 10.9505Z" fill="#272018"/>
<path d="M30.3856 14.0953C30.3868 13.7706 30.2919 13.4527 30.1131 13.182C29.9343 12.9113 29.6795 12.6999 29.381 12.5746C29.0825 12.4492 28.7537 12.4155 28.4361 12.4777C28.1185 12.5399 27.8264 12.6952 27.5968 12.924C27.3671 13.1528 27.2102 13.4448 27.1459 13.7632C27.0816 14.0815 27.1128 14.4118 27.2355 14.7123C27.3582 15.0129 27.5669 15.2701 27.8352 15.4516C28.1036 15.6331 28.4195 15.7306 28.7431 15.7319H28.7552C29.1876 15.7319 29.6023 15.5595 29.9081 15.2525C30.2138 14.9456 30.3856 14.5294 30.3856 14.0953Z" fill="#272018"/>
<path d="M33.495 17.2102C33.495 16.8854 33.3991 16.5678 33.2193 16.2978C33.0395 16.0277 32.7839 15.8172 32.485 15.6929C32.186 15.5686 31.857 15.5361 31.5396 15.5994C31.2222 15.6628 30.9307 15.8192 30.7019 16.0489C30.4731 16.2786 30.3172 16.5712 30.2541 16.8898C30.191 17.2084 30.2234 17.5386 30.3472 17.8387C30.471 18.1388 30.6808 18.3953 30.9498 18.5757C31.2189 18.7562 31.5352 18.8525 31.8588 18.8525C32.2928 18.8525 32.7089 18.6795 33.0158 18.3715C33.3226 18.0635 33.495 17.6458 33.495 17.2102Z" fill="#272018"/>
<path d="M36.6024 20.3307C36.6023 20.0059 36.5063 19.6884 36.3264 19.4184C36.1466 19.1484 35.891 18.938 35.592 18.8138C35.293 18.6896 34.9641 18.6572 34.6467 18.7206C34.3294 18.784 34.0379 18.9405 33.8091 19.1702C33.5803 19.3999 33.4246 19.6925 33.3615 20.0111C33.2984 20.3297 33.3308 20.6598 33.4547 20.9599C33.5785 21.26 33.7882 21.5164 34.0573 21.6969C34.3264 21.8773 34.6427 21.9736 34.9663 21.9736H34.972C35.4044 21.9736 35.8191 21.8012 36.1249 21.4943C36.4307 21.1873 36.6024 20.7711 36.6024 20.3371V20.3307Z" fill="#272018"/>
<path d="M27.2794 4.74323C27.2806 4.41827 27.1858 4.10025 27.007 3.82937C26.8282 3.55849 26.5733 3.34693 26.2747 3.22144C25.9761 3.09595 25.6471 3.06217 25.3293 3.12438C25.0115 3.18658 24.7193 3.34198 24.4895 3.5709C24.2598 3.79983 24.1028 4.09201 24.0385 4.41049C23.9742 4.72897 24.0054 5.05944 24.1282 5.36011C24.251 5.66078 24.4599 5.91814 24.7284 6.09963C24.997 6.28113 25.3131 6.37862 25.6368 6.37976H25.6489C26.0794 6.38145 26.4929 6.21156 26.7986 5.90741C27.1043 5.60325 27.2772 5.18972 27.2794 4.75767V4.74323Z" fill="#272018"/>
<path d="M30.3739 7.86634C30.375 7.54155 30.2802 7.22371 30.1014 6.95302C29.9226 6.68232 29.6678 6.47092 29.3693 6.34555C29.0708 6.22018 28.742 6.18646 28.4244 6.24866C28.1068 6.31086 27.8147 6.46619 27.5851 6.695C27.3554 6.92382 27.1985 7.21584 27.1342 7.53416C27.0699 7.85247 27.1011 8.18278 27.2238 8.48331C27.3464 8.78385 27.5552 9.04113 27.8235 9.2226C28.0919 9.40408 28.4078 9.50162 28.7314 9.50287H28.7435C29.1742 9.50426 29.5879 9.33395 29.8936 9.02936C30.1993 8.72477 30.3721 8.31083 30.3739 7.87847V7.86634Z" fill="#272018"/>
<path d="M33.4833 10.9869C33.4844 10.6621 33.3896 10.3443 33.2107 10.0736C33.0319 9.80285 32.7771 9.59146 32.4786 9.4661C32.18 9.34074 31.8512 9.30706 31.5336 9.36931C31.216 9.43156 30.9239 9.58694 30.6942 9.81581C30.4646 10.0447 30.3078 10.3368 30.2435 10.6551C30.1793 10.9735 30.2105 11.3038 30.3333 11.6043C30.4561 11.9048 30.6649 12.1621 30.9333 12.3435C31.2018 12.5249 31.5177 12.6223 31.8413 12.6235H31.8471C32.2801 12.6235 32.6953 12.4512 33.002 12.1445C33.3087 11.8378 33.4818 11.4215 33.4833 10.9869Z" fill="#272018"/>
<path d="M36.587 14.1075C36.587 13.7838 36.4914 13.4674 36.3122 13.1983C36.1331 12.9291 35.8785 12.7194 35.5805 12.5955C35.2826 12.4717 34.9548 12.4392 34.6385 12.5024C34.3222 12.5655 34.0317 12.7214 33.8037 12.9503C33.5757 13.1792 33.4204 13.4708 33.3575 13.7882C33.2946 14.1057 33.3269 14.4347 33.4503 14.7338C33.5737 15.0328 33.7827 15.2884 34.0508 15.4682C34.3189 15.648 34.6341 15.744 34.9566 15.744C35.389 15.744 35.8037 15.5716 36.1095 15.2647C36.4152 14.9578 36.587 14.5415 36.587 14.1075Z" fill="#272018"/>
<path d="M39.6962 17.2211C39.6973 16.8963 39.6025 16.5784 39.4236 16.3077C39.2448 16.037 38.99 15.8256 38.6915 15.7002C38.3929 15.5749 38.0641 15.5412 37.7464 15.6034C37.4288 15.6657 37.1368 15.8211 36.9071 16.0499C36.6775 16.2788 36.5206 16.5709 36.4564 16.8892C36.3922 17.2076 36.4234 17.5379 36.5462 17.8385C36.669 18.139 36.8778 18.3962 37.1462 18.5776C37.4146 18.759 37.7306 18.8565 38.0542 18.8576H38.0663C38.4993 18.8559 38.9139 18.6821 39.2194 18.3741C39.5249 18.0662 39.6963 17.6493 39.6962 17.2147" fill="#272018"/>
<path d="M30.3635 1.63682C30.3626 1.20214 30.1899 0.78558 29.8832 0.478662C29.5766 0.171743 29.1611 -0.000420283 28.728 7.705e-07C28.2949 0.000421824 27.8798 0.173393 27.5737 0.480907C27.2676 0.788421 27.0957 1.20532 27.0957 1.64C27.0957 2.07468 27.2676 2.49158 27.5737 2.7991C27.8798 3.10661 28.2949 3.27958 28.728 3.28C29.1611 3.28042 29.5766 3.10826 29.8832 2.80134C30.1899 2.49442 30.3626 2.07786 30.3635 1.64318V1.63682Z" fill="#272018"/>
<path d="M33.4718 4.75791C33.4702 4.3244 33.2973 3.90924 32.991 3.60356C32.6848 3.29787 32.2702 3.12664 31.8383 3.12744C31.4064 3.12825 30.9925 3.30102 30.6874 3.60784C30.3823 3.91467 30.2109 4.33047 30.2109 4.76398C30.2109 5.19749 30.3823 5.61329 30.6874 5.92011C30.9925 6.22693 31.4064 6.39971 31.8383 6.40051C32.2702 6.40131 32.6848 6.23008 32.991 5.92439C33.2973 5.61871 33.4702 5.20355 33.4718 4.77004V4.75791Z" fill="#272018"/>
<path d="M36.5821 7.90851C36.5833 7.58356 36.4886 7.26553 36.3097 6.99465C36.1309 6.72377 35.876 6.51221 35.5774 6.38672C35.2788 6.26123 34.9498 6.22745 34.632 6.28966C34.3143 6.35187 34.022 6.50726 33.7923 6.73619C33.5625 6.96512 33.4055 7.2573 33.3412 7.57578C33.2769 7.89426 33.3081 8.22473 33.4309 8.52539C33.5537 8.82606 33.7626 9.08342 34.0312 9.26492C34.2997 9.44642 34.6158 9.5439 34.9396 9.54505H34.9453C35.1594 9.54588 35.3716 9.50438 35.5698 9.42291C35.7679 9.34144 35.9481 9.22159 36.1001 9.07021C36.2521 8.91884 36.3729 8.73889 36.4556 8.54066C36.5383 8.34242 36.5813 8.12978 36.5821 7.91487V7.90851Z" fill="#272018"/>
<path d="M39.6845 10.9931C39.6845 10.6683 39.5885 10.3508 39.4087 10.0807C39.2289 9.81065 38.9734 9.60015 38.6744 9.47584C38.3755 9.35154 38.0465 9.31902 37.7291 9.38239C37.4117 9.44576 37.1202 9.60217 36.8913 9.83185C36.6625 10.0615 36.5067 10.3542 36.4435 10.6727C36.3804 10.9913 36.4128 11.3215 36.5367 11.6216C36.6605 11.9217 36.8702 12.1782 37.1393 12.3587C37.4083 12.5391 37.7247 12.6355 38.0483 12.6355H38.0546C38.2687 12.6355 38.4807 12.5931 38.6785 12.5109C38.8762 12.4286 39.0559 12.3081 39.2073 12.1561C39.3586 12.0041 39.4787 11.8237 39.5606 11.6252C39.6424 11.4266 39.6845 11.2138 39.6845 10.9989V10.9931Z" fill="#272018"/>
<path d="M42.793 14.1137C42.7932 13.7887 42.6973 13.471 42.5175 13.2008C42.3377 12.9305 42.0821 12.7199 41.783 12.5954C41.484 12.471 41.1549 12.4384 40.8373 12.5017C40.5198 12.565 40.2281 12.7215 39.9991 12.9512C39.7702 13.1809 39.6142 13.4737 39.551 13.7924C39.4878 14.1111 39.5202 14.4414 39.6441 14.7417C39.7679 15.0419 39.9777 15.2985 40.2469 15.4791C40.5161 15.6596 40.8325 15.756 41.1563 15.756H41.1626C41.5955 15.7543 42.0101 15.5806 42.3157 15.2728C42.6212 14.965 42.7929 14.5482 42.793 14.1137Z" fill="#272018"/>
<path d="M44.5128 18.4993C44.7525 18.4993 44.9869 18.428 45.1862 18.2943C45.3855 18.1606 45.5408 17.9706 45.6326 17.7483C45.7243 17.526 45.7483 17.2814 45.7015 17.0454C45.6548 16.8094 45.5393 16.5926 45.3698 16.4225C45.2003 16.2523 44.9844 16.1365 44.7493 16.0895C44.5142 16.0426 44.2705 16.0667 44.049 16.1588C43.8275 16.2508 43.6382 16.4068 43.505 16.6068C43.3719 16.8069 43.3008 17.0421 43.3008 17.2827C43.3008 17.6054 43.4285 17.9148 43.6558 18.143C43.8831 18.3711 44.1914 18.4993 44.5128 18.4993Z" fill="#272018"/>
<path d="M41.4054 21.6143C41.6451 21.6143 41.8795 21.5429 42.0788 21.4092C42.2781 21.2755 42.4335 21.0855 42.5252 20.8632C42.6169 20.6408 42.6409 20.3962 42.5941 20.1602C42.5473 19.9242 42.4318 19.7074 42.2622 19.5373C42.0926 19.3672 41.8766 19.2513 41.6415 19.2045C41.4063 19.1576 41.1626 19.1818 40.9412 19.2739C40.7197 19.3661 40.5305 19.5221 40.3973 19.7223C40.2642 19.9224 40.1932 20.1577 40.1934 20.3983C40.1934 20.721 40.3211 21.0304 40.5484 21.2585C40.7757 21.4867 41.0839 21.6149 41.4054 21.6149" fill="#272018"/>
<path d="M38.3019 24.7347C38.5416 24.7347 38.7759 24.6633 38.9752 24.5297C39.1745 24.396 39.3298 24.206 39.4216 23.9838C39.5133 23.7615 39.5374 23.5169 39.4907 23.281C39.4439 23.045 39.3286 22.8282 39.1591 22.658C38.9897 22.4879 38.7738 22.372 38.5387 22.325C38.3036 22.278 38.0599 22.302 37.8385 22.394C37.617 22.4859 37.4276 22.6418 37.2944 22.8418C37.1611 23.0418 37.09 23.2769 37.0898 23.5175C37.0894 23.6774 37.1204 23.8358 37.1812 23.9836C37.2419 24.1314 37.3312 24.2657 37.4438 24.3788C37.5565 24.4918 37.6903 24.5814 37.8375 24.6424C37.9848 24.7034 38.1426 24.7345 38.3019 24.7341" fill="#272018"/>
<path d="M35.1925 27.8559C35.4323 27.856 35.6667 27.7848 35.8662 27.6512C36.0656 27.5176 36.2211 27.3277 36.313 27.1054C36.405 26.8831 36.4291 26.6384 36.3826 26.4023C36.336 26.1662 36.2207 25.9493 36.0513 25.7789C35.8819 25.6086 35.666 25.4925 35.4309 25.4453C35.1958 25.3981 34.952 25.4219 34.7304 25.5137C34.5087 25.6056 34.3192 25.7613 34.1857 25.9612C34.0522 26.1612 33.9808 26.3964 33.9805 26.637C33.9805 26.9597 34.1082 27.2691 34.3355 27.4973C34.5628 27.7254 34.871 27.8536 35.1925 27.8536" fill="#272018"/>
<path d="M32.0831 30.9766C32.3228 30.9766 32.5572 30.9052 32.7565 30.7716C32.9558 30.6379 33.1111 30.4479 33.2029 30.2256C33.2946 30.0033 33.3186 29.7587 33.2719 29.5227C33.2251 29.2867 33.1097 29.0699 32.9402 28.8998C32.7706 28.7296 32.5547 28.6138 32.3196 28.5668C32.0845 28.5199 31.8408 28.544 31.6193 28.6361C31.3978 28.7281 31.2085 28.8841 31.0754 29.0841C30.9422 29.2842 30.8711 29.5194 30.8711 29.76C30.8711 30.0827 30.9988 30.3921 31.2261 30.6203C31.4534 30.8484 31.7617 30.9766 32.0831 30.9766Z" fill="#272018"/>
<path d="M47.611 21.6115C47.8509 21.6115 48.0854 21.5401 48.2848 21.4064C48.4842 21.2726 48.6396 21.0825 48.7314 20.86C48.8232 20.6376 48.8471 20.3928 48.8003 20.1567C48.7535 19.9206 48.6379 19.7037 48.4683 19.5335C48.2986 19.3633 48.0825 19.2475 47.8473 19.2006C47.612 19.1537 47.3682 19.1779 47.1466 19.2701C46.925 19.3623 46.7357 19.5184 46.6025 19.7186C46.4693 19.9188 46.3983 20.1542 46.3984 20.395C46.3984 20.5548 46.4298 20.713 46.4908 20.8607C46.5517 21.0083 46.641 21.1424 46.7536 21.2554C46.8662 21.3684 46.9999 21.458 47.147 21.5191C47.2942 21.5802 47.4518 21.6116 47.611 21.6115Z" fill="#272018"/>
<path d="M44.5011 24.7224C44.7408 24.7224 44.9751 24.6511 45.1745 24.5174C45.3738 24.3837 45.5291 24.1937 45.6209 23.9714C45.7126 23.7491 45.7366 23.5045 45.6898 23.2685C45.6431 23.0325 45.5276 22.8158 45.3581 22.6456C45.1886 22.4755 44.9727 22.3596 44.7375 22.3127C44.5024 22.2657 44.2587 22.2898 44.0373 22.3819C43.8158 22.474 43.6265 22.6299 43.4933 22.83C43.3601 23.0301 43.2891 23.2653 43.2891 23.5059C43.2891 23.8285 43.4168 24.138 43.6441 24.3661C43.8714 24.5943 44.1796 24.7224 44.5011 24.7224Z" fill="#272018"/>
<path d="M41.4001 27.844C41.64 27.844 41.8744 27.7726 42.0738 27.6388C42.2733 27.505 42.4287 27.3149 42.5205 27.0925C42.6122 26.87 42.6362 26.6253 42.5894 26.3892C42.5425 26.153 42.427 25.9362 42.2573 25.766C42.0877 25.5958 41.8716 25.4799 41.6363 25.433C41.4011 25.3861 41.1572 25.4103 40.9357 25.5025C40.7141 25.5947 40.5248 25.7508 40.3916 25.951C40.2584 26.1513 40.1874 26.3866 40.1875 26.6274C40.1875 26.7872 40.2189 26.9455 40.2798 27.0931C40.3408 27.2407 40.4301 27.3749 40.5427 27.4878C40.6553 27.6008 40.789 27.6904 40.9361 27.7515C41.0832 27.8126 41.2409 27.844 41.4001 27.844Z" fill="#272018"/>
<path d="M38.2882 30.9644C38.5279 30.9644 38.7622 30.893 38.9616 30.7594C39.1609 30.6257 39.3162 30.4357 39.408 30.2134C39.4997 29.9911 39.5237 29.7465 39.4769 29.5105C39.4302 29.2745 39.3147 29.0577 39.1452 28.8876C38.9757 28.7174 38.7598 28.6016 38.5247 28.5546C38.2895 28.5077 38.0458 28.5318 37.8244 28.6239C37.6029 28.7159 37.4136 28.8719 37.2804 29.0719C37.1473 29.272 37.0762 29.5072 37.0762 29.7478C37.0762 30.0705 37.2039 30.3799 37.4312 30.6081C37.6585 30.8362 37.9667 30.9644 38.2882 30.9644Z" fill="#272018"/>
<path d="M35.1554 34.0669C35.3953 34.067 35.6298 33.9957 35.8293 33.862C36.0288 33.7283 36.1843 33.5382 36.2761 33.3158C36.368 33.0933 36.3921 32.8486 36.3453 32.6124C36.2985 32.3762 36.183 32.1593 36.0134 31.9891C35.8438 31.8188 35.6277 31.7029 35.3924 31.6559C35.1571 31.609 34.9132 31.6331 34.6916 31.7253C34.4701 31.8175 34.2807 31.9736 34.1475 32.1739C34.0143 32.3741 33.9432 32.6095 33.9434 32.8503C33.9434 33.1729 34.0711 33.4824 34.2984 33.7105C34.5257 33.9387 34.8339 34.0669 35.1554 34.0669Z" fill="#272018"/>
<path d="M50.7072 24.4674C50.9697 24.4642 51.2203 24.3568 51.4043 24.1688C51.5882 23.9807 51.6906 23.7273 51.689 23.4637C51.6874 23.2002 51.582 22.948 51.3957 22.7622C51.2095 22.5764 50.9576 22.4722 50.6951 22.4722C50.4325 22.4722 50.1806 22.5764 49.9944 22.7622C49.8082 22.948 49.7028 23.2002 49.7012 23.4637C49.6996 23.7273 49.8019 23.9807 49.9859 24.1688C50.1699 24.3568 50.4205 24.4642 50.683 24.4674" fill="#272018"/>
<path d="M47.6002 27.5881C47.8004 27.6039 48.0005 27.5577 48.1737 27.4558C48.3469 27.3538 48.4848 27.2011 48.5689 27.018C48.6529 26.835 48.679 26.6305 48.6436 26.4321C48.6083 26.2337 48.5132 26.051 48.3712 25.9085C48.2292 25.7661 48.047 25.6708 47.8494 25.6354C47.6517 25.6 47.448 25.6264 47.2657 25.7108C47.0834 25.7953 46.9313 25.9338 46.8298 26.1077C46.7284 26.2816 46.6825 26.4826 46.6984 26.6835C46.7167 26.9174 46.8176 27.137 46.983 27.3028C47.1483 27.4687 47.3672 27.5698 47.6002 27.5881Z" fill="#272018"/>
<path d="M44.4911 30.7029C44.6853 30.7042 44.8755 30.6476 45.0377 30.5403C45.1999 30.4331 45.3267 30.2799 45.4021 30.1003C45.4776 29.9207 45.4983 29.7226 45.4616 29.5312C45.4249 29.3398 45.3324 29.1636 45.196 29.0249C45.0595 28.8862 44.8851 28.7913 44.6948 28.7521C44.5046 28.7129 44.307 28.7312 44.1272 28.8047C43.9473 28.8782 43.7932 29.0036 43.6843 29.1651C43.5755 29.3265 43.5168 29.5167 43.5156 29.7116V29.7174C43.5147 29.9774 43.6165 30.2271 43.7987 30.4118C43.9809 30.5966 44.2287 30.7012 44.4877 30.7029H44.4934" fill="#272018"/>
<path d="M41.3788 33.8231C41.5728 33.8237 41.7628 33.7667 41.9246 33.659C42.0864 33.5514 42.2127 33.3981 42.2877 33.2184C42.3627 33.0387 42.383 32.8408 42.346 32.6495C42.309 32.4583 42.2163 32.2824 42.0797 32.144C41.9431 32.0056 41.7687 31.9109 41.5785 31.872C41.3884 31.833 41.191 31.8515 41.0113 31.9251C40.8316 31.9987 40.6776 32.1241 40.5689 32.2855C40.4602 32.4469 40.4015 32.637 40.4004 32.8318C40.4004 32.8381 40.4004 32.8439 40.4004 32.8503C40.4 32.9795 40.425 33.1075 40.474 33.227C40.523 33.3464 40.595 33.455 40.6859 33.5465C40.7768 33.638 40.8848 33.7106 41.0037 33.7602C41.1226 33.8097 41.25 33.8352 41.3788 33.8352" fill="#272018"/>
<path d="M38.2787 36.9444C38.4729 36.9444 38.6627 36.8866 38.8242 36.7783C38.9856 36.67 39.1115 36.5161 39.1858 36.336C39.2601 36.1559 39.2795 35.9578 39.2417 35.7666C39.2038 35.5755 39.1103 35.3999 38.9729 35.262C38.8356 35.1242 38.6607 35.0304 38.4702 34.9923C38.2798 34.9543 38.0824 34.9738 37.903 35.0484C37.7236 35.123 37.5702 35.2493 37.4623 35.4114C37.3545 35.5734 37.2969 35.764 37.2969 35.9589C37.2985 36.2197 37.4025 36.4694 37.5863 36.6539C37.77 36.8384 38.0188 36.9427 38.2787 36.9444Z" fill="#272018"/>
<path d="M53.806 27.5757C54.0002 27.5757 54.1901 27.5179 54.3515 27.4097C54.513 27.3014 54.6388 27.1475 54.7131 26.9674C54.7874 26.7873 54.8069 26.5891 54.769 26.398C54.7311 26.2068 54.6376 26.0312 54.5003 25.8934C54.363 25.7556 54.188 25.6617 53.9976 25.6237C53.8071 25.5856 53.6097 25.6052 53.4303 25.6798C53.2509 25.7543 53.0976 25.8807 52.9897 26.0427C52.8818 26.2048 52.8242 26.3953 52.8242 26.5902C52.8242 26.8516 52.9277 27.1023 53.1118 27.2871C53.2959 27.4719 53.5456 27.5757 53.806 27.5757Z" fill="#272018"/>
<path d="M50.6957 30.6909C50.9486 30.6709 51.184 30.5534 51.3525 30.363C51.521 30.1726 51.6096 29.9241 51.5996 29.6697C51.5896 29.4152 51.4819 29.1745 51.299 28.998C51.1161 28.8215 50.8723 28.7229 50.6185 28.7229C50.3648 28.7229 50.121 28.8215 49.9381 28.998C49.7552 29.1745 49.6474 29.4152 49.6375 29.6697C49.6275 29.9241 49.7161 30.1726 49.8846 30.363C50.0531 30.5534 50.2885 30.6709 50.5414 30.6909C50.5928 30.6949 50.6443 30.6949 50.6957 30.6909Z" fill="#272018"/>
<path d="M47.5877 33.8111C47.7818 33.8118 47.9718 33.7547 48.1335 33.6471C48.2953 33.5395 48.4217 33.3861 48.4967 33.2065C48.5717 33.0268 48.592 32.8288 48.555 32.6376C48.5179 32.4463 48.4253 32.2704 48.2887 32.132C48.1521 31.9936 47.9777 31.899 47.7875 31.86C47.5974 31.821 47.3999 31.8395 47.2202 31.9131C47.0405 31.9867 46.8866 32.1121 46.7779 32.2735C46.6691 32.4349 46.6105 32.625 46.6094 32.8198C46.6094 32.8302 46.6094 32.84 46.6094 32.8504C46.6103 33.1106 46.7137 33.3599 46.8969 33.5438C47.0802 33.7278 47.3285 33.8315 47.5877 33.8325" fill="#272018"/>
<path d="M44.4857 36.9322C44.6799 36.9322 44.8697 36.8744 45.0312 36.7661C45.1927 36.6578 45.3185 36.5039 45.3928 36.3238C45.4671 36.1437 45.4866 35.9456 45.4487 35.7544C45.4108 35.5633 45.3173 35.3877 45.18 35.2498C45.0427 35.112 44.8677 35.0181 44.6773 34.9801C44.4868 34.9421 44.2894 34.9616 44.11 35.0362C43.9306 35.1108 43.7773 35.2371 43.6694 35.3992C43.5615 35.5612 43.5039 35.7518 43.5039 35.9467C43.5039 36.2081 43.6073 36.4587 43.7915 36.6435C43.9756 36.8284 44.2253 36.9322 44.4857 36.9322Z" fill="#272018"/>
<path d="M41.367 40.0464C41.5611 40.0471 41.7511 39.99 41.9128 39.8824C42.0746 39.7748 42.201 39.6215 42.276 39.4418C42.351 39.2621 42.3713 39.0642 42.3343 38.8729C42.2972 38.6817 42.2046 38.5058 42.068 38.3674C41.9314 38.229 41.757 38.1343 41.5668 38.0953C41.3766 38.0564 41.1792 38.0749 40.9995 38.1485C40.8198 38.2221 40.6659 38.3475 40.5572 38.5089C40.4484 38.6702 40.3898 38.8603 40.3887 39.0552V39.0673C40.3887 39.3277 40.4917 39.5775 40.6752 39.7617C40.8587 39.9459 41.1076 40.0493 41.367 40.0493" fill="#272018"/>
<path d="M56.8971 30.3498C57.0265 30.3496 57.153 30.311 57.2605 30.2388C57.368 30.1665 57.4518 30.0639 57.5013 29.9439C57.5507 29.8239 57.5636 29.6918 57.5383 29.5645C57.5129 29.4371 57.4506 29.3201 57.359 29.2283C57.2675 29.1365 57.1509 29.074 57.024 29.0487C56.8971 29.0234 56.7655 29.0365 56.646 29.0862C56.5265 29.1359 56.4243 29.2201 56.3524 29.3281C56.2806 29.4361 56.2422 29.5631 56.2422 29.6929C56.2422 29.7792 56.2591 29.8647 56.2921 29.9444C56.325 30.0242 56.3732 30.0966 56.434 30.1576C56.4949 30.2186 56.5671 30.2669 56.6465 30.2999C56.726 30.3329 56.8111 30.3498 56.8971 30.3498Z" fill="#272018"/>
<path d="M53.7879 33.4587C53.9581 33.4537 54.1197 33.3822 54.2384 33.2595C54.357 33.1369 54.4234 32.9726 54.4234 32.8016C54.4234 32.6307 54.357 32.4664 54.2384 32.3437C54.1197 32.221 53.9581 32.1496 53.7879 32.1445C53.6176 32.1496 53.456 32.221 53.3374 32.3437C53.2187 32.4664 53.1523 32.6307 53.1523 32.8016C53.1523 32.9726 53.2187 33.1369 53.3374 33.2595C53.456 33.3822 53.6176 33.4537 53.7879 33.4587Z" fill="#272018"/>
<path d="M50.6778 36.5851C50.8072 36.5851 50.9338 36.5466 51.0414 36.4744C51.149 36.4022 51.2329 36.2996 51.2824 36.1795C51.3319 36.0595 51.3448 35.9274 51.3195 35.7999C51.2942 35.6725 51.2319 35.5555 51.1403 35.4637C51.0487 35.3718 50.9321 35.3093 50.8051 35.284C50.6781 35.2588 50.5465 35.2718 50.427 35.3216C50.3074 35.3714 50.2053 35.4557 50.1334 35.5638C50.0616 35.6719 50.0233 35.7989 50.0234 35.9289C50.0236 36.103 50.0926 36.2699 50.2153 36.3929C50.338 36.516 50.5043 36.5851 50.6778 36.5851Z" fill="#272018"/>
<path d="M47.567 39.6998C47.6966 39.6998 47.8232 39.6612 47.931 39.589C48.0387 39.5167 48.1226 39.414 48.1722 39.2938C48.2217 39.1737 48.2347 39.0415 48.2093 38.9139C48.184 38.7864 48.1216 38.6693 48.0299 38.5773C47.9383 38.4854 47.8215 38.4229 47.6945 38.3976C47.5674 38.3723 47.4357 38.3854 47.316 38.4352C47.1963 38.4851 47.0941 38.5694 47.0222 38.6776C46.9503 38.7858 46.912 38.9129 46.9121 39.043V39.0487C46.9136 39.2219 46.9832 39.3875 47.1058 39.5095C47.2283 39.6314 47.3939 39.6998 47.5665 39.6998" fill="#272018"/>
<path d="M44.4651 42.8204C44.6325 42.8042 44.7872 42.724 44.8972 42.5964C45.0072 42.4688 45.0641 42.3036 45.056 42.1351C45.0479 41.9665 44.9756 41.8075 44.8539 41.6911C44.7322 41.5747 44.5705 41.5098 44.4024 41.5098C44.2343 41.5098 44.0726 41.5747 43.9509 41.6911C43.8293 41.8075 43.7569 41.9665 43.7488 42.1351C43.7407 42.3036 43.7976 42.4688 43.9076 42.5964C44.0176 42.724 44.1723 42.8042 44.3397 42.8204C44.3814 42.8244 44.4234 42.8244 44.4651 42.8204Z" fill="#272018"/>
<path d="M13.0362 18.4993C12.7965 18.4993 12.5622 18.428 12.3629 18.2943C12.1636 18.1606 12.0082 17.9706 11.9165 17.7483C11.8247 17.526 11.8007 17.2814 11.8475 17.0454C11.8943 16.8094 12.0097 16.5926 12.1792 16.4225C12.3487 16.2523 12.5647 16.1365 12.7998 16.0895C13.0349 16.0426 13.2786 16.0667 13.5001 16.1588C13.7215 16.2508 13.9108 16.4068 14.044 16.6068C14.1772 16.8069 14.2483 17.0421 14.2483 17.2827C14.2483 17.6054 14.1206 17.9148 13.8933 18.143C13.666 18.3711 13.3577 18.4993 13.0362 18.4993Z" fill="#272018"/>
<path d="M16.1392 21.6143C15.8995 21.6142 15.6652 21.5427 15.4659 21.4089C15.2667 21.2752 15.1114 21.0851 15.0198 20.8628C14.9281 20.6404 14.9043 20.3958 14.9511 20.1598C14.998 19.9238 15.1136 19.7071 15.2831 19.5371C15.4527 19.367 15.6687 19.2512 15.9039 19.2044C16.139 19.1576 16.3827 19.1818 16.6041 19.274C16.8255 19.3662 17.0148 19.5222 17.1478 19.7223C17.2809 19.9224 17.3519 20.1577 17.3518 20.3983C17.3518 20.5581 17.3204 20.7164 17.2595 20.864C17.1985 21.0116 17.1092 21.1458 16.9966 21.2588C16.884 21.3717 16.7503 21.4613 16.6032 21.5224C16.4561 21.5835 16.2984 21.6149 16.1392 21.6149" fill="#272018"/>
<path d="M19.2472 24.7347C19.0075 24.7347 18.7732 24.6633 18.5739 24.5297C18.3746 24.396 18.2192 24.206 18.1275 23.9838C18.0357 23.7615 18.0117 23.5169 18.0584 23.281C18.1051 23.045 18.2205 22.8282 18.3899 22.658C18.5594 22.4879 18.7753 22.372 19.0104 22.325C19.2454 22.278 19.4891 22.302 19.7106 22.394C19.9321 22.4859 20.1214 22.6418 20.2547 22.8418C20.3879 23.0418 20.4591 23.2769 20.4592 23.5175C20.4597 23.6774 20.4286 23.8358 20.3679 23.9836C20.3071 24.1314 20.2179 24.2657 20.1052 24.3788C19.9926 24.4918 19.8588 24.5814 19.7115 24.6424C19.5643 24.7034 19.4065 24.7345 19.2472 24.7341" fill="#272018"/>
<path d="M22.3577 27.8559C22.1179 27.856 21.8835 27.7848 21.684 27.6512C21.4846 27.5176 21.3291 27.3277 21.2372 27.1054C21.1452 26.8831 21.1211 26.6384 21.1676 26.4023C21.2142 26.1662 21.3295 25.9493 21.4989 25.7789C21.6683 25.6086 21.8842 25.4925 22.1193 25.4453C22.3544 25.3981 22.5982 25.4219 22.8198 25.5137C23.0415 25.6056 23.231 25.7613 23.3645 25.9612C23.498 26.1612 23.5694 26.3964 23.5697 26.637C23.5697 26.9597 23.442 27.2691 23.2147 27.4973C22.9874 27.7254 22.6792 27.8536 22.3577 27.8536" fill="#272018"/>
<path d="M25.4581 30.9766C25.2184 30.9766 24.9841 30.9052 24.7848 30.7716C24.5854 30.6379 24.4301 30.4479 24.3384 30.2256C24.2466 30.0033 24.2226 29.7587 24.2694 29.5227C24.3161 29.2867 24.4316 29.0699 24.6011 28.8998C24.7706 28.7296 24.9866 28.6138 25.2217 28.5668C25.4568 28.5199 25.7005 28.544 25.9219 28.6361C26.1434 28.7281 26.3327 28.8841 26.4659 29.0841C26.5991 29.2842 26.6701 29.5194 26.6701 29.76C26.6701 30.0827 26.5424 30.3921 26.3152 30.6203C26.0879 30.8484 25.7796 30.9766 25.4581 30.9766Z" fill="#272018"/>
<path d="M9.93721 21.6115C9.69736 21.6115 9.46289 21.5401 9.26347 21.4064C9.06404 21.2726 8.90862 21.0825 8.81686 20.86C8.7251 20.6376 8.70112 20.3928 8.74795 20.1567C8.79479 19.9206 8.91033 19.7037 9.07998 19.5335C9.24962 19.3633 9.46574 19.2475 9.701 19.2006C9.93626 19.1537 10.1801 19.1779 10.4017 19.2701C10.6232 19.3623 10.8126 19.5184 10.9457 19.7186C11.0789 19.9188 11.1499 20.1542 11.1498 20.395C11.1498 20.5548 11.1184 20.713 11.0575 20.8607C10.9966 21.0083 10.9072 21.1424 10.7946 21.2554C10.682 21.3684 10.5483 21.458 10.4012 21.5191C10.2541 21.5802 10.0964 21.6116 9.93721 21.6115Z" fill="#272018"/>
<path d="M13.048 24.7224C12.8082 24.7224 12.5739 24.6511 12.3746 24.5174C12.1753 24.3837 12.0199 24.1937 11.9282 23.9714C11.8365 23.7491 11.8125 23.5045 11.8592 23.2685C11.906 23.0325 12.0214 22.8158 12.1909 22.6456C12.3604 22.4755 12.5764 22.3596 12.8115 22.3127C13.0466 22.2657 13.2903 22.2898 13.5118 22.3819C13.7333 22.474 13.9225 22.6299 14.0557 22.83C14.1889 23.0301 14.26 23.2653 14.26 23.5059C14.26 23.8285 14.1323 24.138 13.905 24.3661C13.6777 24.5943 13.3694 24.7224 13.048 24.7224Z" fill="#272018"/>
<path d="M16.1501 27.844C15.9102 27.844 15.6758 27.7726 15.4764 27.6388C15.2769 27.505 15.1215 27.3149 15.0297 27.0925C14.938 26.87 14.914 26.6253 14.9608 26.3892C15.0077 26.153 15.1232 25.9362 15.2929 25.766C15.4625 25.5958 15.6786 25.4799 15.9139 25.433C16.1491 25.3861 16.393 25.4103 16.6145 25.5025C16.8361 25.5947 17.0254 25.7508 17.1586 25.951C17.2918 26.1513 17.3628 26.3866 17.3627 26.6274C17.3627 26.7872 17.3313 26.9455 17.2704 27.0931C17.2094 27.2407 17.1201 27.3749 17.0075 27.4878C16.8949 27.6008 16.7612 27.6904 16.6141 27.7515C16.467 27.8126 16.3093 27.844 16.1501 27.844Z" fill="#272018"/>
<path d="M19.2609 30.9644C19.0211 30.9644 18.7868 30.893 18.5875 30.7594C18.3882 30.6257 18.2328 30.4357 18.1411 30.2134C18.0494 29.9911 18.0254 29.7465 18.0721 29.5105C18.1189 29.2745 18.2343 29.0577 18.4038 28.8876C18.5733 28.7174 18.7893 28.6016 19.0244 28.5546C19.2595 28.5077 19.5032 28.5318 19.7247 28.6239C19.9461 28.7159 20.1354 28.8719 20.2686 29.0719C20.4018 29.272 20.4729 29.5072 20.4729 29.7478C20.4729 30.0705 20.3452 30.3799 20.1179 30.6081C19.8906 30.8362 19.5823 30.9644 19.2609 30.9644Z" fill="#272018"/>
<path d="M22.3694 34.0669C22.1295 34.067 21.895 33.9957 21.6955 33.862C21.496 33.7283 21.3405 33.5382 21.2487 33.3158C21.1568 33.0933 21.1328 32.8486 21.1795 32.6124C21.2263 32.3762 21.3418 32.1593 21.5114 31.9891C21.681 31.8188 21.8972 31.7029 22.1324 31.6559C22.3677 31.609 22.6116 31.6331 22.8332 31.7253C23.0548 31.8175 23.2441 31.9736 23.3773 32.1739C23.5105 32.3741 23.5816 32.6095 23.5815 32.8503C23.5815 33.1729 23.4538 33.4824 23.2265 33.7105C22.9992 33.9387 22.6909 34.0669 22.3694 34.0669Z" fill="#272018"/>
<path d="M6.84223 24.4671C6.64816 24.4665 6.45862 24.4082 6.29754 24.2996C6.13646 24.191 6.01107 24.0369 5.9372 23.8567C5.86332 23.6766 5.84429 23.4785 5.8825 23.2876C5.92071 23.0966 6.01444 22.9213 6.15187 22.7837C6.28929 22.6462 6.46424 22.5526 6.65461 22.5148C6.84499 22.477 7.04225 22.4967 7.22149 22.5714C7.40073 22.6461 7.5539 22.7724 7.66166 22.9344C7.76941 23.0964 7.82692 23.2868 7.82692 23.4816C7.82692 23.743 7.72348 23.9936 7.53936 24.1784C7.35523 24.3633 7.1055 24.4671 6.8451 24.4671" fill="#272018"/>
<path d="M9.94938 27.5881C9.74922 27.6039 9.54905 27.5577 9.37585 27.4558C9.20265 27.3538 9.06474 27.2011 8.98073 27.018C8.89671 26.835 8.87061 26.6305 8.90596 26.4321C8.94131 26.2337 9.0364 26.051 9.17842 25.9085C9.32043 25.7661 9.50254 25.6708 9.70021 25.6354C9.89787 25.6 10.1016 25.6264 10.2839 25.7108C10.4662 25.7953 10.6183 25.9338 10.7197 26.1077C10.8212 26.2816 10.8671 26.4826 10.8512 26.6835C10.8329 26.9174 10.7319 27.137 10.5666 27.3028C10.4013 27.4687 10.1824 27.5698 9.94938 27.5881Z" fill="#272018"/>
<path d="M13.0604 30.7029C12.8662 30.7042 12.676 30.6476 12.5138 30.5403C12.3517 30.4331 12.2248 30.2799 12.1494 30.1003C12.0739 29.9207 12.0533 29.7226 12.09 29.5312C12.1267 29.3398 12.2191 29.1636 12.3556 29.0249C12.4921 28.8862 12.6664 28.7913 12.8567 28.7521C13.0469 28.7129 13.2445 28.7312 13.4243 28.8047C13.6042 28.8782 13.7583 29.0036 13.8672 29.1651C13.976 29.3265 14.0347 29.5167 14.0359 29.7116V29.7174C14.0368 29.9774 13.935 30.2271 13.7528 30.4118C13.5706 30.5966 13.3228 30.7012 13.0639 30.7029H13.0581" fill="#272018"/>
<path d="M16.1689 33.8231C15.9748 33.8237 15.7848 33.7667 15.623 33.659C15.4613 33.5514 15.3349 33.3981 15.2599 33.2184C15.1849 33.0387 15.1646 32.8408 15.2016 32.6495C15.2387 32.4583 15.3313 32.2824 15.4679 32.144C15.6045 32.0056 15.7789 31.9109 15.9691 31.872C16.1592 31.833 16.3566 31.8515 16.5364 31.9251C16.7161 31.9987 16.87 32.1241 16.9787 32.2855C17.0874 32.4469 17.1461 32.637 17.1472 32.8318C17.1472 32.8381 17.1472 32.8439 17.1472 32.8503C17.1476 32.9795 17.1226 33.1075 17.0736 33.227C17.0246 33.3464 16.9526 33.455 16.8617 33.5465C16.7708 33.638 16.6628 33.7106 16.5439 33.7602C16.425 33.8097 16.2976 33.8352 16.1689 33.8352" fill="#272018"/>
<path d="M19.2709 36.9444C19.0767 36.9444 18.8869 36.8866 18.7254 36.7783C18.564 36.67 18.4381 36.5161 18.3638 36.336C18.2895 36.1559 18.27 35.9578 18.3079 35.7666C18.3458 35.5755 18.4393 35.3999 18.5766 35.262C18.7139 35.1242 18.8889 35.0304 19.0793 34.9923C19.2698 34.9543 19.4672 34.9738 19.6466 35.0484C19.826 35.123 19.9794 35.2493 20.0872 35.4114C20.1951 35.5734 20.2527 35.764 20.2527 35.9589C20.2527 36.2203 20.1493 36.4709 19.9651 36.6557C19.781 36.8406 19.5313 36.9444 19.2709 36.9444Z" fill="#272018"/>
<path d="M3.74549 27.5757C3.55131 27.5757 3.36148 27.5179 3.20002 27.4097C3.03856 27.3014 2.91272 27.1475 2.83841 26.9674C2.7641 26.7873 2.74465 26.5891 2.78254 26.398C2.82042 26.2068 2.91393 26.0312 3.05124 25.8934C3.18855 25.7556 3.36349 25.6617 3.55395 25.6237C3.7444 25.5856 3.94182 25.6052 4.12122 25.6798C4.30062 25.7543 4.45396 25.8807 4.56185 26.0427C4.66973 26.2048 4.72731 26.3953 4.72731 26.5902C4.72731 26.7197 4.70192 26.8478 4.65258 26.9674C4.60324 27.0869 4.53092 27.1956 4.43975 27.2871C4.34858 27.3786 4.24034 27.4512 4.12122 27.5007C4.0021 27.5503 3.87443 27.5757 3.74549 27.5757Z" fill="#272018"/>
<path d="M6.85197 30.6909C6.59904 30.6709 6.36364 30.5534 6.19513 30.363C6.02661 30.1726 5.93805 29.9241 5.94802 29.6697C5.958 29.4152 6.06572 29.1745 6.24862 28.998C6.43151 28.8215 6.67537 28.7229 6.92909 28.7229C7.1828 28.7229 7.42667 28.8215 7.60956 28.998C7.79245 29.1745 7.90018 29.4152 7.91015 29.6697C7.92012 29.9241 7.83157 30.1726 7.66305 30.363C7.49453 30.5534 7.25914 30.6709 7.00621 30.6909C6.95487 30.6949 6.9033 30.6949 6.85197 30.6909Z" fill="#272018"/>
<path d="M9.96109 33.8111C9.76698 33.8171 9.57548 33.7651 9.41079 33.6619C9.24609 33.5586 9.11562 33.4086 9.03586 33.2309C8.95609 33.0531 8.93063 32.8557 8.96269 32.6634C8.99474 32.4712 9.08288 32.2928 9.21595 32.1508C9.34901 32.0088 9.52104 31.9096 9.71026 31.8658C9.89948 31.822 10.0974 31.8355 10.279 31.9045C10.4606 31.9736 10.6177 32.0952 10.7304 32.2539C10.8432 32.4126 10.9065 32.6013 10.9124 32.7962C10.9124 32.8141 10.9124 32.832 10.9124 32.8505C10.9113 33.1106 10.8079 33.3598 10.6247 33.5437C10.4414 33.7276 10.1932 33.8314 9.93404 33.8325" fill="#272018"/>
<path d="M13.0721 36.9322C12.8779 36.9334 12.6877 36.8768 12.5256 36.7696C12.3634 36.6624 12.2366 36.5093 12.1612 36.3297C12.0857 36.1501 12.065 35.9521 12.1016 35.7607C12.1383 35.5692 12.2307 35.393 12.3671 35.2543C12.5035 35.1156 12.6778 35.0206 12.8681 34.9814C13.0583 34.9421 13.2558 34.9604 13.4357 35.0338C13.6155 35.1072 13.7697 35.2325 13.8786 35.3939C13.9875 35.5552 14.0464 35.7454 14.0476 35.9403V35.9467C14.0476 36.2069 13.945 36.4566 13.7623 36.6413C13.5795 36.8259 13.3314 36.9305 13.0721 36.9322Z" fill="#272018"/>
<path d="M16.1806 40.0464C15.9865 40.0471 15.7966 39.99 15.6348 39.8824C15.473 39.7748 15.3466 39.6215 15.2716 39.4418C15.1966 39.2621 15.1763 39.0642 15.2133 38.8729C15.2504 38.6817 15.343 38.5058 15.4796 38.3674C15.6162 38.229 15.7906 38.1343 15.9808 38.0953C16.171 38.0564 16.3684 38.0749 16.5481 38.1485C16.7278 38.2221 16.8817 38.3475 16.9904 38.5089C17.0992 38.6702 17.1578 38.8603 17.1589 39.0552V39.0673C17.1589 39.3277 17.0559 39.5775 16.8724 39.7617C16.6889 39.9459 16.4401 40.0493 16.1806 40.0493" fill="#272018"/>
<path d="M0.65378 30.3498C0.524386 30.3496 0.397929 30.311 0.290397 30.2388C0.182864 30.1665 0.0990835 30.0639 0.0496451 29.9439C0.000206735 29.8239 -0.0126696 29.6918 0.0126438 29.5645C0.0379572 29.4371 0.100324 29.3201 0.19186 29.2283C0.283396 29.1365 0.399992 29.074 0.526909 29.0487C0.653826 29.0234 0.785366 29.0365 0.9049 29.0862C1.02443 29.1359 1.1266 29.2201 1.19847 29.3281C1.27035 29.4361 1.30871 29.5631 1.30871 29.6929C1.30871 29.7792 1.29177 29.8647 1.25885 29.9444C1.22593 30.0242 1.17768 30.0966 1.11685 30.1576C1.05603 30.2186 0.983825 30.2669 0.904368 30.2999C0.824912 30.3329 0.73976 30.3498 0.65378 30.3498Z" fill="#272018"/>
<path d="M3.76419 33.4588C3.67659 33.4614 3.58935 33.4463 3.50766 33.4145C3.42596 33.3826 3.35147 33.3346 3.28858 33.2734C3.2257 33.2121 3.17571 33.1388 3.14157 33.0577C3.10743 32.9767 3.08984 32.8896 3.08984 32.8017C3.08984 32.7137 3.10743 32.6266 3.14157 32.5456C3.17571 32.4646 3.2257 32.3913 3.28858 32.33C3.35147 32.2687 3.42596 32.2207 3.50766 32.1889C3.58935 32.157 3.67659 32.142 3.76419 32.1446C3.93445 32.1496 4.09605 32.2211 4.21469 32.3438C4.33334 32.4664 4.39971 32.6307 4.39971 32.8017C4.39971 32.9726 4.33334 33.1369 4.21469 33.2596C4.09605 33.3823 3.93445 33.4537 3.76419 33.4588Z" fill="#272018"/>
<path d="M6.87115 36.5851C6.74171 36.5851 6.61517 36.5466 6.50755 36.4744C6.39993 36.4022 6.31606 36.2996 6.26655 36.1795C6.21704 36.0595 6.20412 35.9274 6.22941 35.7999C6.25471 35.6725 6.31709 35.5555 6.40866 35.4637C6.50023 35.3718 6.61688 35.3093 6.74385 35.284C6.87082 35.2588 7.0024 35.2718 7.12196 35.3216C7.24152 35.3714 7.34368 35.4557 7.41551 35.5638C7.48734 35.6719 7.52562 35.7989 7.52551 35.9289C7.52536 36.103 7.45635 36.2699 7.33365 36.3929C7.21095 36.516 7.0446 36.5851 6.87115 36.5851Z" fill="#272018"/>
<path d="M9.98306 39.6998C9.8535 39.6998 9.72685 39.6612 9.61914 39.589C9.51142 39.5167 9.42748 39.414 9.37792 39.2938C9.32837 39.1737 9.31543 39.0415 9.34075 38.9139C9.36607 38.7864 9.4285 38.6693 9.52015 38.5773C9.61181 38.4854 9.72856 38.4229 9.85564 38.3976C9.98272 38.3723 10.1144 38.3854 10.2341 38.4352C10.3537 38.4851 10.456 38.5694 10.5279 38.6776C10.5998 38.7858 10.6381 38.9129 10.638 39.043V39.0487C10.6365 39.2219 10.5669 39.3875 10.4443 39.5095C10.3218 39.6314 10.1562 39.6998 9.98363 39.6998" fill="#272018"/>
<path d="M13.0893 42.8205C12.9599 42.8203 12.8335 42.7817 12.7259 42.7095C12.6184 42.6372 12.5346 42.5346 12.4852 42.4146C12.4358 42.2946 12.4229 42.1625 12.4482 42.0352C12.4735 41.9078 12.5359 41.7908 12.6274 41.699C12.7189 41.6072 12.8355 41.5447 12.9625 41.5194C13.0894 41.4941 13.2209 41.5072 13.3404 41.5569C13.46 41.6066 13.5621 41.6908 13.634 41.7988C13.7059 41.9068 13.7443 42.0338 13.7443 42.1636V42.17C13.7426 42.3432 13.6728 42.5087 13.5502 42.6305C13.4275 42.7524 13.2619 42.8206 13.0893 42.8205Z" fill="#272018"/>
</svg>
