<svg width="20" height="22" viewBox="0 0 20 22" fill="none" xmlns="http://www.w3.org/2000/svg">
<path d="M6.5 18V20.2C6.5 20.48 6.5 20.62 6.4455 20.727C6.39757 20.8211 6.32108 20.8976 6.227 20.9455C6.12004 21 5.98003 21 5.7 21H3.8C3.51997 21 3.37996 21 3.273 20.9455C3.17892 20.8976 3.10243 20.8211 3.0545 20.727C3 20.62 3 20.48 3 20.2V18M17 18V20.2C17 20.48 17 20.62 16.9455 20.727C16.8976 20.8211 16.8211 20.8976 16.727 20.9455C16.62 21 16.48 21 16.2 21H14.3C14.02 21 13.88 21 13.773 20.9455C13.6789 20.8976 13.6024 20.8211 13.5545 20.727C13.5 20.62 13.5 20.48 13.5 20.2V18M1 11H19M1 4.5H19M4.5 14.5H6M14 14.5H15.5M5.8 18H14.2C15.8802 18 16.7202 18 17.362 17.673C17.9265 17.3854 18.3854 16.9265 18.673 16.362C19 15.7202 19 14.8802 19 13.2V5.8C19 4.11984 19 3.27976 18.673 2.63803C18.3854 2.07354 17.9265 1.6146 17.362 1.32698C16.7202 1 15.8802 1 14.2 1H5.8C4.11984 1 3.27976 1 2.63803 1.32698C2.07354 1.6146 1.6146 2.07354 1.32698 2.63803C1 3.27976 1 4.11984 1 5.8V13.2C1 14.8802 1 15.7202 1.32698 16.362C1.6146 16.9265 2.07354 17.3854 2.63803 17.673C3.27976 18 4.11984 18 5.8 18Z" stroke="#FF4B00" stroke-width="2" stroke-linecap="round" stroke-linejoin="round"/>
</svg>
