<svg xmlns="http://www.w3.org/2000/svg" width="24" height="24" viewBox="0 0 24 24" fill="none">
  <path d="M19.1473 14.3915C18.3879 15.6847 17.4225 16.7876 16.3445 17.6148C16.5215 17.2535 16.6695 16.8669 16.7821 16.4517C17.4289 14.0714 16.8948 11.0826 15.3469 8.45201C14.7066 7.36173 13.931 6.38871 13.0622 5.57733C13.429 5.32695 13.8088 5.11143 14.1949 4.9276C15.8135 4.16377 17.3678 4.11939 18.5713 4.80399C19.4755 5.31744 20.1256 6.21439 20.4474 7.39342C21.0041 9.44404 20.5182 12.0588 19.1473 14.3947M13.6157 18.6988C13.1298 18.9745 12.5892 19.1298 12.0099 19.171C11.4307 19.133 10.8869 18.9745 10.4042 18.6988C9.71875 18.3089 9.18136 17.7004 8.82095 16.9176H15.2021C14.8417 17.7036 14.3043 18.3121 13.6189 18.6988M4.86932 14.3915C3.49848 12.0588 3.01257 9.44087 3.56927 7.39025C3.89107 6.20805 4.53787 5.31427 5.44533 4.80082C6.01169 4.48071 6.65527 4.31907 7.34713 4.31907C8.12587 4.31907 8.96575 4.52191 9.82173 4.92443C10.2079 5.10509 10.5876 5.32378 10.9544 5.57416C10.0888 6.38554 9.31007 7.35856 8.6697 8.44884C7.12509 11.0795 6.5877 14.0682 7.2345 16.4485C7.34713 16.8637 7.49516 17.2535 7.67214 17.6117C6.59413 16.7876 5.62875 15.6847 4.86932 14.3884M8.61822 11.9796C8.72441 11.5707 8.85956 11.1619 9.02046 10.753H14.993C15.1539 11.1587 15.289 11.5707 15.3952 11.9796H8.615H8.61822ZM15.6848 15.0159H8.33182C8.29642 14.6229 8.28999 14.2204 8.31573 13.8052H15.7009C15.7266 14.2204 15.7202 14.6229 15.6848 15.0159ZM12.0067 6.40139C12.7661 7.08915 13.4548 7.91954 14.034 8.85453H9.97619C10.5554 7.91954 11.2441 7.08915 12.0035 6.40139M21.7378 7.05112C21.3226 5.52345 20.457 4.35393 19.2374 3.65983C17.6413 2.75337 15.6462 2.78189 13.6157 3.73906C13.0622 3.99896 12.5216 4.32224 12.0035 4.6994C11.4854 4.32224 10.948 3.99896 10.3913 3.73906C8.364 2.78506 6.36566 2.75654 4.76956 3.65983C3.54996 4.35076 2.68756 5.52345 2.26922 7.05112C1.62242 9.43137 2.1566 12.4201 3.70442 15.0508C4.95298 17.1743 6.70998 18.8446 8.65361 19.7606C9.69623 20.2518 10.7324 20.499 11.7074 20.499C11.8072 20.499 11.9037 20.499 12.0003 20.4927C13.059 20.5466 14.1981 20.3025 15.3469 19.7637C17.2906 18.8478 19.0476 17.1743 20.2961 15.0539C21.8407 12.4233 22.3781 9.43453 21.7313 7.05429" fill="#FFFF00"/>
</svg>