<svg xmlns="http://www.w3.org/2000/svg" width="20" height="20" viewBox="0 0 20 20" fill="none">
  <path d="M17.1473 12.3915C16.3879 13.6847 15.4225 14.7876 14.3445 15.6148C14.5215 15.2535 14.6695 14.8669 14.7821 14.4517C15.4289 12.0714 14.8948 9.08264 13.3469 6.45201C12.7066 5.36172 11.931 4.38871 11.0622 3.57733C11.429 3.32695 11.8088 3.11143 12.1949 2.9276C13.8135 2.16377 15.3678 2.11939 16.5713 2.80399C17.4755 3.31744 18.1256 4.21439 18.4474 5.39342C19.0041 7.44404 18.5182 10.0588 17.1473 12.3947M11.6157 16.6988C11.1298 16.9745 10.5892 17.1298 10.0099 17.171C9.43069 17.133 8.88686 16.9745 8.40417 16.6988C7.71875 16.3089 7.18136 15.7004 6.82095 14.9176H13.2021C12.8417 15.7036 12.3043 16.3121 11.6189 16.6988M2.86932 12.3915C1.49848 10.0588 1.01257 7.44087 1.56927 5.39025C1.89107 4.20805 2.53787 3.31427 3.44533 2.80082C4.01169 2.48071 4.65527 2.31907 5.34713 2.31907C6.12587 2.31907 6.96575 2.52191 7.82173 2.92443C8.20788 3.10509 8.58759 3.32378 8.95444 3.57416C8.08881 4.38554 7.31007 5.35856 6.6697 6.44884C5.12509 9.07947 4.5877 12.0682 5.2345 14.4485C5.34713 14.8637 5.49516 15.2535 5.67214 15.6117C4.59413 14.7876 3.62875 13.6847 2.86932 12.3884M6.61822 9.97959C6.72441 9.57073 6.85956 9.16188 7.02046 8.75302H12.993C13.1539 9.15871 13.289 9.57073 13.3952 9.97959H6.615H6.61822ZM13.6848 13.0159H6.33182C6.29642 12.6229 6.28999 12.2204 6.31573 11.8052H13.7009C13.7266 12.2204 13.7202 12.6229 13.6848 13.0159ZM10.0067 4.40139C10.7661 5.08915 11.4548 5.91955 12.034 6.85453H7.97619C8.55542 5.91955 9.24405 5.08915 10.0035 4.40139M19.7378 5.05112C19.3226 3.52345 18.457 2.35393 17.2374 1.65983C15.6413 0.753368 13.6462 0.781893 11.6157 1.73906C11.0622 1.99896 10.5216 2.32224 10.0035 2.6994C9.4854 2.32224 8.948 1.99896 8.3913 1.73906C6.364 0.785063 4.36566 0.756538 2.76956 1.65983C1.54996 2.35076 0.687556 3.52345 0.269224 5.05112C-0.377582 7.43137 0.156596 10.4201 1.70442 13.0508C2.95298 15.1743 4.70998 16.8446 6.65361 17.7605C7.69623 18.2518 8.7324 18.499 9.70744 18.499C9.80719 18.499 9.90373 18.499 10.0003 18.4927C11.059 18.5466 12.1981 18.3025 13.3469 17.7637C15.2906 16.8478 17.0476 15.1743 18.2961 13.0539C19.8407 10.4233 20.3781 7.43454 19.7313 5.05429" fill="black"/>
</svg>