<svg xmlns="http://www.w3.org/2000/svg" width="143" height="118" viewBox="0 0 143 118" fill="none">
  <g clip-path="url(#clip0_1_18477)">
    <path d="M93.38 36.0698C91.02 40.1498 88.02 43.6298 84.67 46.2398C85.22 45.0998 85.68 43.8798 86.03 42.5698C88.04 35.0598 86.38 25.6298 81.57 17.3298C79.58 13.8898 77.17 10.8198 74.47 8.25977C75.61 7.46977 76.79 6.78977 77.99 6.20977C83.02 3.79977 87.85 3.65977 91.59 5.81977C94.4 7.43977 96.42 10.2698 97.42 13.9898C99.15 20.4598 97.64 28.7098 93.38 36.0798M76.19 49.6598C74.68 50.5298 73 51.0198 71.2 51.1498C69.4 51.0298 67.71 50.5298 66.21 49.6598C64.08 48.4298 62.41 46.5098 61.29 44.0398H81.12C80 46.5198 78.33 48.4398 76.2 49.6598M49.01 36.0698C44.75 28.7098 43.24 20.4498 44.97 13.9798C45.97 10.2498 47.98 7.42977 50.8 5.80977C52.56 4.79977 54.56 4.28977 56.71 4.28977C59.13 4.28977 61.74 4.92977 64.4 6.19977C65.6 6.76977 66.78 7.45977 67.92 8.24977C65.23 10.8098 62.81 13.8798 60.82 17.3198C56.02 25.6198 54.35 35.0498 56.36 42.5598C56.71 43.8698 57.17 45.0998 57.72 46.2298C54.37 43.6298 51.37 40.1498 49.01 36.0598M60.66 28.4598C60.99 27.1698 61.41 25.8798 61.91 24.5898H80.47C80.97 25.8698 81.39 27.1698 81.72 28.4598H60.65H60.66ZM82.62 38.0398H59.77C59.66 36.7998 59.64 35.5298 59.72 34.2198H82.67C82.75 35.5298 82.73 36.7998 82.62 38.0398ZM71.19 10.8598C73.55 13.0298 75.69 15.6498 77.49 18.5998H64.88C66.68 15.6498 68.82 13.0298 71.18 10.8598M101.43 12.9098C100.14 8.08977 97.45 4.39977 93.66 2.20977C88.7 -0.650227 82.5 -0.560227 76.19 2.45977C74.47 3.27977 72.79 4.29977 71.18 5.48977C69.57 4.29977 67.9 3.27977 66.17 2.45977C59.87 -0.550227 53.66 -0.640227 48.7 2.20977C44.91 4.38977 42.23 8.08977 40.93 12.9098C38.92 20.4198 40.58 29.8498 45.39 38.1498C49.27 44.8498 54.73 50.1198 60.77 53.0098C64.01 54.5598 67.23 55.3398 70.26 55.3398C70.57 55.3398 70.87 55.3398 71.17 55.3198C74.46 55.4898 78 54.7198 81.57 53.0198C87.61 50.1298 93.07 44.8498 96.95 38.1598C101.75 29.8598 103.42 20.4298 101.41 12.9198" fill="black"/>
    <path d="M134.81 83.22C134.88 83.13 135.02 83.14 135.07 83.24C136.74 86.44 131.86 92.11 128.93 91.52C128.9 91.52 128.88 91.5 128.86 91.48C128.77 91.4 128.67 91.32 128.58 91.24C130.66 88.56 132.74 85.89 134.82 83.22M141.64 91.81C139.66 93.85 137.58 95.8 135.52 97.76C133.11 100.04 130.61 102.22 127.55 103.57C126.29 104.13 124.99 104.57 123.51 104.34C123.43 104.33 123.37 104.25 123.37 104.17C123.42 100.38 125.14 97.37 126.84 94.28C126.89 94.19 127.01 94.17 127.08 94.24C129.83 96.71 131.25 96.89 133.72 94.93C136.15 93.01 137.92 90.49 139.16 87.61C140.76 83.88 138.26 80.7 135.3 79.11C134.87 78.88 134.19 78.88 133.73 79.05C132.8 79.41 131.79 79.79 131.08 80.46C126.16 85.08 122.23 90.46 119.88 96.9C119.39 98.23 119.05 99.79 119.23 101.16C120 106.96 125.4 109.99 130.68 107.72C133.51 106.5 135.91 103.78 137.95 101.46C140.64 98.39 141.31 95.22 142.36 92.27C142.52 91.82 141.97 91.47 141.64 91.81Z" fill="black"/>
    <path d="M99.54 84.2001C99.54 84.2001 99.54 84.2001 99.54 84.2101C99.53 84.2901 99.52 84.3601 99.51 84.4401C98.91 89.5101 91.07 99.6301 82.87 103.14C81.56 103.7 80.23 104.16 78.69 103.89L78.62 103.74L78.67 103.78C78.67 101.29 79.21 95.0001 86.91 86.2501C87.82 85.2101 88.91 84.4201 90.01 83.6001C90.13 83.5301 90.24 83.4601 90.36 83.4001C90.38 83.5301 90.39 83.6601 90.4 83.7801C90.44 84.2901 90.72 84.6801 91.12 84.9501C90.89 85.4301 89.74 86.5601 89.51 88.2801C89.37 89.3001 89.84 90.5301 90.59 91.1801C91.14 91.6601 92.21 92.0801 92.45 91.0301C92.49 90.8401 93.64 88.8001 93.7 88.6101C93.73 88.5201 93.77 88.4301 93.8 88.3401C93.8 88.3401 93.8 88.3301 93.8 88.3201C93.8 88.3201 93.8 88.3201 93.8 88.3101C94 87.9101 94.21 87.5101 94.46 87.1401C94.96 86.3901 95.54 85.7001 96.19 85.0801C97 84.3401 97.93 83.6801 98.96 83.3301C99.15 83.2801 99.35 83.2501 99.55 83.2401C99.55 83.3801 99.55 83.5201 99.55 83.6601C99.55 83.8401 99.53 84.0201 99.52 84.2001M99.21 79.2701C98.12 78.9101 96.92 79.2701 95.95 79.8001C95.57 80.0101 95.2 80.2501 94.84 80.5101C94.1 79.7001 92.95 79.3001 91.9 79.2101C89.47 79.0101 87.13 80.0501 85.29 81.5801C75.98 89.3101 74.37 99.3601 74.55 100.73C75.32 106.53 80.72 109.56 86 107.29C88.83 106.07 97.62 99.5901 102.06 88.8301C102.73 87.2101 102.82 85.2801 102.43 83.5401C102.03 81.7701 101 79.8701 99.21 79.2701Z" fill="black"/>
    <path d="M40.61 83.1998C42.62 86.3698 37.54 92.3398 34.55 91.6798C34.44 91.5898 34.34 91.4998 34.23 91.4098C36.36 88.6698 38.48 85.9398 40.61 83.1998ZM60.67 83.7498C62.68 86.9198 57.6 92.8898 54.61 92.2298C54.5 92.1398 54.4 92.0498 54.29 91.9598C56.42 89.2198 58.54 86.4898 60.67 83.7498ZM85.39 67.1598C86.18 65.2598 85.39 63.4498 83.86 62.1098C83.77 62.0298 83.7 61.9098 83.61 61.8198C82.28 60.2898 81.5 60.4198 80.77 62.3598C80.24 63.7498 79.87 65.2098 79.33 66.5998C76.93 72.8098 71.82 83.3598 69.39 89.5598C69.24 89.9498 69.05 90.3598 68.76 90.6498C66.38 93.0298 64.07 95.4898 61.56 97.7098C59.31 99.6998 56.9 101.51 54.43 103.21C52.95 104.22 51.2 104.76 49.24 104.53C49.12 100.61 51.06 97.5698 52.75 94.2498C53.09 94.5498 53.28 94.7098 53.47 94.8798C55.84 96.9198 57.71 97.0298 59.9 94.7998C61.61 93.0598 63.15 91.0698 64.39 88.9598C66.28 85.7298 65.88 83.6998 63.36 80.9598C61.18 78.5998 59.49 78.4198 57.03 80.5498C55.59 81.7898 54.29 83.2198 53.08 84.6998C51.57 86.5398 50.38 88.6598 48.78 90.4098C46.36 93.0398 43.75 95.4898 41.16 97.9498C38.75 100.23 36.25 102.41 33.19 103.76C31.89 104.33 30.55 104.78 29.01 104.51C29.01 100.59 30.83 97.4898 32.58 94.2998C35.43 96.8998 36.85 97.1198 39.36 95.1298C41.79 93.2098 43.56 90.6898 44.8 87.8098C46.4 84.0798 43.9 80.8998 40.94 79.3098C40.51 79.0798 39.83 79.0798 39.37 79.2498C38.44 79.6098 37.43 79.9898 36.72 80.6498C31.8 85.2698 27.87 90.6498 25.52 97.0898C25.03 98.4198 24.69 99.9798 24.88 101.36C25.65 107.16 31.05 110.19 36.33 107.92C39.16 106.7 41.59 104.87 43.83 102.76C44.21 102.4 44.59 102.04 45 101.66C45.82 105.12 47.89 107.25 50.83 108.47C51.7 108.83 52.82 108.76 53.79 108.64C56.78 108.28 59.22 106.67 61.55 104.86C62.75 103.93 63.88 102.89 65.13 101.81C64.02 105.52 62.32 108.58 61.34 112.16C60.63 114.76 61.7 116.82 64.14 117.83C64.47 117.97 65.73 117.92 66.01 117.72C66.29 117.52 66.59 116.9 66.47 116.68C65.89 115.56 66.42 114.58 66.74 113.6C71.44 99.1398 79.57 81.2298 85.39 67.1898" fill="black"/>
    <path d="M134.31 69.2098C132.58 66.9198 132.11 66.8398 130.24 68.9598C124.94 74.9598 119.67 80.9998 114.51 87.1298C112.26 89.7998 110.3 92.7298 108.21 95.5498C108.11 95.5098 108 95.4698 107.9 95.4198C108.12 91.9298 108.13 88.4098 108.63 84.9598C108.97 82.6098 108.07 81.0798 106.6 79.6598C106.32 79.3898 105.97 79.2198 105.6 79.0498C105.17 78.8598 104.67 79.0298 104.44 79.4498C104.24 79.8098 104.06 80.1698 104.04 80.5498C103.56 88.1998 103.21 95.8598 102.68 103.51C102.5 106.1 103.95 107.49 105.69 108.78C106.51 109.39 107.16 109.22 107.65 108.16C108.13 107.14 108.64 106.13 109.26 105.19C116.78 93.9798 124.96 83.3098 134.1 73.4198C136.42 70.9098 135.97 71.4198 134.3 69.2098" fill="black"/>
    <path d="M21.53 84.3699C21.41 86.7099 20.71 88.9199 19.98 91.1099C18.63 95.1299 16.7 98.8599 14.1 102.21C13.32 103.22 12.4 104.17 11.39 104.94C9.91998 106.06 8.61998 105.52 8.12998 103.73C7.97998 103.18 7.91998 102.6 7.85998 102.28C7.85998 99.6099 8.10998 97.2899 9.59998 95.2199C11.91 92.0299 20.14 82.1399 20.83 82.5099C21.57 82.9099 21.56 83.6599 21.52 84.3899M22.43 79.2399C20.55 78.2199 19.47 78.3299 17.83 79.6799C15.98 81.1999 14.57 83.0999 13.24 85.0599C12.81 85.6899 12.4 86.3299 11.98 86.9699C15.44 77.2399 19.26 67.5399 22.89 58.3399C23.06 57.8999 21.13 53.8099 19.46 53.1799C18.89 52.9599 18.25 53.2499 18.02 53.8399C16.73 57.1599 3.48998 94.3599 0.329976 104.13C-0.430024 106.48 0.139976 108.16 2.02998 109.63C4.15998 111.29 4.44998 111.23 5.05998 108.51C5.09998 108.31 5.17998 108.13 5.22998 107.93C5.41998 107.26 5.61998 106.58 5.80998 105.91C6.53998 107.07 8.05998 108.24 8.98998 108.51C12.26 109.45 15.09 108.89 17.67 106.46C32.94 86.7199 22.98 79.5399 22.43 79.2399Z" fill="black"/>
  </g>
  <defs>
    <clipPath id="clip0_1_18477">
      <rect width="142.39" height="117.74" fill="white" transform="translate(0 0.129883)"/>
    </clipPath>
  </defs>
</svg>