<svg xmlns="http://www.w3.org/2000/svg" width="76" height="76" viewBox="0 0 76 76" fill="none">
  <path fill-rule="evenodd" clip-rule="evenodd" d="M49.2039 45.3314C35.0125 36.0938 29.8409 27.6055 29.4877 21.3385C29.308 18.1508 30.336 15.5052 32.0737 13.5692C33.8082 11.6362 36.246 10.4249 38.8889 10.0934C42.6511 9.62257 46.8329 10.9361 49.9545 14.4955C53.0892 10.9236 57.3025 9.61326 61.0929 10.0966C63.7482 10.4342 66.1986 11.6517 67.9457 13.594C69.6991 15.5425 70.7398 18.1912 70.5663 21.3817C70.2226 27.6518 65.0633 36.1311 50.8845 45.3529C50.361 45.6968 49.6926 45.666 49.2039 45.3314ZM41.5188 65.4953C43.657 65.8825 45.669 65.8671 47.5485 65.4488C49.4754 65.0183 51.2446 64.1726 52.8529 62.9117L52.9097 62.8652L70.9735 49.3927C72.7174 48.3704 73.222 46.6635 72.9161 45.0185C72.8057 44.4206 72.5818 43.8414 72.2728 43.3147C71.9637 42.7912 71.56 42.311 71.0807 41.9144C69.753 40.8178 67.9366 40.3965 66.0696 41.4529L66.0665 41.456L66.0633 41.4529L47.6806 51.896C47.8635 51.5893 48.0086 51.2578 48.1127 50.9047C48.1316 50.852 48.1442 50.7993 48.1568 50.7436C48.4469 49.6036 48.2451 48.445 47.6838 47.4939C47.113 46.5212 46.1637 45.7591 44.9748 45.4463L32.7735 42.2152C32.7514 42.209 32.7262 42.2028 32.7041 42.1997C30.8908 41.7072 29.1437 41.5368 27.4597 41.6979C25.536 41.8775 23.7195 42.4816 22.0071 43.5039L21.963 43.5318L16.9803 46.357L16.4978 45.5361C16.0878 44.8359 15.1764 44.5943 14.4638 44.9971L6.74711 49.3743C6.03438 49.777 5.78841 50.6723 6.19838 51.3755L16.1257 68.2647C16.5357 68.9649 17.4471 69.2096 18.1598 68.8037L25.8764 64.4265C26.5892 64.0238 26.8383 63.1285 26.4252 62.4253L25.9427 61.6013L27.3839 60.7835C30.8245 62.0164 33.3379 62.8993 35.4006 63.5901C37.6554 64.346 39.4245 64.8974 41.2946 65.4457C41.3672 65.4705 41.4432 65.486 41.5188 65.4953ZM24.4453 59.0611L26.4889 57.9026C26.8578 57.695 27.3151 57.6392 27.7471 57.7941C31.4305 59.1169 34.108 60.0587 36.3566 60.8145C38.5199 61.5394 40.2449 62.0784 42.0867 62.6174C43.818 62.9272 45.42 62.9179 46.8928 62.5896C48.3655 62.2612 49.7341 61.6045 50.9925 60.6163C51.0303 60.5884 51.0682 60.5605 51.1092 60.5357L69.2645 46.9984C69.3149 46.9612 69.3654 46.9272 69.419 46.8962L69.4159 46.8931C69.9299 46.6019 70.075 46.0721 69.9772 45.5517C69.9299 45.2946 69.829 45.0344 69.6839 44.7896C69.5388 44.5449 69.3591 44.3281 69.1573 44.1608C68.7284 43.8045 68.145 43.6651 67.5553 43.9966L67.5584 43.9997L48.2587 54.9563C47.9024 55.1608 47.4956 55.201 47.1234 55.105V55.1081L42.7273 53.9433H42.7178C42.6768 53.934 42.6358 53.9247 42.5949 53.9092L36.2593 52.2426C35.4614 52.035 34.9883 51.2265 35.1997 50.4428C35.411 49.659 36.2309 49.1943 37.0319 49.4019L43.4305 51.084H43.4337C43.8058 51.18 44.1842 51.1305 44.4996 50.9694L44.5532 50.9384C44.8812 50.7525 45.1366 50.4459 45.2439 50.0617V50.0586C45.3479 49.6714 45.2849 49.281 45.0956 48.9588C44.9064 48.6336 44.5911 48.3826 44.2001 48.2804L32.7522 45.2507C32.6608 45.2414 32.5693 45.2197 32.4779 45.1918C32.358 45.1546 32.2382 45.1175 32.1184 45.0834L31.9985 45.0524C31.9638 45.0431 31.9323 45.0338 31.8976 45.0214C30.4407 44.6249 29.0531 44.4855 27.738 44.6125C26.3883 44.7395 25.0985 45.1454 23.8654 45.83L23.6857 45.9322L23.5627 46.0035C23.5248 46.0252 23.4902 46.0468 23.4523 46.0654L18.4728 48.8907L24.4453 59.0611ZM15.1517 49.1044L23.0958 62.6173L17.9617 65.5292L9.5259 51.1764L14.6599 48.2645L15.133 49.0699L15.1424 49.0854L15.1517 49.1044ZM32.4715 21.1773C32.7742 26.5366 37.4006 33.9467 50.0623 42.3602C62.6834 33.9744 67.2939 26.5858 67.5866 21.2328C67.7159 18.8661 66.9716 16.9299 65.7133 15.5359C64.4487 14.1326 62.6638 13.2527 60.7212 13.0049C57.4383 12.5867 53.7109 13.9808 51.2163 17.7198C51.1059 17.8933 50.9546 18.0451 50.7685 18.1628C50.0778 18.6027 49.1507 18.4107 48.7029 17.7322C46.2178 13.9932 42.5155 12.5929 39.2613 13.0018C37.3376 13.2435 35.5684 14.1171 34.3196 15.5111C33.0771 16.8989 32.339 18.826 32.4715 21.1773Z" fill="white"/>
</svg>