<svg xmlns="http://www.w3.org/2000/svg" width="20" height="20" viewBox="0 0 20 20" fill="none">
  <g clip-path="url(#clip0_2_392)">
    <path d="M9.99996 18.3333C14.6023 18.3333 18.3333 14.6023 18.3333 9.99996C18.3333 5.39759 14.6023 1.66663 9.99996 1.66663C5.39759 1.66663 1.66663 5.39759 1.66663 9.99996C1.66663 14.6023 5.39759 18.3333 9.99996 18.3333Z" stroke="#535862" stroke-width="1.66667" stroke-linecap="round" stroke-linejoin="round"/>
    <path d="M7.91663 7.47107C7.91663 7.07333 7.91663 6.87446 7.99974 6.76344C8.07218 6.66669 8.18305 6.60616 8.30361 6.59755C8.44195 6.58767 8.60923 6.6952 8.9438 6.91028L12.8776 9.43917C13.1679 9.62581 13.3131 9.71913 13.3632 9.83778C13.4071 9.94146 13.4071 10.0585 13.3632 10.1621C13.3131 10.2808 13.1679 10.3741 12.8776 10.5607L8.9438 13.0896C8.60923 13.3047 8.44195 13.4123 8.30361 13.4024C8.18305 13.3938 8.07218 13.3332 7.99974 13.2365C7.91663 13.1255 7.91663 12.9266 7.91663 12.5288V7.47107Z" stroke="#535862" stroke-width="1.66667" stroke-linecap="round" stroke-linejoin="round"/>
  </g>
  <defs>
    <clipPath id="clip0_2_392">
      <rect width="20" height="20" fill="white"/>
    </clipPath>
  </defs>
</svg>