<svg width="178" height="68" viewBox="0 0 178 68" fill="none" xmlns="http://www.w3.org/2000/svg">
<path d="M25.2893 59.3892C11.3442 59.3892 0 48.0001 0 33.9998C0 19.9994 11.3442 8.61035 25.2893 8.61035C39.2345 8.61035 50.5787 19.9994 50.5787 33.9998C50.5787 48.0001 39.2345 59.3892 25.2893 59.3892ZM25.2893 11.3569C12.8515 11.3569 2.73576 21.5159 2.73576 33.9998C2.73576 46.4837 12.8546 56.6426 25.2893 56.6426C37.7241 56.6426 47.8429 46.4837 47.8429 33.9998C47.8429 21.5159 37.7272 11.3569 25.2893 11.3569Z" fill="#FF4B00"/>
<path d="M62.114 25.908V17.1743H63.9096L67.9271 23.0828V17.1743H69.6851V25.908H67.9396L63.872 20.0593V25.908H62.114Z" fill="#FF4B00"/>
<path d="M75.3353 26.0054C74.4422 26.0054 73.6744 25.8167 73.032 25.4391C72.3896 25.0616 71.8976 24.5362 71.556 23.8661C71.2175 23.1959 71.0452 22.4251 71.0452 21.5536C71.0452 20.6821 71.2207 19.883 71.5685 19.2097C71.9164 18.5365 72.4146 18.0111 73.0602 17.6367C73.7089 17.2623 74.4766 17.0767 75.3698 17.0767C76.2629 17.0767 77.015 17.2623 77.6543 17.6304C78.2936 18.0016 78.7856 18.5176 79.1365 19.1846C79.4844 19.8516 79.6599 20.6287 79.6599 21.5159C79.6599 22.4031 79.4844 23.1613 79.1365 23.8409C78.7887 24.5204 78.2936 25.049 77.648 25.4328C77.0056 25.8167 76.2315 26.0054 75.3322 26.0054H75.3353ZM75.3604 24.3537C75.9495 24.3537 76.429 24.2184 76.7988 23.9478C77.1685 23.6773 77.4349 23.3281 77.6041 22.9002C77.7734 22.4723 77.8548 22.0256 77.8548 21.5568C77.8548 21.2107 77.8078 20.8709 77.7138 20.5343C77.6198 20.1976 77.4756 19.8925 77.2782 19.6219C77.0808 19.3513 76.8238 19.1342 76.5042 18.9738C76.1845 18.8133 75.7991 18.7347 75.3478 18.7347C74.765 18.7347 74.2918 18.8668 73.922 19.1342C73.5522 19.4017 73.2796 19.7477 73.1041 20.1756C72.9286 20.6035 72.8408 21.0597 72.8408 21.5442C72.8408 22.0287 72.9286 22.4849 73.1041 22.9128C73.2796 23.3406 73.5553 23.6867 73.9282 23.9541C74.3012 24.2216 74.7775 24.3537 75.3604 24.3537Z" fill="#FF4B00"/>
<path d="M81.023 25.908V17.1743H84.5266C84.959 17.1743 85.3758 17.2184 85.7738 17.3033C86.1718 17.3883 86.529 17.5361 86.8487 17.7406C87.1683 17.9451 87.419 18.2314 87.6039 18.5995C87.7888 18.9645 87.8797 19.4333 87.8797 19.9996C87.8797 20.418 87.8107 20.7987 87.6697 21.1353C87.5287 21.472 87.325 21.7614 87.0555 21.9974C86.786 22.2365 86.4601 22.4221 86.0841 22.5511L88.0144 25.908H86.037L84.3417 22.8374H82.7811V25.908H81.023ZM82.7811 21.2675H84.4044C84.6582 21.2675 84.8901 21.2454 85.1 21.1982C85.31 21.1542 85.4886 21.0818 85.6422 20.9812C85.7926 20.8836 85.9117 20.7515 85.9994 20.5879C86.0872 20.4243 86.1279 20.2229 86.1279 19.9838C86.1373 19.6787 86.0715 19.4427 85.9368 19.2759C85.802 19.1061 85.614 18.9896 85.3727 18.9173C85.1314 18.8481 84.8462 18.8135 84.5203 18.8135H82.7873V21.2675H82.7811Z" fill="#FF4B00"/>
<path d="M91.3331 25.9078V18.8132H88.6788V17.1709H95.7705V18.8132H93.1037V25.9078H91.3331Z" fill="#FF4B00"/>
<path d="M96.8015 25.908V17.1743H98.5595V20.7892H102.32V17.1743H104.091V25.908H102.32V22.4158H98.5595V25.908H96.8015Z" fill="#FF4B00"/>
<path d="M109.396 25.908V17.1743H111.154V24.2815H115.566V25.9112H109.399L109.396 25.908Z" fill="#FF4B00"/>
<path d="M116.03 25.908L119.421 17.1743H121.386L124.742 25.908H122.849L122.31 24.4168H118.465L117.926 25.908H116.033H116.03ZM119.029 22.8217H121.759L120.408 19.0463L119.032 22.8217H119.029Z" fill="#FF4B00"/>
<path d="M126.588 25.908L124.463 17.1743H126.415L127.938 23.9731L129.474 17.1743H131.796L133.306 23.9731L134.792 17.1743H136.647L134.544 25.908H132.113L130.59 19.2948L129.088 25.908H126.581H126.588Z" fill="#FF4B00"/>
<path d="M137.647 25.908V17.1743H139.442L143.46 23.0828V17.1743H145.218V25.908H143.472L139.405 20.0593V25.908H137.647Z" fill="#FF4B00"/>
<path d="M147.057 25.908V17.1743H150.338C151.247 17.1743 152.024 17.3474 152.667 17.6934C153.309 18.0395 153.801 18.5366 154.143 19.1847C154.484 19.836 154.654 20.6288 154.654 21.5663C154.654 22.5039 154.487 23.2716 154.155 23.9165C153.823 24.5615 153.337 25.0554 152.698 25.3983C152.059 25.7413 151.275 25.9112 150.351 25.9112H147.057V25.908ZM148.815 24.2783H150.338C150.943 24.2783 151.432 24.1619 151.802 23.9322C152.172 23.7026 152.441 23.3817 152.614 22.9695C152.786 22.5574 152.87 22.0855 152.87 21.5506C152.87 21.0158 152.786 20.5659 152.62 20.1506C152.451 19.7353 152.181 19.4081 151.808 19.169C151.435 18.9299 150.934 18.8103 150.304 18.8103H148.815V24.2752V24.2783Z" fill="#FF4B00"/>
<path d="M154.785 25.908L158.176 17.1743H160.144L163.497 25.908H161.604L161.062 24.4168H157.217L156.678 25.908H154.785ZM157.784 22.8217H160.514L159.163 19.0463L157.787 22.8217H157.784Z" fill="#FF4B00"/>
<path d="M164.434 25.908V17.1743H166.192V24.2815H170.604V25.9112H164.437L164.434 25.908Z" fill="#FF4B00"/>
<path d="M171.733 25.908V17.1743H178V18.8166H173.491V20.7892H177.361V22.3686H173.491V24.2815H178V25.9112H171.733V25.908Z" fill="#FF4B00"/>
<path d="M62.114 40.6004V31.8667H68.3815V33.509H63.872V35.4816H67.7422V37.061H63.872V38.9739H68.3815V40.6036H62.114V40.6004Z" fill="#FF4B00"/>
<path d="M69.7447 40.6004V31.8667H72.0793L74.4014 36.0857L76.6985 31.8667H78.9485V40.6004H77.1905V34.2232L74.7211 38.6529H74.0097L71.5027 34.2232V40.6004H69.7447Z" fill="#FF4B00"/>
<path d="M80.7912 40.6004V31.8667H84.1819C84.8462 31.8667 85.426 31.9674 85.9211 32.1687C86.4162 32.3701 86.7985 32.691 87.0712 33.1315C87.3407 33.5719 87.4754 34.1571 87.4754 34.8901C87.4754 35.5729 87.325 36.1455 87.0273 36.6048C86.7265 37.0641 86.3222 37.4102 85.8051 37.6336C85.2881 37.8601 84.7021 37.9734 84.0471 37.9734H82.5492V40.6004H80.7912ZM82.5461 36.394H84.022C84.5454 36.394 84.9622 36.2682 85.2693 36.0165C85.5764 35.7648 85.7299 35.3841 85.7299 34.8744C85.7299 34.4214 85.6015 34.0816 85.3414 33.8519C85.0844 33.6223 84.6707 33.5058 84.1067 33.5058H82.5461V36.394Z" fill="#FF4B00"/>
<path d="M88.8136 40.6004V31.8667H90.5716V38.9739H94.9839V40.6036H88.8167L88.8136 40.6004Z" fill="#FF4B00"/>
<path d="M99.9227 40.7012C99.0296 40.7012 98.2618 40.5125 97.6194 40.1349C96.977 39.7574 96.485 39.232 96.1434 38.5618C95.8049 37.8917 95.6326 37.1209 95.6326 36.2494C95.6326 35.3779 95.8049 34.5788 96.1559 33.9055C96.5069 33.2323 97.002 32.7069 97.6476 32.3325C98.2963 31.9581 99.064 31.7725 99.9572 31.7725C100.85 31.7725 101.602 31.9581 102.242 32.3262C102.881 32.6974 103.373 33.2134 103.721 33.8804C104.069 34.5474 104.244 35.3245 104.244 36.2117C104.244 37.0989 104.072 37.8571 103.721 38.5367C103.37 39.2162 102.878 39.7448 102.235 40.1286C101.593 40.5125 100.819 40.7012 99.9196 40.7012H99.9227ZM99.9478 39.0464C100.537 39.0464 101.016 38.9111 101.386 38.6405C101.756 38.3699 102.022 38.0207 102.192 37.5928C102.361 37.165 102.442 36.7182 102.442 36.2494C102.442 35.9034 102.395 35.5636 102.301 35.2269C102.207 34.8903 102.063 34.5851 101.866 34.3145C101.668 34.044 101.411 33.8269 101.092 33.6664C100.772 33.506 100.386 33.4273 99.9352 33.4273C99.3524 33.4273 98.8792 33.5595 98.5094 33.8269C98.1396 34.0943 97.867 34.4404 97.6915 34.8683C97.516 35.2961 97.4282 35.7523 97.4282 36.2368C97.4282 36.7214 97.516 37.1775 97.6915 37.6054C97.867 38.0333 98.1427 38.3794 98.5156 38.6468C98.8886 38.9142 99.3649 39.0464 99.9478 39.0464Z" fill="#FF4B00"/>
<path d="M107.528 40.6004V37.3441L104.297 31.8667H106.325L108.415 35.7019L110.54 31.8667H112.53L109.286 37.3316V40.6004H107.528Z" fill="#FF4B00"/>
<path d="M113.523 40.6004V31.8667H115.858L118.18 36.0857L120.477 31.8667H122.727V40.6004H120.969V34.2232L118.5 38.6529H117.785L115.278 34.2232V40.6004H113.52H113.523Z" fill="#FF4B00"/>
<path d="M124.57 40.6004V31.8667H130.837V33.509H126.328V35.4816H130.198V37.061H126.328V38.9739H130.837V40.6036H124.57V40.6004Z" fill="#FF4B00"/>
<path d="M132.2 40.6004V31.8667H133.993L138.01 37.7752V31.8667H139.768V40.6004H138.023L133.955 34.7517V40.6004H132.197H132.2Z" fill="#FF4B00"/>
<path d="M143.457 40.6006V33.5061H140.802V31.8638H147.891V33.5061H145.224V40.6006H143.454H143.457Z" fill="#FF4B00"/>
<path d="M62.114 55.2962V46.5625H63.9096L67.9271 52.471V46.5625H69.6851V55.2962H67.9396L63.872 49.4475V55.2962H62.114Z" fill="#FF4B00"/>
<path d="M71.5247 55.2962V46.5625H77.7922V48.2048H73.2827V50.1774H77.1529V51.7568H73.2827V53.6697H77.7922V55.2994H71.5247V55.2962Z" fill="#FF4B00"/>
<path d="M80.998 55.2959V48.2014H78.3437V46.5591H85.4322V48.2014H82.7654V55.2959H80.9948H80.998Z" fill="#FF4B00"/>
<path d="M87.7449 55.2962L85.6203 46.5625H87.5726L89.0956 53.3613L90.6311 46.5625H92.9532L94.4637 53.3613L95.9491 46.5625H97.8043L95.7015 55.2962H93.2697L91.7467 48.683L90.2488 55.2962H87.7418H87.7449Z" fill="#FF4B00"/>
<path d="M102.514 55.3965C101.621 55.3965 100.853 55.2078 100.211 54.8302C99.5686 54.4527 99.0766 53.9273 98.735 53.2572C98.3934 52.587 98.2242 51.8162 98.2242 50.9447C98.2242 50.0733 98.3997 49.2741 98.7475 48.6009C99.0954 47.9276 99.5936 47.4022 100.239 47.0278C100.885 46.6534 101.656 46.4678 102.549 46.4678C103.442 46.4678 104.197 46.6534 104.833 47.0215C105.473 47.3927 105.968 47.9087 106.316 48.5757C106.663 49.2427 106.839 50.0198 106.839 50.907C106.839 51.7942 106.663 52.5524 106.316 53.232C105.968 53.9116 105.473 54.4401 104.827 54.8239C104.185 55.2078 103.411 55.3965 102.511 55.3965H102.514ZM102.539 53.7417C103.129 53.7417 103.608 53.6064 103.978 53.3358C104.348 53.0652 104.614 52.716 104.783 52.2881C104.952 51.8603 105.034 51.4135 105.034 50.9447C105.034 50.5987 104.987 50.2589 104.893 49.9222C104.799 49.5856 104.652 49.2804 104.457 49.0099C104.26 48.7393 104.003 48.5222 103.683 48.3618C103.364 48.2013 102.978 48.1226 102.527 48.1226C101.944 48.1226 101.471 48.2548 101.101 48.5222C100.731 48.7896 100.462 49.1357 100.283 49.5636C100.108 49.9915 100.02 50.4477 100.02 50.9322C100.02 51.4167 100.108 51.8729 100.283 52.3007C100.459 52.7286 100.734 53.0747 101.107 53.3421C101.48 53.6095 101.956 53.7417 102.539 53.7417Z" fill="#FF4B00"/>
<path d="M108.205 55.2962V46.5625H111.709C112.141 46.5625 112.558 46.6065 112.956 46.6915C113.354 46.7764 113.711 46.9243 114.031 47.1288C114.35 47.3333 114.601 47.6196 114.786 47.9877C114.971 48.3527 115.062 48.8214 115.062 49.3877C115.062 49.8062 114.993 50.1869 114.852 50.5235C114.711 50.8601 114.507 51.1496 114.238 51.3855C113.968 51.6247 113.642 51.8103 113.266 51.9393L115.197 55.2962H113.219L111.524 52.2256H109.963V55.2962H108.205ZM109.96 50.6588H111.583C111.837 50.6588 112.069 50.6368 112.279 50.5896C112.489 50.5455 112.668 50.4732 112.818 50.3725C112.968 50.275 113.088 50.1428 113.175 49.9792C113.263 49.8156 113.304 49.6143 113.304 49.3752C113.313 49.07 113.247 48.834 113.113 48.6673C112.978 48.4974 112.79 48.381 112.549 48.3086C112.307 48.2394 112.022 48.2048 111.696 48.2048H109.963V50.6588H109.96Z" fill="#FF4B00"/>
<path d="M116.669 55.2962V46.5625H118.427V50.19H119.656L121.915 46.5625H123.93L121.129 50.8067L123.93 55.2962H121.865L119.728 51.8166H118.424V55.2962H116.666H116.669Z" fill="#FF4B00"/>
<path d="M14.8853 40.0878L13.2871 40.006C13.1241 39.9965 12.9988 39.8644 12.9988 39.7008V37.4953C12.9988 37.3254 13.1367 37.187 13.3059 37.187H37.2759C37.4451 37.187 37.583 37.3254 37.583 37.4953V39.6851C37.583 39.8455 37.4577 39.9808 37.2979 39.9902L35.6746 40.0972C35.5148 40.1066 35.3894 40.2419 35.3894 40.4024V48.8655C35.3894 49.0354 35.2515 49.1738 35.0823 49.1738H32.2964C32.1272 49.1738 31.9893 49.0354 31.9893 48.8655V40.4433C31.9893 40.2734 31.8514 40.135 31.6822 40.135H27.2887C27.1194 40.135 26.9816 40.2734 26.9816 40.4433V48.8655C26.9816 49.0354 26.8437 49.1738 26.6745 49.1738H23.8572C23.688 49.1738 23.5501 49.0354 23.5501 48.8655V40.4118C23.5501 40.2419 23.4122 40.1035 23.243 40.1035H18.8714C18.7022 40.1035 18.5643 40.2419 18.5643 40.4118V48.8624C18.5643 49.0323 18.4264 49.1707 18.2572 49.1707H15.4744C15.3052 49.1707 15.1673 49.0323 15.1673 48.8624V40.3961C15.1673 40.2325 15.0388 40.0972 14.8759 40.0878H14.8853Z" fill="#FF4B00"/>
<path d="M25.2925 20.7262C32.4218 20.7262 38.5858 24.8696 41.5284 30.8882C41.7258 31.2909 42.3369 31.0738 42.2304 30.6397C41.1712 26.2728 38.4699 22.3999 34.5464 19.9522C28.3949 16.1171 20.4978 16.4663 14.7662 20.83C11.2314 23.5199 9.21008 27.1097 8.3483 30.6491C8.24176 31.0864 8.85597 31.3004 9.05026 30.8977C11.9929 24.8728 18.1569 20.7262 25.2925 20.7262Z" fill="#FF4B00"/>
<path d="M16.8564 36.1549C18.7308 36.1549 20.2503 34.6294 20.2503 32.7476C20.2503 30.8658 18.7308 29.3403 16.8564 29.3403C14.9821 29.3403 13.4626 30.8658 13.4626 32.7476C13.4626 34.6294 14.9821 36.1549 16.8564 36.1549Z" fill="#FF4B00"/>
<path d="M25.2894 36.1549C27.1637 36.1549 28.6832 34.6294 28.6832 32.7476C28.6832 30.8658 27.1637 29.3403 25.2894 29.3403C23.415 29.3403 21.8955 30.8658 21.8955 32.7476C21.8955 34.6294 23.415 36.1549 25.2894 36.1549Z" fill="#FF4B00"/>
<path d="M33.7223 36.1549C35.5966 36.1549 37.1161 34.6294 37.1161 32.7476C37.1161 30.8658 35.5966 29.3403 33.7223 29.3403C31.8479 29.3403 30.3284 30.8658 30.3284 32.7476C30.3284 34.6294 31.8479 36.1549 33.7223 36.1549Z" fill="#FF4B00"/>
</svg>
