<?xml version="1.0" standalone="no"?>
<!DOCTYPE svg PUBLIC "-//W3C//DTD SVG 20010904//EN"
 "http://www.w3.org/TR/2001/REC-SVG-20010904/DTD/svg10.dtd">
<svg version="1.0" xmlns="http://www.w3.org/2000/svg"
 width="1263.000000pt" height="1282.000000pt" viewBox="0 0 1263.000000 1282.000000"
 preserveAspectRatio="xMidYMid meet">

<g transform="translate(0.000000,1282.000000) scale(0.100000,-0.100000)"
fill="#FC4C02" stroke="none">
<path d="M7890 12804 c-19 -2 -84 -9 -144 -14 -509 -50 -1082 -241 -1586 -531
-149 -85 -350 -216 -474 -308 -50 -37 -97 -70 -103 -75 -8 -4 -51 25 -119 81
-227 189 -478 332 -734 417 -719 239 -1476 90 -2176 -429 -982 -729 -1794
-2116 -2229 -3810 -414 -1609 -421 -3027 -19 -4196 166 -484 401 -915 711
-1305 112 -140 417 -445 558 -558 441 -351 936 -586 1455 -690 221 -45 360
-58 665 -63 l289 -6 111 -86 c319 -249 750 -498 1125 -649 351 -141 918 -318
1315 -411 1092 -254 2036 -220 2997 108 477 164 989 419 1433 716 981 656
1529 1588 1639 2787 34 376 30 600 -15 828 -89 446 -342 941 -704 1377 -439
528 -1154 1054 -1720 1263 -63 24 -115 46 -115 49 0 4 27 87 60 186 415 1235
531 2407 335 3370 -142 695 -451 1228 -900 1551 -251 180 -646 324 -1046 379
-108 15 -529 28 -609 19z m484 -889 c187 -25 357 -71 504 -136 437 -196 708
-747 773 -1573 15 -187 6 -666 -15 -866 -97 -898 -367 -1787 -806 -2655 -258
-508 -497 -885 -1065 -1680 -781 -1093 -1039 -1397 -1583 -1864 -309 -265
-424 -343 -727 -497 -407 -205 -795 -324 -1061 -324 -112 0 -167 18 -230 73
-55 49 -150 189 -183 271 -13 31 -22 58 -20 59 112 79 367 297 517 442 1097
1058 1918 2679 2167 4278 69 446 89 752 82 1237 -7 459 -32 722 -108 1103 -94
477 -255 935 -461 1311 l-43 78 35 29 c58 49 318 222 430 286 417 239 855 389
1267 432 134 14 404 12 527 -4z m-4079 -330 c118 -24 217 -60 336 -122 106
-54 283 -178 277 -193 -2 -5 -51 -62 -109 -127 -464 -519 -851 -1110 -1179
-1803 -520 -1100 -775 -2142 -862 -3525 -16 -256 -16 -1071 0 -1320 61 -933
200 -1690 391 -2125 23 -52 45 -101 48 -109 8 -18 -28 -11 -170 29 -505 145
-986 471 -1330 903 -772 966 -995 2432 -641 4207 265 1328 812 2557 1484 3334
48 56 154 166 236 246 359 350 722 555 1091 615 110 18 318 13 428 -10z m1210
-1152 c173 -395 278 -815 332 -1318 25 -238 25 -835 0 -1085 -62 -615 -185
-1159 -391 -1725 -336 -923 -840 -1752 -1444 -2376 -137 -142 -269 -265 -277
-257 -16 16 -77 618 -95 933 -13 243 -13 875 0 1115 73 1328 339 2368 880
3435 243 479 513 895 825 1268 58 70 110 125 115 122 4 -3 29 -53 55 -112z
m4291 -3984 c273 -96 531 -245 849 -490 382 -294 680 -629 879 -991 l38 -68
-1396 0 -1395 0 193 288 c280 417 454 715 653 1115 48 97 89 177 90 177 1 0
41 -14 89 -31z m1944 -2466 c0 -65 -29 -303 -50 -418 -28 -145 -63 -289 -101
-402 l-31 -93 -2084 0 c-1146 0 -2084 3 -2084 6 0 3 33 43 73 88 156 173 297
348 526 654 l152 202 1799 0 1800 0 0 -37z m-845 -1921 c-251 -244 -576 -462
-1026 -688 -1051 -526 -2033 -624 -3233 -323 -312 78 -685 194 -991 309 -153
57 -472 206 -462 216 3 4 55 23 114 44 341 118 743 319 1028 514 l80 55 2310
0 2310 0 -130 -127z"/>
</g>
</svg>
