<svg width="100" height="100" viewBox="0 0 100 100" fill="none" xmlns="http://www.w3.org/2000/svg">
<g id="noun-award-7587065 2">
<path id="Vector" d="M70.4218 37.5201C70.3476 36.692 70.457 35.8599 70.7382 35.0787C71.2929 33.7779 71.3086 32.313 70.7812 31.0005C69.8945 29.8755 68.6015 29.145 67.1796 28.9614C66.3749 28.8286 65.6132 28.52 64.9414 28.0591C64.4804 27.3872 64.1718 26.6255 64.039 25.8209C63.8554 24.399 63.125 23.106 62 22.2193C60.6796 21.6919 59.207 21.7076 57.8984 22.2622C57.121 22.5435 56.2851 22.6529 55.4609 22.5787C54.7499 22.2388 54.121 21.7466 53.621 21.1412C52.7421 19.981 51.4414 19.2115 50 19.0005C48.5585 19.2114 47.2578 19.981 46.3789 21.1412C45.8789 21.7466 45.25 22.2388 44.539 22.5787C43.7148 22.6529 42.8789 22.5435 42.1015 22.2622C40.793 21.7076 39.3203 21.6919 38 22.2193C36.875 23.1021 36.1484 24.3989 35.9805 25.8209C35.832 26.6216 35.5195 27.3873 35.0586 28.0591C34.3867 28.52 33.625 28.8286 32.8204 28.9614C31.3985 29.145 30.1055 29.8755 29.2188 31.0005C28.6914 32.313 28.7071 33.7779 29.2618 35.0787C29.543 35.8599 29.6524 36.6919 29.5782 37.5201C29.2461 38.2389 28.7539 38.8756 28.1407 39.3794C26.9805 40.2584 26.211 41.5591 26 43.0005C26.2148 44.438 26.9843 45.7388 28.1407 46.6216C28.7461 47.1216 29.2383 47.7505 29.5782 48.4614C29.6524 49.2857 29.543 50.1216 29.2618 50.8989C28.7071 52.2075 28.6914 53.6802 29.2188 55.0005C30.1095 56.1177 31.4024 56.8443 32.8204 57.02C33.6251 57.1607 34.3907 57.4732 35.0586 57.9419C35.5235 58.6098 35.8321 59.3754 35.961 60.1801C36.1485 61.5981 36.879 62.891 38 63.7817C39.3204 64.309 40.793 64.2934 42.1016 63.7387C42.8712 63.4536 43.6993 63.3364 44.5196 63.3989C45.2345 63.7505 45.8712 64.2466 46.379 64.8598C47.2579 66.02 48.5586 66.7895 50 67.0005C51.4415 66.7895 52.7422 66.02 53.6211 64.8598C54.1289 64.2543 54.754 63.7582 55.461 63.3989C56.2891 63.3364 57.1211 63.4497 57.8985 63.7387C59.207 64.2934 60.6797 64.309 62 63.7817C63.1211 62.8949 63.8477 61.5981 64.0195 60.1801C64.168 59.3793 64.4805 58.6137 64.9414 57.9419C65.6093 57.4731 66.375 57.1606 67.1796 57.02C68.5976 56.8442 69.8905 56.1177 70.7812 55.0005C71.3085 53.6802 71.2929 52.2075 70.7382 50.8989C70.457 50.1216 70.3476 49.2857 70.4218 48.4614C70.7617 47.7505 71.2539 47.1216 71.8593 46.6216C73.0156 45.7388 73.7851 44.438 74 43.0005C73.7891 41.5591 73.0195 40.2584 71.8593 39.3794C71.246 38.8755 70.7538 38.2388 70.4218 37.5201ZM60.8202 42.0983L56.1795 45.9772L57.66 51.8365V51.8404C57.8319 52.5123 57.5702 53.2233 56.9998 53.6217C56.4491 54.0396 55.6952 54.0631 55.1209 53.6803L49.9998 50.4615L44.8788 53.6803C44.6131 53.8522 44.3006 53.9459 43.9803 53.942C43.6249 53.9459 43.2811 53.8326 42.9998 53.6217C42.4295 53.2232 42.1678 52.5123 42.3397 51.8404L43.8202 45.9811L39.1795 42.1022C38.6522 41.6569 38.4451 40.9342 38.66 40.2779C38.8748 39.6217 39.4686 39.1647 40.16 39.1217L46.1795 38.7232L48.4412 33.1217C48.6834 32.4693 49.3045 32.0397 49.9998 32.0397C50.6951 32.0397 51.3162 32.4693 51.5584 33.1217L53.8201 38.7232L59.8396 39.1217C60.5311 39.1646 61.1248 39.6217 61.3396 40.2779C61.5545 40.9342 61.3475 41.6568 60.8201 42.1022L60.8202 42.0983Z" fill="#FF4040"/>
<path id="Vector_2" d="M66.2192 59.7617C66.1176 60.0625 66.0199 60.4414 65.9574 60.7031L65.9614 60.6992C65.8168 61.2695 65.641 61.8281 65.4418 62.3789C65.0317 63.6836 64.1645 64.8007 63.0004 65.5196C62.2074 65.9688 61.309 66.1953 60.3988 66.1797C59.3832 66.1446 58.3754 65.9766 57.3988 65.6797C56.9379 65.5469 56.4731 65.4414 56.0004 65.3594C55.7621 65.5586 55.3207 66 55.0395 66.2578C54.7778 66.5195 54.4809 66.8164 54.1606 67.0977V67.1016C53.684 67.5625 53.1449 67.9609 52.559 68.2812L59.6176 80.5004H59.6215C59.7934 80.8129 60.1215 81.0043 60.4808 81.0004H60.5394C60.9222 80.9809 61.2621 80.7387 61.3987 80.3793L64.598 72.559L72.5198 73.9379V73.9418C72.9026 74.0238 73.3011 73.8637 73.5198 73.5394C73.7425 73.2191 73.7581 72.7973 73.5589 72.4613L66.2192 59.7617Z" fill="#FF4040"/>
<path id="Vector_3" d="M44.98 66.2807C44.6792 65.9995 44.2417 65.562 43.98 65.3589C43.5191 65.4331 43.0659 65.5308 42.6207 65.6597C41.6402 65.9722 40.6246 66.148 39.6012 66.1792C38.691 66.1949 37.7926 65.9644 36.9996 65.5191C35.8394 64.7925 34.9762 63.6832 34.5582 62.3784C34.359 61.8276 34.1832 61.2691 34.0386 60.6987C33.9801 60.437 33.8785 60.0581 33.7769 59.7573L26.4371 72.4565L26.441 72.4604C26.2418 72.7963 26.2574 73.2182 26.4801 73.5386C26.6988 73.8628 27.0972 74.0229 27.4801 73.9409L35.4019 72.562L38.6011 80.3823V80.3784C38.7379 80.7378 39.0777 80.98 39.4605 80.9995H39.5191C39.8785 81.0034 40.2066 80.812 40.3784 80.4995L47.437 68.2803H47.4409C46.855 67.96 46.3159 67.5616 45.8393 67.1007C45.519 66.8194 45.2377 66.5382 44.98 66.2804L44.98 66.2807Z" fill="#FF4040"/>
</g>
</svg>
