<svg xmlns="http://www.w3.org/2000/svg" width="82" height="81" viewBox="0 0 82 81" fill="none">
  <g opacity="0.85">
    <path fill-rule="evenodd" clip-rule="evenodd" d="M40.9998 3.375C20.2431 3.375 3.4165 19.9964 3.4165 40.5C3.4165 61.0036 20.2431 77.625 40.9998 77.625C61.7565 77.625 78.5832 61.0036 78.5832 40.5C78.5832 19.9964 61.7565 3.375 40.9998 3.375ZM32.799 27.3918C32.4582 27.8414 32.4582 28.6468 32.4582 30.2577V50.7417C32.4582 52.3525 32.4582 53.1579 32.799 53.6076C33.0959 53.9994 33.5505 54.2446 34.0448 54.2795C34.612 54.3195 35.2978 53.8839 36.6695 53.0129L52.7983 42.7709C53.9886 42.015 54.5837 41.6371 54.7893 41.1565C54.9689 40.7366 54.9689 40.2628 54.7893 39.8429C54.5837 39.3623 53.9886 38.9844 52.7983 38.2285L36.6696 27.9865C35.2978 27.1154 34.612 26.6799 34.0448 26.7199C33.5505 26.7548 33.0959 26.9999 32.799 27.3918Z" fill="white"/>
  </g>
</svg>