<svg xmlns="http://www.w3.org/2000/svg" width="152" height="153" viewBox="0 0 152 153" fill="none">
  <path fill-rule="evenodd" clip-rule="evenodd" d="M82.3296 46.4972C82.3296 47.5838 81.4509 48.4626 80.3642 48.4626C79.2776 48.4626 78.3989 47.5839 78.3989 46.4972C78.3989 44.5853 74.4801 44.5853 74.4801 46.4972C74.4801 47.2157 74.6285 47.6194 75.2757 47.8213L78.8145 48.9435C81.142 49.6797 82.3533 51.6629 82.3533 54.0141C82.3533 56.7335 80.6018 58.4256 78.4168 59.0787V60.2722C78.4168 61.3587 77.538 62.2375 76.4514 62.2375C75.3648 62.2375 74.486 61.3588 74.486 60.2722V59.0669C72.313 58.4078 70.5791 56.7157 70.5791 54.008C70.5791 52.9215 71.4579 52.0427 72.5445 52.0427C73.6311 52.0427 74.5099 52.9214 74.5099 54.008C74.5099 55.9199 78.4287 55.9199 78.4287 54.008C78.4287 53.2896 78.2802 52.8858 77.6331 52.684L74.0942 51.5618C71.7667 50.8256 70.5554 48.8424 70.5554 46.4912C70.5554 43.7718 72.307 42.0797 74.492 41.4266V40.0075C74.492 38.921 75.3707 38.0422 76.4573 38.0422C77.5439 38.0422 78.4227 38.9209 78.4227 40.0075V41.4325C80.5958 42.0916 82.3296 43.7837 82.3296 46.4913V46.4972ZM20.8532 24.7663L33.0903 37.0035C33.8563 37.7694 33.8563 39.0104 33.0903 39.7763L30.2997 42.5669L48.9793 44.075L47.4712 25.3955L44.6806 28.1861C43.9147 28.952 42.6737 28.952 41.9077 28.1861L29.6706 15.9489L20.8532 24.7663ZM28.9222 38.3931L16.6851 26.156C15.9192 25.39 15.9192 24.1491 16.6851 23.3831L28.2692 11.7991C29.0351 11.0331 30.2761 11.0331 31.042 11.7991L43.2792 24.0362L47.6847 19.6306C48.8485 18.4669 50.8909 19.1794 51.0276 20.8656C51.2295 23.3891 53.0997 45.9393 53.0642 46.3852C52.981 47.4658 52.037 48.2732 50.9563 48.1902L25.8168 46.1596C24.0474 46.0527 23.3468 43.9805 24.5164 42.8107L28.922 38.4051L28.9222 38.3931ZM62.3027 132.52C61.2162 132.52 60.3374 131.642 60.3374 130.555C60.3374 129.468 61.2161 128.59 62.3027 128.59H89.6931C90.7797 128.59 91.6585 129.468 91.6585 130.555C91.6585 131.642 90.7797 132.52 89.6931 132.52H62.3027ZM49.4663 127.266C48.3798 127.266 47.501 126.387 47.501 125.3C47.501 124.214 48.3797 123.335 49.4663 123.335H102.523C103.61 123.335 104.489 124.214 104.489 125.3C104.489 126.387 103.61 127.266 102.523 127.266H49.4663ZM116.044 114.488C116.251 114.25 116.382 114.048 116.382 113.633V57.7194C116.382 57.3216 116.156 56.8703 115.8 56.8703H108.741C113.318 63.1048 112.647 71.7436 107.185 77.2067C106.009 78.3823 104.638 79.3798 103.136 80.1338L96.5449 93.0956C96.248 93.8022 95.5474 94.3009 94.734 94.3009H59.5434C59.5434 94.3009 59.1515 94.7641 59.1515 95.53C59.1515 96.3019 59.5434 96.7591 59.5434 96.7591H100.186C101.272 96.7591 102.151 97.6378 102.151 98.7244C102.151 99.811 101.272 100.69 100.186 100.69H59.5434C55.7909 100.69 53.8731 95.4113 56.3075 92.116C57.0972 91.0472 58.2371 90.3821 59.5434 90.3821H61.9838L51.1182 65.7417C50.7441 64.8926 48.3276 65.2311 47.1638 65.2311C46.0772 65.2311 45.1984 64.3523 45.1984 63.2657C45.1984 62.1791 46.0772 61.3003 47.1638 61.3003C49.9069 61.3003 53.1547 60.6413 54.7044 64.1563L56.9488 69.2448H80.752C80.6214 68.5976 80.5323 67.9326 80.4848 67.2557L79.9267 67.3745V67.3804C71.5905 69.0548 63.3903 64.5423 60.2135 56.871H36.3635C36.0072 56.871 35.7816 57.3222 35.7816 57.72V113.633C35.7816 114.096 36.0547 114.654 36.5238 114.654H115.647C115.796 114.654 115.938 114.589 116.051 114.488L116.044 114.488ZM104.555 52.9453C101.491 50.9742 97.7739 50.1132 94.0214 50.6119C94.3242 40.809 86.362 32.5796 76.4515 32.5796C65.6334 32.5796 57.392 42.2577 59.0956 52.9502H36.3552C33.814 52.9502 31.8427 55.1827 31.8427 57.724V113.637C31.8427 114.278 31.9614 114.89 32.1752 115.454L14.9624 132.198C11.8155 135.262 13.8818 140.796 18.1153 140.796H133.872C138.094 140.796 140.166 135.286 137.043 132.216L119.973 115.461C120.187 114.896 120.306 114.279 120.306 113.632V57.7185C120.306 55.1773 118.334 52.9447 115.793 52.9447L104.555 52.9453ZM134.295 135.001L117.248 118.269C116.743 118.47 116.203 118.577 115.633 118.577H36.5219C35.9519 118.577 35.4056 118.47 34.9009 118.269L17.7008 135.001C17.0893 135.595 17.4099 136.866 18.1224 136.866H133.879C134.592 136.866 134.912 135.607 134.301 135.007L134.295 135.001ZM66.2619 90.3754L58.6679 73.1563H82.0974C85.0128 78.9632 91.2768 82.4722 97.9447 81.6884L93.5272 90.375L66.2619 90.3754ZM87.2683 102.322C92.1727 102.322 94.6487 108.283 91.1752 111.75C87.7018 115.224 81.7464 112.748 81.7464 107.843C81.7464 104.792 84.2224 102.316 87.2743 102.316L87.2683 102.322ZM88.3965 106.715C89.0199 107.339 89.0199 108.354 88.3965 108.977C87.393 109.981 85.6653 109.268 85.6653 107.849C85.6653 106.43 87.3931 105.718 88.3965 106.721V106.715ZM70.0792 102.322C74.9836 102.322 77.4595 108.283 73.9861 111.75C70.5126 115.224 64.5573 112.748 64.5573 107.843C64.5573 104.792 67.0332 102.316 70.0851 102.316L70.0792 102.322ZM71.2073 106.715C71.8307 107.339 71.8307 108.354 71.2073 108.977C70.2039 109.981 68.4761 109.268 68.4761 107.849C68.4761 106.43 70.204 105.718 71.2073 106.721V106.715ZM90.011 51.6989C90.9313 43.6478 84.6198 36.5053 76.4374 36.5053C68.8968 36.5053 62.7865 42.6149 62.7865 50.1561C62.7865 58.7952 70.7011 65.232 79.1392 63.5397V63.5457C79.6676 63.4388 80.1901 63.3022 80.7126 63.1241C81.7161 57.9822 85.237 53.7072 90.0048 51.7003L90.011 51.6989ZM104.391 57.8383C108.975 62.4222 108.975 69.8499 104.391 74.4342C99.8076 79.0185 92.3799 79.018 87.7956 74.4342C83.2113 69.8504 83.2118 62.4227 87.7956 57.8383C92.3794 53.254 99.8071 53.2545 104.391 57.8383ZM98.0561 74.1543V75.0271C98.0561 76.1137 97.1773 76.9925 96.0907 76.9925C95.0042 76.9925 94.1254 76.1137 94.1254 75.0271V74.1483C92.2075 73.5071 90.6935 71.9693 90.6935 69.5349C90.6935 68.4483 91.5722 67.5695 92.6588 67.5695C93.7454 67.5695 94.6242 68.4483 94.6242 69.5349C94.6242 70.8887 97.5811 70.8887 97.5811 69.5349C97.5811 68.9827 97.498 68.7393 97.0526 68.6027L93.9473 67.6171C91.8038 66.9402 90.6757 65.0996 90.6757 62.9383C90.6757 60.4921 92.1957 58.9602 94.1313 58.3189V57.2501C94.1313 56.1636 95.0101 55.2847 96.0967 55.2847C97.1832 55.2847 98.062 56.1635 98.062 57.2501V58.3248C99.9799 58.9661 101.494 60.5098 101.494 62.9383C101.494 64.0248 100.615 64.9036 99.5286 64.9036C98.442 64.9036 97.5632 64.0249 97.5632 62.9383C97.5632 61.5844 94.6063 61.5844 94.6063 62.9383C94.6063 63.4904 94.6895 63.7339 95.1348 63.8704L98.2401 64.8561C100.384 65.5329 101.512 67.3736 101.512 69.5349C101.512 71.9811 99.9917 73.513 98.0561 74.1543Z" fill="#FF4B00"/>
</svg>