                                                    <svg xmlns="http://www.w3.org/2000/svg" width="24" height="24"
                                                        viewBox="0 0 24 24" fill="none">
                                                        <g clip-path="url(#clip0_2_134)">
                                                            <path
                                                                d="M18.2972 9.9924C17.725 9.53456 17.0465 9.05715 16.2152 8.79137C17.0175 6.61899 17.2506 4.40849 16.7802 2.73206C16.4677 1.61728 15.8609 0.816426 15.0261 0.415748C13.8487 -0.149413 12.3262 -0.137879 10.8495 0.447341C10.3491 0.645424 9.6955 0.975394 8.99048 1.51348C8.52166 1.07719 7.98412 0.775306 7.39568 0.624362C6.46414 0.385159 5.48068 0.546633 4.55119 1.09123C2.7548 2.14383 1.22871 4.57949 0.469233 7.60639C-0.625193 11.9667 0.400004 14.5658 1.45269 15.9785C2.46923 17.343 3.97089 18.184 5.56468 18.2853C5.63034 18.2923 5.81054 18.3078 6.05844 18.3078C6.16737 18.3078 6.29107 18.3043 6.42393 18.2958C7.076 18.8324 7.87926 19.2897 8.72833 19.5891C10.3196 20.1503 11.5662 20.4 12.7701 20.4C14.3771 20.4 15.9327 19.9231 17.5265 18.9417C19.4344 17.7673 20.401 15.98 20.4 13.6306C20.3995 12.4617 19.554 10.9999 18.2962 9.9924H18.2972ZM8.98946 9.81237C8.38829 11.734 7.29438 13.4706 5.99837 14.5939C5.70313 12.7154 5.69346 9.75119 6.61431 7.28695C7.23889 5.61503 8.01823 4.42303 8.7945 3.57253C9.61711 5.18928 9.69651 7.55323 8.98997 9.81237H8.98946ZM14.1409 12.6181C14.313 12.3759 14.485 12.1282 14.6555 11.8714C15.0383 11.2937 15.3784 10.6895 15.6736 10.0726C16.3455 10.2627 16.9238 10.6714 17.4135 11.0636C17.9663 11.5059 18.4265 12.073 18.7069 12.6181H14.1409ZM12.5217 12.4817L12.3735 12.6858C11.1213 14.4139 10.7166 14.8221 9.65783 15.6897C9.18646 16.0758 8.09 16.6204 7.28369 16.7142V16.7127L7.27554 16.7152C7.1997 16.7237 7.12589 16.7297 7.05615 16.7297C6.96147 16.7297 6.80774 16.7292 6.63721 16.5402C6.59242 16.482 6.55068 16.4248 6.51555 16.3707L6.4845 16.3225C6.4448 16.2523 6.40509 16.1691 6.36539 16.0728C8.09509 14.8141 9.5718 12.6387 10.3287 10.2196C11.1717 7.52465 11.0154 4.64869 9.921 2.7135C9.89911 2.67489 9.8762 2.63778 9.85381 2.59967C10.4321 2.15988 10.9635 1.89109 11.3733 1.72861C11.95 1.49994 12.5446 1.37958 13.0918 1.37958C13.5845 1.37958 14.0294 1.47286 14.4137 1.6574C14.9986 1.93822 15.2898 2.59716 15.4313 3.10114C15.9291 4.87686 15.5204 8.04418 13.4837 11.1182C13.1722 11.5886 12.8429 12.0419 12.5227 12.4832L12.5217 12.4817ZM5.36106 6.64857H5.36004L5.23889 6.97202H5.23991C4.25442 9.73916 4.30023 13.0163 4.64587 15.0097C4.72375 15.459 4.85304 16.2007 5.17781 16.8455C4.17348 16.6505 3.24653 16.0552 2.58122 15.1621C1.34325 13.5012 1.076 10.9357 1.82836 7.93786C2.4901 5.30161 3.80749 3.13223 5.26689 2.27722C5.8757 1.92017 6.4733 1.81336 7.0419 1.95979C7.36513 2.04303 7.66954 2.20701 7.94696 2.44521C7.02306 3.40102 6.09356 4.74899 5.36055 6.64907L5.36106 6.64857ZM10.342 16.9097H17.8426C17.5469 17.2307 17.1961 17.5185 16.7853 17.7718C14.0406 19.4617 11.8482 19.223 9.20122 18.2898C8.87951 18.1765 8.58326 18.0426 8.31143 17.8971C9.09687 17.6574 9.85533 17.2558 10.342 16.9097ZM11.895 15.5302C12.2636 15.1375 12.6382 14.6737 13.1391 13.9982H18.99C18.9599 14.5573 18.8602 15.0673 18.6886 15.5302H11.895Z"
                                                                fill="#FF4B00" stroke="#FF4B00" stroke-width="0.5" />
                                                        </g>
                                                        <defs>
                                                            <clipPath id="clip0_2_134">
                                                                <rect width="24" height="24" fill="white" />
                                                            </clipPath>
                                                        </defs>
                                                    </svg>