<svg width="175" height="172" viewBox="0 0 175 172" fill="none" xmlns="http://www.w3.org/2000/svg">
<g clip-path="url(#clip0_4226_41820)">
<path d="M85.7162 160.542L85.5574 159.903C85.4943 159.6 85.5095 159.393 85.3986 159.393C85.2876 159.393 85.3028 159.6 85.2397 159.903L85.0809 160.542C84.9058 161.261 84.6033 162.6 84.2682 163.877C84.2051 164.1 84.1572 164.164 84.1572 164.276C84.1572 164.356 84.2051 164.42 84.2845 164.42C84.3324 164.42 84.3639 164.42 84.5239 164.404C84.8112 164.387 85.0973 164.372 85.3834 164.372C85.6695 164.372 85.9089 164.388 86.2113 164.404C86.3701 164.42 86.418 164.42 86.4659 164.42C86.5453 164.42 86.5932 164.356 86.5932 164.276C86.5932 164.164 86.529 164.1 86.4811 163.877C86.195 162.569 85.9871 161.627 85.7162 160.542Z" fill="#FF4040"/>
<path d="M131.043 158.915C129.896 158.915 129.371 159.792 129.371 162.824C129.371 165.856 129.896 166.733 131.043 166.733C132.19 166.733 132.715 165.856 132.715 162.824C132.715 159.792 132.19 158.915 131.043 158.915Z" fill="#FF4040"/>
<path d="M105.975 159.074H105.449C105.162 159.074 105.082 159.17 105.082 159.377C105.051 160.319 105.051 161.451 105.051 162.807C105.051 163.892 105.067 165.217 105.082 166.175C105.082 166.478 105.162 166.558 105.576 166.558H105.991C107.743 166.558 108.141 164.93 108.141 162.824C108.141 160.718 107.743 159.09 105.975 159.074Z" fill="#FF4040"/>
<path d="M68.2454 158.915C67.0986 158.915 66.5731 159.792 66.5731 162.824C66.5731 165.856 67.0986 166.733 68.2454 166.733C69.3921 166.733 69.9176 165.856 69.9176 162.824C69.9176 159.792 69.3921 158.915 68.2454 158.915Z" fill="#FF4040"/>
<path d="M0.785889 152.693V172H172.654V152.693H0.785889ZM17.5667 165.649C17.2642 167.627 15.9902 168.553 13.8403 168.553C10.9898 168.553 9.74731 166.637 9.74731 162.824C9.74731 159.01 11.0213 157.095 13.8567 157.095C16.1186 157.095 17.2654 158.164 17.5351 159.999C17.5994 160.463 17.6472 160.908 17.6472 161.388C17.3133 161.34 16.8672 161.292 16.469 161.292C16.0392 161.292 15.5616 161.324 15.2428 161.372L15.2265 161.1C15.1786 160.206 15.0513 158.93 13.8882 158.93C12.7251 158.93 12.1681 159.615 12.1681 162.824C12.1681 165.505 12.5499 166.733 13.8719 166.733C14.9544 166.733 15.1622 165.856 15.2416 165.026C15.258 164.803 15.2732 164.675 15.2732 164.452C15.655 164.5 16.0696 164.531 16.4678 164.531C16.866 164.531 17.2327 164.515 17.6624 164.452C17.6624 164.882 17.6309 165.218 17.5667 165.649ZM27.537 168.362C27.0746 168.314 26.7406 168.298 26.3109 168.298C25.9442 168.298 25.4829 168.298 25.0847 168.362C25.1163 167.277 25.1478 165.585 25.1478 164.244V164.005C25.1478 163.797 25.0999 163.765 24.9084 163.749C24.5265 163.733 24.0489 163.718 23.6659 163.718C23.2829 163.718 22.8064 163.734 22.4234 163.749C22.2319 163.766 22.184 163.797 22.184 164.005V164.244C22.184 165.585 22.2155 167.276 22.2482 168.362C21.85 168.298 21.3876 168.298 21.0221 168.298C20.5923 168.298 20.2572 168.314 19.7959 168.362C19.8275 166.639 19.8438 164.643 19.8438 162.665C19.8438 160.686 19.8275 158.787 19.7959 157.287C20.242 157.335 20.5923 157.35 21.0069 157.35C21.3888 157.35 21.787 157.334 22.2494 157.287C22.2179 158.277 22.1852 160.271 22.1852 161.436V161.612C22.1852 161.852 22.2167 161.867 22.4397 161.883C22.838 161.9 23.2677 161.9 23.6659 161.9C24.0641 161.9 24.4938 161.9 24.892 161.883C25.1151 161.867 25.1466 161.852 25.1466 161.612V161.436C25.1466 160.271 25.1151 158.277 25.0836 157.287C25.546 157.335 25.943 157.35 26.3261 157.35C26.7406 157.35 27.0909 157.334 27.537 157.287C27.5055 158.787 27.4892 160.67 27.4892 162.665C27.4892 164.66 27.5055 166.639 27.537 168.362ZM32.4895 168.362C32.0913 168.314 31.7095 168.298 31.3428 168.298C30.913 168.298 30.4821 168.314 30.0372 168.362C30.0687 166.686 30.0851 164.9 30.0851 163.176C30.0851 161.181 30.0536 159.315 30.0372 157.287C30.4191 157.335 30.8815 157.35 31.2797 157.35C31.6779 157.35 32.124 157.318 32.4907 157.287C32.4743 159.202 32.4428 161.196 32.4428 163.16C32.4428 164.979 32.4743 166.703 32.4907 168.362H32.4895ZM42.4284 165.649C42.1259 167.627 40.8519 168.553 38.702 168.553C35.8515 168.553 34.609 166.637 34.609 162.824C34.609 159.01 35.883 157.095 38.7184 157.095C40.9803 157.095 42.1271 158.164 42.3968 159.999C42.4599 160.463 42.5078 160.908 42.5078 161.388C42.1738 161.34 41.7277 161.292 41.3295 161.292C40.8998 161.292 40.4221 161.324 40.1033 161.372L40.087 161.1C40.0391 160.206 39.9118 158.93 38.7487 158.93C37.5856 158.93 37.0286 159.615 37.0286 162.824C37.0286 165.505 37.4105 166.733 38.7324 166.733C39.8149 166.733 40.0228 165.856 40.1022 165.026C40.1185 164.803 40.1337 164.675 40.1337 164.452C40.5156 164.5 40.9301 164.531 41.3283 164.531C41.7265 164.531 42.0932 164.515 42.523 164.452C42.523 164.882 42.4914 165.218 42.4272 165.649H42.4284ZM51.6339 168.298C51.2193 168.298 50.7896 168.314 50.3598 168.362C50.2641 167.74 50.1204 167.038 49.9137 166.367C49.8495 166.175 49.7864 166.16 49.5798 166.144C49.1173 166.112 48.6876 166.096 48.2263 166.096C47.7966 166.096 47.3984 166.112 46.9523 166.144C46.665 166.16 46.6498 166.207 46.602 166.351C46.3953 166.99 46.2516 167.74 46.1395 168.361C45.8055 168.313 45.3595 168.297 44.9764 168.297C44.6261 168.297 44.1485 168.313 43.7666 168.361C44.4836 165.553 45.9959 160.509 46.7292 157.269C47.1438 157.317 47.7172 157.349 48.2905 157.349C48.816 157.349 49.4209 157.317 49.9628 157.269C50.5046 159.823 52.0811 165.472 52.8612 168.361C52.4466 168.313 52.0017 168.297 51.635 168.297L51.6339 168.298ZM58.3543 166.734C58.8798 166.734 59.3096 166.655 59.5174 166.511C59.8199 166.304 59.9156 166.16 59.9156 165.649C59.9156 165.457 59.8993 165.058 59.8841 164.947C59.8362 164.691 59.7253 164.595 59.4696 164.595C59.2138 164.595 58.3707 164.612 58.1792 164.643C58.227 164.324 58.2434 164.021 58.2434 163.749C58.2434 163.494 58.227 163.079 58.1792 162.76C58.7689 162.791 59.7556 162.808 60.3138 162.808C60.9187 162.808 61.4921 162.791 62.0982 162.76C62.0503 163.238 62.0503 164.308 62.0503 164.866C62.0503 165.632 62.0667 166.781 62.0982 167.419C61.1581 168.169 59.821 168.552 58.2446 168.552C55.4898 168.552 54.0873 166.972 54.0873 162.823C54.0873 158.673 55.505 157.046 58.3392 157.046C60.489 157.046 61.6836 158.036 61.9861 159.823C62.0503 160.157 62.0818 160.381 62.0982 161.164C61.7479 161.132 61.3018 161.099 60.8557 161.099C60.4738 161.099 60.0593 161.116 59.6611 161.164C59.6447 160.573 59.6295 160.014 59.3901 159.536C59.1986 159.153 58.8962 158.882 58.3228 158.882C57.2239 158.882 56.5069 159.6 56.5069 162.824C56.5069 166.048 57.3033 166.733 58.3543 166.733V166.734ZM68.2453 168.554C65.2675 168.554 64.1523 166.527 64.1523 162.825C64.1523 159.123 65.2675 157.096 68.2453 157.096C71.2231 157.096 72.3383 159.123 72.3383 162.825C72.3383 166.527 71.2231 168.554 68.2453 168.554ZM79.9031 168.362C78.9315 168.314 78.2472 168.298 77.2277 168.298C76.2877 168.298 75.3967 168.314 74.4566 168.362C74.4882 166.958 74.5045 165.17 74.5045 163.335C74.5045 161.085 74.4882 158.803 74.4566 157.271C74.7906 157.302 75.2215 157.35 75.6197 157.35C76.0179 157.35 76.5119 157.318 76.9101 157.271C76.8622 158.706 76.8622 160.638 76.8622 162.617C76.8622 163.845 76.8622 165.074 76.8786 166.144C76.8786 166.319 76.9265 166.415 77.181 166.415H77.2768C78.2799 166.415 79.1405 166.383 79.9043 166.335C79.8727 166.655 79.8564 166.974 79.8564 167.293C79.8564 167.66 79.8727 168.011 79.9043 168.362H79.9031ZM88.7583 168.298C88.3437 168.298 87.914 168.314 87.4842 168.362C87.3885 167.74 87.2448 167.038 87.0381 166.367C86.9751 166.175 86.9108 166.16 86.7042 166.144C86.2417 166.112 85.812 166.096 85.3507 166.096C84.921 166.096 84.5228 166.112 84.0767 166.144C83.7906 166.16 83.7742 166.207 83.7264 166.351C83.5197 166.99 83.376 167.74 83.2639 168.361C82.9299 168.313 82.4839 168.297 82.1008 168.297C81.7505 168.297 81.2729 168.313 80.8899 168.361C81.6069 165.553 83.1191 160.509 83.8525 157.269C84.267 157.317 84.8404 157.349 85.4138 157.349C85.9393 157.349 86.5442 157.317 87.086 157.269C87.6279 159.823 89.2043 165.472 89.9844 168.361C89.5698 168.313 89.1238 168.297 88.7583 168.297V168.298ZM100.082 163.352C100.082 165.282 100.051 166.496 100.082 168.362C99.7317 168.331 99.0474 168.298 98.585 168.298C98.0595 168.298 97.374 168.314 96.9922 168.362C96.4351 166.942 94.9054 162.792 94.3168 161.292L94.1416 160.845C94.0295 160.557 93.9828 160.35 93.8707 160.35C93.8077 160.35 93.7913 160.446 93.7913 160.509C93.7913 160.622 93.8392 161.324 93.8392 161.435V163.159C93.8392 163.654 93.9186 168.026 93.9186 168.361C93.5846 168.313 93.2016 168.297 92.8513 168.297C92.5009 168.297 92.0548 168.313 91.6251 168.361C91.6415 166.909 91.673 165.106 91.673 163.175C91.673 161.244 91.6415 159.09 91.6251 157.286C92.0397 157.317 92.724 157.349 93.2658 157.349C93.7598 157.349 94.3962 157.317 94.7792 157.286C95.1775 158.435 96.9291 163.094 97.4394 164.339L97.6146 164.77C97.7255 165.058 97.7734 165.265 97.8855 165.265C97.9486 165.265 97.9649 165.2 97.9649 165.137C97.9649 164.993 97.917 164.452 97.917 163.94V163.462C97.917 163.015 97.8213 157.685 97.8213 157.286C98.1237 157.317 98.5862 157.349 98.9517 157.349C99.3172 157.349 99.7481 157.317 100.115 157.286C100.083 159.137 100.083 161.483 100.083 163.35L100.082 163.352ZM106.612 168.362H106.406C105.864 168.362 105.275 168.298 104.59 168.298C103.904 168.298 103.268 168.314 102.646 168.362C102.678 166.718 102.694 164.819 102.694 162.824C102.694 160.973 102.678 159.09 102.646 157.287C103.268 157.335 103.937 157.35 104.59 157.35C105.242 157.35 105.864 157.287 106.406 157.287H106.612C108.889 157.287 110.626 158.676 110.626 162.824C110.626 166.972 108.889 168.362 106.612 168.362ZM124.863 168.362C124.401 168.314 124.067 168.298 123.637 168.298C123.27 168.298 122.809 168.298 122.411 168.362C122.442 167.277 122.475 165.585 122.475 164.244V164.005C122.475 163.797 122.427 163.765 122.236 163.749C121.854 163.733 121.376 163.718 120.993 163.718C120.61 163.718 120.134 163.734 119.751 163.749C119.559 163.766 119.511 163.797 119.511 164.005V164.244C119.511 165.585 119.543 167.276 119.576 168.362C119.177 168.298 118.715 168.298 118.349 168.298C117.92 168.298 117.585 168.314 117.123 168.362C117.155 166.639 117.171 164.643 117.171 162.665C117.171 160.686 117.155 158.787 117.123 157.287C117.569 157.335 117.92 157.35 118.333 157.35C118.715 157.35 119.113 157.334 119.576 157.287C119.544 158.277 119.511 160.271 119.511 161.436V161.612C119.511 161.852 119.543 161.867 119.766 161.883C120.164 161.9 120.594 161.9 120.992 161.9C121.39 161.9 121.82 161.9 122.218 161.883C122.441 161.867 122.473 161.852 122.473 161.612V161.436C122.473 160.271 122.441 158.277 122.409 157.287C122.871 157.335 123.269 157.35 123.651 157.35C124.066 157.35 124.416 157.334 124.862 157.287C124.83 158.787 124.814 160.67 124.814 162.665C124.814 164.66 124.83 166.639 124.862 168.362H124.863ZM131.043 168.554C128.065 168.554 126.95 166.527 126.95 162.825C126.95 159.123 128.065 157.096 131.043 157.096C134.021 157.096 135.136 159.123 135.136 162.825C135.136 166.527 134.021 168.554 131.043 168.554ZM145.711 163.352C145.711 165.282 145.68 166.496 145.711 168.362C145.361 168.331 144.675 168.298 144.214 168.298C143.689 168.298 143.004 168.314 142.621 168.362C142.064 166.942 140.535 162.792 139.946 161.292L139.771 160.845C139.66 160.557 139.612 160.35 139.5 160.35C139.436 160.35 139.421 160.446 139.421 160.509C139.421 160.622 139.468 161.324 139.468 161.435V163.159C139.468 163.654 139.548 168.026 139.548 168.361C139.214 168.313 138.831 168.297 138.48 168.297C138.13 168.297 137.684 168.313 137.254 168.361C137.271 166.909 137.302 165.106 137.302 163.175C137.302 161.244 137.271 159.09 137.254 157.286C137.669 157.317 138.353 157.349 138.895 157.349C139.389 157.349 140.025 157.317 140.408 157.286C140.807 158.435 142.558 163.094 143.069 164.339L143.244 164.77C143.356 165.058 143.403 165.265 143.515 165.265C143.579 165.265 143.594 165.2 143.594 165.137C143.594 164.993 143.546 164.452 143.546 163.94V163.462C143.546 163.015 143.451 157.685 143.451 157.286C143.753 157.317 144.215 157.349 144.581 157.349C144.946 157.349 145.377 157.317 145.744 157.286C145.712 159.137 145.712 161.483 145.712 163.35L145.711 163.352ZM154.439 168.362C153.563 168.314 152.575 168.298 151.524 168.298C150.409 168.298 149.438 168.314 148.276 168.362C148.292 166.926 148.324 164.915 148.324 162.953C148.324 160.99 148.307 159.043 148.276 157.287C149.168 157.318 149.964 157.35 151.03 157.35C152.097 157.35 153.18 157.302 154.264 157.287C154.232 157.606 154.216 157.989 154.216 158.308C154.216 158.643 154.232 158.963 154.264 159.266C153.213 159.218 152.114 159.186 151.095 159.186C150.792 159.186 150.744 159.266 150.713 159.378C150.649 159.633 150.665 161.022 150.665 161.325V161.66C150.665 161.835 150.713 161.915 150.967 161.915H151.174C151.987 161.915 153.292 161.883 154.104 161.85C154.072 162.233 154.056 162.569 154.056 162.888C154.056 163.239 154.072 163.559 154.104 163.83C153.387 163.782 152.463 163.766 151.652 163.766C151.333 163.766 151.143 163.782 150.935 163.782C150.695 163.782 150.664 163.878 150.664 164.037V164.325C150.664 164.916 150.664 165.602 150.695 166.16C150.712 166.367 150.791 166.415 151.062 166.415C152.209 166.415 153.339 166.383 154.438 166.335C154.406 166.703 154.39 167.069 154.39 167.389C154.39 167.756 154.406 168.074 154.438 168.362H154.439ZM161.383 163.638C161.143 164.181 161.095 164.5 161.095 165.107C161.095 166.145 161.143 167.277 161.175 168.362C160.808 168.314 160.347 168.298 159.98 168.298C159.582 168.298 159.232 168.298 158.723 168.362C158.754 167.229 158.787 166.128 158.787 165.138C158.787 164.309 158.739 164.213 158.499 163.638C157.687 161.723 156.413 158.867 155.616 157.287C156.079 157.335 156.54 157.35 156.97 157.35C157.399 157.35 157.846 157.318 158.196 157.287C158.578 158.292 159.343 160.095 159.709 160.845C159.772 160.956 159.932 161.484 159.947 161.516C159.979 161.612 160.027 161.628 160.06 161.628C160.107 161.628 160.155 161.596 160.203 161.469L160.426 160.878C160.745 160.048 161.573 158.373 161.971 157.287C162.322 157.335 162.64 157.35 162.991 157.35C163.373 157.35 163.771 157.334 164.329 157.287C163.485 158.979 162.083 161.994 161.383 163.638Z" fill="#FF4040"/>
<path d="M48.5919 160.542L48.4331 159.903C48.3688 159.6 48.3852 159.393 48.2742 159.393C48.1633 159.393 48.1785 159.6 48.1154 159.903L47.9566 160.542C47.7814 161.261 47.479 162.6 47.1438 163.877C47.0796 164.1 47.0317 164.164 47.0317 164.276C47.0317 164.356 47.0796 164.42 47.159 164.42C47.2069 164.42 47.2384 164.42 47.3984 164.404C47.6857 164.387 47.9718 164.372 48.2591 164.372C48.5463 164.372 48.7846 164.388 49.087 164.404C49.2458 164.42 49.2937 164.42 49.3416 164.42C49.421 164.42 49.4689 164.356 49.4689 164.276C49.4689 164.164 49.4046 164.1 49.3568 163.877C49.0695 162.569 48.8628 161.627 48.5919 160.542Z" fill="#FF4040"/>
<path d="M113.153 43.703C110.285 48.6678 106.646 52.9002 102.58 56.0654C103.249 54.6835 103.8 53.1904 104.227 51.5967C106.668 42.465 104.646 30.9908 98.8174 20.902C96.399 16.7164 93.4714 12.9861 90.2017 9.87122C91.5878 8.91523 93.016 8.0821 94.4734 7.38354C100.583 4.45706 106.445 4.28739 110.982 6.90496C114.395 8.87428 116.841 12.3109 118.053 16.8428C120.156 24.7072 118.324 34.7481 113.151 43.7018M92.2873 60.2287C90.4586 61.2841 88.415 61.8856 86.2266 62.0377C84.0382 61.8867 81.9935 61.2841 80.1647 60.2287C77.5793 58.7368 75.5509 56.4024 74.1916 53.3881H98.2616C96.9023 56.4012 94.8739 58.7356 92.2885 60.2287M59.2991 43.703C54.1271 34.7492 52.2937 24.7084 54.3968 16.844C55.609 12.3121 58.0531 8.87545 61.4677 6.90613C63.6035 5.67282 66.0336 5.0585 68.6447 5.0585C71.5793 5.0585 74.744 5.83546 77.9763 7.38354C79.4349 8.0821 80.8619 8.91523 82.248 9.87122C78.9783 12.9861 76.0507 16.7164 73.6323 20.902C67.8039 30.9908 65.7814 42.4662 68.2232 51.5967C68.6494 53.1904 69.2006 54.6823 69.8697 56.0654C65.8036 52.9002 62.1648 48.6678 59.2968 43.703M73.4419 34.4508C73.8483 32.8852 74.3574 31.3126 74.9635 29.7505H97.4885C98.0946 31.3137 98.6037 32.8852 99.0101 34.4508H73.4419ZM100.089 46.1076H72.3617C72.2239 44.6028 72.2029 43.0489 72.301 41.4622H100.15C100.248 43.0501 100.227 44.604 100.089 46.1076ZM86.2254 13.054C89.0935 15.6902 91.6859 18.8765 93.8766 22.4688H78.5754C80.7661 18.8765 83.3586 15.6902 86.2254 13.054ZM122.922 15.537C121.356 9.68166 118.097 5.1837 113.499 2.52986C107.481 -0.943063 99.9525 -0.836582 92.3013 2.82825C90.2098 3.82987 88.1756 5.06903 86.2266 6.51648C84.2776 5.06903 82.2434 3.83104 80.1519 2.82825C72.5007 -0.836582 64.9733 -0.943063 58.9546 2.52986C54.3548 5.1837 51.0967 9.68166 49.5308 15.537C47.089 24.6686 49.1104 36.144 54.9399 46.2328C59.6436 54.3745 66.273 60.7927 73.6066 64.3065C77.5408 66.1916 81.4411 67.1347 85.1219 67.1347C85.4932 67.1347 85.8611 67.1254 86.2278 67.1055C90.225 67.3161 94.5189 66.38 98.849 64.3065C106.183 60.7938 112.812 54.3757 117.516 46.2328C123.344 36.144 125.367 24.6686 122.924 15.537" fill="#FF4040"/>
<path d="M163.527 101.296C163.611 101.188 163.781 101.197 163.846 101.32C165.877 105.209 159.955 112.101 156.399 111.384C156.366 111.377 156.334 111.362 156.309 111.34C156.194 111.242 156.079 111.146 155.963 111.049C158.485 107.798 161.007 104.547 163.528 101.296M171.801 111.735C169.398 114.218 166.877 116.588 164.376 118.969C161.459 121.744 158.417 124.384 154.705 126.025C153.177 126.7 151.597 127.236 149.808 126.961C149.712 126.947 149.639 126.858 149.64 126.758C149.696 122.157 151.787 118.49 153.851 114.735C153.91 114.626 154.055 114.604 154.146 114.687C157.485 117.689 159.204 117.907 162.194 115.529C165.137 113.191 167.294 110.13 168.797 106.627C170.739 102.099 167.71 98.2283 164.116 96.2941C163.6 96.0156 162.769 96.0121 162.209 96.2262C161.083 96.658 159.859 97.1237 158.997 97.9346C153.024 103.552 148.265 110.086 145.408 117.91C144.818 119.525 144.406 121.424 144.625 123.093C145.554 130.147 152.107 133.829 158.514 131.069C161.943 129.591 164.863 126.283 167.33 123.463C170.593 119.735 171.411 115.88 172.68 112.297C172.874 111.748 172.202 111.32 171.8 111.734" fill="#FF4040"/>
<path d="M120.737 102.477C120.737 102.477 120.737 102.488 120.736 102.493C120.723 102.588 120.707 102.682 120.695 102.775C119.967 108.943 110.455 121.234 100.507 125.499C98.9236 126.178 97.2992 126.743 95.4413 126.407L95.3537 126.221L95.4098 126.264C95.4133 123.236 96.0649 115.589 105.406 104.954C106.514 103.693 107.828 102.73 109.165 101.739C109.306 101.654 109.45 101.574 109.595 101.496C109.617 101.651 109.637 101.807 109.648 101.964C109.696 102.587 110.04 103.056 110.517 103.391C110.244 103.971 108.845 105.347 108.559 107.442C108.389 108.681 108.964 110.178 109.869 110.962C110.539 111.543 111.834 112.052 112.131 110.781C112.186 110.547 113.571 108.069 113.649 107.842C113.688 107.731 113.732 107.621 113.773 107.511C113.776 107.5 113.779 107.494 113.781 107.486C113.783 107.48 113.786 107.477 113.788 107.471C114.025 106.978 114.289 106.505 114.589 106.048C115.191 105.134 115.904 104.3 116.686 103.544C117.671 102.649 118.792 101.84 120.05 101.416C120.285 101.357 120.526 101.319 120.769 101.306C120.775 101.475 120.778 101.645 120.775 101.815C120.77 102.035 120.756 102.256 120.736 102.476M120.339 96.4906C119.015 96.0507 117.565 96.4941 116.379 97.1319C115.912 97.3834 115.465 97.6771 115.033 97.9978C114.13 97.0184 112.745 96.5211 111.464 96.4169C108.513 96.177 105.679 97.4396 103.451 99.2943C92.1634 108.695 90.2097 120.898 90.4293 122.569C91.3576 129.623 97.9111 133.305 104.319 130.545C107.747 129.067 118.408 121.186 123.796 108.109C124.609 106.136 124.719 103.789 124.247 101.677C123.765 99.5294 122.511 97.2114 120.339 96.4906Z" fill="#FF4040"/>
<path d="M49.254 101.267C51.6981 105.122 45.5277 112.38 41.8994 111.569C41.771 111.461 41.6425 111.354 41.5141 111.246C44.0936 107.919 46.6732 104.593 49.254 101.267ZM73.5879 101.941C76.032 105.795 69.8604 113.054 66.2333 112.243C66.1048 112.135 65.9764 112.028 65.8479 111.92C68.4275 108.593 71.0071 105.267 73.5879 101.941ZM103.577 81.7682C104.535 79.4537 103.567 77.255 101.725 75.625C101.611 75.5244 101.527 75.3863 101.425 75.2693C99.8077 73.4147 98.8711 73.568 97.986 75.9222C97.3484 77.6166 96.8941 79.3835 96.2437 81.072C93.3359 88.6204 87.1293 101.44 84.183 108.974C83.9985 109.445 83.7649 109.947 83.4193 110.295C80.5372 113.186 77.7346 116.176 74.6856 118.875C71.9588 121.289 69.0324 123.498 66.0359 125.557C64.2399 126.789 62.1146 127.445 59.7347 127.163C59.591 122.404 61.9394 118.709 63.9888 114.671C64.4022 115.03 64.6334 115.234 64.867 115.435C67.742 117.909 70.0133 118.054 72.6712 115.332C74.7393 113.215 76.6124 110.794 78.1153 108.229C80.4134 104.307 79.9277 101.835 76.8646 98.5115C74.2255 95.6482 72.1749 95.427 69.1831 98.013C67.4396 99.5213 65.8584 101.262 64.3929 103.061C62.5665 105.301 61.115 107.879 59.1753 110C56.2454 113.201 53.0702 116.176 49.9278 119.167C47.0107 121.943 43.9687 124.582 40.2575 126.224C38.6822 126.92 37.0509 127.467 35.1918 127.132C35.1964 122.362 37.3942 118.599 39.5195 114.724C42.9773 117.878 44.7044 118.148 47.7487 115.729C50.6915 113.391 52.8484 110.33 54.3513 106.826C56.2933 102.298 53.2641 98.4272 49.6709 96.4942C49.1547 96.2157 48.3221 96.211 47.7639 96.4263C46.637 96.8581 45.4132 97.3238 44.5514 98.1335C38.5783 103.751 33.8197 110.286 30.9621 118.109C30.3724 119.723 29.9602 121.623 30.1797 123.292C31.1081 130.346 37.6616 134.028 44.068 131.268C47.4977 129.79 50.4439 127.556 53.1648 124.991C53.6273 124.555 54.0874 124.118 54.5825 123.649C55.5786 127.85 58.087 130.442 61.6592 131.926C62.716 132.364 64.0706 132.278 65.2547 132.135C68.8759 131.699 71.8432 129.739 74.6622 127.546C76.1207 126.411 77.4835 125.148 79.0051 123.845C77.6587 128.353 75.5929 132.079 74.4076 136.426C73.5447 139.59 74.8479 142.093 77.8 143.311C78.1982 143.475 79.7315 143.423 80.069 143.182C80.4041 142.945 80.7696 142.188 80.633 141.921C79.9323 140.559 80.5699 139.372 80.9576 138.177C86.6587 120.602 96.5169 98.8321 103.578 81.7682" fill="#FF4040"/>
<path d="M162.912 84.2606C160.82 81.4781 160.25 81.3751 157.979 83.9517C151.547 91.2498 145.159 98.59 138.899 106.042C136.168 109.292 133.792 112.853 131.256 116.272C131.131 116.221 131.006 116.17 130.881 116.12C131.146 111.876 131.159 107.594 131.765 103.403C132.177 100.552 131.086 98.6871 129.305 96.9623C128.971 96.6394 128.538 96.4217 128.091 96.2205C127.568 95.9841 126.958 96.2006 126.678 96.7107C126.437 97.1495 126.221 97.5895 126.193 98.0435C125.611 107.345 125.185 116.657 124.546 125.954C124.33 129.101 126.08 130.786 128.202 132.362C129.194 133.099 129.98 132.899 130.585 131.608C131.168 130.366 131.781 129.137 132.542 128C141.665 114.374 151.589 101.402 162.673 89.3799C165.487 86.3282 164.937 86.9507 162.915 84.2618" fill="#FF4040"/>
<path d="M26.1182 102.696C25.9769 105.537 25.1233 108.221 24.2334 110.884C22.6009 115.771 20.2513 120.299 17.1007 124.372C16.1548 125.596 15.0431 126.749 13.8193 127.685C12.0361 129.047 10.455 128.393 9.86058 126.212C9.67724 125.539 9.60367 124.836 9.5336 124.445C9.53827 121.199 9.83138 118.374 11.6484 115.861C14.4522 111.983 24.4366 99.9589 25.2762 100.415C26.1696 100.901 26.1614 101.816 26.1182 102.696ZM27.2101 96.4509C24.9259 95.2141 23.6238 95.3416 21.627 96.9892C19.3872 98.8368 17.6718 101.141 16.0591 103.529C15.5418 104.297 15.0396 105.075 14.5316 105.848C18.7332 94.017 23.3576 82.2281 27.7612 71.051C27.9714 70.5175 25.6254 65.5479 23.6005 64.7838C22.9033 64.5206 22.1338 64.8739 21.8582 65.5795C20.2887 69.6129 4.23896 114.832 0.397014 126.699C-0.527855 129.556 0.164629 131.601 2.45929 133.389C5.04355 135.403 5.39038 135.334 6.13074 132.029C6.18445 131.791 6.2732 131.562 6.3386 131.326C6.56748 130.509 6.80804 129.686 7.0451 128.866C7.92909 130.277 9.77767 131.695 10.9081 132.02C14.8785 133.161 18.3023 132.487 21.4343 129.531C39.9597 105.538 27.878 96.8136 27.2101 96.4509Z" fill="#FF4040"/>
<path d="M169.198 129.121V129.104C169.198 127.518 170.482 126.18 172.099 126.18C173.717 126.18 175 127.5 175 129.087V129.103C175 130.69 173.717 132.027 172.099 132.027C170.482 132.027 169.198 130.707 169.198 129.121ZM174.667 129.104V129.088C174.667 127.667 173.567 126.498 172.099 126.498C170.631 126.498 169.531 127.685 169.531 129.104V129.121C169.531 130.541 170.631 131.71 172.099 131.71C173.567 131.71 174.667 130.524 174.667 129.104ZM170.965 127.567H172.299C172.949 127.567 173.433 127.884 173.433 128.503C173.433 128.987 173.149 129.288 172.75 129.405L173.533 130.525H172.85L172.149 129.506H171.533V130.525H170.966V127.568L170.965 127.567ZM172.25 129.038C172.633 129.038 172.85 128.838 172.85 128.553C172.85 128.236 172.633 128.069 172.25 128.069H171.533V129.038H172.25Z" fill="#FF4040"/>
</g>
<defs>
<clipPath id="clip0_4226_41820">
<rect width="175" height="172" fill="white"/>
</clipPath>
</defs>
</svg>
