<svg xmlns="http://www.w3.org/2000/svg" width="175" height="175" viewBox="0 0 175 175" fill="none">
  <path d="M80.0975 45.6834C79.0294 44.6153 79.0294 42.8852 80.0975 41.8165C81.1628 40.7513 82.8877 40.7484 83.9587 41.8114C84.7545 42.5935 86.4288 43.75 87.4997 43.75C88.5706 43.75 90.2472 42.5913 91.043 41.8086C92.1191 40.7513 93.8497 40.7605 94.9042 41.8286C95.9672 42.8967 95.9672 44.6188 94.9014 45.6829C94.5408 46.0447 91.2589 49.2182 87.4992 49.2182C83.7395 49.2182 80.4576 46.0446 80.097 45.6829L80.0975 45.6834ZM131.25 76.5622C131.25 83.2056 128.03 87.4997 123.047 87.4997C121.651 87.4997 120.393 87.2838 119.251 86.9061C117.383 89.4758 115.143 91.9391 112.569 94.2695L120.296 166.505C120.379 167.277 120.13 168.047 119.612 168.624C119.092 169.201 118.355 169.531 117.578 169.531C105.377 169.531 98.2387 163.444 95.7566 150.922L95.1983 148.087C93.8283 141.067 90.8057 125.596 87.4464 121.106C85.7323 123.27 84.704 127.896 83.1847 134.738C82.2049 139.152 80.9847 144.645 79.1982 151.118C75.6549 163.921 72.5224 169.531 57.4224 169.531C56.6613 169.531 55.935 169.215 55.4172 168.656C54.9016 168.098 54.6401 167.351 54.696 166.593C55.5282 155.499 61.3974 103.361 62.4251 94.2636C59.8572 91.9405 57.6177 89.4786 55.7499 86.9077C54.6083 87.2853 53.3499 87.5007 51.9543 87.5007C46.9715 87.5007 43.7512 83.2066 43.7512 76.5632C43.7512 70.5721 45.6629 67.0601 49.3806 66.0022C50.4311 57.5092 57.0591 50.7408 65.4792 49.4604C62.9026 44.7294 62.8924 37.968 62.8924 30.0791C62.8924 15.82 73.2426 5.46973 87.5018 5.46973C101.761 5.46973 112.111 15.82 112.111 30.0791C112.111 37.969 112.101 44.7295 109.524 49.4604C117.944 50.7409 124.571 57.5096 125.623 66.0022C129.34 67.0601 131.252 70.5721 131.252 76.5632L131.25 76.5622ZM68.3594 30.0778C68.3594 41.3503 68.5952 47.3912 73.3326 49.6924C80.422 51.0607 84.9896 55.0712 87.5 58.0869C90.0066 55.0773 94.5502 51.0732 101.613 49.7163C106.401 47.4353 106.641 41.3924 106.641 30.0784C106.641 18.8083 98.7685 10.9378 87.5 10.9378C76.2315 10.9378 68.3594 18.8083 68.3594 30.0784V30.0778ZM59.9455 71.0934H51.9531C50.6714 71.0934 49.2187 71.0934 49.2187 76.5622C49.2187 77.8451 49.4164 82.0309 51.9531 82.0309C57.7318 82.0309 59.4408 75.0856 59.9455 71.0934ZM107.518 98.4649C98.2785 105.387 88.927 109.022 88.4793 109.193C88.1642 109.315 87.8304 109.375 87.4994 109.375C87.1685 109.375 86.8346 109.315 86.5196 109.193C86.0713 109.022 76.7084 105.383 67.4534 98.4414C65.6361 114.584 61.6114 150.796 60.4073 163.98C69.6757 163.418 71.1101 159.835 73.9271 149.661C75.6759 143.323 76.8778 137.905 77.8469 133.552C80.1324 123.249 81.3959 117.573 86.2768 115.13C87.0458 114.746 87.9539 114.746 88.7229 115.13C94.4747 118.006 97.4893 131.281 100.566 147.037L101.118 149.854C103.23 160.49 108.766 163.307 114.521 163.915L107.518 98.4649ZM114.659 83.9363C110.65 79.7298 109.374 72.7543 109.374 68.3598C109.374 66.8497 110.597 65.6254 112.109 65.6254H120.036C118.765 59.3928 113.242 54.6879 106.64 54.6879C105.468 54.6879 104.349 54.7722 103.313 54.9391C103.219 54.9659 103.123 54.987 103.027 55.0047C93.9076 56.5667 90.0972 63.818 89.9399 64.1261C89.47 65.0393 88.5272 65.6186 87.5018 65.6186H87.4887C86.4581 65.6146 85.5154 65.0352 85.0534 64.1141C84.9013 63.8191 81.1227 56.6243 72.0542 54.9966C72.0035 54.9915 71.9557 54.9847 71.9073 54.9767C70.8095 54.7859 69.6161 54.6884 68.3583 54.6884C61.7564 54.6884 56.2335 59.3933 54.9627 65.6259H62.8895C64.4008 65.6259 65.6239 66.8501 65.6239 68.3603C65.6239 72.7547 64.3479 79.7308 60.3392 83.9368C62.1884 86.4381 64.4345 88.8473 67.0765 91.1122C75.058 98.0763 84.4788 102.398 87.499 103.685C90.5165 102.4 99.937 98.0793 107.905 91.1283C110.56 88.8502 112.809 86.4388 114.659 83.9369L114.659 83.9363ZM125.781 76.5626C125.781 71.0939 124.328 71.0939 123.046 71.0939H115.054C115.559 75.0861 117.268 82.0314 123.046 82.0314C125.583 82.0314 125.781 77.8455 125.781 76.5626Z" fill="#FF4040"/>
</svg>