<svg xmlns="http://www.w3.org/2000/svg" width="176" height="175" viewBox="0 0 176 175" fill="none">
  <path d="M60.6038 40.635L63.7847 38.0459L71.3447 47.3348L68.1638 49.9239L60.6038 40.635Z" fill="#FF4040"/>
  <path d="M104.657 47.3287L112.22 38.042L115.4 40.6323L107.838 49.919L104.657 47.3287Z" fill="#FF4040"/>
  <path d="M84.2681 29.3125H88.3697V43.4219H84.2681V29.3125Z" fill="#FF4040"/>
  <path d="M27.4471 109.456C30.8514 111.411 35.1717 110.413 37.3865 107.173L42.2127 110.331C37.7967 116.47 41.8436 122.909 47.5995 123.333C45.5077 128.925 50.2108 134.763 56.1991 133.819C56.5136 139.589 62.6932 143.075 67.8203 140.327C69.8847 146.384 77.9512 147.587 81.7109 142.392L82.9414 140.669C88.6973 142.966 99.8129 146.63 103.532 141.134C104.584 139.589 104.994 137.47 104.844 136.034C109.247 136.198 112.91 132.808 113.047 128.405C117.791 129.677 122.713 126.273 122.973 121.187C129.043 123.196 135.018 117.386 132.885 111.165L137.93 106.093C140.569 110.646 145.121 111.411 148.539 109.443L163.183 101.021L134.252 51.0771L119.609 59.5127C116.013 61.5772 114.783 66.1572 116.861 69.753L117.804 71.3799C115.617 72.1045 113.238 72.0772 111.05 71.2842C93.0721 64.7491 98.9373 65.2823 77.6094 68.5089C73.6445 69.1104 70.2266 71.4346 68.2169 74.88C67.7657 75.4816 68.3946 75.3312 64.7306 75.3312C62.7209 75.3312 62.1056 74.675 57.8946 71.8449C59.2618 69.4796 60.7658 67.4562 59.8634 64.0656C59.3302 62.0694 58.045 60.4836 56.3634 59.5128L41.7203 51.0772L12.7899 101.021L27.4461 109.443L27.4471 109.456ZM97.8569 70.86C110.134 75.3169 111.392 76.069 114.823 76.0143C116.464 75.9869 118.255 75.6452 119.909 74.9889L135.796 102.414L130.546 107.705C130.013 107.24 93.7553 84.1897 92.5114 83.602C89.0933 82.016 86.5504 82.686 83.2419 83.6567C80.3572 84.4906 79.5506 86.0629 74.9294 91.5042C72.6188 94.2112 68.8318 95.2367 65.4822 94.0883C60.82 91.9964 60.574 92.0238 60.82 91.6957C73.3435 74.8928 73.1247 75.3303 72.9881 75.3303C75.8455 72.2678 77.7596 72.6369 92.8666 70.3537C94.5619 70.1076 96.2846 70.2717 97.8704 70.8596L97.8569 70.86ZM141.826 104.657C120.457 67.7566 120.525 67.8791 120.416 67.7012C119.472 66.0743 120.033 64.0099 121.66 63.0665L132.748 56.6817L157.563 99.5159L146.475 105.887C144.848 106.83 142.756 106.27 141.813 104.643L141.826 104.657ZM57.5106 89.2481C55.8563 91.463 56.663 94.6349 59.2059 95.7832C62.2547 97.1504 63.9091 97.8887 64.0184 97.9297C68.9813 99.6934 74.6141 98.1758 78.0321 94.17C84.0615 87.088 82.5575 88.1406 86.4814 86.9922C88.163 86.5137 89.9677 86.7734 91.4443 87.7031L127.538 110.603C129.22 111.738 129.739 114.09 128.55 115.84C127.374 117.562 125.022 118.027 123.286 116.851L101.055 105.435C98.6353 104.191 96.7622 107.842 99.1821 109.086L118.31 118.888C120.388 122.361 116.259 126.176 112.95 123.933C112.704 123.769 112.923 123.892 94.6307 115.881C92.1425 114.787 90.5019 118.547 92.9901 119.64L108.508 126.435C110.354 129.922 106.266 133.49 103.026 131.303C102.711 131.097 103.026 131.248 88.766 125.738C86.2367 124.767 84.7601 128.582 87.2894 129.566L100.004 134.474C100.961 135.732 101.043 137.51 100.141 138.849C98.6372 141.078 91.1997 139.314 88.4926 138.385C87.5083 138.043 86.3735 137.619 85.4027 137.25C89.1077 132.095 86.2504 125.93 80.9867 124.699C79.5375 124.357 79.7563 124.891 80.0434 123.605C81.0961 118.916 77.8284 114.719 73.4809 114.103C71.7172 113.857 72.059 114.418 72.059 113.269C72.059 106.351 63.7602 102.879 58.7699 107.541C56.268 101.99 48.6664 101.334 45.18 106.201C44.4828 107.172 44.6741 107.062 44.346 106.844L39.4651 103.658L55.816 75.4262C59.1382 77.6547 61.1069 79.4594 64.7163 79.4594C64.853 79.4594 65.6323 78.3657 57.4976 89.2757L57.5106 89.2481ZM71.4832 137.783C71.4832 136.347 72.0438 135.814 76.1454 130.099C77.3622 128.445 79.7138 128.062 81.4091 129.279C83.0634 130.455 83.5419 132.779 82.2841 134.529L79.0438 139.041L78.3739 139.984C76.2138 142.965 71.4832 141.433 71.4832 137.783ZM61.8582 136.457C60.2039 135.281 59.7391 132.943 60.9832 131.207C69.5691 119.285 69.7879 118.054 72.4129 118.095C74.4363 118.136 76.1454 119.75 76.1454 121.869C76.1454 123.373 76.3915 122.758 67.1492 135.595C65.9187 137.291 63.5535 137.674 61.8445 136.457L61.8582 136.457ZM55.8836 65.1311C56.3211 66.7854 55.5281 67.7151 54.4617 69.5608C54.325 69.4651 55.1863 68.2893 34.1179 104.67C33.1746 106.283 31.0964 106.83 29.4695 105.901L18.3816 99.5294L43.2098 56.6953C54.8719 63.4218 55.3914 63.3125 55.8836 65.1446V65.1311ZM45.1101 113.311C48.241 108.964 48.9792 107.146 51.4265 107.022C53.6686 106.927 55.3777 108.677 55.3777 110.782C55.3777 112.368 54.571 113.106 51.2624 117.7C49.1159 120.667 44.3855 119.163 44.3855 115.499C44.3855 114.72 44.6316 113.954 45.0964 113.311H45.1101ZM51.8914 123.866C61.448 110.563 61.6395 109.456 64.237 109.497C66.2195 109.524 67.9558 111.097 67.9558 113.257C67.9558 114.925 68.0378 114.364 58.0164 128.295C56.7996 129.963 54.4344 130.332 52.7664 129.129C51.0164 127.871 50.6883 125.533 51.8914 123.865V123.866Z" fill="#FF4040"/>
</svg>