<svg xmlns="http://www.w3.org/2000/svg" width="152" height="153" viewBox="0 0 152 153" fill="none">
  <path d="M84.8299 139.225C84.7973 139.225 84.7627 139.224 84.73 139.223L30.4217 136.939C29.1496 136.886 28.1466 135.84 28.1466 134.567V111.954C28.1466 110.643 29.2099 109.579 30.5216 109.579H41.6856L54.8108 103.405C58.4985 101.669 62.7903 101.531 66.5849 103.025L85.386 110.436C87.3642 111.216 88.8906 112.791 89.612 114.779L112.449 107.371C116.285 106.129 120.453 107.659 122.566 111.105C123.918 113.309 124.222 115.98 123.398 118.431C122.578 120.882 120.724 122.83 118.314 123.772L85.8396 139C85.521 139.149 85.1776 139.226 84.8297 139.226L84.8299 139.225ZM32.8966 132.289L84.3473 134.453L116.44 119.411C117.678 118.921 118.522 118.035 118.896 116.921C119.269 115.806 119.13 114.592 118.515 113.589C117.555 112.022 115.662 111.319 113.914 111.89L89.6254 119.77C89.4424 120.282 89.1989 120.779 88.8996 121.25C87.102 124.071 83.6255 125.333 80.4362 124.312L62.6243 118.608C61.3755 118.209 60.6877 116.872 61.088 115.622C61.4868 114.374 62.8227 113.685 64.074 114.085L81.8846 119.789C83.0167 120.144 84.2552 119.703 84.893 118.7C85.0854 118.397 85.2131 118.063 85.2685 117.718C85.2754 117.653 85.2824 117.589 85.2942 117.525C85.3244 117.177 85.2873 116.824 85.176 116.483C84.9326 115.737 84.3759 115.143 83.6451 114.856L64.844 107.445C62.2611 106.427 59.3423 106.522 56.8328 107.704L43.2275 114.104C42.9109 114.253 42.5655 114.33 42.2162 114.33H32.8958L32.8966 132.289Z" fill="#FF4B00"/>
  <path d="M40.6853 136.717H30.5219C29.2102 136.717 28.1469 135.654 28.1469 134.342V111.957C28.1469 110.645 29.2102 109.582 30.5219 109.582H40.6853C41.997 109.582 43.0603 110.645 43.0603 111.957V134.342C43.0603 135.654 41.997 136.717 40.6853 136.717ZM32.8969 131.967H38.3103V114.332H32.8969V131.967Z" fill="#FF4B00"/>
  <path d="M100.469 116.13C99.4675 116.13 98.5352 115.491 98.2102 114.487C97.8045 113.239 98.4883 111.9 99.7362 111.495L101.223 111.013C102.255 110.678 102.985 109.88 103.231 108.824C103.477 107.768 103.171 106.729 102.392 105.974C101.353 104.967 99.7405 104.841 98.5555 105.672L85.8825 114.586C84.8088 115.341 83.3289 115.083 82.5728 114.01C81.8193 112.937 82.0766 111.456 83.1503 110.701L95.8233 101.787C98.8662 99.6453 103.022 99.9713 105.699 102.563C107.673 104.478 108.48 107.22 107.858 109.898C107.237 112.577 105.305 114.681 102.689 115.531L101.202 116.013C100.959 116.092 100.713 116.13 100.469 116.13Z" fill="#FF4B00"/>
  <path d="M83.125 60.8491C75.2672 60.8491 68.875 54.4568 68.875 46.5991C68.875 38.7413 75.2672 32.3491 83.125 32.3491C90.9828 32.3491 97.375 38.7413 97.375 46.5991C97.375 54.4568 90.9828 60.8491 83.125 60.8491ZM83.125 37.0991C77.8867 37.0991 73.625 41.3608 73.625 46.5991C73.625 51.8374 77.8867 56.0991 83.125 56.0991C88.3643 56.0991 92.625 51.8374 92.625 46.5991C92.625 41.3608 88.3643 37.0991 83.125 37.0991Z" fill="#FF4B00"/>
  <path d="M91.067 77.4715C90.26 77.4715 89.4738 77.3845 88.7107 77.2093C86.3654 76.669 84.313 75.3345 82.5827 73.2272C80.7689 75.23 78.758 76.4299 76.4908 76.8743C72.7463 77.613 68.5391 76.2355 63.643 72.6774C58.6659 69.0615 55.9639 65.2184 55.6135 61.2546C55.4022 58.8573 56.038 56.4932 57.507 54.1935C55.0415 53.0881 53.2775 51.5459 52.1554 49.5271C50.2989 46.1873 50.3058 41.7667 52.1761 36.0117C54.0782 30.1599 56.8984 26.4038 60.5595 24.8463C62.7722 23.9037 65.2204 23.7771 67.8596 24.4648C68.1496 21.7781 69.0714 19.6233 70.6453 17.9311C73.2464 15.1351 77.4526 13.7758 83.5045 13.7758C89.6577 13.7758 94.104 15.2973 96.7158 18.2987C98.2976 20.1136 99.172 22.4006 99.3343 25.1234C101.978 24.5677 104.314 24.7825 106.408 25.7533C109.873 27.3638 112.467 30.9441 114.336 36.6995C116.238 42.5514 116.164 47.249 114.118 50.6607C112.879 52.725 110.975 54.2648 108.433 55.2613C109.778 57.6036 110.298 59.8895 110.019 62.1825C109.558 65.9746 106.955 69.5475 102.059 73.104C98.0582 76.0099 94.3729 77.472 91.0678 77.472L91.067 77.4715ZM82.6966 66.7287C82.7223 66.7287 82.7476 66.7287 82.7753 66.7297C83.6219 66.7574 84.3918 67.2364 84.7905 67.9855C86.1844 70.5935 87.8612 72.1393 89.777 72.5801C92.2332 73.1461 95.4454 72.0348 99.2656 69.26C102.984 66.559 105.015 63.9846 105.303 61.6086C105.533 59.7309 104.714 57.7606 102.731 55.4079C102.184 54.7587 102.026 53.8666 102.313 53.069C102.603 52.2713 103.295 51.688 104.132 51.5396C107.043 51.021 109.03 49.9033 110.042 48.2171C111.35 46.0355 111.276 42.6542 109.816 38.1674C108.397 33.7979 106.577 31.0701 104.405 30.0602C102.689 29.2661 100.565 29.4318 97.7118 30.5911C96.9211 30.9078 96.028 30.7861 95.3576 30.265C94.6871 29.7445 94.3462 28.9049 94.4645 28.0642C94.8702 25.1361 94.4229 22.8991 93.1329 21.4171C91.463 19.4988 88.2231 18.5261 83.5053 18.5261C78.9107 18.5261 75.7529 19.4142 74.121 21.1677C72.8336 22.5512 72.3373 24.6258 72.559 27.6965C72.6193 28.5431 72.224 29.357 71.5224 29.834C70.8183 30.307 69.9162 30.3743 69.1518 30.0032C66.4938 28.7113 64.2276 28.4437 62.4177 29.217C60.0773 30.212 58.1511 32.9928 56.6935 37.4795C55.2729 41.849 55.1429 45.1265 56.3061 47.2195C57.2244 48.8721 59.0442 49.9854 62.0323 50.7226C62.8556 50.9255 63.5087 51.5529 63.7452 52.3682C63.9808 53.1847 63.7625 54.0639 63.1747 54.675C61.1234 56.8065 60.1713 58.8797 60.344 60.8376C60.5676 63.3714 62.617 66.062 66.4344 68.8344C70.1513 71.5354 73.2323 72.6715 75.5772 72.2124C77.4336 71.8492 79.054 70.4637 80.6775 67.8498C81.112 67.1507 81.8774 66.7286 82.6963 66.7286L82.6966 66.7287Z" fill="#FF4B00"/>
  <path d="M83.125 113.099C81.8124 113.099 80.75 112.036 80.75 110.724V70.3491C80.75 69.0374 81.8123 67.9741 83.125 67.9741C84.4377 67.9741 85.5 69.0374 85.5 70.3491V110.724C85.5 112.036 84.4377 113.099 83.125 113.099Z" fill="#FF4B00"/>
  <path d="M86.9428 100.196C85.2615 100.196 84.0967 100.031 83.9627 100.011C82.9305 99.8566 82.1166 99.0451 81.9632 98.0105C81.9053 97.6246 80.6179 88.4976 85.7459 83.3691C90.8714 78.2411 99.9959 79.5305 100.387 79.5865C101.422 79.7409 102.233 80.5523 102.387 81.5869C102.445 81.9729 103.732 91.0983 98.6041 96.2283C95.2385 99.5933 90.152 100.196 86.9424 100.196H86.9428ZM86.5251 95.4481C89.1485 95.5074 93.0495 95.0666 95.2459 92.8701C97.4423 90.6737 97.8737 86.7411 97.8247 84.1494C95.1993 84.1054 91.3004 84.5319 89.104 86.7282C86.9076 88.9245 86.4761 92.8557 86.5251 95.4479V95.4481Z" fill="#FF4B00"/>
  <path d="M79.3072 104.946C76.097 104.946 71.0111 104.344 67.6456 100.978C62.515 95.8494 63.806 86.722 63.8629 86.3369C64.0173 85.3023 64.8287 84.4909 65.8634 84.3365C66.2493 84.2796 75.3737 82.9891 80.5048 88.1191C85.6327 93.2471 84.3453 102.374 84.2874 102.761C84.1345 103.795 83.3201 104.607 82.288 104.761C82.1539 104.781 80.9871 104.946 79.3079 104.946H79.3072ZM68.4253 88.9108C68.3778 91.5005 68.8103 95.4258 71.0041 97.6202C73.1995 99.8166 77.1178 100.248 79.7249 100.198C79.7734 97.6084 79.3424 93.6747 77.1461 91.4783C74.8274 89.1602 70.7899 88.8723 68.4253 88.9108Z" fill="#FF4B00"/>
</svg>