<svg xmlns="http://www.w3.org/2000/svg" width="175" height="175" viewBox="0 0 175 175" fill="none">
  <path d="M80.0975 45.6838C79.0294 44.6156 79.0294 42.8855 80.0975 41.8168C81.1628 40.7516 82.8877 40.7487 83.9587 41.8117C84.7545 42.5938 86.4288 43.7503 87.4997 43.7503C88.5706 43.7503 90.2472 42.5916 91.043 41.8089C92.1191 40.7516 93.8497 40.7608 94.9042 41.8289C95.9672 42.897 95.9672 44.6191 94.9014 45.6832C94.5408 46.045 91.2589 49.2185 87.4992 49.2185C83.7395 49.2185 80.4576 46.0449 80.097 45.6832L80.0975 45.6838ZM131.25 76.5625C131.25 83.2059 128.03 87.5 123.047 87.5C121.651 87.5 120.393 87.2841 119.251 86.9064C117.383 89.4761 115.143 91.9394 112.569 94.2698L120.296 166.505C120.379 167.277 120.13 168.048 119.612 168.625C119.092 169.201 118.355 169.531 117.578 169.531C105.377 169.531 98.2387 163.444 95.7566 150.923L95.1983 148.087C93.8283 141.067 90.8057 125.596 87.4464 121.106C85.7323 123.27 84.704 127.896 83.1847 134.738C82.2049 139.152 80.9847 144.645 79.1982 151.118C75.6549 163.921 72.5224 169.531 57.4224 169.531C56.6613 169.531 55.935 169.215 55.4172 168.657C54.9016 168.098 54.6401 167.351 54.696 166.593C55.5282 155.499 61.3974 103.361 62.4251 94.264C59.8572 91.9408 57.6177 89.4789 55.7499 86.908C54.6083 87.2857 53.3499 87.501 51.9543 87.501C46.9715 87.501 43.7512 83.2069 43.7512 76.5635C43.7512 70.5724 45.6629 67.0604 49.3806 66.0025C50.4311 57.5095 57.0591 50.7411 65.4792 49.4607C62.9026 44.7297 62.8924 37.9683 62.8924 30.0794C62.8924 15.8203 73.2426 5.47003 87.5018 5.47003C101.761 5.47003 112.111 15.8203 112.111 30.0794C112.111 37.9693 112.101 44.7298 109.524 49.4607C117.944 50.7412 124.571 57.5099 125.623 66.0025C129.34 67.0604 131.252 70.5724 131.252 76.5635L131.25 76.5625ZM68.3594 30.0781C68.3594 41.3506 68.5952 47.3915 73.3326 49.6927C80.422 51.061 84.9896 55.0715 87.5 58.0872C90.0066 55.0776 94.5502 51.0735 101.613 49.7166C106.401 47.4356 106.641 41.3927 106.641 30.0787C106.641 18.8086 98.7685 10.9381 87.5 10.9381C76.2315 10.9381 68.3594 18.8086 68.3594 30.0787V30.0781ZM59.9455 71.0938H51.9531C50.6714 71.0938 49.2187 71.0938 49.2187 76.5625C49.2187 77.8454 49.4164 82.0312 51.9531 82.0312C57.7318 82.0312 59.4408 75.0859 59.9455 71.0938ZM107.518 98.4652C98.2785 105.387 88.927 109.022 88.4793 109.194C88.1642 109.315 87.8304 109.375 87.4994 109.375C87.1685 109.375 86.8346 109.315 86.5196 109.194C86.0713 109.022 76.7084 105.383 67.4534 98.4417C65.6361 114.584 61.6114 150.796 60.4073 163.981C69.6757 163.418 71.1101 159.835 73.9271 149.661C75.6759 143.323 76.8778 137.905 77.8469 133.552C80.1324 123.249 81.3959 117.573 86.2768 115.131C87.0458 114.746 87.9539 114.746 88.7229 115.131C94.4747 118.006 97.4893 131.282 100.566 147.038L101.118 149.855C103.23 160.49 108.766 163.308 114.521 163.915L107.518 98.4652ZM114.659 83.9366C110.65 79.7301 109.374 72.7546 109.374 68.3601C109.374 66.85 110.597 65.6257 112.109 65.6257H120.036C118.765 59.3931 113.242 54.6882 106.64 54.6882C105.468 54.6882 104.349 54.7725 103.313 54.9395C103.219 54.9662 103.123 54.9873 103.027 55.005C93.9076 56.567 90.0972 63.8183 89.9399 64.1264C89.47 65.0396 88.5272 65.6189 87.5018 65.6189H87.4887C86.4581 65.6149 85.5154 65.0355 85.0534 64.1144C84.9013 63.8194 81.1227 56.6246 72.0542 54.9969C72.0035 54.9918 71.9557 54.985 71.9073 54.977C70.8095 54.7862 69.6161 54.6888 68.3583 54.6888C61.7564 54.6888 56.2335 59.3936 54.9627 65.6263H62.8895C64.4008 65.6263 65.6239 66.8505 65.6239 68.3606C65.6239 72.755 64.3479 79.7311 60.3392 83.9371C62.1884 86.4384 64.4345 88.8476 67.0765 91.1125C75.058 98.0766 84.4788 102.399 87.499 103.686C90.5165 102.4 99.937 98.0796 107.905 91.1286C110.56 88.8505 112.809 86.4391 114.659 83.9372L114.659 83.9366ZM125.781 76.5629C125.781 71.0942 124.328 71.0942 123.046 71.0942H115.054C115.559 75.0864 117.268 82.0317 123.046 82.0317C125.583 82.0317 125.781 77.8458 125.781 76.5629Z" fill="#FF4B00"/>
</svg>