<svg xmlns="http://www.w3.org/2000/svg" width="143" height="143" viewBox="0 0 143 143" fill="none">
  <path fill-rule="evenodd" clip-rule="evenodd" d="M103.575 63.7351C103.072 63.8524 102.547 63.9194 101.977 63.9362H82.2136C77.985 63.9362 74.5497 60.5064 74.5497 56.2723C74.5497 52.0493 77.985 48.6196 82.2136 48.6196H98.1104L107.852 36.1404C109.053 34.3194 111.12 33.1241 113.46 33.1241H124.102C127.811 33.1241 130.822 36.1293 130.822 39.8384V81.7326C130.822 85.5311 128.989 89.4357 127.269 91.4857V131.588C127.269 136.179 123.325 139.927 118.734 139.927C114.137 139.927 110.288 136.185 110.288 131.588V91.4857C108.573 89.4357 106.735 85.5311 106.741 81.7326V62.1702C105.819 62.9299 103.624 63.7231 103.624 63.7231L103.575 63.7351ZM16.5296 38.7101L12.424 54.0444C12.167 54.9885 12.1223 55.9492 12.2508 56.8766L14.2617 78.1597C14.4293 79.936 15.256 81.5057 16.4682 82.6844C16.7308 86.1644 18.4121 89.6109 19.9817 91.4878V131.59C19.9817 133.897 20.9704 135.986 22.5401 137.5C24.0763 139.002 26.1821 139.93 28.478 139.93H28.5226L28.5394 139.807C28.6232 139.276 28.9137 137.137 28.5115 137.137H28.478C26.9362 137.137 25.5174 136.511 24.4896 135.5C24.4896 135.494 24.484 135.494 24.4784 135.494C23.4394 134.489 22.7747 133.115 22.7747 131.59V90.9517C22.7747 90.5942 22.635 90.2478 22.3837 89.9797C21.3391 88.896 20.1717 86.8292 19.5962 84.539C20.5458 84.8351 21.5569 84.9524 22.5903 84.8519C26.6681 84.472 29.8966 80.7965 29.5057 76.7187L27.6009 56.5581L29.9861 47.6709C30.1816 46.928 29.7404 46.1627 28.9918 45.9616C28.2545 45.7605 27.4837 46.2074 27.2825 46.9447L24.8359 56.0778C24.7968 56.2397 24.78 56.4073 24.7968 56.5749L26.724 76.9751C26.9697 79.5501 24.8974 81.8348 22.3222 82.075C21.0485 82.1923 19.8029 81.8013 18.8366 81.064C18.7639 80.9858 18.6801 80.9187 18.5908 80.8573C17.7417 80.1143 17.1552 79.081 17.0435 77.8911L15.027 56.5865V56.5921L15.0158 56.5195C14.9376 55.9497 14.9599 55.3576 15.1163 54.7654L19.2444 39.3763C19.25 39.3539 19.2556 39.3372 19.2612 39.3092V39.2869C19.2723 39.2701 19.2723 39.2478 19.2723 39.2254C19.574 37.3486 21.1939 35.9186 23.1489 35.9186H33.8405C36.0079 35.9186 37.7674 37.6726 37.7674 39.8399V81.7401C37.7729 85.0413 36.0748 88.46 34.6113 89.9794C34.36 90.2475 34.2203 90.5938 34.2203 90.9513V131.59C34.2203 133.115 33.5556 134.489 32.511 135.494L32.5054 135.5C31.472 136.511 30.0644 137.136 28.5226 137.136C29.2935 137.136 29.9191 137.762 29.9191 138.533C29.9191 139.304 29.2935 139.929 28.5226 139.929H28.7349C30.9469 139.874 32.969 138.957 34.4549 137.499C36.0302 135.986 37.0133 133.897 37.0133 131.59V91.4875C38.7282 89.4375 40.5659 85.5329 40.5604 81.7345V39.8402C40.5604 36.1927 37.6445 33.2153 34.0192 33.1259H23.149C19.8309 33.1259 17.0659 35.5446 16.5296 38.7118L16.5296 38.7101ZM113.462 35.917H124.103C126.271 35.917 128.03 37.6711 128.03 39.8383V81.7385C128.03 85.0398 126.338 88.4585 124.869 89.9778C124.623 90.246 124.478 90.5923 124.478 90.9498V131.588C124.478 134.66 121.808 137.135 118.735 137.135C115.663 137.135 113.082 134.655 113.082 131.588V90.9498C113.082 90.5923 112.943 90.246 112.691 89.9778C111.228 88.4585 109.53 85.0398 109.535 81.7385V58.395C109.535 57.7917 109.161 57.2666 108.591 57.0712C108.033 56.8757 107.407 57.0656 107.038 57.5348L105.681 59.272C104.971 60.1769 104.011 60.7635 102.972 61.0092L102.949 61.0148C102.625 61.0874 101.95 61.1433 101.95 61.1433H82.2143C79.5275 61.1433 77.3434 58.9648 77.3434 56.2723C77.3434 53.5911 79.5275 51.4126 82.2143 51.4126H98.794C99.2241 51.4126 99.6319 51.2115 99.8944 50.8763L110.094 37.8109C110.122 37.7774 110.145 37.7439 110.161 37.7104C110.865 36.6323 112.077 35.9173 113.463 35.9173L113.462 35.917ZM12.6358 57.6913C12.8928 57.9594 13.2447 58.1158 13.6413 58.1158H13.6357C13.2503 58.1158 12.8928 57.9594 12.6358 57.6913ZM12.6079 57.6634L12.6358 57.6913L12.5912 57.6466L12.6079 57.6634ZM12.5688 57.6131L12.5912 57.6466L12.5577 57.6019L12.5688 57.6131ZM12.5242 57.5684L12.5521 57.6019L12.513 57.5572L12.5242 57.5684ZM12.4906 57.5126L12.513 57.5517L12.4795 57.5014L12.4906 57.5126ZM12.256 56.9316C12.2728 57.0322 12.3007 57.1383 12.3342 57.2332C12.3789 57.3282 12.4236 57.4232 12.4795 57.5014C12.3678 57.3338 12.2895 57.1439 12.256 56.9316ZM75.953 27.0406C72.1043 23.2534 65.8704 23.4935 62.5968 25.8228C58.9212 28.4426 58.5861 33.6766 62.2505 38.9169C64.563 42.4249 70.4283 45.9943 75.3552 48.3291C75.7351 48.5079 76.1708 48.5079 76.5506 48.3291C81.4774 45.9942 87.3426 42.4192 89.6553 38.9113C93.3197 33.6828 92.9846 28.4432 89.309 25.8232C86.0356 23.4938 79.7962 23.2537 75.9528 27.041L75.953 27.0406ZM74.8079 29.9956C75.0704 30.3698 75.5005 30.5877 75.953 30.5877C76.4055 30.5877 76.83 30.3698 77.0981 29.9956C79.7459 26.2194 85.0357 26.2083 87.6891 28.0963C90.2809 29.9453 89.9458 33.6375 87.3539 37.3298C87.3427 37.341 87.3316 37.3577 87.326 37.3689C85.3318 40.4133 80.2988 43.4017 75.9529 45.5188C71.6014 43.4017 66.5742 40.4133 64.5744 37.3689C64.5688 37.3577 64.5633 37.341 64.5521 37.3298C61.9602 33.6375 61.6251 29.9452 64.2169 28.0963C66.8647 26.2082 72.1601 26.2194 74.8079 29.9956ZM35.3947 4.62975C28.401 4.62975 22.7261 10.3051 22.7261 17.2936C22.7261 24.2872 28.4014 29.9622 35.3947 29.9622C42.3827 29.9622 48.0585 24.2869 48.0585 17.2936C48.0585 10.3055 42.3832 4.62975 35.3947 4.62975ZM117.324 3.07129C110.336 3.07129 104.66 8.7466 104.66 15.7399C104.66 22.728 110.336 28.4037 117.324 28.4037C124.312 28.4037 129.988 22.7284 129.988 15.7399C129.988 8.74624 124.313 3.07129 117.324 3.07129ZM35.3947 7.42278C40.841 7.42278 45.265 11.8468 45.265 17.2931C45.265 22.745 40.841 27.1691 35.3947 27.1691C29.9428 27.1691 25.5188 22.745 25.5188 17.2931C25.5188 11.8468 29.9428 7.42278 35.3947 7.42278ZM117.324 5.86432C122.776 5.86432 127.194 10.2884 127.194 15.7403C127.194 21.1865 122.776 25.6106 117.324 25.6106C111.878 25.6106 107.454 21.1865 107.454 15.7403C107.454 10.2884 111.878 5.86432 117.324 5.86432Z" fill="#FF4B00"/>
  <path d="M28.478 139.93C26.1821 139.93 24.0763 139.002 22.5401 137.5C20.9704 135.986 19.9817 133.897 19.9817 131.59V91.4878C18.4121 89.6109 16.7308 86.1644 16.4682 82.6844C15.256 81.5057 14.4293 79.936 14.2617 78.1597L12.2508 56.8766C12.1223 55.9492 12.167 54.9885 12.424 54.0444L16.5296 38.7101L16.5296 38.7118C17.0659 35.5446 19.8309 33.1259 23.149 33.1259H34.0192C37.6445 33.2153 40.5604 36.1927 40.5604 39.8402V81.7345C40.5659 85.5329 38.7282 89.4375 37.0133 91.4875V131.59C37.0133 133.897 36.0302 135.986 34.4549 137.499C32.969 138.957 30.9469 139.874 28.7349 139.929H28.5226C29.2935 139.929 29.9191 139.304 29.9191 138.533C29.9191 137.762 29.2935 137.136 28.5226 137.136C30.0644 137.136 31.472 136.511 32.5054 135.5L32.511 135.494C33.5556 134.489 34.2203 133.114 34.2203 131.59V90.9513C34.2203 90.5938 34.36 90.2475 34.6113 89.9794C36.0748 88.46 37.7729 85.0413 37.7674 81.7401V39.8399C37.7674 37.6726 36.0079 35.9186 33.8405 35.9186H23.1489C21.1939 35.9186 19.574 37.3486 19.2723 39.2254C19.2723 39.2478 19.2723 39.2701 19.2612 39.2869V39.3092C19.2556 39.3372 19.25 39.3539 19.2444 39.3763L15.1163 54.7654C14.9599 55.3576 14.9376 55.9497 15.0158 56.5195L15.027 56.5921V56.5865L17.0435 77.8911C17.1552 79.081 17.7417 80.1144 18.5908 80.8573C18.6801 80.9187 18.7639 80.9858 18.8366 81.064C19.8029 81.8013 21.0485 82.1923 22.3222 82.075C24.8974 81.8348 26.9697 79.5501 26.724 76.975L24.7968 56.5749C24.78 56.4073 24.7968 56.2397 24.8359 56.0778L27.2825 46.9447C27.4837 46.2074 28.2545 45.7605 28.9918 45.9616C29.7404 46.1627 30.1816 46.928 29.9861 47.6709L27.6009 56.5581L29.5057 76.7187C29.8966 80.7965 26.6681 84.472 22.5903 84.8519C21.5569 84.9524 20.5458 84.8351 19.5962 84.539C20.1717 86.8292 21.3391 88.896 22.3837 89.9797C22.635 90.2478 22.7747 90.5942 22.7747 90.9517V131.59C22.7747 133.115 23.4394 134.489 24.4784 135.494C24.484 135.494 24.4896 135.494 24.4896 135.5C25.5174 136.511 26.9362 137.137 28.478 137.137H28.5115C28.9137 137.137 28.6232 139.276 28.5394 139.807L28.5226 139.93H28.478ZM28.478 139.93V139.891M103.586 63.7353H103.564M12.6358 57.6913C12.8928 57.9594 13.2447 58.1158 13.6413 58.1158M12.6358 57.6913C12.8928 57.9594 13.2503 58.1158 13.6357 58.1158H13.6413M12.6358 57.6913L12.6079 57.6634L12.5912 57.6466M12.6358 57.6913L12.5912 57.6466M13.6413 58.1158C13.9653 58.1158 14.2837 58.0041 14.5351 57.7918M12.5912 57.6466L12.5688 57.6131L12.5577 57.6019L12.5912 57.6466ZM12.4795 57.5014L12.513 57.5517L12.4906 57.5126L12.4795 57.5014ZM12.4795 57.5014C12.4236 57.4232 12.3789 57.3282 12.3342 57.2332C12.3007 57.1383 12.2728 57.0322 12.256 56.9316C12.2895 57.1439 12.3678 57.3338 12.4795 57.5014ZM12.256 56.9204V56.9093M103.575 63.7351C103.072 63.8524 102.547 63.9194 101.977 63.9362H82.2136C77.985 63.9362 74.5497 60.5064 74.5497 56.2723C74.5497 52.0493 77.985 48.6196 82.2136 48.6196H98.1104L107.852 36.1404C109.053 34.3194 111.12 33.1241 113.46 33.1241H124.102C127.811 33.1241 130.822 36.1293 130.822 39.8384V81.7326C130.822 85.5311 128.989 89.4357 127.269 91.4857V131.588C127.269 136.179 123.325 139.927 118.734 139.927C114.137 139.927 110.288 136.185 110.288 131.588V91.4857C108.573 89.4357 106.735 85.5311 106.741 81.7326V62.1702C105.819 62.9299 103.624 63.7231 103.624 63.7231L103.575 63.7351ZM113.462 35.917H124.103C126.271 35.917 128.03 37.6711 128.03 39.8383V81.7385C128.03 85.0398 126.338 88.4585 124.869 89.9778C124.623 90.246 124.478 90.5923 124.478 90.9498V131.588C124.478 134.66 121.808 137.135 118.735 137.135C115.663 137.135 113.082 134.655 113.082 131.588V90.9498C113.082 90.5923 112.943 90.246 112.691 89.9778C111.228 88.4585 109.53 85.0398 109.535 81.7385V58.395C109.535 57.7917 109.161 57.2666 108.591 57.0712C108.033 56.8757 107.407 57.0656 107.038 57.5348L105.681 59.272C104.971 60.1769 104.011 60.7635 102.972 61.0092L102.949 61.0148C102.625 61.0874 101.95 61.1433 101.95 61.1433H82.2143C79.5275 61.1433 77.3434 58.9648 77.3434 56.2723C77.3434 53.5911 79.5275 51.4126 82.2143 51.4126H98.794C99.2241 51.4126 99.6319 51.2115 99.8944 50.8763L110.094 37.8109C110.122 37.7774 110.145 37.7439 110.161 37.7104C110.865 36.6323 112.077 35.9173 113.463 35.9173L113.462 35.917ZM12.5242 57.5684L12.5521 57.6019L12.513 57.5572L12.5242 57.5684ZM75.953 27.0406C72.1043 23.2534 65.8704 23.4935 62.5968 25.8228C58.9212 28.4426 58.5861 33.6766 62.2505 38.9169C64.563 42.4249 70.4283 45.9943 75.3552 48.3291C75.7351 48.5079 76.1708 48.5079 76.5506 48.3291C81.4774 45.9942 87.3426 42.4192 89.6553 38.9113C93.3197 33.6828 92.9846 28.4432 89.309 25.8232C86.0356 23.4938 79.7962 23.2537 75.9528 27.0409L75.953 27.0406ZM74.8079 29.9956C75.0704 30.3698 75.5005 30.5877 75.953 30.5877C76.4055 30.5877 76.83 30.3698 77.0981 29.9956C79.7459 26.2194 85.0357 26.2083 87.6891 28.0963C90.2809 29.9453 89.9458 33.6375 87.3539 37.3298C87.3427 37.341 87.3316 37.3577 87.326 37.3689C85.3318 40.4133 80.2988 43.4017 75.9529 45.5188C71.6014 43.4017 66.5742 40.4133 64.5744 37.3689C64.5688 37.3577 64.5633 37.341 64.5521 37.3298C61.9602 33.6375 61.6251 29.9452 64.2169 28.0963C66.8647 26.2082 72.1601 26.2194 74.8079 29.9956ZM35.3947 4.62975C28.401 4.62975 22.7261 10.3051 22.7261 17.2936C22.7261 24.2872 28.4014 29.9622 35.3947 29.9622C42.3827 29.9622 48.0585 24.2869 48.0585 17.2936C48.0585 10.3055 42.3832 4.62975 35.3947 4.62975ZM117.324 3.07129C110.336 3.07129 104.66 8.7466 104.66 15.7399C104.66 22.728 110.336 28.4037 117.324 28.4037C124.312 28.4037 129.988 22.7284 129.988 15.7399C129.988 8.74624 124.313 3.07129 117.324 3.07129ZM35.3947 7.42278C40.841 7.42278 45.265 11.8468 45.265 17.2931C45.265 22.745 40.841 27.1691 35.3947 27.1691C29.9428 27.1691 25.5188 22.745 25.5188 17.2931C25.5188 11.8468 29.9428 7.42278 35.3947 7.42278ZM117.324 5.86432C122.776 5.86432 127.194 10.2884 127.194 15.7403C127.194 21.1865 122.776 25.6106 117.324 25.6106C111.878 25.6106 107.454 21.1865 107.454 15.7403C107.454 10.2884 111.878 5.86432 117.324 5.86432Z" stroke="#FF4B00" stroke-width="2"/>
</svg>