<svg xmlns="http://www.w3.org/2000/svg" width="137" height="137" viewBox="0 0 137 137" fill="none">
  <path d="M16.4165 67.1513C16.5281 67.1513 16.645 67.1407 16.7565 67.1248C55.3941 60.8666 89.4848 46.0176 118.193 23.0086L117.577 38.3562C117.529 39.5303 118.443 40.5184 119.617 40.5662H119.702C120.834 40.5662 121.779 39.6684 121.822 38.5262L122.629 18.4878C122.635 18.3815 122.592 18.2912 122.581 18.185C122.565 18.0256 122.56 17.8715 122.507 17.7175C122.454 17.5634 122.364 17.4359 122.279 17.2978C122.225 17.2128 122.204 17.1118 122.135 17.0321C122.125 17.0215 122.109 17.0162 122.098 17.0003C121.992 16.8781 121.854 16.7984 121.726 16.7028C121.63 16.6337 121.545 16.5434 121.439 16.4956C121.344 16.4478 121.227 16.4371 121.126 16.4053C120.966 16.3575 120.812 16.299 120.642 16.2884C120.626 16.2884 120.61 16.2778 120.595 16.2778L100.556 15.4703C99.382 15.3587 98.3939 16.3362 98.3461 17.5103C98.2982 18.6843 99.212 19.6724 100.386 19.7203L114.794 20.2993C86.8189 42.5002 53.6474 56.8493 16.083 62.9331C14.9249 63.1243 14.1387 64.2134 14.3246 65.3716C14.4946 66.4128 15.3977 67.1566 16.423 67.1566L16.4165 67.1513Z" fill="#FF4B00"/>
  <path d="M106.123 77.4828H102.649C101.443 77.4828 100.46 76.5 100.46 75.2941C100.46 74.0882 101.443 73.1054 102.649 73.1054H106.394C107.032 73.1054 107.627 73.4189 107.988 73.9501C108.641 74.9223 109.969 75.1826 110.936 74.5185C111.909 73.8651 112.164 72.5422 111.505 71.5701C110.379 69.9019 108.514 68.9032 106.506 68.866V68.0214C106.506 66.8473 105.555 65.8964 104.381 65.8964C103.207 65.8964 102.256 66.8473 102.256 68.0214V68.8926C98.8877 69.0998 96.2048 71.8729 96.2048 75.2941C96.2048 78.8482 99.0948 81.7328 102.644 81.7328H106.118C107.324 81.7328 108.307 82.7156 108.307 83.9215C108.307 85.1274 107.324 86.1102 106.118 86.1102H102.373C101.863 86.1102 101.379 85.9083 101.018 85.5524C100.189 84.7236 98.845 84.7236 98.011 85.5524C97.1823 86.3811 97.1823 87.7252 98.011 88.5592C99.1479 89.6961 100.651 90.3229 102.256 90.3549V91.1943C102.256 92.3683 103.207 93.3193 104.381 93.3193C105.555 93.3193 106.506 92.3683 106.506 91.1943V90.323C109.874 90.1158 112.557 87.3427 112.557 83.9215C112.557 80.3728 109.667 77.4828 106.118 77.4828L106.123 77.4828Z" fill="#FF4B00"/>
  <path d="M125.28 97.8148H117.487C123.144 93.7348 126.847 87.0995 126.847 79.6089C126.847 69.6374 120.435 60.9928 110.889 58.105C108.78 57.4729 106.596 57.1541 104.392 57.1541C92.0076 57.1541 81.9357 67.2266 81.9357 79.61C81.9357 82.9303 82.6476 86.139 84.05 89.1406C85.7129 92.6841 88.2787 95.6166 91.36 97.816H85.1337C82.4562 97.816 80.2834 99.9888 80.2834 102.666V111.804C80.2834 112.011 80.3206 112.202 80.3418 112.404H77.2659C74.5884 112.404 72.4155 114.582 72.4155 117.254V126.392C72.4155 129.069 74.5937 131.242 77.2659 131.242H117.407C120.085 131.242 122.258 129.064 122.258 126.392V117.254C122.258 117.047 122.221 116.851 122.199 116.654H125.281C127.958 116.654 130.131 114.481 130.131 111.804V102.666C130.131 99.9888 127.958 97.816 125.281 97.816L125.28 97.8148ZM87.9015 87.3333C86.7647 84.9001 86.1856 82.3023 86.1856 79.6036C86.1856 69.5683 94.3562 61.3977 104.391 61.3977C106.182 61.3977 107.956 61.658 109.661 62.168C117.396 64.5109 122.597 71.518 122.597 79.6032C122.597 89.6439 114.427 97.8091 104.391 97.8091C97.363 97.8091 90.8866 93.6919 87.9014 87.3276L87.9015 87.3333ZM118.013 117.253V126.391C118.013 126.72 117.742 126.991 117.413 126.991H77.2712C76.9419 126.991 76.6709 126.72 76.6709 126.391V117.253C76.6709 116.924 76.9419 116.653 77.2712 116.653H117.413C117.742 116.653 118.013 116.924 118.013 117.253ZM125.881 111.803C125.881 112.132 125.61 112.403 125.281 112.403H85.1334C84.804 112.403 84.5331 112.132 84.5331 111.803V102.665C84.5331 102.336 84.804 102.065 85.1334 102.065H125.281C125.61 102.065 125.881 102.336 125.881 102.665V111.803Z" fill="#FF4B00"/>
  <path d="M59.7348 97.8148H19.5933C16.9158 97.8148 14.7429 99.9876 14.7429 102.665V111.803C14.7429 112.01 14.7801 112.201 14.8014 112.403H11.7201C9.04256 112.403 6.86974 114.581 6.86974 117.253V126.391C6.86974 129.068 9.04789 131.241 11.7201 131.241H51.8616C54.5391 131.241 56.7119 129.063 56.7119 126.391V117.253C56.7119 117.046 56.6747 116.85 56.6535 116.653H59.7348C62.4123 116.653 64.5851 114.48 64.5851 111.803V102.665C64.5851 99.9876 62.407 97.8148 59.7348 97.8148ZM52.4673 117.254V126.391C52.4673 126.721 52.1964 126.992 51.867 126.992L11.7254 126.997C11.3961 126.997 11.1251 126.726 11.1251 126.397V117.259C11.1251 116.93 11.3961 116.659 11.7254 116.659H51.867C52.1964 116.659 52.4673 116.93 52.4673 117.259V117.254ZM60.3351 111.803C60.3351 112.132 60.0642 112.403 59.7348 112.403H19.5933C19.2639 112.403 18.993 112.132 18.993 111.803V102.666C18.993 102.336 19.2639 102.065 19.5933 102.065H59.7348C60.0642 102.065 60.3351 102.336 60.3351 102.666V111.803Z" fill="#FF4B00"/>
</svg>